<?xml version="1.0" encoding="UTF-8" standalone="yes"?><svg xmlns="http://www.w3.org/2000/svg" xmlns:xlink="http://www.w3.org/1999/xlink" height="5237.5px" style="width:4012px;height:5237px;" version="1.1" viewBox="0 0 4012 5237" width="4012.5px"><defs><filter height="300%" id="f1" width="300%" x="-1" y="-1"><feGaussianBlur result="blurOut" stdDeviation="6.25"/><feColorMatrix in="blurOut" result="blurOut2" type="matrix" values="0 0 0 0 0 0 0 0 0 0 0 0 0 0 0 0 0 0 .4 0"/><feOffset dx="12.5" dy="12.5" in="blurOut2" result="blurOut3"/><feBlend in="SourceGraphic" in2="blurOut3" mode="normal"/></filter></defs><g><text fill="#000000" font-family="sans-serif" font-size="43.75" font-weight="bold" lengthAdjust="spacingAndGlyphs" textLength="1343.75" x="1331.25" y="73.5474">cascading-conference-mrb-sequence without extra bridges</text><rect fill="#FFFFFF" filter="url(#f1)" height="268.1152" style="stroke: #000000; stroke-width: 6.25;" width="1418.75" x="692.1875" y="698.5291"/><rect fill="#90EE90" height="5127.6672" style="stroke: #A80036; stroke-width: 3.125;" width="1876.5625" x="12.5" y="107.7759"/><text fill="#000000" font-family="sans-serif" font-size="40.625" font-weight="bold" lengthAdjust="spacingAndGlyphs" textLength="240.625" x="830.4688" y="147.052">RC1 Master</text><rect fill="#ADD8E6" height="5127.6672" style="stroke: #A80036; stroke-width: 3.125;" width="215.625" x="1895.3125" y="107.7759"/><text fill="#000000" font-family="sans-serif" font-size="40.625" font-weight="bold" lengthAdjust="spacingAndGlyphs" textLength="196.875" x="1904.6875" y="147.052">Database</text><rect fill="#FFB6C1" height="5127.6672" style="stroke: #A80036; stroke-width: 3.125;" width="1876.5625" x="2117.1875" y="107.7759"/><text fill="#000000" font-family="sans-serif" font-size="40.625" font-weight="bold" lengthAdjust="spacingAndGlyphs" textLength="206.25" x="2952.3438" y="147.052">RC2 Slave</text><line style="stroke: #A80036; stroke-width: 3.125; stroke-dasharray: 5.0,5.0;" x1="212.5" x2="212.5" y1="279.0222" y2="5115.1672"/><line style="stroke: #A80036; stroke-width: 3.125; stroke-dasharray: 5.0,5.0;" x1="810.9375" x2="810.9375" y1="279.0222" y2="5115.1672"/><line style="stroke: #A80036; stroke-width: 3.125; stroke-dasharray: 5.0,5.0;" x1="1035.9375" x2="1035.9375" y1="279.0222" y2="5115.1672"/><line style="stroke: #A80036; stroke-width: 3.125; stroke-dasharray: 5.0,5.0;" x1="1789.0625" x2="1789.0625" y1="279.0222" y2="5115.1672"/><line style="stroke: #A80036; stroke-width: 3.125; stroke-dasharray: 5.0,5.0;" x1="2001.5625" x2="2001.5625" y1="279.0222" y2="5115.1672"/><line style="stroke: #A80036; stroke-width: 3.125; stroke-dasharray: 5.0,5.0;" x1="2217.1875" x2="2217.1875" y1="279.0222" y2="5115.1672"/><line style="stroke: #A80036; stroke-width: 3.125; stroke-dasharray: 5.0,5.0;" x1="2970.3125" x2="2970.3125" y1="279.0222" y2="5115.1672"/><line style="stroke: #A80036; stroke-width: 3.125; stroke-dasharray: 5.0,5.0;" x1="3195.3125" x2="3195.3125" y1="279.0222" y2="5115.1672"/><line style="stroke: #A80036; stroke-width: 3.125; stroke-dasharray: 5.0,5.0;" x1="3790.625" x2="3790.625" y1="279.0222" y2="5115.1672"/><rect fill="#FEFECE" filter="url(#f1)" height="95.2759" style="stroke: #A80036; stroke-width: 4.6875;" width="365.625" x="25" y="168.1213"/><text fill="#000000" font-family="sans-serif" font-size="43.75" lengthAdjust="spacingAndGlyphs" textLength="321.875" x="46.875" y="232.2937">CnfController1</text><rect fill="#FEFECE" filter="url(#f1)" height="95.2759" style="stroke: #A80036; stroke-width: 4.6875;" width="365.625" x="25" y="5112.0422"/><text fill="#000000" font-family="sans-serif" font-size="43.75" lengthAdjust="spacingAndGlyphs" textLength="321.875" x="46.875" y="5176.2146">CnfController1</text><rect fill="#FEFECE" filter="url(#f1)" height="95.2759" style="stroke: #A80036; stroke-width: 4.6875;" width="162.5" x="723.4375" y="168.1213"/><text fill="#000000" font-family="sans-serif" font-size="43.75" lengthAdjust="spacingAndGlyphs" textLength="118.75" x="745.3125" y="232.2937">MRB1</text><rect fill="#FEFECE" filter="url(#f1)" height="95.2759" style="stroke: #A80036; stroke-width: 4.6875;" width="162.5" x="723.4375" y="5112.0422"/><text fill="#000000" font-family="sans-serif" font-size="43.75" lengthAdjust="spacingAndGlyphs" textLength="118.75" x="745.3125" y="5176.2146">MRB1</text><rect fill="#FEFECE" filter="url(#f1)" height="95.2759" style="stroke: #A80036; stroke-width: 4.6875;" width="200" x="929.6875" y="168.1213"/><text fill="#000000" font-family="sans-serif" font-size="43.75" lengthAdjust="spacingAndGlyphs" textLength="156.25" x="951.5625" y="232.2937">CMRC1</text><rect fill="#FEFECE" filter="url(#f1)" height="95.2759" style="stroke: #A80036; stroke-width: 4.6875;" width="200" x="929.6875" y="5112.0422"/><text fill="#000000" font-family="sans-serif" font-size="43.75" lengthAdjust="spacingAndGlyphs" textLength="156.25" x="951.5625" y="5176.2146">CMRC1</text><rect fill="#FEFECE" filter="url(#f1)" height="95.2759" style="stroke: #A80036; stroke-width: 4.6875;" width="162.5" x="1701.5625" y="168.1213"/><text fill="#000000" font-family="sans-serif" font-size="43.75" lengthAdjust="spacingAndGlyphs" textLength="118.75" x="1723.4375" y="232.2937">RMS1</text><rect fill="#FEFECE" filter="url(#f1)" height="95.2759" style="stroke: #A80036; stroke-width: 4.6875;" width="162.5" x="1701.5625" y="5112.0422"/><text fill="#000000" font-family="sans-serif" font-size="43.75" lengthAdjust="spacingAndGlyphs" textLength="118.75" x="1723.4375" y="5176.2146">RMS1</text><rect fill="#FEFECE" filter="url(#f1)" height="95.2759" style="stroke: #A80036; stroke-width: 4.6875;" width="140.625" x="1926.5625" y="168.1213"/><text fill="#000000" font-family="sans-serif" font-size="43.75" lengthAdjust="spacingAndGlyphs" textLength="96.875" x="1948.4375" y="232.2937">DAO</text><rect fill="#FEFECE" filter="url(#f1)" height="95.2759" style="stroke: #A80036; stroke-width: 4.6875;" width="140.625" x="1926.5625" y="5112.0422"/><text fill="#000000" font-family="sans-serif" font-size="43.75" lengthAdjust="spacingAndGlyphs" textLength="96.875" x="1948.4375" y="5176.2146">DAO</text><rect fill="#FEFECE" filter="url(#f1)" height="95.2759" style="stroke: #A80036; stroke-width: 4.6875;" width="162.5" x="2129.6875" y="168.1213"/><text fill="#000000" font-family="sans-serif" font-size="43.75" lengthAdjust="spacingAndGlyphs" textLength="118.75" x="2151.5625" y="232.2937">RMS2</text><rect fill="#FEFECE" filter="url(#f1)" height="95.2759" style="stroke: #A80036; stroke-width: 4.6875;" width="162.5" x="2129.6875" y="5112.0422"/><text fill="#000000" font-family="sans-serif" font-size="43.75" lengthAdjust="spacingAndGlyphs" textLength="118.75" x="2151.5625" y="5176.2146">RMS2</text><rect fill="#FEFECE" filter="url(#f1)" height="95.2759" style="stroke: #A80036; stroke-width: 4.6875;" width="200" x="2864.0625" y="168.1213"/><text fill="#000000" font-family="sans-serif" font-size="43.75" lengthAdjust="spacingAndGlyphs" textLength="156.25" x="2885.9375" y="232.2937">CMRC2</text><rect fill="#FEFECE" filter="url(#f1)" height="95.2759" style="stroke: #A80036; stroke-width: 4.6875;" width="200" x="2864.0625" y="5112.0422"/><text fill="#000000" font-family="sans-serif" font-size="43.75" lengthAdjust="spacingAndGlyphs" textLength="156.25" x="2885.9375" y="5176.2146">CMRC2</text><rect fill="#FEFECE" filter="url(#f1)" height="95.2759" style="stroke: #A80036; stroke-width: 4.6875;" width="162.5" x="3107.8125" y="168.1213"/><text fill="#000000" font-family="sans-serif" font-size="43.75" lengthAdjust="spacingAndGlyphs" textLength="118.75" x="3129.6875" y="232.2937">MRB2</text><rect fill="#FEFECE" filter="url(#f1)" height="95.2759" style="stroke: #A80036; stroke-width: 4.6875;" width="162.5" x="3107.8125" y="5112.0422"/><text fill="#000000" font-family="sans-serif" font-size="43.75" lengthAdjust="spacingAndGlyphs" textLength="118.75" x="3129.6875" y="5176.2146">MRB2</text><rect fill="#FEFECE" filter="url(#f1)" height="95.2759" style="stroke: #A80036; stroke-width: 4.6875;" width="365.625" x="3603.125" y="168.1213"/><text fill="#000000" font-family="sans-serif" font-size="43.75" lengthAdjust="spacingAndGlyphs" textLength="321.875" x="3625" y="232.2937">CnfController2</text><rect fill="#FEFECE" filter="url(#f1)" height="95.2759" style="stroke: #A80036; stroke-width: 4.6875;" width="365.625" x="3603.125" y="5112.0422"/><text fill="#000000" font-family="sans-serif" font-size="43.75" lengthAdjust="spacingAndGlyphs" textLength="321.875" x="3625" y="5176.2146">CnfController2</text><rect fill="#EEEEEE" filter="url(#f1)" height="9.375" style="stroke: #EEEEEE; stroke-width: 3.125;" width="3987.5" x="9.375" y="374.8199"/><line style="stroke: #000000; stroke-width: 3.125;" x1="9.375" x2="3996.875" y1="374.8199" y2="374.8199"/><line style="stroke: #000000; stroke-width: 3.125;" x1="9.375" x2="3996.875" y1="384.1949" y2="384.1949"/><rect fill="#EEEEEE" filter="url(#f1)" height="72.8455" style="stroke: #000000; stroke-width: 6.25;" width="937.5" x="1534.375" y="341.5222"/><text fill="#000000" font-family="sans-serif" font-size="40.625" font-weight="bold" lengthAdjust="spacingAndGlyphs" textLength="893.75" x="1553.125" y="393.2983">1st participant (aka Master) enters on RC1</text><polygon fill="#A80036" points="773.4375,545.6177,804.6875,558.1177,773.4375,570.6177,785.9375,558.1177" style="stroke: #A80036; stroke-width: 3.125;"/><line style="stroke: #A80036; stroke-width: 3.125;" x1="214.0625" x2="792.1875" y1="558.1177" y2="558.1177"/><text fill="#000000" font-family="sans-serif" font-size="40.625" lengthAdjust="spacingAndGlyphs" textLength="343.75" x="235.9375" y="497.3938">GetMediaGateway</text><text fill="#000000" font-family="sans-serif" font-size="40.625" lengthAdjust="spacingAndGlyphs" textLength="206.25" x="235.9375" y="545.2393">(cnf name)</text><polygon fill="#A80036" points="248.4375,638.1836,217.1875,650.6836,248.4375,663.1836,235.9375,650.6836" style="stroke: #A80036; stroke-width: 3.125;"/><line style="stroke: #A80036; stroke-width: 3.125;" x1="229.6875" x2="807.8125" y1="650.6836" y2="650.6836"/><text fill="#000000" font-family="sans-serif" font-size="40.625" lengthAdjust="spacingAndGlyphs" textLength="450" x="267.1875" y="636.8347">MediaGateway to RMS1</text><rect fill="none" height="268.1152" style="stroke: #000000; stroke-width: 6.25;" width="1418.75" x="692.1875" y="698.5291"/><polygon fill="#EEEEEE" points="692.1875,698.5291,885.9375,698.5291,885.9375,720.4041,854.6875,751.6541,692.1875,751.6541,692.1875,698.5291" style="stroke: #000000; stroke-width: 6.25;"/><text fill="#000000" font-family="sans-serif" font-size="40.625" font-weight="bold" lengthAdjust="spacingAndGlyphs" textLength="53.125" x="739.0625" y="740.9302">alt</text><text fill="#000000" font-family="sans-serif" font-size="34.375" font-weight="bold" lengthAdjust="spacingAndGlyphs" textLength="331.25" x="932.8125" y="738.0127">[If there is no conf</text><text fill="#000000" font-family="sans-serif" font-size="34.375" font-weight="bold" lengthAdjust="spacingAndGlyphs" textLength="306.25" x="932.8125" y="778.4973">in 'Running' state</text><text fill="#000000" font-family="sans-serif" font-size="34.375" font-weight="bold" lengthAdjust="spacingAndGlyphs" textLength="406.25" x="932.8125" y="818.9819">in DB with same name]</text><polygon fill="#A80036" points="1965.625,927.2034,1996.875,939.7034,1965.625,952.2034,1978.125,939.7034" style="stroke: #A80036; stroke-width: 3.125;"/><line style="stroke: #A80036; stroke-width: 3.125;" x1="810.9375" x2="1984.375" y1="939.7034" y2="939.7034"/><text fill="#000000" font-family="sans-serif" font-size="40.625" lengthAdjust="spacingAndGlyphs" textLength="240.625" x="832.8125" y="878.9795">generate Sid</text><text fill="#000000" font-family="sans-serif" font-size="40.625" lengthAdjust="spacingAndGlyphs" textLength="440.625" x="832.8125" y="926.825">save conferencerecord</text><polygon fill="#A80036" points="773.4375,1088.5193,804.6875,1101.0193,773.4375,1113.5193,785.9375,1101.0193" style="stroke: #A80036; stroke-width: 3.125;"/><line style="stroke: #A80036; stroke-width: 3.125;" x1="214.0625" x2="792.1875" y1="1101.0193" y2="1101.0193"/><text fill="#000000" font-family="sans-serif" font-size="40.625" lengthAdjust="spacingAndGlyphs" textLength="65.625" x="235.9375" y="1040.2954">Get</text><text fill="#000000" font-family="sans-serif" font-size="40.625" lengthAdjust="spacingAndGlyphs" textLength="521.875" x="235.9375" y="1088.1409">CnfMediaResourceCntroler</text><polygon fill="#A80036" points="248.4375,1227.9602,217.1875,1240.4602,248.4375,1252.9602,235.9375,1240.4602" style="stroke: #A80036; stroke-width: 3.125;"/><line style="stroke: #A80036; stroke-width: 3.125;" x1="229.6875" x2="807.8125" y1="1240.4602" y2="1240.4602"/><text fill="#000000" font-family="sans-serif" font-size="40.625" lengthAdjust="spacingAndGlyphs" textLength="190.625" x="267.1875" y="1179.7363">new actor</text><text fill="#000000" font-family="sans-serif" font-size="40.625" lengthAdjust="spacingAndGlyphs" textLength="140.625" x="267.1875" y="1227.5818">CMRC1</text><line style="stroke: #A80036; stroke-width: 3.125;" x1="214.0625" x2="345.3125" y1="1333.9966" y2="1333.9966"/><line style="stroke: #A80036; stroke-width: 3.125;" x1="345.3125" x2="345.3125" y1="1333.9966" y2="1374.6216"/><line style="stroke: #A80036; stroke-width: 3.125;" x1="217.1875" x2="345.3125" y1="1374.6216" y2="1374.6216"/><polygon fill="#A80036" points="248.4375,1362.1216,217.1875,1374.6216,248.4375,1387.1216,235.9375,1374.6216" style="stroke: #A80036; stroke-width: 3.125;"/><text fill="#000000" font-family="sans-serif" font-size="40.625" lengthAdjust="spacingAndGlyphs" textLength="312.5" x="235.9375" y="1319.1772">onJoinComplete</text><polygon fill="#A80036" points="998.4375,1452.7466,1029.6875,1465.2466,998.4375,1477.7466,1010.9375,1465.2466" style="stroke: #A80036; stroke-width: 3.125;"/><line style="stroke: #A80036; stroke-width: 3.125;" x1="214.0625" x2="1017.1875" y1="1465.2466" y2="1465.2466"/><text fill="#000000" font-family="sans-serif" font-size="40.625" lengthAdjust="spacingAndGlyphs" textLength="600" x="235.9375" y="1451.3977">StartBridgeConnecting Process</text><polygon fill="#A80036" points="1070.3125,1544.342,1039.0625,1556.842,1070.3125,1569.342,1057.8125,1556.842" style="stroke: #A80036; stroke-width: 3.125;"/><polygon fill="#A80036" points="1965.625,1544.342,1996.875,1556.842,1965.625,1569.342,1978.125,1556.842" style="stroke: #A80036; stroke-width: 3.125;"/><line style="stroke: #A80036; stroke-width: 3.125;" x1="1051.5625" x2="1984.375" y1="1556.842" y2="1556.842"/><text fill="#000000" font-family="sans-serif" font-size="40.625" lengthAdjust="spacingAndGlyphs" textLength="246.875" x="1089.0625" y="1542.9932">get Cnf Data</text><polygon fill="#A80036" points="1070.3125,1635.9375,1039.0625,1648.4375,1070.3125,1660.9375,1057.8125,1648.4375" style="stroke: #A80036; stroke-width: 3.125;"/><polygon fill="#A80036" points="1751.5625,1635.9375,1782.8125,1648.4375,1751.5625,1660.9375,1764.0625,1648.4375" style="stroke: #A80036; stroke-width: 3.125;"/><line style="stroke: #A80036; stroke-width: 3.125;" x1="1051.5625" x2="1770.3125" y1="1648.4375" y2="1648.4375"/><text fill="#000000" font-family="sans-serif" font-size="40.625" lengthAdjust="spacingAndGlyphs" textLength="268.75" x="1089.0625" y="1634.5886">mediasession</text><polygon fill="#A80036" points="1751.5625,1774.408,1782.8125,1786.908,1751.5625,1799.408,1764.0625,1786.908" style="stroke: #A80036; stroke-width: 3.125;"/><line style="stroke: #A80036; stroke-width: 3.125;" x1="1035.9375" x2="1770.3125" y1="1786.908" y2="1786.908"/><text fill="#000000" font-family="sans-serif" font-size="40.625" lengthAdjust="spacingAndGlyphs" textLength="131.25" x="1057.8125" y="1726.1841">(CRCX)</text><text fill="#000000" font-family="sans-serif" font-size="40.625" lengthAdjust="spacingAndGlyphs" textLength="256.25" x="1057.8125" y="1774.0295">create bridge</text><polygon fill="#A80036" points="1070.3125,1866.9739,1039.0625,1879.4739,1070.3125,1891.9739,1057.8125,1879.4739" style="stroke: #A80036; stroke-width: 3.125;"/><line style="stroke: #A80036; stroke-width: 3.125;" x1="1051.5625" x2="1785.9375" y1="1879.4739" y2="1879.4739"/><text fill="#000000" font-family="sans-serif" font-size="40.625" lengthAdjust="spacingAndGlyphs" textLength="253.125" x="1089.0625" y="1865.625">success/SDP</text><polygon fill="#A80036" points="1965.625,2005.4443,1996.875,2017.9443,1965.625,2030.4443,1978.125,2017.9443" style="stroke: #A80036; stroke-width: 3.125;"/><line style="stroke: #A80036; stroke-width: 3.125;" x1="1035.9375" x2="1984.375" y1="2017.9443" y2="2017.9443"/><text fill="#000000" font-family="sans-serif" font-size="40.625" lengthAdjust="spacingAndGlyphs" textLength="284.375" x="1057.8125" y="1957.2205">save bridge ep</text><text fill="#000000" font-family="sans-serif" font-size="40.625" lengthAdjust="spacingAndGlyphs" textLength="265.625" x="1057.8125" y="2005.0659">number in DB</text><polygon fill="#A80036" points="1751.5625,2144.8853,1782.8125,2157.3853,1751.5625,2169.8853,1764.0625,2157.3853" style="stroke: #A80036; stroke-width: 3.125;"/><line style="stroke: #A80036; stroke-width: 3.125;" x1="1035.9375" x2="1770.3125" y1="2157.3853" y2="2157.3853"/><text fill="#000000" font-family="sans-serif" font-size="40.625" lengthAdjust="spacingAndGlyphs" textLength="131.25" x="1057.8125" y="2096.6614">(CRCX)</text><text fill="#000000" font-family="sans-serif" font-size="40.625" lengthAdjust="spacingAndGlyphs" textLength="665.625" x="1070.3125" y="2144.5068">connect bridge and conference ep</text><polygon fill="#A80036" points="1070.3125,2237.4512,1039.0625,2249.9512,1070.3125,2262.4512,1057.8125,2249.9512" style="stroke: #A80036; stroke-width: 3.125;"/><line style="stroke: #A80036; stroke-width: 3.125;" x1="1051.5625" x2="1785.9375" y1="2249.9512" y2="2249.9512"/><text fill="#000000" font-family="sans-serif" font-size="40.625" lengthAdjust="spacingAndGlyphs" textLength="156.25" x="1089.0625" y="2236.1023">success</text><rect fill="#EEEEEE" filter="url(#f1)" height="9.375" style="stroke: #EEEEEE; stroke-width: 3.125;" width="3987.5" x="9.375" y="2340.4694"/><line style="stroke: #000000; stroke-width: 3.125;" x1="9.375" x2="3996.875" y1="2340.4694" y2="2340.4694"/><line style="stroke: #000000; stroke-width: 3.125;" x1="9.375" x2="3996.875" y1="2349.8444" y2="2349.8444"/><rect fill="#EEEEEE" filter="url(#f1)" height="72.8455" style="stroke: #000000; stroke-width: 6.25;" width="921.875" x="1542.1875" y="2307.1716"/><text fill="#000000" font-family="sans-serif" font-size="40.625" font-weight="bold" lengthAdjust="spacingAndGlyphs" textLength="878.125" x="1560.9375" y="2358.9478">2nd participant (aka Slave) enters on RC2</text><polygon fill="#A80036" points="3229.6875,2511.2671,3198.4375,2523.7671,3229.6875,2536.2671,3217.1875,2523.7671" style="stroke: #A80036; stroke-width: 3.125;"/><line style="stroke: #A80036; stroke-width: 3.125;" x1="3210.9375" x2="3789.0625" y1="2523.7671" y2="2523.7671"/><text fill="#000000" font-family="sans-serif" font-size="40.625" lengthAdjust="spacingAndGlyphs" textLength="343.75" x="3248.4375" y="2463.0432">GetMediaGateway</text><text fill="#000000" font-family="sans-serif" font-size="40.625" lengthAdjust="spacingAndGlyphs" textLength="206.25" x="3248.4375" y="2510.8887">(cnf name)</text><polygon fill="#A80036" points="3754.6875,2603.833,3785.9375,2616.333,3754.6875,2628.833,3767.1875,2616.333" style="stroke: #A80036; stroke-width: 3.125;"/><line style="stroke: #A80036; stroke-width: 3.125;" x1="3195.3125" x2="3773.4375" y1="2616.333" y2="2616.333"/><text fill="#000000" font-family="sans-serif" font-size="40.625" lengthAdjust="spacingAndGlyphs" textLength="450" x="3217.1875" y="2602.4841">MediaGateway to RMS2</text><polygon fill="#A80036" points="3229.6875,2742.3035,3198.4375,2754.8035,3229.6875,2767.3035,3217.1875,2754.8035" style="stroke: #A80036; stroke-width: 3.125;"/><line style="stroke: #A80036; stroke-width: 3.125;" x1="3210.9375" x2="3789.0625" y1="2754.8035" y2="2754.8035"/><text fill="#000000" font-family="sans-serif" font-size="40.625" lengthAdjust="spacingAndGlyphs" textLength="65.625" x="3248.4375" y="2694.0796">Get</text><text fill="#000000" font-family="sans-serif" font-size="40.625" lengthAdjust="spacingAndGlyphs" textLength="521.875" x="3248.4375" y="2741.925">CnfMediaResourceCntroler</text><polygon fill="#A80036" points="3754.6875,2881.7444,3785.9375,2894.2444,3754.6875,2906.7444,3767.1875,2894.2444" style="stroke: #A80036; stroke-width: 3.125;"/><line style="stroke: #A80036; stroke-width: 3.125;" x1="3195.3125" x2="3773.4375" y1="2894.2444" y2="2894.2444"/><text fill="#000000" font-family="sans-serif" font-size="40.625" lengthAdjust="spacingAndGlyphs" textLength="190.625" x="3217.1875" y="2833.5205">new actor</text><text fill="#000000" font-family="sans-serif" font-size="40.625" lengthAdjust="spacingAndGlyphs" textLength="140.625" x="3217.1875" y="2881.366">CMRC2</text><polygon fill="#A80036" points="3004.6875,2974.3103,2973.4375,2986.8103,3004.6875,2999.3103,2992.1875,2986.8103" style="stroke: #A80036; stroke-width: 3.125;"/><line style="stroke: #A80036; stroke-width: 3.125;" x1="2985.9375" x2="3789.0625" y1="2986.8103" y2="2986.8103"/><text fill="#000000" font-family="sans-serif" font-size="40.625" lengthAdjust="spacingAndGlyphs" textLength="600" x="3023.4375" y="2972.9614">StartBridgeConnecting Process</text><polygon fill="#A80036" points="2037.5,3065.9058,2006.25,3078.4058,2037.5,3090.9058,2025,3078.4058" style="stroke: #A80036; stroke-width: 3.125;"/><polygon fill="#A80036" points="2932.8125,3065.9058,2964.0625,3078.4058,2932.8125,3090.9058,2945.3125,3078.4058" style="stroke: #A80036; stroke-width: 3.125;"/><line style="stroke: #A80036; stroke-width: 3.125;" x1="2018.75" x2="2951.5625" y1="3078.4058" y2="3078.4058"/><text fill="#000000" font-family="sans-serif" font-size="40.625" lengthAdjust="spacingAndGlyphs" textLength="246.875" x="2056.25" y="3064.5569">get Cnf Data</text><polygon fill="#A80036" points="2251.5625,3157.5012,2220.3125,3170.0012,2251.5625,3182.5012,2239.0625,3170.0012" style="stroke: #A80036; stroke-width: 3.125;"/><polygon fill="#A80036" points="2932.8125,3157.5012,2964.0625,3170.0012,2932.8125,3182.5012,2945.3125,3170.0012" style="stroke: #A80036; stroke-width: 3.125;"/><line style="stroke: #A80036; stroke-width: 3.125;" x1="2232.8125" x2="2951.5625" y1="3170.0012" y2="3170.0012"/><text fill="#000000" font-family="sans-serif" font-size="40.625" lengthAdjust="spacingAndGlyphs" textLength="268.75" x="2270.3125" y="3156.1523">mediasession</text><polygon fill="#A80036" points="2251.5625,3295.9717,2220.3125,3308.4717,2251.5625,3320.9717,2239.0625,3308.4717" style="stroke: #A80036; stroke-width: 3.125;"/><line style="stroke: #A80036; stroke-width: 3.125;" x1="2232.8125" x2="2967.1875" y1="3308.4717" y2="3308.4717"/><text fill="#000000" font-family="sans-serif" font-size="40.625" lengthAdjust="spacingAndGlyphs" textLength="131.25" x="2270.3125" y="3247.7478">(CRCX)</text><text fill="#000000" font-family="sans-serif" font-size="40.625" lengthAdjust="spacingAndGlyphs" textLength="256.25" x="2270.3125" y="3295.5933">create bridge</text><polygon fill="#A80036" points="2932.8125,3388.5376,2964.0625,3401.0376,2932.8125,3413.5376,2945.3125,3401.0376" style="stroke: #A80036; stroke-width: 3.125;"/><line style="stroke: #A80036; stroke-width: 3.125;" x1="2217.1875" x2="2951.5625" y1="3401.0376" y2="3401.0376"/><text fill="#000000" font-family="sans-serif" font-size="40.625" lengthAdjust="spacingAndGlyphs" textLength="253.125" x="2239.0625" y="3387.1887">success/SDP</text><polygon fill="#A80036" points="2251.5625,3527.0081,2220.3125,3539.5081,2251.5625,3552.0081,2239.0625,3539.5081" style="stroke: #A80036; stroke-width: 3.125;"/><line style="stroke: #A80036; stroke-width: 3.125;" x1="2232.8125" x2="2967.1875" y1="3539.5081" y2="3539.5081"/><text fill="#000000" font-family="sans-serif" font-size="40.625" lengthAdjust="spacingAndGlyphs" textLength="131.25" x="2270.3125" y="3478.7842">(CRCX)</text><text fill="#000000" font-family="sans-serif" font-size="40.625" lengthAdjust="spacingAndGlyphs" textLength="665.625" x="2282.8125" y="3526.6296">connect bridge and conference ep</text><polygon fill="#A80036" points="2932.8125,3619.574,2964.0625,3632.074,2932.8125,3644.574,2945.3125,3632.074" style="stroke: #A80036; stroke-width: 3.125;"/><line style="stroke: #A80036; stroke-width: 3.125;" x1="2217.1875" x2="2951.5625" y1="3632.074" y2="3632.074"/><text fill="#000000" font-family="sans-serif" font-size="40.625" lengthAdjust="spacingAndGlyphs" textLength="156.25" x="2239.0625" y="3618.2251">success</text><rect fill="#EEEEEE" filter="url(#f1)" height="9.375" style="stroke: #EEEEEE; stroke-width: 3.125;" width="3987.5" x="9.375" y="3722.5922"/><line style="stroke: #000000; stroke-width: 3.125;" x1="9.375" x2="3996.875" y1="3722.5922" y2="3722.5922"/><line style="stroke: #000000; stroke-width: 3.125;" x1="9.375" x2="3996.875" y1="3731.9672" y2="3731.9672"/><rect fill="#EEEEEE" filter="url(#f1)" height="72.8455" style="stroke: #000000; stroke-width: 6.25;" width="2128.125" x="939.0625" y="3689.2944"/><text fill="#000000" font-family="sans-serif" font-size="40.625" font-weight="bold" lengthAdjust="spacingAndGlyphs" textLength="2084.375" x="957.8125" y="3741.0706">Slave Thread creates connection with master RMS on bridge where Master Participant is connected</text><polygon fill="#A80036" points="1823.4375,3940.2649,1792.1875,3952.7649,1823.4375,3965.2649,1810.9375,3952.7649" style="stroke: #A80036; stroke-width: 3.125;"/><line style="stroke: #A80036; stroke-width: 3.125;" x1="1804.6875" x2="2967.1875" y1="3952.7649" y2="3952.7649"/><text fill="#000000" font-family="sans-serif" font-size="40.625" lengthAdjust="spacingAndGlyphs" textLength="390.625" x="1842.1875" y="3845.166">(MGCP/SDP - CRCX)</text><text fill="#000000" font-family="sans-serif" font-size="40.625" lengthAdjust="spacingAndGlyphs" textLength="271.875" x="1854.6875" y="3893.0115">also pass SDP</text><text fill="#000000" font-family="sans-serif" font-size="40.625" lengthAdjust="spacingAndGlyphs" textLength="581.25" x="1842.1875" y="3940.8569">from RMS2 bridge connection</text><polygon fill="#A80036" points="2932.8125,4033.8013,2964.0625,4046.3013,2932.8125,4058.8013,2945.3125,4046.3013" style="stroke: #A80036; stroke-width: 3.125;"/><line style="stroke: #A80036; stroke-width: 3.125;" x1="1789.0625" x2="2951.5625" y1="4046.3013" y2="4046.3013"/><text fill="#000000" font-family="sans-serif" font-size="40.625" lengthAdjust="spacingAndGlyphs" textLength="253.125" x="1810.9375" y="4032.4524">success/SDP</text><polygon fill="#A80036" points="2251.5625,4172.2717,2220.3125,4184.7717,2251.5625,4197.2717,2239.0625,4184.7717" style="stroke: #A80036; stroke-width: 3.125;"/><line style="stroke: #A80036; stroke-width: 3.125;" x1="2232.8125" x2="2967.1875" y1="4184.7717" y2="4184.7717"/><text fill="#000000" font-family="sans-serif" font-size="40.625" lengthAdjust="spacingAndGlyphs" textLength="403.125" x="2270.3125" y="4124.0479">(MGCP/SDP - MDCX)</text><text fill="#000000" font-family="sans-serif" font-size="40.625" lengthAdjust="spacingAndGlyphs" textLength="556.25" x="2270.3125" y="4171.8933">modify with sdp from RMS1.</text><polygon fill="#A80036" points="2932.8125,4264.8376,2964.0625,4277.3376,2932.8125,4289.8376,2945.3125,4277.3376" style="stroke: #A80036; stroke-width: 3.125;"/><line style="stroke: #A80036; stroke-width: 3.125;" x1="2217.1875" x2="2951.5625" y1="4277.3376" y2="4277.3376"/><text fill="#000000" font-family="sans-serif" font-size="40.625" lengthAdjust="spacingAndGlyphs" textLength="156.25" x="2239.0625" y="4263.4888">success</text><rect fill="#EEEEEE" filter="url(#f1)" height="9.375" style="stroke: #EEEEEE; stroke-width: 3.125;" width="3987.5" x="9.375" y="4367.8558"/><line style="stroke: #000000; stroke-width: 3.125;" x1="9.375" x2="3996.875" y1="4367.8558" y2="4367.8558"/><line style="stroke: #000000; stroke-width: 3.125;" x1="9.375" x2="3996.875" y1="4377.2308" y2="4377.2308"/><rect fill="#EEEEEE" filter="url(#f1)" height="72.8455" style="stroke: #000000; stroke-width: 6.25;" width="925" x="1540.625" y="4334.5581"/><text fill="#000000" font-family="sans-serif" font-size="40.625" font-weight="bold" lengthAdjust="spacingAndGlyphs" textLength="881.25" x="1559.375" y="4386.3342">Stop MOH and Unmute Master participant</text><polygon fill="#A80036" points="1823.4375,4491.7786,1792.1875,4504.2786,1823.4375,4516.7786,1810.9375,4504.2786" style="stroke: #A80036; stroke-width: 3.125;"/><polygon fill="#A80036" points="2179.6875,4491.7786,2210.9375,4504.2786,2179.6875,4516.7786,2192.1875,4504.2786" style="stroke: #A80036; stroke-width: 3.125;"/><line style="stroke: #A80036; stroke-width: 3.125;" x1="1804.6875" x2="2198.4375" y1="4504.2786" y2="4504.2786"/><text fill="#000000" font-family="sans-serif" font-size="40.625" lengthAdjust="spacingAndGlyphs" textLength="71.875" x="1842.1875" y="4490.4297">RTP</text><polygon fill="#A80036" points="1823.4375,4630.249,1792.1875,4642.749,1823.4375,4655.249,1810.9375,4642.749" style="stroke: #A80036; stroke-width: 3.125;"/><line style="stroke: #A80036; stroke-width: 3.125;" x1="1804.6875" x2="2967.1875" y1="4642.749" y2="4642.749"/><text fill="#000000" font-family="sans-serif" font-size="40.625" lengthAdjust="spacingAndGlyphs" textLength="384.375" x="1842.1875" y="4582.0251">Stop Music on Hold</text><text fill="#000000" font-family="sans-serif" font-size="40.625" lengthAdjust="spacingAndGlyphs" textLength="918.75" x="1842.1875" y="4629.8706">Still need to identify command and parameters</text><polygon fill="#A80036" points="2932.8125,4722.8149,2964.0625,4735.3149,2932.8125,4747.8149,2945.3125,4735.3149" style="stroke: #A80036; stroke-width: 3.125;"/><line style="stroke: #A80036; stroke-width: 3.125;" x1="1789.0625" x2="2951.5625" y1="4735.3149" y2="4735.3149"/><text fill="#000000" font-family="sans-serif" font-size="40.625" lengthAdjust="spacingAndGlyphs" textLength="168.75" x="1810.9375" y="4721.4661">success.</text><polygon fill="#A80036" points="1823.4375,4861.2854,1792.1875,4873.7854,1823.4375,4886.2854,1810.9375,4873.7854" style="stroke: #A80036; stroke-width: 3.125;"/><line style="stroke: #A80036; stroke-width: 3.125;" x1="1804.6875" x2="2967.1875" y1="4873.7854" y2="4873.7854"/><text fill="#000000" font-family="sans-serif" font-size="40.625" lengthAdjust="spacingAndGlyphs" textLength="150" x="1842.1875" y="4813.0615">UnMute</text><text fill="#000000" font-family="sans-serif" font-size="40.625" lengthAdjust="spacingAndGlyphs" textLength="918.75" x="1842.1875" y="4860.907">Still need to identify command and parameters</text><polygon fill="#A80036" points="2932.8125,4953.8513,2964.0625,4966.3513,2932.8125,4978.8513,2945.3125,4966.3513" style="stroke: #A80036; stroke-width: 3.125;"/><line style="stroke: #A80036; stroke-width: 3.125;" x1="1789.0625" x2="2951.5625" y1="4966.3513" y2="4966.3513"/><text fill="#000000" font-family="sans-serif" font-size="40.625" lengthAdjust="spacingAndGlyphs" textLength="168.75" x="1810.9375" y="4952.5024">success.</text><polygon fill="#A80036" points="1823.4375,5045.4468,1792.1875,5057.9468,1823.4375,5070.4468,1810.9375,5057.9468" style="stroke: #A80036; stroke-width: 3.125;"/><polygon fill="#A80036" points="2179.6875,5045.4468,2210.9375,5057.9468,2179.6875,5070.4468,2192.1875,5057.9468" style="stroke: #A80036; stroke-width: 3.125;"/><line style="stroke: #A80036; stroke-width: 3.125;" x1="1804.6875" x2="2198.4375" y1="5057.9468" y2="5057.9468"/><text fill="#000000" font-family="sans-serif" font-size="40.625" lengthAdjust="spacingAndGlyphs" textLength="71.875" x="1842.1875" y="5044.0979">RTP</text></g></svg>