<?xml version="1.0" encoding="UTF-8" standalone="yes"?><svg xmlns="http://www.w3.org/2000/svg" xmlns:xlink="http://www.w3.org/1999/xlink" height="1400px" style="width:5337px;height:1400px;" version="1.1" viewBox="0 0 5337 1400" width="5337.5px"><defs><filter height="300%" id="f1" width="300%" x="-1" y="-1"><feGaussianBlur result="blurOut" stdDeviation="6.25"/><feColorMatrix in="blurOut" result="blurOut2" type="matrix" values="0 0 0 0 0 0 0 0 0 0 0 0 0 0 0 0 0 0 .4 0"/><feOffset dx="12.5" dy="12.5" in="blurOut2" result="blurOut3"/><feBlend in="SourceGraphic" in2="blurOut3" mode="normal"/></filter></defs><g><text fill="#000000" font-family="sans-serif" font-size="56.25" lengthAdjust="spacingAndGlyphs" textLength="896.875" x="2234.375" y="54.3823">Conference in progress Snapshot</text><path d="M3739.0625,444.3726 C3739.0625,413.1226 4365.625,413.1226 4365.625,413.1226 C4365.625,413.1226 4992.1875,413.1226 4992.1875,444.3726 L4992.1875,700.6226 C4992.1875,731.8726 4365.625,731.8726 4365.625,731.8726 C4365.625,731.8726 3739.0625,731.8726 3739.0625,700.6226 L3739.0625,444.3726 " fill="#FFFFFF" filter="url(#f1)" style="stroke: #000000; stroke-width: 6.25;"/><path d="M3739.0625,444.3726 C3739.0625,475.6226 4365.625,475.6226 4365.625,475.6226 C4365.625,475.6226 4992.1875,475.6226 4992.1875,444.3726 " fill="none" style="stroke: #000000; stroke-width: 6.25;"/><text fill="#000000" font-family="sans-serif" font-size="43.75" font-weight="bold" lengthAdjust="spacingAndGlyphs" textLength="496.875" x="4117.1875" y="521.0449">MySql Existing Tables</text><path d="M1964.0625,444.3726 C1964.0625,413.1226 2653.125,413.1226 2653.125,413.1226 C2653.125,413.1226 3342.1875,413.1226 3342.1875,444.3726 L3342.1875,700.6226 C3342.1875,731.8726 2653.125,731.8726 2653.125,731.8726 C2653.125,731.8726 1964.0625,731.8726 1964.0625,700.6226 L1964.0625,444.3726 " fill="#FFFFFF" filter="url(#f1)" style="stroke: #000000; stroke-width: 6.25;"/><path d="M1964.0625,444.3726 C1964.0625,475.6226 2653.125,475.6226 2653.125,475.6226 C2653.125,475.6226 3342.1875,475.6226 3342.1875,444.3726 " fill="none" style="stroke: #000000; stroke-width: 6.25;"/><text fill="#000000" font-family="sans-serif" font-size="43.75" font-weight="bold" lengthAdjust="spacingAndGlyphs" textLength="412.5" x="2446.875" y="521.0449">MySql New Tables</text><rect fill="#FEFECE" filter="url(#f1)" height="114.0259" style="stroke: #A80036; stroke-width: 4.6875;" width="437.5" x="4504.6875" y="569.3726"/><rect fill="#FEFECE" height="15.625" style="stroke: #A80036; stroke-width: 4.6875;" width="31.25" x="4489.0625" y="584.9976"/><rect fill="#FEFECE" height="15.625" style="stroke: #A80036; stroke-width: 4.6875;" width="31.25" x="4489.0625" y="652.1484"/><text fill="#000000" font-family="sans-serif" font-size="43.75" lengthAdjust="spacingAndGlyphs" textLength="375" x="4535.9375" y="642.9199">call_detail_record</text><rect fill="#FEFECE" filter="url(#f1)" height="114.0259" style="stroke: #A80036; stroke-width: 4.6875;" width="603.125" x="3790.625" y="569.3726"/><rect fill="#FEFECE" height="15.625" style="stroke: #A80036; stroke-width: 4.6875;" width="31.25" x="3775" y="584.9976"/><rect fill="#FEFECE" height="15.625" style="stroke: #A80036; stroke-width: 4.6875;" width="31.25" x="3775" y="652.1484"/><text fill="#000000" font-family="sans-serif" font-size="43.75" lengthAdjust="spacingAndGlyphs" textLength="540.625" x="3821.875" y="642.9199">conference_detail_record</text><rect fill="#FEFECE" filter="url(#f1)" height="114.0259" style="stroke: #A80036; stroke-width: 4.6875;" width="509.375" x="2781.25" y="569.3726"/><rect fill="#FEFECE" height="15.625" style="stroke: #A80036; stroke-width: 4.6875;" width="31.25" x="2765.625" y="584.9976"/><rect fill="#FEFECE" height="15.625" style="stroke: #A80036; stroke-width: 4.6875;" width="31.25" x="2765.625" y="652.1484"/><text fill="#000000" font-family="sans-serif" font-size="43.75" lengthAdjust="spacingAndGlyphs" textLength="446.875" x="2812.5" y="642.9199">media_server_record</text><rect fill="#FEFECE" filter="url(#f1)" height="114.0259" style="stroke: #A80036; stroke-width: 4.6875;" width="656.25" x="2014.0625" y="569.3726"/><rect fill="#FEFECE" height="15.625" style="stroke: #A80036; stroke-width: 4.6875;" width="31.25" x="1998.4375" y="584.9976"/><rect fill="#FEFECE" height="15.625" style="stroke: #A80036; stroke-width: 4.6875;" width="31.25" x="1998.4375" y="652.1484"/><text fill="#000000" font-family="sans-serif" font-size="43.75" lengthAdjust="spacingAndGlyphs" textLength="593.75" x="2045.3125" y="642.9199">conference_bridging_status</text><ellipse cx="495.3125" cy="153.7476" fill="#FEFECE" filter="url(#f1)" rx="25" ry="25" style="stroke: #A80036; stroke-width: 6.25;"/><text fill="#000000" font-family="sans-serif" font-size="43.75" lengthAdjust="spacingAndGlyphs" textLength="90.625" x="450" y="224.1699">Jean</text><rect fill="#FEFECE" filter="url(#f1)" height="114.0259" style="stroke: #A80036; stroke-width: 4.6875;" width="181.25" x="404.6875" y="569.3726"/><rect fill="#FEFECE" height="15.625" style="stroke: #A80036; stroke-width: 4.6875;" width="31.25" x="389.0625" y="584.9976"/><rect fill="#FEFECE" height="15.625" style="stroke: #A80036; stroke-width: 4.6875;" width="31.25" x="389.0625" y="652.1484"/><text fill="#000000" font-family="sans-serif" font-size="43.75" lengthAdjust="spacingAndGlyphs" textLength="118.75" x="435.9375" y="642.9199">RMS1</text><ellipse cx="842.1875" cy="153.7476" fill="#FEFECE" filter="url(#f1)" rx="25" ry="25" style="stroke: #A80036; stroke-width: 6.25;"/><text fill="#000000" font-family="sans-serif" font-size="43.75" lengthAdjust="spacingAndGlyphs" textLength="118.75" x="782.8125" y="224.1699">Maria</text><rect fill="#FEFECE" filter="url(#f1)" height="114.0259" style="stroke: #A80036; stroke-width: 4.6875;" width="181.25" x="751.5625" y="959.9976"/><rect fill="#FEFECE" height="15.625" style="stroke: #A80036; stroke-width: 4.6875;" width="31.25" x="735.9375" y="975.6226"/><rect fill="#FEFECE" height="15.625" style="stroke: #A80036; stroke-width: 4.6875;" width="31.25" x="735.9375" y="1042.7734"/><text fill="#000000" font-family="sans-serif" font-size="43.75" lengthAdjust="spacingAndGlyphs" textLength="118.75" x="782.8125" y="1033.5449">RMS2</text><ellipse cx="148.4375" cy="153.7476" fill="#FEFECE" filter="url(#f1)" rx="25" ry="25" style="stroke: #A80036; stroke-width: 6.25;"/><text fill="#000000" font-family="sans-serif" font-size="43.75" lengthAdjust="spacingAndGlyphs" textLength="196.875" x="50" y="224.1699">Henrique</text><rect fill="#FEFECE" filter="url(#f1)" height="114.0259" style="stroke: #A80036; stroke-width: 4.6875;" width="181.25" x="57.8125" y="959.9976"/><rect fill="#FEFECE" height="15.625" style="stroke: #A80036; stroke-width: 4.6875;" width="31.25" x="42.1875" y="975.6226"/><rect fill="#FEFECE" height="15.625" style="stroke: #A80036; stroke-width: 4.6875;" width="31.25" x="42.1875" y="1042.7734"/><text fill="#000000" font-family="sans-serif" font-size="43.75" lengthAdjust="spacingAndGlyphs" textLength="118.75" x="89.0625" y="1033.5449">RMS3</text><polygon fill="#FBFB77" filter="url(#f1)" points="348.4375,977.1851,348.4375,1056.2805,642.1875,1056.2805,642.1875,1008.4351,610.9375,977.1851,348.4375,977.1851" style="stroke: #A80036; stroke-width: 3.125;"/><polygon fill="#FBFB77" points="348.4375,977.1851,348.4375,1056.2805,642.1875,1056.2805,642.1875,1008.4351,610.9375,977.1851,507.8125,977.1851,495.3125,682.1944,482.8125,977.1851,348.4375,977.1851" style="stroke: #A80036; stroke-width: 3.125;"/><line style="stroke: #A80036; stroke-width: 3.125;" x1="610.9375" x2="610.9375" y1="977.1851" y2="1008.4351"/><line style="stroke: #A80036; stroke-width: 3.125;" x1="642.1875" x2="610.9375" y1="1008.4351" y2="1008.4351"/><text fill="#000000" font-family="sans-serif" font-size="40.625" lengthAdjust="spacingAndGlyphs" textLength="228.125" x="367.1875" y="1032.0862">master RMS</text><polygon fill="#FBFB77" filter="url(#f1)" points="712.5,1294.3726,712.5,1373.468,971.875,1373.468,971.875,1325.6226,940.625,1294.3726,712.5,1294.3726" style="stroke: #A80036; stroke-width: 3.125;"/><polygon fill="#FBFB77" points="712.5,1294.3726,712.5,1373.468,971.875,1373.468,971.875,1325.6226,940.625,1294.3726,854.6875,1294.3726,842.1875,1073.5338,829.6875,1294.3726,712.5,1294.3726" style="stroke: #A80036; stroke-width: 3.125;"/><line style="stroke: #A80036; stroke-width: 3.125;" x1="940.625" x2="940.625" y1="1294.3726" y2="1325.6226"/><line style="stroke: #A80036; stroke-width: 3.125;" x1="971.875" x2="940.625" y1="1325.6226" y2="1325.6226"/><text fill="#000000" font-family="sans-serif" font-size="40.625" lengthAdjust="spacingAndGlyphs" textLength="193.75" x="731.25" y="1349.2737">slave RMS</text><polygon fill="#FBFB77" filter="url(#f1)" points="18.75,1294.3726,18.75,1373.468,278.125,1373.468,278.125,1325.6226,246.875,1294.3726,18.75,1294.3726" style="stroke: #A80036; stroke-width: 3.125;"/><polygon fill="#FBFB77" points="18.75,1294.3726,18.75,1373.468,278.125,1373.468,278.125,1325.6226,246.875,1294.3726,160.9375,1294.3726,148.4375,1073.5338,135.9375,1294.3726,18.75,1294.3726" style="stroke: #A80036; stroke-width: 3.125;"/><line style="stroke: #A80036; stroke-width: 3.125;" x1="246.875" x2="246.875" y1="1294.3726" y2="1325.6226"/><line style="stroke: #A80036; stroke-width: 3.125;" x1="278.125" x2="246.875" y1="1325.6226" y2="1325.6226"/><text fill="#000000" font-family="sans-serif" font-size="40.625" lengthAdjust="spacingAndGlyphs" textLength="193.75" x="37.5" y="1349.2737">slave RMS</text><polygon fill="#FBFB77" filter="url(#f1)" points="1012.5,91.2476,1012.5,266.0339,3671.875,266.0339,3671.875,122.4976,3640.625,91.2476,1012.5,91.2476" style="stroke: #A80036; stroke-width: 3.125;"/><polygon fill="#FBFB77" points="1012.5,91.2476,1012.5,266.0339,2329.6875,266.0339,2342.1875,568.3569,2354.6875,266.0339,3671.875,266.0339,3671.875,122.4976,3640.625,91.2476,1012.5,91.2476" style="stroke: #A80036; stroke-width: 3.125;"/><line style="stroke: #A80036; stroke-width: 3.125;" x1="3640.625" x2="3640.625" y1="91.2476" y2="122.4976"/><line style="stroke: #A80036; stroke-width: 3.125;" x1="3671.875" x2="3640.625" y1="122.4976" y2="122.4976"/><text fill="#000000" font-family="sans-serif" font-size="40.625" lengthAdjust="spacingAndGlyphs" textLength="2593.75" x="1031.25" y="146.1487">callSid=CA1 : bridged=true: master_ms_bridge_id=10: slave_ms_bridge_id=10: master_ms_cnf_ep_id=10: slave_ms_cnf_ep_id=10</text><text fill="#000000" font-family="sans-serif" font-size="40.625" lengthAdjust="spacingAndGlyphs" textLength="2593.75" x="1031.25" y="193.9941">callSid=CA2 : bridged=true: master_ms_bridge_id=10: slave_ms_bridge_id=20: master_ms_cnf_ep_id=10: slave_ms_cnf_ep_id=20</text><text fill="#000000" font-family="sans-serif" font-size="40.625" lengthAdjust="spacingAndGlyphs" textLength="2593.75" x="1031.25" y="241.8396">callSid=CA3 : bridged=true: master_ms_bridge_id=10: slave_ms_bridge_id=30: master_ms_cnf_ep_id=10: slave_ms_cnf_ep_id=30</text><polygon fill="#FBFB77" filter="url(#f1)" points="4137.5,91.2476,4137.5,266.0339,5309.375,266.0339,5309.375,122.4976,5278.125,91.2476,4137.5,91.2476" style="stroke: #A80036; stroke-width: 3.125;"/><polygon fill="#FBFB77" points="4137.5,91.2476,4137.5,266.0339,4710.9375,266.0339,4723.4375,568.3569,4735.9375,266.0339,5309.375,266.0339,5309.375,122.4976,5278.125,91.2476,4137.5,91.2476" style="stroke: #A80036; stroke-width: 3.125;"/><line style="stroke: #A80036; stroke-width: 3.125;" x1="5278.125" x2="5278.125" y1="91.2476" y2="122.4976"/><line style="stroke: #A80036; stroke-width: 3.125;" x1="5309.375" x2="5278.125" y1="122.4976" y2="122.4976"/><text fill="#000000" font-family="sans-serif" font-size="40.625" lengthAdjust="spacingAndGlyphs" textLength="1106.25" x="4156.25" y="146.1487">sid=CA1 : confSid=CF1: status=inprogress: ms_id=MS1</text><text fill="#000000" font-family="sans-serif" font-size="40.625" lengthAdjust="spacingAndGlyphs" textLength="1093.75" x="4156.25" y="193.9941">sid=CA2: confSid=CF1: status=inprogress: ms_id=MS2</text><text fill="#000000" font-family="sans-serif" font-size="40.625" lengthAdjust="spacingAndGlyphs" textLength="1093.75" x="4156.25" y="241.8396">sid=CA3: confSid=CF1: status=inprogress: ms_id=MS3</text><polygon fill="#FBFB77" filter="url(#f1)" points="3592.1875,977.1851,3592.1875,1056.2805,4592.1875,1056.2805,4592.1875,1008.4351,4560.9375,977.1851,3592.1875,977.1851" style="stroke: #A80036; stroke-width: 3.125;"/><polygon fill="#FBFB77" points="3592.1875,977.1851,3592.1875,1056.2805,4592.1875,1056.2805,4592.1875,1008.4351,4560.9375,977.1851,4104.6875,977.1851,4092.1875,682.1944,4079.6875,977.1851,3592.1875,977.1851" style="stroke: #A80036; stroke-width: 3.125;"/><line style="stroke: #A80036; stroke-width: 3.125;" x1="4560.9375" x2="4560.9375" y1="977.1851" y2="1008.4351"/><line style="stroke: #A80036; stroke-width: 3.125;" x1="4592.1875" x2="4560.9375" y1="1008.4351" y2="1008.4351"/><text fill="#000000" font-family="sans-serif" font-size="40.625" lengthAdjust="spacingAndGlyphs" textLength="934.375" x="3610.9375" y="1032.0862">sid=CF1 : status=running : master_ms_id=MS1</text><polygon fill="#FBFB77" filter="url(#f1)" points="2590.625,928.7476,2590.625,1103.5339,3481.25,1103.5339,3481.25,959.9976,3450,928.7476,2590.625,928.7476" style="stroke: #A80036; stroke-width: 3.125;"/><polygon fill="#FBFB77" points="2590.625,928.7476,2590.625,1103.5339,3481.25,1103.5339,3481.25,959.9976,3450,928.7476,3048.4375,928.7476,3035.9375,682.1944,3023.4375,928.7476,2590.625,928.7476" style="stroke: #A80036; stroke-width: 3.125;"/><line style="stroke: #A80036; stroke-width: 3.125;" x1="3450" x2="3450" y1="928.7476" y2="959.9976"/><line style="stroke: #A80036; stroke-width: 3.125;" x1="3481.25" x2="3450" y1="959.9976" y2="959.9976"/><text fill="#000000" font-family="sans-serif" font-size="40.625" lengthAdjust="spacingAndGlyphs" textLength="825" x="2609.375" y="983.6487">ms_id=MS1 : ip=192.168.1.2 : port=2427</text><text fill="#000000" font-family="sans-serif" font-size="40.625" lengthAdjust="spacingAndGlyphs" textLength="825" x="2609.375" y="1031.4941">ms_id=MS2 : ip=192.168.1.3 : port=2427</text><text fill="#000000" font-family="sans-serif" font-size="40.625" lengthAdjust="spacingAndGlyphs" textLength="825" x="2609.375" y="1079.3396">ms_id=MS3 : ip=192.168.1.4 : port=2427</text><path d="M495.3125,232.4163 C495.3125,311.1569 495.3125,463.3007 495.3125,552.5288 " fill="none" style="stroke: #A80036; stroke-width: 3.125;"/><polygon fill="#A80036" points="495.3125,568.4257,507.8125,540.3007,495.3125,552.8007,482.8125,540.3007,495.3125,568.4257" style="stroke: #A80036; stroke-width: 3.125;"/><path d="M842.1875,232.6194 C842.1875,375.4101 842.1875,780.8288 842.1875,943.9163 " fill="none" style="stroke: #A80036; stroke-width: 3.125;"/><polygon fill="#A80036" points="842.1875,959.8413,854.6875,931.7163,842.1875,944.2163,829.6875,931.7163,842.1875,959.8413" style="stroke: #A80036; stroke-width: 3.125;"/><path d="M148.4375,232.6194 C148.4375,375.4101 148.4375,780.8288 148.4375,943.9163 " fill="none" style="stroke: #A80036; stroke-width: 3.125;"/><polygon fill="#A80036" points="148.4375,959.8413,160.9375,931.7163,148.4375,944.2163,135.9375,931.7163,148.4375,959.8413" style="stroke: #A80036; stroke-width: 3.125;"/><path d="M554.8031,694.6694 C618.4625,765.2101 718.8656,876.4663 782.5719,947.0632 " fill="none" style="stroke: #A80036; stroke-width: 3.125;"/><polygon fill="#A80036" points="793.2469,958.8913,783.6868,929.6361,782.7798,947.2904,765.1254,946.3834,793.2469,958.8913" style="stroke: #A80036; stroke-width: 3.125;"/><polygon fill="#A80036" points="543.5438,682.1944,553.1095,711.4479,554.0131,693.7933,571.6676,694.6969,543.5438,682.1944" style="stroke: #A80036; stroke-width: 3.125;"/><text fill="#000000" font-family="sans-serif" font-size="40.625" lengthAdjust="spacingAndGlyphs" textLength="71.875" x="682.8125" y="824.2737">RTP</text><path d="M435.8219,694.6694 C372.1625,765.2101 271.7603,876.4663 208.0519,947.0632 " fill="none" style="stroke: #A80036; stroke-width: 3.125;"/><polygon fill="#A80036" points="197.3775,958.8913,225.5004,946.3867,207.8459,947.2916,206.941,929.6372,197.3775,958.8913" style="stroke: #A80036; stroke-width: 3.125;"/><polygon fill="#A80036" points="447.0813,682.1944,418.9574,694.6969,436.6119,693.7933,437.5155,711.4479,447.0813,682.1944" style="stroke: #A80036; stroke-width: 3.125;"/><text fill="#000000" font-family="sans-serif" font-size="40.625" lengthAdjust="spacingAndGlyphs" textLength="71.875" x="357.8125" y="824.2737">RTP</text></g></svg>