<?xml version="1.0" encoding="UTF-8" standalone="yes"?><svg xmlns="http://www.w3.org/2000/svg" xmlns:xlink="http://www.w3.org/1999/xlink" height="2768.75px" style="width:1062px;height:2768px;" version="1.1" viewBox="0 0 1062 2768" width="1062.5px"><defs><filter height="300%" id="f1" width="300%" x="-1" y="-1"><feGaussianBlur result="blurOut" stdDeviation="6.25"/><feColorMatrix in="blurOut" result="blurOut2" type="matrix" values="0 0 0 0 0 0 0 0 0 0 0 0 0 0 0 0 0 0 .4 0"/><feOffset dx="12.5" dy="12.5" in="blurOut2" result="blurOut3"/><feBlend in="SourceGraphic" in2="blurOut3" mode="normal"/></filter></defs><g><text fill="#000000" font-family="sans-serif" font-size="56.25" lengthAdjust="spacingAndGlyphs" textLength="928.125" x="81.25" y="54.3823">Cascading Conference Data Model</text><rect fill="#FEFECE" filter="url(#f1)" height="489.3616" style="stroke: #A80036; stroke-width: 4.6875;" width="590.625" x="443.75" y="91.2476"/><ellipse cx="490.625" cy="141.2476" fill="#FFAAAA" rx="34.375" ry="34.375" style="stroke: #A80036; stroke-width: 3.125;"/><path d="M493.2556,162.3413 L485.6033,162.3413 L485.6033,130.3055 L475.7721,130.3055 L475.7721,123.613 L503.0869,123.613 L503.0869,130.3055 L493.2556,130.3055 Z "/><text fill="#000000" font-family="sans-serif" font-size="37.5" lengthAdjust="spacingAndGlyphs" textLength="490.625" x="534.375" y="155.4199">conference_bridging_status</text><line style="stroke: #A80036; stroke-width: 4.6875;" x1="446.875" x2="1031.25" y1="191.2476" y2="191.2476"/><ellipse cx="478.125" cy="228.6774" fill="none" rx="9.375" ry="9.375" style="stroke: #038048; stroke-width: 3.125;"/><text fill="#000000" font-family="sans-serif" font-size="34.375" lengthAdjust="spacingAndGlyphs" text-decoration="underline" textLength="106.25" x="506.25" y="236.9812">callSid</text><line style="stroke: #000000; stroke-width: 1.0;" x1="506.25" x2="612.5" y1="243.2312" y2="243.2312"/><ellipse cx="478.125" cy="269.162" fill="none" rx="9.375" ry="9.375" style="stroke: #038048; stroke-width: 3.125;"/><text fill="#000000" font-family="sans-serif" font-size="34.375" lengthAdjust="spacingAndGlyphs" textLength="237.5" x="506.25" y="277.4658">conferenceSid</text><ellipse cx="478.125" cy="309.6466" fill="none" rx="9.375" ry="9.375" style="stroke: #038048; stroke-width: 3.125;"/><text fill="#000000" font-family="sans-serif" font-size="34.375" lengthAdjust="spacingAndGlyphs" textLength="234.375" x="506.25" y="317.9504">master_ms_id</text><ellipse cx="478.125" cy="350.1312" fill="none" rx="9.375" ry="9.375" style="stroke: #038048; stroke-width: 3.125;"/><text fill="#000000" font-family="sans-serif" font-size="34.375" lengthAdjust="spacingAndGlyphs" textLength="421.875" x="506.25" y="358.4351">master_ms_bridge_ep_id</text><ellipse cx="478.125" cy="390.6158" fill="none" rx="9.375" ry="9.375" style="stroke: #038048; stroke-width: 3.125;"/><text fill="#000000" font-family="sans-serif" font-size="34.375" lengthAdjust="spacingAndGlyphs" textLength="365.625" x="506.25" y="398.9197">master_ms_cnf_ep_id</text><ellipse cx="478.125" cy="431.1005" fill="none" rx="9.375" ry="9.375" style="stroke: #038048; stroke-width: 3.125;"/><text fill="#000000" font-family="sans-serif" font-size="34.375" lengthAdjust="spacingAndGlyphs" textLength="203.125" x="506.25" y="439.4043">slave_ms_id</text><ellipse cx="478.125" cy="471.5851" fill="none" rx="9.375" ry="9.375" style="stroke: #038048; stroke-width: 3.125;"/><text fill="#000000" font-family="sans-serif" font-size="34.375" lengthAdjust="spacingAndGlyphs" textLength="390.625" x="506.25" y="479.8889">slave_ms_bridge_ep_id</text><ellipse cx="478.125" cy="512.0697" fill="none" rx="9.375" ry="9.375" style="stroke: #038048; stroke-width: 3.125;"/><text fill="#000000" font-family="sans-serif" font-size="34.375" lengthAdjust="spacingAndGlyphs" textLength="334.375" x="506.25" y="520.3735">slave_ms_cnf_ep_id</text><ellipse cx="478.125" cy="552.5543" fill="none" rx="9.375" ry="9.375" style="stroke: #038048; stroke-width: 3.125;"/><text fill="#000000" font-family="sans-serif" font-size="34.375" lengthAdjust="spacingAndGlyphs" textLength="340.625" x="506.25" y="560.8582">is_bridged_together</text><rect fill="#FEFECE" filter="url(#f1)" height="367.9077" style="stroke: #A80036; stroke-width: 4.6875;" width="553.125" x="18.75" y="959.9976"/><ellipse cx="65.625" cy="1009.9976" fill="#FFAAAA" rx="34.375" ry="34.375" style="stroke: #A80036; stroke-width: 3.125;"/><path d="M68.2556,1031.0913 L60.6033,1031.0913 L60.6033,999.0555 L50.7721,999.0555 L50.7721,992.363 L78.0869,992.363 L78.0869,999.0555 L68.2556,999.0555 Z "/><text fill="#000000" font-family="sans-serif" font-size="37.5" lengthAdjust="spacingAndGlyphs" textLength="453.125" x="109.375" y="1024.1699">conference_detail_record</text><line style="stroke: #A80036; stroke-width: 4.6875;" x1="21.875" x2="568.75" y1="1059.9976" y2="1059.9976"/><text fill="#000000" font-family="sans-serif" font-size="34.375" lengthAdjust="spacingAndGlyphs" text-decoration="underline" textLength="50" x="81.25" y="1105.7312">sid</text><line style="stroke: #000000; stroke-width: 1.0;" x1="81.25" x2="131.25" y1="1111.9812" y2="1111.9812"/><text fill="#000000" font-family="sans-serif" font-size="34.375" lengthAdjust="spacingAndGlyphs" textLength="203.125" x="81.25" y="1146.2158">account_sid</text><text fill="#000000" font-family="sans-serif" font-size="34.375" lengthAdjust="spacingAndGlyphs" textLength="237.5" x="81.25" y="1186.7004">friendly_name</text><text fill="#000000" font-family="sans-serif" font-size="34.375" lengthAdjust="spacingAndGlyphs" textLength="103.125" x="81.25" y="1227.1851">status</text><text fill="#000000" font-family="sans-serif" font-size="34.375" lengthAdjust="spacingAndGlyphs" textLength="381.25" x="81.25" y="1267.6697">...other_existing_fields</text><ellipse cx="53.125" cy="1299.8505" fill="none" rx="9.375" ry="9.375" style="stroke: #038048; stroke-width: 3.125;"/><text fill="#000000" font-family="sans-serif" font-size="34.375" lengthAdjust="spacingAndGlyphs" textLength="234.375" x="81.25" y="1308.1543">master_ms_id</text><rect fill="#FEFECE" filter="url(#f1)" height="367.9077" style="stroke: #A80036; stroke-width: 4.6875;" width="462.5" x="395.3125" y="1706.8726"/><ellipse cx="463.2813" cy="1756.8726" fill="#FFAAAA" rx="34.375" ry="34.375" style="stroke: #A80036; stroke-width: 3.125;"/><path d="M465.9119,1777.9663 L458.2596,1777.9663 L458.2596,1745.9305 L448.4283,1745.9305 L448.4283,1739.238 L475.7431,1739.238 L475.7431,1745.9305 L465.9119,1745.9305 Z "/><text fill="#000000" font-family="sans-serif" font-size="37.5" lengthAdjust="spacingAndGlyphs" textLength="315.625" x="511.7188" y="1771.0449">call_detail_record</text><line style="stroke: #A80036; stroke-width: 4.6875;" x1="398.4375" x2="854.6875" y1="1806.8726" y2="1806.8726"/><text fill="#000000" font-family="sans-serif" font-size="34.375" lengthAdjust="spacingAndGlyphs" text-decoration="underline" textLength="50" x="457.8125" y="1852.6062">sid</text><line style="stroke: #000000; stroke-width: 1.0;" x1="457.8125" x2="507.8125" y1="1858.8562" y2="1858.8562"/><text fill="#000000" font-family="sans-serif" font-size="34.375" lengthAdjust="spacingAndGlyphs" textLength="256.25" x="457.8125" y="1893.0908">conference_sid</text><text fill="#000000" font-family="sans-serif" font-size="34.375" lengthAdjust="spacingAndGlyphs" textLength="203.125" x="457.8125" y="1933.5754">account_sid</text><text fill="#000000" font-family="sans-serif" font-size="34.375" lengthAdjust="spacingAndGlyphs" textLength="103.125" x="457.8125" y="1974.0601">status</text><text fill="#000000" font-family="sans-serif" font-size="34.375" lengthAdjust="spacingAndGlyphs" textLength="381.25" x="457.8125" y="2014.5447">...other_existing_fields</text><ellipse cx="429.6875" cy="2046.7255" fill="none" rx="9.375" ry="9.375" style="stroke: #038048; stroke-width: 3.125;"/><text fill="#000000" font-family="sans-serif" font-size="34.375" lengthAdjust="spacingAndGlyphs" textLength="203.125" x="457.8125" y="2055.0293">slave_ms_id</text><rect fill="#FEFECE" filter="url(#f1)" height="286.9385" style="stroke: #A80036; stroke-width: 4.6875;" width="459.375" x="396.875" y="2453.7476"/><ellipse cx="443.75" cy="2503.7476" fill="#FFAAAA" rx="34.375" ry="34.375" style="stroke: #A80036; stroke-width: 3.125;"/><path d="M446.3806,2524.8413 L438.7283,2524.8413 L438.7283,2492.8055 L428.8971,2492.8055 L428.8971,2486.113 L456.2119,2486.113 L456.2119,2492.8055 L446.3806,2492.8055 Z "/><text fill="#000000" font-family="sans-serif" font-size="37.5" lengthAdjust="spacingAndGlyphs" textLength="359.375" x="487.5" y="2517.9199">media_server_entity</text><line style="stroke: #A80036; stroke-width: 4.6875;" x1="400" x2="853.125" y1="2553.7476" y2="2553.7476"/><ellipse cx="431.25" cy="2591.1774" fill="none" rx="9.375" ry="9.375" style="stroke: #038048; stroke-width: 3.125;"/><text fill="#000000" font-family="sans-serif" font-size="34.375" lengthAdjust="spacingAndGlyphs" text-decoration="underline" textLength="312.5" x="459.375" y="2599.4812">id_auto_increment</text><line style="stroke: #000000; stroke-width: 1.0;" x1="459.375" x2="771.875" y1="2605.7312" y2="2605.7312"/><ellipse cx="431.25" cy="2631.662" fill="none" rx="9.375" ry="9.375" style="stroke: #038048; stroke-width: 3.125;"/><text fill="#000000" font-family="sans-serif" font-size="34.375" lengthAdjust="spacingAndGlyphs" textLength="31.25" x="459.375" y="2639.9658">ip</text><ellipse cx="431.25" cy="2672.1466" fill="none" rx="9.375" ry="9.375" style="stroke: #038048; stroke-width: 3.125;"/><text fill="#000000" font-family="sans-serif" font-size="34.375" lengthAdjust="spacingAndGlyphs" textLength="71.875" x="459.375" y="2680.4504">port</text><ellipse cx="431.25" cy="2712.6312" fill="none" rx="9.375" ry="9.375" style="stroke: #038048; stroke-width: 3.125;"/><text fill="#000000" font-family="sans-serif" font-size="34.375" lengthAdjust="spacingAndGlyphs" textLength="103.125" x="459.375" y="2720.9351">status</text><path d="M279.8122,1329.3257 C269.1366,1519.3382 267.7009,1824.2288 339.0625,2075.6226 C378.0063,2212.8132 458.9625,2353.3944 525.0719,2453.5451 " fill="none" style="stroke: #A80036; stroke-width: 3.125;"/><text fill="#000000" font-family="sans-serif" font-size="40.625" lengthAdjust="spacingAndGlyphs" textLength="18.75" x="258.186" y="1392.8018">*</text><text fill="#000000" font-family="sans-serif" font-size="40.625" lengthAdjust="spacingAndGlyphs" textLength="25" x="482.6171" y="2420.4312">1</text><path d="M626.5625,2076.4632 C626.5625,2193.9382 626.5625,2344.4913 626.5625,2452.9607 " fill="none" style="stroke: #A80036; stroke-width: 3.125;"/><text fill="#000000" font-family="sans-serif" font-size="40.625" lengthAdjust="spacingAndGlyphs" textLength="18.75" x="606.7871" y="2138.6599">*</text><text fill="#000000" font-family="sans-serif" font-size="40.625" lengthAdjust="spacingAndGlyphs" textLength="25" x="599.6484" y="2419.7573">1</text><path d="M376.7688,1329.6226 C428.1094,1444.4101 494.1406,1592.0507 545.4219,1706.7007 " fill="none" style="stroke: #A80036; stroke-width: 3.125;"/><text fill="#000000" font-family="sans-serif" font-size="40.625" lengthAdjust="spacingAndGlyphs" textLength="25" x="359.3108" y="1391.823">1</text><text fill="#000000" font-family="sans-serif" font-size="40.625" lengthAdjust="spacingAndGlyphs" textLength="18.75" x="515.6403" y="1673.8642">*</text><path d="M721.4219,582.4788 C698.7906,893.9944 660.0406,1427.3257 639.7813,1706.1601 " fill="none" style="stroke: #A80036; stroke-width: 3.125;"/><text fill="#000000" font-family="sans-serif" font-size="40.625" lengthAdjust="spacingAndGlyphs" textLength="25" x="693.8317" y="644.9987">1</text><text fill="#000000" font-family="sans-serif" font-size="40.625" lengthAdjust="spacingAndGlyphs" textLength="25" x="614.8688" y="1673.2577">1</text><path d="M604.7188,582.3569 C537.6281,703.5413 457.825,847.6976 396.0688,959.2476 " fill="none" style="stroke: #A80036; stroke-width: 3.125;"/><text fill="#000000" font-family="sans-serif" font-size="40.625" lengthAdjust="spacingAndGlyphs" textLength="18.75" x="573.6179" y="644.8664">*</text><text fill="#000000" font-family="sans-serif" font-size="40.625" lengthAdjust="spacingAndGlyphs" textLength="25" x="381.825" y="926.3406">1</text><path d="M873.7562,582.7413 C947.2563,737.7507 1023.4375,945.6007 1023.4375,1141.2476 C1023.4375,1141.2476 1023.4375,1141.2476 1023.4375,1894.3726 C1023.4375,2110.2101 878.8844,2320.4882 764.2563,2453.3004 " fill="none" style="stroke: #A80036; stroke-width: 3.125;"/><text fill="#000000" font-family="sans-serif" font-size="40.625" lengthAdjust="spacingAndGlyphs" textLength="18.75" x="865.7758" y="645.2838">*</text><text fill="#000000" font-family="sans-serif" font-size="40.625" lengthAdjust="spacingAndGlyphs" textLength="25" x="758.4265" y="2420.1501">1</text></g></svg>