<?xml version="1.0" encoding="UTF-8" standalone="yes"?><svg xmlns="http://www.w3.org/2000/svg" xmlns:xlink="http://www.w3.org/1999/xlink" height="3518.75px" style="width:1978px;height:3518px;" version="1.1" viewBox="0 0 1978 3518" width="1978.125px"><defs><filter height="300%" id="f1" width="300%" x="-1" y="-1"><feGaussianBlur result="blurOut" stdDeviation="6.25"/><feColorMatrix in="blurOut" result="blurOut2" type="matrix" values="0 0 0 0 0 0 0 0 0 0 0 0 0 0 0 0 0 0 .4 0"/><feOffset dx="12.5" dy="12.5" in="blurOut2" result="blurOut3"/><feBlend in="SourceGraphic" in2="blurOut3" mode="normal"/></filter></defs><g><text fill="#000000" font-family="sans-serif" font-size="56.25" lengthAdjust="spacingAndGlyphs" textLength="1168.75" x="420.3125" y="54.3823">Conference Media Resource Controller FSM</text><ellipse cx="939.0625" cy="122.4976" fill="#000000" filter="url(#f1)" rx="31.25" ry="31.25" style="stroke: none; stroke-width: 3.125;"/><rect fill="#FEFECE" filter="url(#f1)" height="156.25" rx="39.0625" ry="39.0625" style="stroke: #A80036; stroke-width: 4.6875;" width="331.25" x="773.4375" y="341.2476"/><line style="stroke: #A80036; stroke-width: 4.6875;" x1="773.4375" x2="1104.6875" y1="424.0234" y2="424.0234"/><text fill="#000000" font-family="sans-serif" font-size="43.75" lengthAdjust="spacingAndGlyphs" textLength="268.75" x="804.6875" y="399.1699">Uninitialized</text><rect fill="#FEFECE" filter="url(#f1)" height="156.25" rx="39.0625" ry="39.0625" style="stroke: #A80036; stroke-width: 4.6875;" width="718.75" x="579.6875" y="684.9976"/><line style="stroke: #A80036; stroke-width: 4.6875;" x1="579.6875" x2="1298.4375" y1="767.7734" y2="767.7734"/><text fill="#000000" font-family="sans-serif" font-size="43.75" lengthAdjust="spacingAndGlyphs" textLength="656.25" x="610.9375" y="742.9199">GettingConferenceInfoFromDB</text><rect fill="#FEFECE" filter="url(#f1)" height="156.25" rx="39.0625" ry="39.0625" style="stroke: #A80036; stroke-width: 4.6875;" width="703.125" x="115.625" y="1028.7476"/><line style="stroke: #A80036; stroke-width: 4.6875;" x1="115.625" x2="818.75" y1="1111.5234" y2="1111.5234"/><text fill="#000000" font-family="sans-serif" font-size="43.75" lengthAdjust="spacingAndGlyphs" textLength="640.625" x="146.875" y="1086.6699">GettingConferenceEndpointID</text><rect fill="#FEFECE" filter="url(#f1)" height="156.25" rx="39.0625" ry="39.0625" style="stroke: #A80036; stroke-width: 4.6875;" width="840.625" x="18.75" y="1716.2476"/><line style="stroke: #A80036; stroke-width: 4.6875;" x1="18.75" x2="859.375" y1="1799.0234" y2="1799.0234"/><text fill="#000000" font-family="sans-serif" font-size="43.75" lengthAdjust="spacingAndGlyphs" textLength="778.125" x="50" y="1774.1699">UpdatingConferenceEndpointIDInDB</text><rect fill="#FEFECE" filter="url(#f1)" height="156.25" rx="39.0625" ry="39.0625" style="stroke: #A80036; stroke-width: 4.6875;" width="190.625" x="856.25" y="2747.4976"/><line style="stroke: #A80036; stroke-width: 4.6875;" x1="856.25" x2="1046.875" y1="2830.2734" y2="2830.2734"/><text fill="#000000" font-family="sans-serif" font-size="43.75" lengthAdjust="spacingAndGlyphs" textLength="128.125" x="887.5" y="2805.4199">Active</text><rect fill="#FEFECE" filter="url(#f1)" height="156.25" rx="39.0625" ry="39.0625" style="stroke: #A80036; stroke-width: 4.6875;" width="946.875" x="937.5" y="1028.7476"/><line style="stroke: #A80036; stroke-width: 4.6875;" x1="937.5" x2="1884.375" y1="1111.5234" y2="1111.5234"/><text fill="#000000" font-family="sans-serif" font-size="43.75" lengthAdjust="spacingAndGlyphs" textLength="884.375" x="968.75" y="1086.6699">AcquiringRemoteConnectionWithLocalMS</text><rect fill="#FEFECE" filter="url(#f1)" height="156.25" rx="39.0625" ry="39.0625" style="stroke: #A80036; stroke-width: 4.6875;" width="821.875" x="1043.75" y="1372.4976"/><line style="stroke: #A80036; stroke-width: 4.6875;" x1="1043.75" x2="1865.625" y1="1455.2734" y2="1455.2734"/><text fill="#000000" font-family="sans-serif" font-size="43.75" lengthAdjust="spacingAndGlyphs" textLength="759.375" x="1075" y="1430.4199">CreatingConnectionWithLocalCnfEP</text><rect fill="#FEFECE" filter="url(#f1)" height="156.25" rx="39.0625" ry="39.0625" style="stroke: #A80036; stroke-width: 4.6875;" width="981.25" x="970.3125" y="1716.2476"/><line style="stroke: #A80036; stroke-width: 4.6875;" x1="970.3125" x2="1951.5625" y1="1799.0234" y2="1799.0234"/><text fill="#000000" font-family="sans-serif" font-size="43.75" lengthAdjust="spacingAndGlyphs" textLength="918.75" x="1001.5625" y="1774.1699">AcquiringRemoteConnectionWithMasterMS</text><rect fill="#FEFECE" filter="url(#f1)" height="156.25" rx="39.0625" ry="39.0625" style="stroke: #A80036; stroke-width: 4.6875;" width="856.25" x="923.4375" y="2059.9976"/><line style="stroke: #A80036; stroke-width: 4.6875;" x1="923.4375" x2="1779.6875" y1="2142.7734" y2="2142.7734"/><text fill="#000000" font-family="sans-serif" font-size="43.75" lengthAdjust="spacingAndGlyphs" textLength="793.75" x="954.6875" y="2117.9199">CreatingConnectionWithMasterCnfEP</text><rect fill="#FEFECE" filter="url(#f1)" height="156.25" rx="39.0625" ry="39.0625" style="stroke: #A80036; stroke-width: 4.6875;" width="665.625" x="918.75" y="2403.7476"/><line style="stroke: #A80036; stroke-width: 4.6875;" x1="918.75" x2="1584.375" y1="2486.5234" y2="2486.5234"/><text fill="#000000" font-family="sans-serif" font-size="43.75" lengthAdjust="spacingAndGlyphs" textLength="603.125" x="950" y="2461.6699">UpdatingLocalConferenceEP</text><rect fill="#FEFECE" filter="url(#f1)" height="156.25" rx="39.0625" ry="39.0625" style="stroke: #A80036; stroke-width: 4.6875;" width="225" x="839.0625" y="3091.2476"/><line style="stroke: #A80036; stroke-width: 4.6875;" x1="839.0625" x2="1064.0625" y1="3174.0234" y2="3174.0234"/><text fill="#000000" font-family="sans-serif" font-size="43.75" lengthAdjust="spacingAndGlyphs" textLength="162.5" x="870.3125" y="3149.1699">Inactive</text><ellipse cx="951.5625" cy="3466.2476" fill="none" filter="url(#f1)" rx="31.25" ry="31.25" style="stroke: #000000; stroke-width: 3.125;"/><ellipse cx="953.125" cy="3467.8101" fill="#000000" rx="18.75" ry="18.75" style="stroke: none; stroke-width: 3.125;"/><path d="M939.0625,154.5601 C939.0625,193.9351 939.0625,266.1851 939.0625,324.8101 " fill="none" style="stroke: #A80036; stroke-width: 3.125;"/><polygon fill="#A80036" points="939.0625,340.9663,951.5625,312.8413,939.0625,325.3413,926.5625,312.8413,939.0625,340.9663" style="stroke: #A80036; stroke-width: 3.125;"/><path d="M939.0625,498.2382 C939.0625,548.6132 939.0625,615.0632 939.0625,668.4069 " fill="none" style="stroke: #A80036; stroke-width: 3.125;"/><polygon fill="#A80036" points="939.0625,684.5101,951.5625,656.3851,939.0625,668.8851,926.5625,656.3851,939.0625,684.5101" style="stroke: #A80036; stroke-width: 3.125;"/><path d="M833.1656,841.9882 C759.7,894.5319 661.775,964.5726 585.7063,1018.9788 " fill="none" style="stroke: #A80036; stroke-width: 3.125;"/><polygon fill="#A80036" points="572.7313,1028.2601,602.8795,1022.0674,585.4407,1019.171,588.3371,1001.7323,572.7313,1028.2601" style="stroke: #A80036; stroke-width: 3.125;"/><path d="M464.0688,1185.5069 C458.875,1311.3413 448.4656,1563.5069 442.8531,1699.4194 " fill="none" style="stroke: #A80036; stroke-width: 3.125;"/><polygon fill="#A80036" points="442.1938,1715.4007,455.8482,1687.8177,442.8411,1699.7891,430.8697,1686.782,442.1938,1715.4007" style="stroke: #A80036; stroke-width: 3.125;"/><path d="M476.7469,1872.8694 C569.1188,2057.6101 806.5188,2532.4069 906.3094,2731.9882 " fill="none" style="stroke: #A80036; stroke-width: 3.125;"/><polygon fill="#A80036" points="913.8219,2747.0163,912.4165,2716.2707,906.8306,2733.0427,890.0587,2727.4568,913.8219,2747.0163" style="stroke: #A80036; stroke-width: 3.125;"/><path d="M1044.9594,841.9882 C1118.425,894.5319 1216.35,964.5726 1292.4188,1018.9788 " fill="none" style="stroke: #A80036; stroke-width: 3.125;"/><polygon fill="#A80036" points="1305.3938,1028.2601,1289.7879,1001.7323,1292.6843,1019.171,1275.2455,1022.0674,1305.3938,1028.2601" style="stroke: #A80036; stroke-width: 3.125;"/><path d="M1420.7563,1185.7382 C1427.2844,1236.1132 1435.9,1302.5632 1442.8156,1355.9069 " fill="none" style="stroke: #A80036; stroke-width: 3.125;"/><polygon fill="#A80036" points="1444.9031,1372.0101,1453.6834,1342.5114,1442.8942,1356.5147,1428.8908,1345.7256,1444.9031,1372.0101" style="stroke: #A80036; stroke-width: 3.125;"/><path d="M1456.0906,1529.4882 C1457.0219,1579.8632 1458.2531,1646.3132 1459.2406,1699.6569 " fill="none" style="stroke: #A80036; stroke-width: 3.125;"/><polygon fill="#A80036" points="1459.5406,1715.7601,1471.5162,1687.4078,1459.2505,1700.1378,1446.5205,1687.872,1459.5406,1715.7601" style="stroke: #A80036; stroke-width: 3.125;"/><path d="M1436.3906,1873.2382 C1420.0656,1923.6132 1398.5313,1990.0632 1381.2437,2043.4069 " fill="none" style="stroke: #A80036; stroke-width: 3.125;"/><polygon fill="#A80036" points="1376.025,2059.5101,1396.5858,2036.6076,1380.8413,2044.6459,1372.8031,2028.9015,1376.025,2059.5101" style="stroke: #A80036; stroke-width: 3.125;"/><path d="M1329.1219,2216.9882 C1314.1969,2267.3632 1294.5063,2333.8132 1278.7,2387.1569 " fill="none" style="stroke: #A80036; stroke-width: 3.125;"/><polygon fill="#A80036" points="1273.9281,2403.2601,1293.9071,2379.8484,1278.3696,2388.2796,1269.9384,2372.7421,1273.9281,2403.2601" style="stroke: #A80036; stroke-width: 3.125;"/><path d="M1184.2375,2560.7382 C1138.3031,2612.4132 1077.3281,2681.0132 1029.3219,2735.0194 " fill="none" style="stroke: #A80036; stroke-width: 3.125;"/><polygon fill="#A80036" points="1018.6625,2747.0101,1046.6894,2734.2917,1029.0424,2735.331,1028.003,2717.684,1018.6625,2747.0101" style="stroke: #A80036; stroke-width: 3.125;"/><path d="M951.5625,2904.4882 C951.5625,2954.8632 951.5625,3021.3132 951.5625,3074.6569 " fill="none" style="stroke: #A80036; stroke-width: 3.125;"/><polygon fill="#A80036" points="951.5625,3090.7601,964.0625,3062.6351,951.5625,3075.1351,939.0625,3062.6351,951.5625,3090.7601" style="stroke: #A80036; stroke-width: 3.125;"/><path d="M951.5625,3248.856 C951.5625,3302.3051 951.5625,3371.9569 951.5625,3417.1026 " fill="none" style="stroke: #A80036; stroke-width: 3.125;"/><polygon fill="#A80036" points="951.5625,3433.6904,964.0625,3405.5654,951.5625,3418.0654,939.0625,3405.5654,951.5625,3433.6904" style="stroke: #A80036; stroke-width: 3.125;"/></g></svg>