<?xml version="1.0" encoding="UTF-8" standalone="yes"?><svg xmlns="http://www.w3.org/2000/svg" xmlns:xlink="http://www.w3.org/1999/xlink" height="1800px" style="width:1171px;height:1800px;" version="1.1" viewBox="0 0 1171 1800" width="1171.875px"><defs><filter height="300%" id="f1" width="300%" x="-1" y="-1"><feGaussianBlur result="blurOut" stdDeviation="6.25"/><feColorMatrix in="blurOut" result="blurOut2" type="matrix" values="0 0 0 0 0 0 0 0 0 0 0 0 0 0 0 0 0 0 .4 0"/><feOffset dx="12.5" dy="12.5" in="blurOut2" result="blurOut3"/><feBlend in="SourceGraphic" in2="blurOut3" mode="normal"/></filter></defs><g><text fill="#000000" font-family="sans-serif" font-size="56.25" lengthAdjust="spacingAndGlyphs" textLength="1168.75" x="0" y="54.3823">Conference Media Resource Controller FSM</text><ellipse cx="565.625" cy="122.4976" fill="#000000" filter="url(#f1)" rx="31.25" ry="31.25" style="stroke: none; stroke-width: 3.125;"/><rect fill="#FEFECE" filter="url(#f1)" height="156.25" rx="39.0625" ry="39.0625" style="stroke: #A80036; stroke-width: 4.6875;" width="328.125" x="401.5625" y="341.2476"/><line style="stroke: #A80036; stroke-width: 4.6875;" x1="401.5625" x2="729.6875" y1="424.0234" y2="424.0234"/><text fill="#000000" font-family="sans-serif" font-size="43.75" lengthAdjust="spacingAndGlyphs" textLength="265.625" x="432.8125" y="399.1699">uninitialized</text><rect fill="#FEFECE" filter="url(#f1)" height="156.25" rx="39.0625" ry="39.0625" style="stroke: #A80036; stroke-width: 4.6875;" width="715.625" x="207.8125" y="684.9976"/><line style="stroke: #A80036; stroke-width: 4.6875;" x1="207.8125" x2="923.4375" y1="767.7734" y2="767.7734"/><text fill="#000000" font-family="sans-serif" font-size="43.75" lengthAdjust="spacingAndGlyphs" textLength="653.125" x="239.0625" y="742.9199">gettingConferenceInfoFromDB</text><rect fill="#FEFECE" filter="url(#f1)" height="156.25" rx="39.0625" ry="39.0625" style="stroke: #A80036; stroke-width: 4.6875;" width="190.625" x="470.3125" y="1028.7476"/><line style="stroke: #A80036; stroke-width: 4.6875;" x1="470.3125" x2="660.9375" y1="1111.5234" y2="1111.5234"/><text fill="#000000" font-family="sans-serif" font-size="43.75" lengthAdjust="spacingAndGlyphs" textLength="128.125" x="501.5625" y="1086.6699">Failed</text><rect fill="#FEFECE" filter="url(#f1)" height="156.25" rx="39.0625" ry="39.0625" style="stroke: #A80036; stroke-width: 4.6875;" width="225" x="453.125" y="1372.4976"/><line style="stroke: #A80036; stroke-width: 4.6875;" x1="453.125" x2="678.125" y1="1455.2734" y2="1455.2734"/><text fill="#000000" font-family="sans-serif" font-size="43.75" lengthAdjust="spacingAndGlyphs" textLength="162.5" x="484.375" y="1430.4199">inactive</text><ellipse cx="565.625" cy="1747.4976" fill="none" filter="url(#f1)" rx="31.25" ry="31.25" style="stroke: #000000; stroke-width: 3.125;"/><ellipse cx="567.1875" cy="1749.0601" fill="#000000" rx="18.75" ry="18.75" style="stroke: none; stroke-width: 3.125;"/><path d="M565.625,154.5507 C565.625,193.9226 565.625,266.1882 565.625,324.8194 " fill="none" style="stroke: #A80036; stroke-width: 3.125;"/><polygon fill="#A80036" points="565.625,340.9569,578.125,312.8319,565.625,325.3319,553.125,312.8319,565.625,340.9569" style="stroke: #A80036; stroke-width: 3.125;"/><path d="M565.625,498.2382 C565.625,548.6132 565.625,615.0632 565.625,668.4069 " fill="none" style="stroke: #A80036; stroke-width: 3.125;"/><polygon fill="#A80036" points="565.625,684.5101,578.125,656.3851,565.625,668.8851,553.125,656.3851,565.625,684.5101" style="stroke: #A80036; stroke-width: 3.125;"/><path d="M565.625,841.9882 C565.625,892.3632 565.625,958.8132 565.625,1012.1569 " fill="none" style="stroke: #A80036; stroke-width: 3.125;"/><polygon fill="#A80036" points="565.625,1028.2601,578.125,1000.1351,565.625,1012.6351,553.125,1000.1351,565.625,1028.2601" style="stroke: #A80036; stroke-width: 3.125;"/><path d="M565.625,1185.7382 C565.625,1236.1132 565.625,1302.5632 565.625,1355.9069 " fill="none" style="stroke: #A80036; stroke-width: 3.125;"/><polygon fill="#A80036" points="565.625,1372.0101,578.125,1343.8851,565.625,1356.3851,553.125,1343.8851,565.625,1372.0101" style="stroke: #A80036; stroke-width: 3.125;"/><path d="M565.625,1530.106 C565.625,1583.5551 565.625,1653.2069 565.625,1698.3526 " fill="none" style="stroke: #A80036; stroke-width: 3.125;"/><polygon fill="#A80036" points="565.625,1714.9404,578.125,1686.8154,565.625,1699.3154,553.125,1686.8154,565.625,1714.9404" style="stroke: #A80036; stroke-width: 3.125;"/></g></svg>