<?xml version="1.0" encoding="UTF-8" standalone="yes"?><svg xmlns="http://www.w3.org/2000/svg" xmlns:xlink="http://www.w3.org/1999/xlink" height="9784.375px" style="width:2943px;height:9784px;" version="1.1" viewBox="0 0 2943 9784" width="2943.75px"><defs><filter height="300%" id="f1" width="300%" x="-1" y="-1"><feGaussianBlur result="blurOut" stdDeviation="6.25"/><feColorMatrix in="blurOut" result="blurOut2" type="matrix" values="0 0 0 0 0 0 0 0 0 0 0 0 0 0 0 0 0 0 .4 0"/><feOffset dx="12.5" dy="12.5" in="blurOut2" result="blurOut3"/><feBlend in="SourceGraphic" in2="blurOut3" mode="normal"/></filter></defs><g><text fill="#000000" font-family="sans-serif" font-size="43.75" font-weight="bold" lengthAdjust="spacingAndGlyphs" textLength="1418.75" x="759.375" y="73.5474">cascading conference creation sequence (2 participants, 2 RMS)</text><rect fill="#FFFFFF" filter="url(#f1)" height="799.1455" style="stroke: #000000; stroke-width: 6.25;" width="2650" x="40.625" y="1665.4541"/><rect fill="#FFFFFF" filter="url(#f1)" height="703.4546" style="stroke: #000000; stroke-width: 6.25;" width="2650" x="40.625" y="3854.9133"/><rect fill="#FFFFFF" filter="url(#f1)" height="703.4546" style="stroke: #000000; stroke-width: 6.25;" width="2550" x="346.875" y="6032.0862"/><line style="stroke: #A80036; stroke-width: 3.125; stroke-dasharray: 5.0,5.0;" x1="209.375" x2="209.375" y1="365.5518" y2="9521.4478"/><line style="stroke: #A80036; stroke-width: 3.125; stroke-dasharray: 5.0,5.0;" x1="515.625" x2="515.625" y1="365.5518" y2="9521.4478"/><line style="stroke: #A80036; stroke-width: 3.125; stroke-dasharray: 5.0,5.0;" x1="1095.3125" x2="1095.3125" y1="365.5518" y2="9521.4478"/><line style="stroke: #A80036; stroke-width: 3.125; stroke-dasharray: 5.0,5.0;" x1="2571.875" x2="2571.875" y1="365.5518" y2="9521.4478"/><line style="stroke: #A80036; stroke-width: 3.125; stroke-dasharray: 5.0,5.0;" x1="2778.125" x2="2778.125" y1="365.5518" y2="9521.4478"/><text fill="#000000" font-family="sans-serif" font-size="43.75" lengthAdjust="spacingAndGlyphs" textLength="256.25" x="71.875" y="356.3232">Participant1</text><ellipse cx="209.375" cy="135.9009" fill="#FEFECE" filter="url(#f1)" rx="25" ry="25" style="stroke: #A80036; stroke-width: 6.25;"/><path d="M209.375,160.9009 L209.375,245.2759 M168.75,185.9009 L250,185.9009 M209.375,245.2759 L168.75,292.1509 M209.375,245.2759 L250,292.1509 " fill="#FEFECE" filter="url(#f1)" style="stroke: #A80036; stroke-width: 6.25;"/><text fill="#000000" font-family="sans-serif" font-size="43.75" lengthAdjust="spacingAndGlyphs" textLength="256.25" x="71.875" y="9560.6201">Participant1</text><ellipse cx="209.375" cy="9601.0986" fill="#FEFECE" filter="url(#f1)" rx="25" ry="25" style="stroke: #A80036; stroke-width: 6.25;"/><path d="M209.375,9626.0986 L209.375,9710.4736 M168.75,9651.0986 L250,9651.0986 M209.375,9710.4736 L168.75,9757.3486 M209.375,9710.4736 L250,9757.3486 " fill="#FEFECE" filter="url(#f1)" style="stroke: #A80036; stroke-width: 6.25;"/><text fill="#000000" font-family="sans-serif" font-size="43.75" lengthAdjust="spacingAndGlyphs" textLength="256.25" x="378.125" y="356.3232">Participant2</text><ellipse cx="515.625" cy="135.9009" fill="#FEFECE" filter="url(#f1)" rx="25" ry="25" style="stroke: #A80036; stroke-width: 6.25;"/><path d="M515.625,160.9009 L515.625,245.2759 M475,185.9009 L556.25,185.9009 M515.625,245.2759 L475,292.1509 M515.625,245.2759 L556.25,292.1509 " fill="#FEFECE" filter="url(#f1)" style="stroke: #A80036; stroke-width: 6.25;"/><text fill="#000000" font-family="sans-serif" font-size="43.75" lengthAdjust="spacingAndGlyphs" textLength="256.25" x="378.125" y="9560.6201">Participant2</text><ellipse cx="515.625" cy="9601.0986" fill="#FEFECE" filter="url(#f1)" rx="25" ry="25" style="stroke: #A80036; stroke-width: 6.25;"/><path d="M515.625,9626.0986 L515.625,9710.4736 M475,9651.0986 L556.25,9651.0986 M515.625,9710.4736 L475,9757.3486 M515.625,9710.4736 L556.25,9757.3486 " fill="#FEFECE" filter="url(#f1)" style="stroke: #A80036; stroke-width: 6.25;"/><rect fill="#FEFECE" filter="url(#f1)" height="95.2759" style="stroke: #A80036; stroke-width: 4.6875;" width="265.625" x="957.8125" y="254.6509"/><text fill="#000000" font-family="sans-serif" font-size="43.75" lengthAdjust="spacingAndGlyphs" textLength="221.875" x="979.6875" y="318.8232">Restcomm</text><rect fill="#FEFECE" filter="url(#f1)" height="95.2759" style="stroke: #A80036; stroke-width: 4.6875;" width="265.625" x="957.8125" y="9518.3228"/><text fill="#000000" font-family="sans-serif" font-size="43.75" lengthAdjust="spacingAndGlyphs" textLength="221.875" x="979.6875" y="9582.4951">Restcomm</text><rect fill="#FEFECE" filter="url(#f1)" height="95.2759" style="stroke: #A80036; stroke-width: 4.6875;" width="162.5" x="2484.375" y="254.6509"/><text fill="#000000" font-family="sans-serif" font-size="43.75" lengthAdjust="spacingAndGlyphs" textLength="118.75" x="2506.25" y="318.8232">RMS1</text><rect fill="#FEFECE" filter="url(#f1)" height="95.2759" style="stroke: #A80036; stroke-width: 4.6875;" width="162.5" x="2484.375" y="9518.3228"/><text fill="#000000" font-family="sans-serif" font-size="43.75" lengthAdjust="spacingAndGlyphs" textLength="118.75" x="2506.25" y="9582.4951">RMS1</text><rect fill="#FEFECE" filter="url(#f1)" height="95.2759" style="stroke: #A80036; stroke-width: 4.6875;" width="162.5" x="2690.625" y="254.6509"/><text fill="#000000" font-family="sans-serif" font-size="43.75" lengthAdjust="spacingAndGlyphs" textLength="118.75" x="2712.5" y="318.8232">RMS2</text><rect fill="#FEFECE" filter="url(#f1)" height="95.2759" style="stroke: #A80036; stroke-width: 4.6875;" width="162.5" x="2690.625" y="9518.3228"/><text fill="#000000" font-family="sans-serif" font-size="43.75" lengthAdjust="spacingAndGlyphs" textLength="118.75" x="2712.5" y="9582.4951">RMS2</text><polygon fill="#A80036" points="1059.375,449.9268,1090.625,462.4268,1059.375,474.9268,1071.875,462.4268" style="stroke: #A80036; stroke-width: 3.125;"/><line style="stroke: #A80036; stroke-width: 3.125;" x1="209.375" x2="1078.125" y1="462.4268" y2="462.4268"/><text fill="#000000" font-family="sans-serif" font-size="40.625" lengthAdjust="spacingAndGlyphs" textLength="265.625" x="231.25" y="448.5779">sip/sdp Call1</text><polygon fill="#A80036" points="243.75,541.5222,212.5,554.0222,243.75,566.5222,231.25,554.0222" style="stroke: #A80036; stroke-width: 3.125;"/><line style="stroke: #A80036; stroke-width: 3.125; stroke-dasharray: 2.0,2.0;" x1="225" x2="1093.75" y1="554.0222" y2="554.0222"/><text fill="#000000" font-family="sans-serif" font-size="40.625" lengthAdjust="spacingAndGlyphs" textLength="293.75" x="262.5" y="540.1733">sip 100/Trying</text><polygon fill="#A80036" points="2534.375,726.8677,2565.625,739.3677,2534.375,751.8677,2546.875,739.3677" style="stroke: #A80036; stroke-width: 3.125;"/><line style="stroke: #A80036; stroke-width: 3.125;" x1="1096.875" x2="2553.125" y1="739.3677" y2="739.3677"/><text fill="#000000" font-family="sans-serif" font-size="40.625" lengthAdjust="spacingAndGlyphs" textLength="240.625" x="1118.75" y="631.7688">mgcp CRCX:</text><text fill="#000000" font-family="sans-serif" font-size="40.625" lengthAdjust="spacingAndGlyphs" textLength="837.5" x="1118.75" y="679.6143">{Primary: mobicents/bridge/$@RMS1:2427</text><text fill="#000000" font-family="sans-serif" font-size="40.625" lengthAdjust="spacingAndGlyphs" textLength="803.125" x="1118.75" y="727.4597">secondary mobicents/ivr/$@RMS1:2427}</text><polygon fill="#A80036" points="1131.25,914.1541,1100,926.6541,1131.25,939.1541,1118.75,926.6541" style="stroke: #A80036; stroke-width: 3.125;"/><line style="stroke: #A80036; stroke-width: 3.125;" x1="1112.5" x2="2568.75" y1="926.6541" y2="926.6541"/><text fill="#000000" font-family="sans-serif" font-size="40.625" lengthAdjust="spacingAndGlyphs" textLength="290.625" x="1150" y="819.0552">mgcp Success:</text><text fill="#000000" font-family="sans-serif" font-size="40.625" lengthAdjust="spacingAndGlyphs" textLength="665.625" x="1150" y="866.9006">{mobicents/bridge/1@RMS1:2427</text><text fill="#000000" font-family="sans-serif" font-size="40.625" lengthAdjust="spacingAndGlyphs" textLength="803.125" x="1150" y="914.7461">secondary mobicents/ivr/1@RMS1:2427}</text><polygon fill="#A80036" points="2534.375,1101.4404,2565.625,1113.9404,2534.375,1126.4404,2546.875,1113.9404" style="stroke: #A80036; stroke-width: 3.125;"/><line style="stroke: #A80036; stroke-width: 3.125;" x1="1096.875" x2="2553.125" y1="1113.9404" y2="1113.9404"/><text fill="#000000" font-family="sans-serif" font-size="40.625" lengthAdjust="spacingAndGlyphs" textLength="1250" x="1118.75" y="1006.3416">mgcp/sdp CRCX: sendrcv: callID1: notification entity restcomm</text><text fill="#000000" font-family="sans-serif" font-size="40.625" lengthAdjust="spacingAndGlyphs" textLength="631.25" x="1118.75" y="1054.187">mobicents/bridge1@RMS1:2427</text><text fill="#000000" font-family="sans-serif" font-size="40.625" lengthAdjust="spacingAndGlyphs" textLength="546.875" x="1118.75" y="1102.0325">SDP (sip client's info, IP etc)</text><polygon fill="#A80036" points="1131.25,1194.9768,1100,1207.4768,1131.25,1219.9768,1118.75,1207.4768" style="stroke: #A80036; stroke-width: 3.125;"/><line style="stroke: #A80036; stroke-width: 3.125;" x1="1112.5" x2="2568.75" y1="1207.4768" y2="1207.4768"/><text fill="#000000" font-family="sans-serif" font-size="40.625" lengthAdjust="spacingAndGlyphs" textLength="1400" x="1150" y="1193.6279">mgcp/sdp Success: SDP (media server info, connection and media info)</text><polygon fill="#A80036" points="243.75,1286.5723,212.5,1299.0723,243.75,1311.5723,231.25,1299.0723" style="stroke: #A80036; stroke-width: 3.125;"/><line style="stroke: #A80036; stroke-width: 3.125;" x1="225" x2="1093.75" y1="1299.0723" y2="1299.0723"/><text fill="#000000" font-family="sans-serif" font-size="40.625" lengthAdjust="spacingAndGlyphs" textLength="528.125" x="262.5" y="1285.2234">sip/sdp 200|OK (SIP invite)</text><polygon fill="#A80036" points="1059.375,1378.1677,1090.625,1390.6677,1059.375,1403.1677,1071.875,1390.6677" style="stroke: #A80036; stroke-width: 3.125;"/><line style="stroke: #A80036; stroke-width: 3.125;" x1="209.375" x2="1078.125" y1="1390.6677" y2="1390.6677"/><text fill="#000000" font-family="sans-serif" font-size="40.625" lengthAdjust="spacingAndGlyphs" textLength="153.125" x="231.25" y="1376.8188">sip ACK</text><rect fill="#EEEEEE" filter="url(#f1)" height="9.375" style="stroke: #EEEEEE; stroke-width: 3.125;" width="2918.75" x="9.375" y="1481.1859"/><line style="stroke: #000000; stroke-width: 3.125;" x1="9.375" x2="2928.125" y1="1481.1859" y2="1481.1859"/><line style="stroke: #000000; stroke-width: 3.125;" x1="9.375" x2="2928.125" y1="1490.5609" y2="1490.5609"/><rect fill="#EEEEEE" filter="url(#f1)" height="72.8455" style="stroke: #000000; stroke-width: 6.25;" width="428.125" x="1254.6875" y="1447.8882"/><text fill="#000000" font-family="sans-serif" font-size="40.625" font-weight="bold" lengthAdjust="spacingAndGlyphs" textLength="371.875" x="1273.4375" y="1499.6643">call is in progress</text><polygon fill="#A80036" points="243.75,1605.1086,212.5,1617.6086,243.75,1630.1086,231.25,1617.6086" style="stroke: #A80036; stroke-width: 3.125;"/><polygon fill="#A80036" points="2534.375,1605.1086,2565.625,1617.6086,2534.375,1630.1086,2546.875,1617.6086" style="stroke: #A80036; stroke-width: 3.125;"/><line style="stroke: #A80036; stroke-width: 3.125; stroke-dasharray: 2.0,2.0;" x1="225" x2="2553.125" y1="1617.6086" y2="1617.6086"/><text fill="#000000" font-family="sans-serif" font-size="40.625" lengthAdjust="spacingAndGlyphs" textLength="71.875" x="262.5" y="1603.7598">RTP</text><rect fill="none" height="799.1455" style="stroke: #000000; stroke-width: 6.25;" width="2650" x="40.625" y="1665.4541"/><polygon fill="#EEEEEE" points="40.625,1665.4541,234.375,1665.4541,234.375,1687.3291,203.125,1718.5791,40.625,1718.5791,40.625,1665.4541" style="stroke: #000000; stroke-width: 6.25;"/><text fill="#000000" font-family="sans-serif" font-size="40.625" font-weight="bold" lengthAdjust="spacingAndGlyphs" textLength="53.125" x="87.5" y="1707.8552">alt</text><text fill="#000000" font-family="sans-serif" font-size="34.375" font-weight="bold" lengthAdjust="spacingAndGlyphs" textLength="368.75" x="281.25" y="1704.9377">[Play Announcement]</text><polygon fill="#A80036" points="2534.375,1866.4246,2565.625,1878.9246,2534.375,1891.4246,2546.875,1878.9246" style="stroke: #A80036; stroke-width: 3.125;"/><line style="stroke: #A80036; stroke-width: 3.125;" x1="1096.875" x2="2553.125" y1="1878.9246" y2="1878.9246"/><text fill="#000000" font-family="sans-serif" font-size="40.625" lengthAdjust="spacingAndGlyphs" textLength="821.875" x="1118.75" y="1771.3257">mgcp RQNT: notification entity restcomm</text><text fill="#000000" font-family="sans-serif" font-size="40.625" lengthAdjust="spacingAndGlyphs" textLength="578.125" x="1118.75" y="1819.1711">mobicents/ivr/1@RMS1:2427</text><text fill="#000000" font-family="sans-serif" font-size="40.625" lengthAdjust="spacingAndGlyphs" textLength="250" x="1118.75" y="1867.0166">audio file url</text><polygon fill="#A80036" points="1131.25,1959.9609,1100,1972.4609,1131.25,1984.9609,1118.75,1972.4609" style="stroke: #A80036; stroke-width: 3.125;"/><line style="stroke: #A80036; stroke-width: 3.125;" x1="1112.5" x2="2568.75" y1="1972.4609" y2="1972.4609"/><text fill="#000000" font-family="sans-serif" font-size="40.625" lengthAdjust="spacingAndGlyphs" textLength="278.125" x="1150" y="1958.6121">mgcp Success</text><polygon fill="#A80036" points="243.75,2051.5564,212.5,2064.0564,243.75,2076.5564,231.25,2064.0564" style="stroke: #A80036; stroke-width: 3.125;"/><line style="stroke: #A80036; stroke-width: 3.125; stroke-dasharray: 2.0,2.0;" x1="225" x2="2568.75" y1="2064.0564" y2="2064.0564"/><text fill="#000000" font-family="sans-serif" font-size="40.625" lengthAdjust="spacingAndGlyphs" textLength="459.375" x="262.5" y="2050.2075">playing announcement.</text><polygon fill="#A80036" points="1131.25,2286.9019,1100,2299.4019,1131.25,2311.9019,1118.75,2299.4019" style="stroke: #A80036; stroke-width: 3.125;"/><line style="stroke: #A80036; stroke-width: 3.125;" x1="1112.5" x2="2568.75" y1="2299.4019" y2="2299.4019"/><text fill="#000000" font-family="sans-serif" font-size="40.625" lengthAdjust="spacingAndGlyphs" textLength="812.5" x="1150" y="2141.803">mgcp NTFY: notification entity restcomm</text><text fill="#000000" font-family="sans-serif" font-size="40.625" lengthAdjust="spacingAndGlyphs" textLength="578.125" x="1150" y="2189.6484">mobicents/ivr/1@RMS1:2427</text><text fill="#000000" font-family="sans-serif" font-size="40.625" lengthAdjust="spacingAndGlyphs" textLength="646.875" x="1150" y="2237.4939">ObservedEvents AUC/oc(rc=100)</text><text fill="#000000" font-family="sans-serif" font-size="40.625" lengthAdjust="spacingAndGlyphs" textLength="321.875" x="1150" y="2285.3394">transactionID=7</text><polygon fill="#A80036" points="2534.375,2425.1587,2565.625,2437.6587,2534.375,2450.1587,2546.875,2437.6587" style="stroke: #A80036; stroke-width: 3.125;"/><line style="stroke: #A80036; stroke-width: 3.125;" x1="1096.875" x2="2553.125" y1="2437.6587" y2="2437.6587"/><text fill="#000000" font-family="sans-serif" font-size="40.625" lengthAdjust="spacingAndGlyphs" textLength="778.125" x="1118.75" y="2376.9348">mgcp Transaction executed succesfully</text><text fill="#000000" font-family="sans-serif" font-size="40.625" lengthAdjust="spacingAndGlyphs" textLength="321.875" x="1118.75" y="2424.7803">transactionID=7</text><rect fill="#EEEEEE" filter="url(#f1)" height="9.375" style="stroke: #EEEEEE; stroke-width: 3.125;" width="2918.75" x="9.375" y="2551.0223"/><line style="stroke: #000000; stroke-width: 3.125;" x1="9.375" x2="2928.125" y1="2551.0223" y2="2551.0223"/><line style="stroke: #000000; stroke-width: 3.125;" x1="9.375" x2="2928.125" y1="2560.3973" y2="2560.3973"/><rect fill="#EEEEEE" filter="url(#f1)" height="72.8455" style="stroke: #000000; stroke-width: 6.25;" width="381.25" x="1278.125" y="2517.7246"/><text fill="#000000" font-family="sans-serif" font-size="40.625" font-weight="bold" lengthAdjust="spacingAndGlyphs" textLength="325" x="1296.875" y="2569.5007">dial conference</text><polygon fill="#A80036" points="2534.375,2768.6951,2565.625,2781.1951,2534.375,2793.6951,2546.875,2781.1951" style="stroke: #A80036; stroke-width: 3.125;"/><line style="stroke: #A80036; stroke-width: 3.125;" x1="1096.875" x2="2553.125" y1="2781.1951" y2="2781.1951"/><text fill="#000000" font-family="sans-serif" font-size="40.625" lengthAdjust="spacingAndGlyphs" textLength="228.125" x="1118.75" y="2673.5962">mgcp CRCX</text><text fill="#000000" font-family="sans-serif" font-size="40.625" lengthAdjust="spacingAndGlyphs" textLength="568.75" x="1118.75" y="2721.4417">mobicents/cnf$@RMS1:2427</text><text fill="#000000" font-family="sans-serif" font-size="40.625" lengthAdjust="spacingAndGlyphs" textLength="978.125" x="1118.75" y="2769.2871">secondaryEndpoint: mobicents/ivr/$@RMS1:2427</text><polygon fill="#A80036" points="1131.25,2955.9814,1100,2968.4814,1131.25,2980.9814,1118.75,2968.4814" style="stroke: #A80036; stroke-width: 3.125;"/><line style="stroke: #A80036; stroke-width: 3.125;" x1="1112.5" x2="2568.75" y1="2968.4814" y2="2968.4814"/><text fill="#000000" font-family="sans-serif" font-size="40.625" lengthAdjust="spacingAndGlyphs" textLength="278.125" x="1150" y="2860.8826">mgcp Success</text><text fill="#000000" font-family="sans-serif" font-size="40.625" lengthAdjust="spacingAndGlyphs" textLength="568.75" x="1150" y="2908.728">mobicents/cnf1@RMS1:2427</text><text fill="#000000" font-family="sans-serif" font-size="40.625" lengthAdjust="spacingAndGlyphs" textLength="978.125" x="1150" y="2956.5735">secondaryEndpoint: mobicents/ivr/2@RMS1:2427</text><polygon fill="#A80036" points="2534.375,3193.2678,2565.625,3205.7678,2534.375,3218.2678,2546.875,3205.7678" style="stroke: #A80036; stroke-width: 3.125;"/><line style="stroke: #A80036; stroke-width: 3.125;" x1="1096.875" x2="2553.125" y1="3205.7678" y2="3205.7678"/><text fill="#000000" font-family="sans-serif" font-size="40.625" lengthAdjust="spacingAndGlyphs" textLength="228.125" x="1118.75" y="3048.1689">mgcp CRCX</text><text fill="#000000" font-family="sans-serif" font-size="40.625" lengthAdjust="spacingAndGlyphs" textLength="853.125" x="1131.25" y="3096.0144">endpoint: mobicents/bridge/1@RMS1:2427</text><text fill="#000000" font-family="sans-serif" font-size="40.625" lengthAdjust="spacingAndGlyphs" textLength="534.375" x="1118.75" y="3143.8599">connectionMode=Confrnce</text><text fill="#000000" font-family="sans-serif" font-size="40.625" lengthAdjust="spacingAndGlyphs" textLength="815.625" x="1118.75" y="3191.7053">2ndaryEP: mobicents/cnf/1@RMS1@2427</text><polygon fill="#A80036" points="1131.25,3331.5247,1100,3344.0247,1131.25,3356.5247,1118.75,3344.0247" style="stroke: #A80036; stroke-width: 3.125;"/><line style="stroke: #A80036; stroke-width: 3.125;" x1="1112.5" x2="2568.75" y1="3344.0247" y2="3344.0247"/><text fill="#000000" font-family="sans-serif" font-size="40.625" lengthAdjust="spacingAndGlyphs" textLength="278.125" x="1150" y="3283.3008">mgcp Success</text><text fill="#000000" font-family="sans-serif" font-size="40.625" lengthAdjust="spacingAndGlyphs" textLength="1221.875" x="1162.5" y="3331.1462">provides Connection identifier for both endpoint connections.</text><polygon fill="#A80036" points="2534.375,3517.8406,2565.625,3530.3406,2534.375,3542.8406,2546.875,3530.3406" style="stroke: #A80036; stroke-width: 3.125;"/><line style="stroke: #A80036; stroke-width: 3.125;" x1="1096.875" x2="2553.125" y1="3530.3406" y2="3530.3406"/><text fill="#000000" font-family="sans-serif" font-size="40.625" lengthAdjust="spacingAndGlyphs" textLength="253.125" x="1118.75" y="3422.7417">mgcp MDCX:</text><text fill="#000000" font-family="sans-serif" font-size="40.625" lengthAdjust="spacingAndGlyphs" textLength="590.625" x="1118.75" y="3470.5872">mobicents/cnf/1@RMS1:2427</text><text fill="#000000" font-family="sans-serif" font-size="40.625" lengthAdjust="spacingAndGlyphs" textLength="737.5" x="1118.75" y="3518.4326">{CallID:1, ConnectionMode: sendrecv}</text><polygon fill="#A80036" points="1131.25,3658.252,1100,3670.752,1131.25,3683.252,1118.75,3670.752" style="stroke: #A80036; stroke-width: 3.125;"/><line style="stroke: #A80036; stroke-width: 3.125;" x1="1112.5" x2="2568.75" y1="3670.752" y2="3670.752"/><text fill="#000000" font-family="sans-serif" font-size="40.625" lengthAdjust="spacingAndGlyphs" textLength="278.125" x="1150" y="3610.0281">mgcp Success</text><text fill="#000000" font-family="sans-serif" font-size="40.625" lengthAdjust="spacingAndGlyphs" textLength="415.625" x="1162.5" y="3657.8735">Connection identifier</text><rect fill="#EEEEEE" filter="url(#f1)" height="9.375" style="stroke: #EEEEEE; stroke-width: 3.125;" width="2918.75" x="9.375" y="3762.2406"/><line style="stroke: #000000; stroke-width: 3.125;" x1="9.375" x2="2928.125" y1="3762.2406" y2="3762.2406"/><line style="stroke: #000000; stroke-width: 3.125;" x1="9.375" x2="2928.125" y1="3771.6156" y2="3771.6156"/><rect fill="#EEEEEE" filter="url(#f1)" height="72.8455" style="stroke: #000000; stroke-width: 6.25;" width="481.25" x="1228.125" y="3728.9429"/><text fill="#000000" font-family="sans-serif" font-size="40.625" font-weight="bold" lengthAdjust="spacingAndGlyphs" textLength="425" x="1246.875" y="3780.719">conference is joined</text><rect fill="none" height="703.4546" style="stroke: #000000; stroke-width: 6.25;" width="2650" x="40.625" y="3854.9133"/><polygon fill="#EEEEEE" points="40.625,3854.9133,234.375,3854.9133,234.375,3876.7883,203.125,3908.0383,40.625,3908.0383,40.625,3854.9133" style="stroke: #000000; stroke-width: 6.25;"/><text fill="#000000" font-family="sans-serif" font-size="40.625" font-weight="bold" lengthAdjust="spacingAndGlyphs" textLength="53.125" x="87.5" y="3897.3145">alt</text><text fill="#000000" font-family="sans-serif" font-size="34.375" font-weight="bold" lengthAdjust="spacingAndGlyphs" textLength="300" x="281.25" y="3894.397">[Play Wait Music]</text><polygon fill="#A80036" points="2534.375,4055.8838,2565.625,4068.3838,2534.375,4080.8838,2546.875,4068.3838" style="stroke: #A80036; stroke-width: 3.125;"/><line style="stroke: #A80036; stroke-width: 3.125;" x1="1096.875" x2="2553.125" y1="4068.3838" y2="4068.3838"/><text fill="#000000" font-family="sans-serif" font-size="40.625" lengthAdjust="spacingAndGlyphs" textLength="131.25" x="1118.75" y="3960.7849">MDCX:</text><text fill="#000000" font-family="sans-serif" font-size="40.625" lengthAdjust="spacingAndGlyphs" textLength="653.125" x="1118.75" y="4008.6304">mobicents/bridge/1@RMS1:2427</text><text fill="#000000" font-family="sans-serif" font-size="40.625" lengthAdjust="spacingAndGlyphs" textLength="740.625" x="1118.75" y="4056.4758">{CallID:1, ConnectionMode: sendonly}</text><polygon fill="#A80036" points="1131.25,4196.2952,1100,4208.7952,1131.25,4221.2952,1118.75,4208.7952" style="stroke: #A80036; stroke-width: 3.125;"/><line style="stroke: #A80036; stroke-width: 3.125; stroke-dasharray: 2.0,2.0;" x1="1112.5" x2="2568.75" y1="4208.7952" y2="4208.7952"/><text fill="#000000" font-family="sans-serif" font-size="40.625" lengthAdjust="spacingAndGlyphs" textLength="75" x="1150" y="4148.0713">200</text><text fill="#000000" font-family="sans-serif" font-size="40.625" lengthAdjust="spacingAndGlyphs" textLength="618.75" x="1150" y="4195.9167">SDP {conn &amp; media info of RMS}</text><polygon fill="#A80036" points="2534.375,4335.7361,2565.625,4348.2361,2534.375,4360.7361,2546.875,4348.2361" style="stroke: #A80036; stroke-width: 3.125;"/><line style="stroke: #A80036; stroke-width: 3.125;" x1="1096.875" x2="2553.125" y1="4348.2361" y2="4348.2361"/><text fill="#000000" font-family="sans-serif" font-size="40.625" lengthAdjust="spacingAndGlyphs" textLength="703.125" x="1118.75" y="4287.5122">RQNT mobicents/ivr/2@RMS1:2427</text><text fill="#000000" font-family="sans-serif" font-size="40.625" lengthAdjust="spacingAndGlyphs" textLength="550" x="1131.25" y="4335.3577">signalRequest: audio file url</text><polygon fill="#A80036" points="1131.25,4428.302,1100,4440.802,1131.25,4453.302,1118.75,4440.802" style="stroke: #A80036; stroke-width: 3.125;"/><line style="stroke: #A80036; stroke-width: 3.125;" x1="1112.5" x2="2568.75" y1="4440.802" y2="4440.802"/><text fill="#000000" font-family="sans-serif" font-size="40.625" lengthAdjust="spacingAndGlyphs" textLength="156.25" x="1150" y="4426.9531">success</text><polygon fill="#A80036" points="243.75,4519.8975,212.5,4532.3975,243.75,4544.8975,231.25,4532.3975" style="stroke: #A80036; stroke-width: 3.125;"/><line style="stroke: #A80036; stroke-width: 3.125; stroke-dasharray: 2.0,2.0;" x1="225" x2="2568.75" y1="4532.3975" y2="4532.3975"/><text fill="#000000" font-family="sans-serif" font-size="40.625" lengthAdjust="spacingAndGlyphs" textLength="228.125" x="262.5" y="4518.5486">music (RTP)</text><rect fill="#EEEEEE" filter="url(#f1)" height="9.375" style="stroke: #EEEEEE; stroke-width: 3.125;" width="2918.75" x="9.375" y="4644.7906"/><line style="stroke: #000000; stroke-width: 3.125;" x1="9.375" x2="2928.125" y1="4644.7906" y2="4644.7906"/><line style="stroke: #000000; stroke-width: 3.125;" x1="9.375" x2="2928.125" y1="4654.1656" y2="4654.1656"/><rect fill="#EEEEEE" filter="url(#f1)" height="72.8455" style="stroke: #000000; stroke-width: 6.25;" width="812.5" x="1062.5" y="4611.4929"/><text fill="#000000" font-family="sans-serif" font-size="40.625" font-weight="bold" lengthAdjust="spacingAndGlyphs" textLength="756.25" x="1081.25" y="4663.269">second participants call sip number</text><polygon fill="#A80036" points="1059.375,4815.5884,1090.625,4828.0884,1059.375,4840.5884,1071.875,4828.0884" style="stroke: #A80036; stroke-width: 3.125;"/><line style="stroke: #A80036; stroke-width: 3.125;" x1="515.625" x2="1078.125" y1="4828.0884" y2="4828.0884"/><text fill="#000000" font-family="sans-serif" font-size="40.625" lengthAdjust="spacingAndGlyphs" textLength="100" x="537.5" y="4767.3645">Call2</text><text fill="#000000" font-family="sans-serif" font-size="40.625" lengthAdjust="spacingAndGlyphs" textLength="293.75" x="537.5" y="4815.21">SIP/SDP INVITE</text><polygon fill="#A80036" points="550,4908.1543,518.75,4920.6543,550,4933.1543,537.5,4920.6543" style="stroke: #A80036; stroke-width: 3.125;"/><line style="stroke: #A80036; stroke-width: 3.125; stroke-dasharray: 2.0,2.0;" x1="531.25" x2="1093.75" y1="4920.6543" y2="4920.6543"/><text fill="#000000" font-family="sans-serif" font-size="40.625" lengthAdjust="spacingAndGlyphs" textLength="221.875" x="568.75" y="4906.8054">100/Trying</text><polygon fill="#A80036" points="2740.625,5093.4998,2771.875,5105.9998,2740.625,5118.4998,2753.125,5105.9998" style="stroke: #A80036; stroke-width: 3.125;"/><line style="stroke: #A80036; stroke-width: 3.125;" x1="1096.875" x2="2759.375" y1="5105.9998" y2="5105.9998"/><text fill="#000000" font-family="sans-serif" font-size="40.625" lengthAdjust="spacingAndGlyphs" textLength="118.75" x="1118.75" y="4998.4009">CRCX:</text><text fill="#000000" font-family="sans-serif" font-size="40.625" lengthAdjust="spacingAndGlyphs" textLength="837.5" x="1118.75" y="5046.2463">{Primary: mobicents/bridge/$@RMS2:2427</text><text fill="#000000" font-family="sans-serif" font-size="40.625" lengthAdjust="spacingAndGlyphs" textLength="803.125" x="1118.75" y="5094.0918">secondary mobicents/ivr/$@RMS2:2427}</text><polygon fill="#A80036" points="1131.25,5280.7861,1100,5293.2861,1131.25,5305.7861,1118.75,5293.2861" style="stroke: #A80036; stroke-width: 3.125;"/><line style="stroke: #A80036; stroke-width: 3.125;" x1="1112.5" x2="2775" y1="5293.2861" y2="5293.2861"/><text fill="#000000" font-family="sans-serif" font-size="40.625" lengthAdjust="spacingAndGlyphs" textLength="168.75" x="1150" y="5185.6873">Success:</text><text fill="#000000" font-family="sans-serif" font-size="40.625" lengthAdjust="spacingAndGlyphs" textLength="665.625" x="1150" y="5233.5327">{mobicents/bridge/2@RMS2:2427</text><text fill="#000000" font-family="sans-serif" font-size="40.625" lengthAdjust="spacingAndGlyphs" textLength="803.125" x="1150" y="5281.3782">secondary mobicents/ivr/3@RMS2:2427}</text><polygon fill="#A80036" points="2740.625,5468.0725,2771.875,5480.5725,2740.625,5493.0725,2753.125,5480.5725" style="stroke: #A80036; stroke-width: 3.125;"/><line style="stroke: #A80036; stroke-width: 3.125;" x1="1096.875" x2="2759.375" y1="5480.5725" y2="5480.5725"/><text fill="#000000" font-family="sans-serif" font-size="40.625" lengthAdjust="spacingAndGlyphs" textLength="1009.375" x="1118.75" y="5372.9736">CRCX: sendrcv: callID: notification entity restcomm</text><text fill="#000000" font-family="sans-serif" font-size="40.625" lengthAdjust="spacingAndGlyphs" textLength="631.25" x="1118.75" y="5420.8191">mobicents/bridge2@RMS2:2427</text><text fill="#000000" font-family="sans-serif" font-size="40.625" lengthAdjust="spacingAndGlyphs" textLength="546.875" x="1118.75" y="5468.6646">SDP (sip client's info, IP etc)</text><polygon fill="#A80036" points="1131.25,5561.6089,1100,5574.1089,1131.25,5586.6089,1118.75,5574.1089" style="stroke: #A80036; stroke-width: 3.125;"/><line style="stroke: #A80036; stroke-width: 3.125;" x1="1112.5" x2="2775" y1="5574.1089" y2="5574.1089"/><text fill="#000000" font-family="sans-serif" font-size="40.625" lengthAdjust="spacingAndGlyphs" textLength="784.375" x="1150" y="5560.26">Success: SDP (RMS2 media session info)</text><polygon fill="#A80036" points="550,5653.2043,518.75,5665.7043,550,5678.2043,537.5,5665.7043" style="stroke: #A80036; stroke-width: 3.125;"/><line style="stroke: #A80036; stroke-width: 3.125;" x1="531.25" x2="1093.75" y1="5665.7043" y2="5665.7043"/><text fill="#000000" font-family="sans-serif" font-size="40.625" lengthAdjust="spacingAndGlyphs" textLength="506.25" x="568.75" y="5651.8555">sip/sdp 200|OK (SIP, SDP)</text><polygon fill="#A80036" points="1059.375,5744.7998,1090.625,5757.2998,1059.375,5769.7998,1071.875,5757.2998" style="stroke: #A80036; stroke-width: 3.125;"/><line style="stroke: #A80036; stroke-width: 3.125;" x1="515.625" x2="1078.125" y1="5757.2998" y2="5757.2998"/><text fill="#000000" font-family="sans-serif" font-size="40.625" lengthAdjust="spacingAndGlyphs" textLength="81.25" x="537.5" y="5743.4509">ACK</text><rect fill="#EEEEEE" filter="url(#f1)" height="9.375" style="stroke: #EEEEEE; stroke-width: 3.125;" width="2918.75" x="9.375" y="5847.818"/><line style="stroke: #000000; stroke-width: 3.125;" x1="9.375" x2="2928.125" y1="5847.818" y2="5847.818"/><line style="stroke: #000000; stroke-width: 3.125;" x1="9.375" x2="2928.125" y1="5857.193" y2="5857.193"/><rect fill="#EEEEEE" filter="url(#f1)" height="72.8455" style="stroke: #000000; stroke-width: 6.25;" width="1437.5" x="750" y="5814.5203"/><text fill="#000000" font-family="sans-serif" font-size="40.625" font-weight="bold" lengthAdjust="spacingAndGlyphs" textLength="1381.25" x="768.75" y="5866.2964">second particpants call is in progress and it is connected to RMS2</text><polygon fill="#A80036" points="550,5971.7407,518.75,5984.2407,550,5996.7407,537.5,5984.2407" style="stroke: #A80036; stroke-width: 3.125;"/><polygon fill="#A80036" points="2740.625,5971.7407,2771.875,5984.2407,2740.625,5996.7407,2753.125,5984.2407" style="stroke: #A80036; stroke-width: 3.125;"/><line style="stroke: #A80036; stroke-width: 3.125; stroke-dasharray: 2.0,2.0;" x1="531.25" x2="2759.375" y1="5984.2407" y2="5984.2407"/><text fill="#000000" font-family="sans-serif" font-size="40.625" lengthAdjust="spacingAndGlyphs" textLength="71.875" x="568.75" y="5970.3918">RTP</text><rect fill="none" height="703.4546" style="stroke: #000000; stroke-width: 6.25;" width="2550" x="346.875" y="6032.0862"/><polygon fill="#EEEEEE" points="346.875,6032.0862,540.625,6032.0862,540.625,6053.9612,509.375,6085.2112,346.875,6085.2112,346.875,6032.0862" style="stroke: #000000; stroke-width: 6.25;"/><text fill="#000000" font-family="sans-serif" font-size="40.625" font-weight="bold" lengthAdjust="spacingAndGlyphs" textLength="53.125" x="393.75" y="6074.4873">alt</text><text fill="#000000" font-family="sans-serif" font-size="34.375" font-weight="bold" lengthAdjust="spacingAndGlyphs" textLength="368.75" x="587.5" y="6071.5698">[Play Announcement]</text><polygon fill="#A80036" points="2740.625,6233.0566,2771.875,6245.5566,2740.625,6258.0566,2753.125,6245.5566" style="stroke: #A80036; stroke-width: 3.125;"/><line style="stroke: #A80036; stroke-width: 3.125;" x1="1096.875" x2="2759.375" y1="6245.5566" y2="6245.5566"/><text fill="#000000" font-family="sans-serif" font-size="40.625" lengthAdjust="spacingAndGlyphs" textLength="700" x="1118.75" y="6137.9578">RQNT: notification entity restcomm</text><text fill="#000000" font-family="sans-serif" font-size="40.625" lengthAdjust="spacingAndGlyphs" textLength="578.125" x="1118.75" y="6185.8032">mobicents/ivr/3@RMS2:2427</text><text fill="#000000" font-family="sans-serif" font-size="40.625" lengthAdjust="spacingAndGlyphs" textLength="250" x="1118.75" y="6233.6487">audio file url</text><polygon fill="#A80036" points="1131.25,6326.593,1100,6339.093,1131.25,6351.593,1118.75,6339.093" style="stroke: #A80036; stroke-width: 3.125;"/><line style="stroke: #A80036; stroke-width: 3.125;" x1="1112.5" x2="2775" y1="6339.093" y2="6339.093"/><text fill="#000000" font-family="sans-serif" font-size="40.625" lengthAdjust="spacingAndGlyphs" textLength="156.25" x="1150" y="6325.2441">Success</text><polygon fill="#A80036" points="550,6418.1885,518.75,6430.6885,550,6443.1885,537.5,6430.6885" style="stroke: #A80036; stroke-width: 3.125;"/><line style="stroke: #A80036; stroke-width: 3.125; stroke-dasharray: 2.0,2.0;" x1="531.25" x2="2775" y1="6430.6885" y2="6430.6885"/><text fill="#000000" font-family="sans-serif" font-size="40.625" lengthAdjust="spacingAndGlyphs" textLength="459.375" x="568.75" y="6416.8396">playing announcement.</text><polygon fill="#A80036" points="1131.25,6603.5339,1100,6616.0339,1131.25,6628.5339,1118.75,6616.0339" style="stroke: #A80036; stroke-width: 3.125;"/><line style="stroke: #A80036; stroke-width: 3.125;" x1="1112.5" x2="2775" y1="6616.0339" y2="6616.0339"/><text fill="#000000" font-family="sans-serif" font-size="40.625" lengthAdjust="spacingAndGlyphs" textLength="690.625" x="1150" y="6508.4351">NTFY: notification entity restcomm</text><text fill="#000000" font-family="sans-serif" font-size="40.625" lengthAdjust="spacingAndGlyphs" textLength="578.125" x="1150" y="6556.2805">mobicents/ivr/3@RMS2:2427</text><text fill="#000000" font-family="sans-serif" font-size="40.625" lengthAdjust="spacingAndGlyphs" textLength="646.875" x="1150" y="6604.126">ObservedEvents AUC/oc(rc=100)</text><polygon fill="#A80036" points="2740.625,6697.0703,2771.875,6709.5703,2740.625,6722.0703,2753.125,6709.5703" style="stroke: #A80036; stroke-width: 3.125;"/><line style="stroke: #A80036; stroke-width: 3.125;" x1="1096.875" x2="2759.375" y1="6709.5703" y2="6709.5703"/><text fill="#000000" font-family="sans-serif" font-size="40.625" lengthAdjust="spacingAndGlyphs" textLength="656.25" x="1118.75" y="6695.7214">Transaction executed succesfully</text><rect fill="#EEEEEE" filter="url(#f1)" height="9.375" style="stroke: #EEEEEE; stroke-width: 3.125;" width="2918.75" x="9.375" y="6821.9635"/><line style="stroke: #000000; stroke-width: 3.125;" x1="9.375" x2="2928.125" y1="6821.9635" y2="6821.9635"/><line style="stroke: #000000; stroke-width: 3.125;" x1="9.375" x2="2928.125" y1="6831.3385" y2="6831.3385"/><rect fill="#EEEEEE" filter="url(#f1)" height="72.8455" style="stroke: #000000; stroke-width: 6.25;" width="990.625" x="973.4375" y="6788.6658"/><text fill="#000000" font-family="sans-serif" font-size="40.625" font-weight="bold" lengthAdjust="spacingAndGlyphs" textLength="934.375" x="992.1875" y="6840.4419">time to create conference endpoint on RMS2</text><polygon fill="#A80036" points="2740.625,7039.6362,2771.875,7052.1362,2740.625,7064.6362,2753.125,7052.1362" style="stroke: #A80036; stroke-width: 3.125;"/><line style="stroke: #A80036; stroke-width: 3.125;" x1="1096.875" x2="2759.375" y1="7052.1362" y2="7052.1362"/><text fill="#000000" font-family="sans-serif" font-size="40.625" lengthAdjust="spacingAndGlyphs" textLength="106.25" x="1118.75" y="6944.5374">CRCX</text><text fill="#000000" font-family="sans-serif" font-size="40.625" lengthAdjust="spacingAndGlyphs" textLength="568.75" x="1118.75" y="6992.3828">mobicents/cnf$@RMS2:2427</text><text fill="#000000" font-family="sans-serif" font-size="40.625" lengthAdjust="spacingAndGlyphs" textLength="978.125" x="1118.75" y="7040.2283">secondaryEndpoint: mobicents/ivr/$@RMS2:2427</text><polygon fill="#A80036" points="1131.25,7226.9226,1100,7239.4226,1131.25,7251.9226,1118.75,7239.4226" style="stroke: #A80036; stroke-width: 3.125;"/><line style="stroke: #A80036; stroke-width: 3.125;" x1="1112.5" x2="2775" y1="7239.4226" y2="7239.4226"/><text fill="#000000" font-family="sans-serif" font-size="40.625" lengthAdjust="spacingAndGlyphs" textLength="156.25" x="1150" y="7131.8237">Success</text><text fill="#000000" font-family="sans-serif" font-size="40.625" lengthAdjust="spacingAndGlyphs" textLength="568.75" x="1150" y="7179.6692">mobicents/cnf2@RMS2:2427</text><text fill="#000000" font-family="sans-serif" font-size="40.625" lengthAdjust="spacingAndGlyphs" textLength="978.125" x="1150" y="7227.5146">secondaryEndpoint: mobicents/ivr/4@RMS2:2427</text><polygon fill="#A80036" points="2740.625,7464.209,2771.875,7476.709,2740.625,7489.209,2753.125,7476.709" style="stroke: #A80036; stroke-width: 3.125;"/><line style="stroke: #A80036; stroke-width: 3.125;" x1="1096.875" x2="2759.375" y1="7476.709" y2="7476.709"/><text fill="#000000" font-family="sans-serif" font-size="40.625" lengthAdjust="spacingAndGlyphs" textLength="106.25" x="1118.75" y="7319.1101">CRCX</text><text fill="#000000" font-family="sans-serif" font-size="40.625" lengthAdjust="spacingAndGlyphs" textLength="853.125" x="1131.25" y="7366.9556">endpoint: mobicents/bridge/2@RMS2:2427</text><text fill="#000000" font-family="sans-serif" font-size="40.625" lengthAdjust="spacingAndGlyphs" textLength="534.375" x="1118.75" y="7414.801">connectionMode=Confrnce</text><text fill="#000000" font-family="sans-serif" font-size="40.625" lengthAdjust="spacingAndGlyphs" textLength="815.625" x="1118.75" y="7462.6465">2ndaryEP: mobicents/cnf/2@RMS2@2427</text><polygon fill="#A80036" points="1131.25,7602.4658,1100,7614.9658,1131.25,7627.4658,1118.75,7614.9658" style="stroke: #A80036; stroke-width: 3.125;"/><line style="stroke: #A80036; stroke-width: 3.125;" x1="1112.5" x2="2775" y1="7614.9658" y2="7614.9658"/><text fill="#000000" font-family="sans-serif" font-size="40.625" lengthAdjust="spacingAndGlyphs" textLength="156.25" x="1150" y="7554.2419">Success</text><text fill="#000000" font-family="sans-serif" font-size="40.625" lengthAdjust="spacingAndGlyphs" textLength="1221.875" x="1162.5" y="7602.0874">provides Connection identifier for both endpoint connections.</text><polygon fill="#A80036" points="2740.625,7788.7817,2771.875,7801.2817,2740.625,7813.7817,2753.125,7801.2817" style="stroke: #A80036; stroke-width: 3.125;"/><line style="stroke: #A80036; stroke-width: 3.125;" x1="1096.875" x2="2759.375" y1="7801.2817" y2="7801.2817"/><text fill="#000000" font-family="sans-serif" font-size="40.625" lengthAdjust="spacingAndGlyphs" textLength="131.25" x="1118.75" y="7693.6829">MDCX:</text><text fill="#000000" font-family="sans-serif" font-size="40.625" lengthAdjust="spacingAndGlyphs" textLength="590.625" x="1118.75" y="7741.5283">mobicents/cnf/2@RMS2:2427</text><text fill="#000000" font-family="sans-serif" font-size="40.625" lengthAdjust="spacingAndGlyphs" textLength="556.25" x="1118.75" y="7789.3738">{ConnectionMode: sendrecv}</text><polygon fill="#A80036" points="1131.25,7929.1931,1100,7941.6931,1131.25,7954.1931,1118.75,7941.6931" style="stroke: #A80036; stroke-width: 3.125;"/><line style="stroke: #A80036; stroke-width: 3.125;" x1="1112.5" x2="2775" y1="7941.6931" y2="7941.6931"/><text fill="#000000" font-family="sans-serif" font-size="40.625" lengthAdjust="spacingAndGlyphs" textLength="156.25" x="1150" y="7880.9692">Success</text><text fill="#000000" font-family="sans-serif" font-size="40.625" lengthAdjust="spacingAndGlyphs" textLength="415.625" x="1162.5" y="7928.8147">Connection identifier</text><rect fill="#EEEEEE" filter="url(#f1)" height="9.375" style="stroke: #EEEEEE; stroke-width: 3.125;" width="2918.75" x="9.375" y="8033.1818"/><line style="stroke: #000000; stroke-width: 3.125;" x1="9.375" x2="2928.125" y1="8033.1818" y2="8033.1818"/><line style="stroke: #000000; stroke-width: 3.125;" x1="9.375" x2="2928.125" y1="8042.5568" y2="8042.5568"/><rect fill="#EEEEEE" filter="url(#f1)" height="72.8455" style="stroke: #000000; stroke-width: 6.25;" width="1243.75" x="846.875" y="7999.884"/><text fill="#000000" font-family="sans-serif" font-size="40.625" font-weight="bold" lengthAdjust="spacingAndGlyphs" textLength="1187.5" x="865.625" y="8051.6602">create a connection with conference1 endpoint on RMS1</text><polygon fill="#A80036" points="2534.375,8203.9795,2565.625,8216.4795,2534.375,8228.9795,2546.875,8216.4795" style="stroke: #A80036; stroke-width: 3.125;"/><line style="stroke: #A80036; stroke-width: 3.125;" x1="1096.875" x2="2553.125" y1="8216.4795" y2="8216.4795"/><text fill="#000000" font-family="sans-serif" font-size="40.625" lengthAdjust="spacingAndGlyphs" textLength="309.375" x="1118.75" y="8155.7556">CRCX: {sendrcv}</text><text fill="#000000" font-family="sans-serif" font-size="40.625" lengthAdjust="spacingAndGlyphs" textLength="787.5" x="1118.75" y="8203.6011">{Primary: mobicents/cnf/1@RMS1:2427}</text><polygon fill="#A80036" points="1131.25,8343.4204,1100,8355.9204,1131.25,8368.4204,1118.75,8355.9204" style="stroke: #A80036; stroke-width: 3.125;"/><line style="stroke: #A80036; stroke-width: 3.125;" x1="1112.5" x2="2568.75" y1="8355.9204" y2="8355.9204"/><text fill="#000000" font-family="sans-serif" font-size="40.625" lengthAdjust="spacingAndGlyphs" textLength="156.25" x="1150" y="8295.1965">Success</text><text fill="#000000" font-family="sans-serif" font-size="40.625" lengthAdjust="spacingAndGlyphs" textLength="384.375" x="1162.5" y="8343.042">and SDP offer RMS1</text><rect fill="#EEEEEE" filter="url(#f1)" height="9.375" style="stroke: #EEEEEE; stroke-width: 3.125;" width="2918.75" x="9.375" y="8447.4091"/><line style="stroke: #000000; stroke-width: 3.125;" x1="9.375" x2="2928.125" y1="8447.4091" y2="8447.4091"/><line style="stroke: #000000; stroke-width: 3.125;" x1="9.375" x2="2928.125" y1="8456.7841" y2="8456.7841"/><rect fill="#EEEEEE" filter="url(#f1)" height="72.8455" style="stroke: #000000; stroke-width: 6.25;" width="778.125" x="1079.6875" y="8414.1113"/><text fill="#000000" font-family="sans-serif" font-size="40.625" font-weight="bold" lengthAdjust="spacingAndGlyphs" textLength="721.875" x="1098.4375" y="8465.8875">pass SDP offer from RMS1 to RMS2</text><polygon fill="#A80036" points="2740.625,8665.0818,2771.875,8677.5818,2740.625,8690.0818,2753.125,8677.5818" style="stroke: #A80036; stroke-width: 3.125;"/><line style="stroke: #A80036; stroke-width: 3.125;" x1="1096.875" x2="2759.375" y1="8677.5818" y2="8677.5818"/><text fill="#000000" font-family="sans-serif" font-size="40.625" lengthAdjust="spacingAndGlyphs" textLength="309.375" x="1118.75" y="8569.9829">CRCX: {sendrcv}</text><text fill="#000000" font-family="sans-serif" font-size="40.625" lengthAdjust="spacingAndGlyphs" textLength="787.5" x="1118.75" y="8617.8284">{Primary: mobicents/cnf/2@RMS2:2427}</text><text fill="#000000" font-family="sans-serif" font-size="40.625" lengthAdjust="spacingAndGlyphs" textLength="490.625" x="1131.25" y="8665.6738">and SDP offer from RMS1</text><polygon fill="#A80036" points="1131.25,8805.4932,1100,8817.9932,1131.25,8830.4932,1118.75,8817.9932" style="stroke: #A80036; stroke-width: 3.125;"/><line style="stroke: #A80036; stroke-width: 3.125;" x1="1112.5" x2="2775" y1="8817.9932" y2="8817.9932"/><text fill="#000000" font-family="sans-serif" font-size="40.625" lengthAdjust="spacingAndGlyphs" textLength="156.25" x="1150" y="8757.2693">Success</text><text fill="#000000" font-family="sans-serif" font-size="40.625" lengthAdjust="spacingAndGlyphs" textLength="384.375" x="1162.5" y="8805.1147">and SDP offer RMS2</text><rect fill="#EEEEEE" filter="url(#f1)" height="9.375" style="stroke: #EEEEEE; stroke-width: 3.125;" width="2918.75" x="9.375" y="8909.4818"/><line style="stroke: #000000; stroke-width: 3.125;" x1="9.375" x2="2928.125" y1="8909.4818" y2="8909.4818"/><line style="stroke: #000000; stroke-width: 3.125;" x1="9.375" x2="2928.125" y1="8918.8568" y2="8918.8568"/><rect fill="#EEEEEE" filter="url(#f1)" height="72.8455" style="stroke: #000000; stroke-width: 6.25;" width="768.75" x="1084.375" y="8876.1841"/><text fill="#000000" font-family="sans-serif" font-size="40.625" font-weight="bold" lengthAdjust="spacingAndGlyphs" textLength="712.5" x="1103.125" y="8927.9602">pass sdp msg from RMS2 to RMS1</text><polygon fill="#A80036" points="2534.375,9127.1545,2565.625,9139.6545,2534.375,9152.1545,2546.875,9139.6545" style="stroke: #A80036; stroke-width: 3.125;"/><line style="stroke: #A80036; stroke-width: 3.125;" x1="1096.875" x2="2553.125" y1="9139.6545" y2="9139.6545"/><text fill="#000000" font-family="sans-serif" font-size="40.625" lengthAdjust="spacingAndGlyphs" textLength="131.25" x="1118.75" y="9032.0557">MDCX:</text><text fill="#000000" font-family="sans-serif" font-size="40.625" lengthAdjust="spacingAndGlyphs" textLength="590.625" x="1118.75" y="9079.9011">mobicents/cnf/1@RMS1:2427</text><text fill="#000000" font-family="sans-serif" font-size="40.625" lengthAdjust="spacingAndGlyphs" textLength="490.625" x="1118.75" y="9127.7466">and SDP offer from RMS2</text><polygon fill="#A80036" points="1131.25,9267.5659,1100,9280.0659,1131.25,9292.5659,1118.75,9280.0659" style="stroke: #A80036; stroke-width: 3.125;"/><line style="stroke: #A80036; stroke-width: 3.125;" x1="1112.5" x2="2568.75" y1="9280.0659" y2="9280.0659"/><text fill="#000000" font-family="sans-serif" font-size="40.625" lengthAdjust="spacingAndGlyphs" textLength="75" x="1150" y="9219.342">200</text><text fill="#000000" font-family="sans-serif" font-size="40.625" lengthAdjust="spacingAndGlyphs" textLength="603.125" x="1162.5" y="9267.1875">SDP (RMS1 media session info)</text><polygon fill="#A80036" points="2606.25,9360.1318,2575,9372.6318,2606.25,9385.1318,2593.75,9372.6318" style="stroke: #A80036; stroke-width: 3.125;"/><polygon fill="#A80036" points="2740.625,9360.1318,2771.875,9372.6318,2740.625,9385.1318,2753.125,9372.6318" style="stroke: #A80036; stroke-width: 3.125;"/><line style="stroke: #A80036; stroke-width: 3.125; stroke-dasharray: 2.0,2.0;" x1="2587.5" x2="2759.375" y1="9372.6318" y2="9372.6318"/><text fill="#000000" font-family="sans-serif" font-size="40.625" lengthAdjust="spacingAndGlyphs" textLength="71.875" x="2625" y="9358.783">RTP</text><polygon fill="#A80036" points="243.75,9451.7273,212.5,9464.2273,243.75,9476.7273,231.25,9464.2273" style="stroke: #A80036; stroke-width: 3.125;"/><polygon fill="#A80036" points="478.125,9451.7273,509.375,9464.2273,478.125,9476.7273,490.625,9464.2273" style="stroke: #A80036; stroke-width: 3.125;"/><line style="stroke: #A80036; stroke-width: 3.125; stroke-dasharray: 2.0,2.0;" x1="225" x2="496.875" y1="9464.2273" y2="9464.2273"/><text fill="#000000" font-family="sans-serif" font-size="40.625" lengthAdjust="spacingAndGlyphs" textLength="162.5" x="262.5" y="9450.3784">talk talk</text></g></svg>