<?xml version="1.0" encoding="UTF-8" standalone="yes"?><svg xmlns="http://www.w3.org/2000/svg" xmlns:xlink="http://www.w3.org/1999/xlink" height="5053.125px" style="width:4012px;height:5053px;" version="1.1" viewBox="0 0 4012 5053" width="4012.5px"><defs><filter height="300%" id="f1" width="300%" x="-1" y="-1"><feGaussianBlur result="blurOut" stdDeviation="6.25"/><feColorMatrix in="blurOut" result="blurOut2" type="matrix" values="0 0 0 0 0 0 0 0 0 0 0 0 0 0 0 0 0 0 .4 0"/><feOffset dx="12.5" dy="12.5" in="blurOut2" result="blurOut3"/><feBlend in="SourceGraphic" in2="blurOut3" mode="normal"/></filter></defs><g><text fill="#000000" font-family="sans-serif" font-size="43.75" font-weight="bold" lengthAdjust="spacingAndGlyphs" textLength="840.625" x="1582.8125" y="73.5474">cascading-conference-mrb-sequence</text><rect fill="#FFFFFF" filter="url(#f1)" height="268.1152" style="stroke: #000000; stroke-width: 6.25;" width="1418.75" x="692.1875" y="698.5291"/><rect fill="#90EE90" height="4944.4763" style="stroke: #A80036; stroke-width: 3.125;" width="1876.5625" x="12.5" y="107.7759"/><text fill="#000000" font-family="sans-serif" font-size="40.625" font-weight="bold" lengthAdjust="spacingAndGlyphs" textLength="240.625" x="830.4688" y="147.052">RC1 Master</text><rect fill="#ADD8E6" height="4944.4763" style="stroke: #A80036; stroke-width: 3.125;" width="215.625" x="1895.3125" y="107.7759"/><text fill="#000000" font-family="sans-serif" font-size="40.625" font-weight="bold" lengthAdjust="spacingAndGlyphs" textLength="196.875" x="1904.6875" y="147.052">Database</text><rect fill="#FFB6C1" height="4944.4763" style="stroke: #A80036; stroke-width: 3.125;" width="1876.5625" x="2117.1875" y="107.7759"/><text fill="#000000" font-family="sans-serif" font-size="40.625" font-weight="bold" lengthAdjust="spacingAndGlyphs" textLength="206.25" x="2952.3438" y="147.052">RC2 Slave</text><line style="stroke: #A80036; stroke-width: 3.125; stroke-dasharray: 5.0,5.0;" x1="212.5" x2="212.5" y1="279.0222" y2="4931.9763"/><line style="stroke: #A80036; stroke-width: 3.125; stroke-dasharray: 5.0,5.0;" x1="810.9375" x2="810.9375" y1="279.0222" y2="4931.9763"/><line style="stroke: #A80036; stroke-width: 3.125; stroke-dasharray: 5.0,5.0;" x1="1035.9375" x2="1035.9375" y1="279.0222" y2="4931.9763"/><line style="stroke: #A80036; stroke-width: 3.125; stroke-dasharray: 5.0,5.0;" x1="1789.0625" x2="1789.0625" y1="279.0222" y2="4931.9763"/><line style="stroke: #A80036; stroke-width: 3.125; stroke-dasharray: 5.0,5.0;" x1="2001.5625" x2="2001.5625" y1="279.0222" y2="4931.9763"/><line style="stroke: #A80036; stroke-width: 3.125; stroke-dasharray: 5.0,5.0;" x1="2217.1875" x2="2217.1875" y1="279.0222" y2="4931.9763"/><line style="stroke: #A80036; stroke-width: 3.125; stroke-dasharray: 5.0,5.0;" x1="2970.3125" x2="2970.3125" y1="279.0222" y2="4931.9763"/><line style="stroke: #A80036; stroke-width: 3.125; stroke-dasharray: 5.0,5.0;" x1="3195.3125" x2="3195.3125" y1="279.0222" y2="4931.9763"/><line style="stroke: #A80036; stroke-width: 3.125; stroke-dasharray: 5.0,5.0;" x1="3790.625" x2="3790.625" y1="279.0222" y2="4931.9763"/><rect fill="#FEFECE" filter="url(#f1)" height="95.2759" style="stroke: #A80036; stroke-width: 4.6875;" width="365.625" x="25" y="168.1213"/><text fill="#000000" font-family="sans-serif" font-size="43.75" lengthAdjust="spacingAndGlyphs" textLength="321.875" x="46.875" y="232.2937">CnfController1</text><rect fill="#FEFECE" filter="url(#f1)" height="95.2759" style="stroke: #A80036; stroke-width: 4.6875;" width="365.625" x="25" y="4928.8513"/><text fill="#000000" font-family="sans-serif" font-size="43.75" lengthAdjust="spacingAndGlyphs" textLength="321.875" x="46.875" y="4993.0237">CnfController1</text><rect fill="#FEFECE" filter="url(#f1)" height="95.2759" style="stroke: #A80036; stroke-width: 4.6875;" width="162.5" x="723.4375" y="168.1213"/><text fill="#000000" font-family="sans-serif" font-size="43.75" lengthAdjust="spacingAndGlyphs" textLength="118.75" x="745.3125" y="232.2937">MRB1</text><rect fill="#FEFECE" filter="url(#f1)" height="95.2759" style="stroke: #A80036; stroke-width: 4.6875;" width="162.5" x="723.4375" y="4928.8513"/><text fill="#000000" font-family="sans-serif" font-size="43.75" lengthAdjust="spacingAndGlyphs" textLength="118.75" x="745.3125" y="4993.0237">MRB1</text><rect fill="#FEFECE" filter="url(#f1)" height="95.2759" style="stroke: #A80036; stroke-width: 4.6875;" width="200" x="929.6875" y="168.1213"/><text fill="#000000" font-family="sans-serif" font-size="43.75" lengthAdjust="spacingAndGlyphs" textLength="156.25" x="951.5625" y="232.2937">CMRC1</text><rect fill="#FEFECE" filter="url(#f1)" height="95.2759" style="stroke: #A80036; stroke-width: 4.6875;" width="200" x="929.6875" y="4928.8513"/><text fill="#000000" font-family="sans-serif" font-size="43.75" lengthAdjust="spacingAndGlyphs" textLength="156.25" x="951.5625" y="4993.0237">CMRC1</text><rect fill="#FEFECE" filter="url(#f1)" height="95.2759" style="stroke: #A80036; stroke-width: 4.6875;" width="162.5" x="1701.5625" y="168.1213"/><text fill="#000000" font-family="sans-serif" font-size="43.75" lengthAdjust="spacingAndGlyphs" textLength="118.75" x="1723.4375" y="232.2937">RMS1</text><rect fill="#FEFECE" filter="url(#f1)" height="95.2759" style="stroke: #A80036; stroke-width: 4.6875;" width="162.5" x="1701.5625" y="4928.8513"/><text fill="#000000" font-family="sans-serif" font-size="43.75" lengthAdjust="spacingAndGlyphs" textLength="118.75" x="1723.4375" y="4993.0237">RMS1</text><rect fill="#FEFECE" filter="url(#f1)" height="95.2759" style="stroke: #A80036; stroke-width: 4.6875;" width="140.625" x="1926.5625" y="168.1213"/><text fill="#000000" font-family="sans-serif" font-size="43.75" lengthAdjust="spacingAndGlyphs" textLength="96.875" x="1948.4375" y="232.2937">DAO</text><rect fill="#FEFECE" filter="url(#f1)" height="95.2759" style="stroke: #A80036; stroke-width: 4.6875;" width="140.625" x="1926.5625" y="4928.8513"/><text fill="#000000" font-family="sans-serif" font-size="43.75" lengthAdjust="spacingAndGlyphs" textLength="96.875" x="1948.4375" y="4993.0237">DAO</text><rect fill="#FEFECE" filter="url(#f1)" height="95.2759" style="stroke: #A80036; stroke-width: 4.6875;" width="162.5" x="2129.6875" y="168.1213"/><text fill="#000000" font-family="sans-serif" font-size="43.75" lengthAdjust="spacingAndGlyphs" textLength="118.75" x="2151.5625" y="232.2937">RMS2</text><rect fill="#FEFECE" filter="url(#f1)" height="95.2759" style="stroke: #A80036; stroke-width: 4.6875;" width="162.5" x="2129.6875" y="4928.8513"/><text fill="#000000" font-family="sans-serif" font-size="43.75" lengthAdjust="spacingAndGlyphs" textLength="118.75" x="2151.5625" y="4993.0237">RMS2</text><rect fill="#FEFECE" filter="url(#f1)" height="95.2759" style="stroke: #A80036; stroke-width: 4.6875;" width="200" x="2864.0625" y="168.1213"/><text fill="#000000" font-family="sans-serif" font-size="43.75" lengthAdjust="spacingAndGlyphs" textLength="156.25" x="2885.9375" y="232.2937">CMRC2</text><rect fill="#FEFECE" filter="url(#f1)" height="95.2759" style="stroke: #A80036; stroke-width: 4.6875;" width="200" x="2864.0625" y="4928.8513"/><text fill="#000000" font-family="sans-serif" font-size="43.75" lengthAdjust="spacingAndGlyphs" textLength="156.25" x="2885.9375" y="4993.0237">CMRC2</text><rect fill="#FEFECE" filter="url(#f1)" height="95.2759" style="stroke: #A80036; stroke-width: 4.6875;" width="162.5" x="3107.8125" y="168.1213"/><text fill="#000000" font-family="sans-serif" font-size="43.75" lengthAdjust="spacingAndGlyphs" textLength="118.75" x="3129.6875" y="232.2937">MRB2</text><rect fill="#FEFECE" filter="url(#f1)" height="95.2759" style="stroke: #A80036; stroke-width: 4.6875;" width="162.5" x="3107.8125" y="4928.8513"/><text fill="#000000" font-family="sans-serif" font-size="43.75" lengthAdjust="spacingAndGlyphs" textLength="118.75" x="3129.6875" y="4993.0237">MRB2</text><rect fill="#FEFECE" filter="url(#f1)" height="95.2759" style="stroke: #A80036; stroke-width: 4.6875;" width="365.625" x="3603.125" y="168.1213"/><text fill="#000000" font-family="sans-serif" font-size="43.75" lengthAdjust="spacingAndGlyphs" textLength="321.875" x="3625" y="232.2937">CnfController2</text><rect fill="#FEFECE" filter="url(#f1)" height="95.2759" style="stroke: #A80036; stroke-width: 4.6875;" width="365.625" x="3603.125" y="4928.8513"/><text fill="#000000" font-family="sans-serif" font-size="43.75" lengthAdjust="spacingAndGlyphs" textLength="321.875" x="3625" y="4993.0237">CnfController2</text><rect fill="#EEEEEE" filter="url(#f1)" height="9.375" style="stroke: #EEEEEE; stroke-width: 3.125;" width="3987.5" x="9.375" y="374.8199"/><line style="stroke: #000000; stroke-width: 3.125;" x1="9.375" x2="3996.875" y1="374.8199" y2="374.8199"/><line style="stroke: #000000; stroke-width: 3.125;" x1="9.375" x2="3996.875" y1="384.1949" y2="384.1949"/><rect fill="#EEEEEE" filter="url(#f1)" height="72.8455" style="stroke: #000000; stroke-width: 6.25;" width="937.5" x="1534.375" y="341.5222"/><text fill="#000000" font-family="sans-serif" font-size="40.625" font-weight="bold" lengthAdjust="spacingAndGlyphs" textLength="893.75" x="1553.125" y="393.2983">1st participant (aka Master) enters on RC1</text><polygon fill="#A80036" points="773.4375,545.6177,804.6875,558.1177,773.4375,570.6177,785.9375,558.1177" style="stroke: #A80036; stroke-width: 3.125;"/><line style="stroke: #A80036; stroke-width: 3.125;" x1="214.0625" x2="792.1875" y1="558.1177" y2="558.1177"/><text fill="#000000" font-family="sans-serif" font-size="40.625" lengthAdjust="spacingAndGlyphs" textLength="343.75" x="235.9375" y="497.3938">GetMediaGateway</text><text fill="#000000" font-family="sans-serif" font-size="40.625" lengthAdjust="spacingAndGlyphs" textLength="206.25" x="235.9375" y="545.2393">(cnf name)</text><polygon fill="#A80036" points="248.4375,638.1836,217.1875,650.6836,248.4375,663.1836,235.9375,650.6836" style="stroke: #A80036; stroke-width: 3.125;"/><line style="stroke: #A80036; stroke-width: 3.125;" x1="229.6875" x2="807.8125" y1="650.6836" y2="650.6836"/><text fill="#000000" font-family="sans-serif" font-size="40.625" lengthAdjust="spacingAndGlyphs" textLength="450" x="267.1875" y="636.8347">MediaGateway to RMS1</text><rect fill="none" height="268.1152" style="stroke: #000000; stroke-width: 6.25;" width="1418.75" x="692.1875" y="698.5291"/><polygon fill="#EEEEEE" points="692.1875,698.5291,885.9375,698.5291,885.9375,720.4041,854.6875,751.6541,692.1875,751.6541,692.1875,698.5291" style="stroke: #000000; stroke-width: 6.25;"/><text fill="#000000" font-family="sans-serif" font-size="40.625" font-weight="bold" lengthAdjust="spacingAndGlyphs" textLength="53.125" x="739.0625" y="740.9302">alt</text><text fill="#000000" font-family="sans-serif" font-size="34.375" font-weight="bold" lengthAdjust="spacingAndGlyphs" textLength="331.25" x="932.8125" y="738.0127">[If there is no conf</text><text fill="#000000" font-family="sans-serif" font-size="34.375" font-weight="bold" lengthAdjust="spacingAndGlyphs" textLength="306.25" x="932.8125" y="778.4973">in 'Running' state</text><text fill="#000000" font-family="sans-serif" font-size="34.375" font-weight="bold" lengthAdjust="spacingAndGlyphs" textLength="406.25" x="932.8125" y="818.9819">in DB with same name]</text><polygon fill="#A80036" points="1965.625,927.2034,1996.875,939.7034,1965.625,952.2034,1978.125,939.7034" style="stroke: #A80036; stroke-width: 3.125;"/><line style="stroke: #A80036; stroke-width: 3.125;" x1="810.9375" x2="1984.375" y1="939.7034" y2="939.7034"/><text fill="#000000" font-family="sans-serif" font-size="40.625" lengthAdjust="spacingAndGlyphs" textLength="240.625" x="832.8125" y="878.9795">generate Sid</text><text fill="#000000" font-family="sans-serif" font-size="40.625" lengthAdjust="spacingAndGlyphs" textLength="440.625" x="832.8125" y="926.825">save conferencerecord</text><polygon fill="#A80036" points="773.4375,1088.5193,804.6875,1101.0193,773.4375,1113.5193,785.9375,1101.0193" style="stroke: #A80036; stroke-width: 3.125;"/><line style="stroke: #A80036; stroke-width: 3.125;" x1="214.0625" x2="792.1875" y1="1101.0193" y2="1101.0193"/><text fill="#000000" font-family="sans-serif" font-size="40.625" lengthAdjust="spacingAndGlyphs" textLength="65.625" x="235.9375" y="1040.2954">Get</text><text fill="#000000" font-family="sans-serif" font-size="40.625" lengthAdjust="spacingAndGlyphs" textLength="521.875" x="235.9375" y="1088.1409">CnfMediaResourceCntroler</text><polygon fill="#A80036" points="248.4375,1227.9602,217.1875,1240.4602,248.4375,1252.9602,235.9375,1240.4602" style="stroke: #A80036; stroke-width: 3.125;"/><line style="stroke: #A80036; stroke-width: 3.125;" x1="229.6875" x2="807.8125" y1="1240.4602" y2="1240.4602"/><text fill="#000000" font-family="sans-serif" font-size="40.625" lengthAdjust="spacingAndGlyphs" textLength="190.625" x="267.1875" y="1179.7363">new actor</text><text fill="#000000" font-family="sans-serif" font-size="40.625" lengthAdjust="spacingAndGlyphs" textLength="140.625" x="267.1875" y="1227.5818">CMRC1</text><line style="stroke: #A80036; stroke-width: 3.125;" x1="214.0625" x2="345.3125" y1="1333.9966" y2="1333.9966"/><line style="stroke: #A80036; stroke-width: 3.125;" x1="345.3125" x2="345.3125" y1="1333.9966" y2="1374.6216"/><line style="stroke: #A80036; stroke-width: 3.125;" x1="217.1875" x2="345.3125" y1="1374.6216" y2="1374.6216"/><polygon fill="#A80036" points="248.4375,1362.1216,217.1875,1374.6216,248.4375,1387.1216,235.9375,1374.6216" style="stroke: #A80036; stroke-width: 3.125;"/><text fill="#000000" font-family="sans-serif" font-size="40.625" lengthAdjust="spacingAndGlyphs" textLength="312.5" x="235.9375" y="1319.1772">onJoinComplete</text><polygon fill="#A80036" points="998.4375,1452.7466,1029.6875,1465.2466,998.4375,1477.7466,1010.9375,1465.2466" style="stroke: #A80036; stroke-width: 3.125;"/><line style="stroke: #A80036; stroke-width: 3.125;" x1="214.0625" x2="1017.1875" y1="1465.2466" y2="1465.2466"/><text fill="#000000" font-family="sans-serif" font-size="40.625" lengthAdjust="spacingAndGlyphs" textLength="600" x="235.9375" y="1451.3977">StartBridgeConnecting Process</text><polygon fill="#A80036" points="1070.3125,1544.342,1039.0625,1556.842,1070.3125,1569.342,1057.8125,1556.842" style="stroke: #A80036; stroke-width: 3.125;"/><polygon fill="#A80036" points="1965.625,1544.342,1996.875,1556.842,1965.625,1569.342,1978.125,1556.842" style="stroke: #A80036; stroke-width: 3.125;"/><line style="stroke: #A80036; stroke-width: 3.125;" x1="1051.5625" x2="1984.375" y1="1556.842" y2="1556.842"/><text fill="#000000" font-family="sans-serif" font-size="40.625" lengthAdjust="spacingAndGlyphs" textLength="246.875" x="1089.0625" y="1542.9932">get Cnf Data</text><polygon fill="#A80036" points="1751.5625,1682.8125,1782.8125,1695.3125,1751.5625,1707.8125,1764.0625,1695.3125" style="stroke: #A80036; stroke-width: 3.125;"/><line style="stroke: #A80036; stroke-width: 3.125;" x1="1035.9375" x2="1770.3125" y1="1695.3125" y2="1695.3125"/><text fill="#000000" font-family="sans-serif" font-size="40.625" lengthAdjust="spacingAndGlyphs" textLength="131.25" x="1057.8125" y="1634.5886">(CRCX)</text><text fill="#000000" font-family="sans-serif" font-size="40.625" lengthAdjust="spacingAndGlyphs" textLength="256.25" x="1057.8125" y="1682.4341">create bridge</text><polygon fill="#A80036" points="1070.3125,1775.3784,1039.0625,1787.8784,1070.3125,1800.3784,1057.8125,1787.8784" style="stroke: #A80036; stroke-width: 3.125;"/><line style="stroke: #A80036; stroke-width: 3.125;" x1="1051.5625" x2="1785.9375" y1="1787.8784" y2="1787.8784"/><text fill="#000000" font-family="sans-serif" font-size="40.625" lengthAdjust="spacingAndGlyphs" textLength="253.125" x="1089.0625" y="1774.0295">success/SDP</text><polygon fill="#A80036" points="1965.625,1913.8489,1996.875,1926.3489,1965.625,1938.8489,1978.125,1926.3489" style="stroke: #A80036; stroke-width: 3.125;"/><line style="stroke: #A80036; stroke-width: 3.125;" x1="1035.9375" x2="1984.375" y1="1926.3489" y2="1926.3489"/><text fill="#000000" font-family="sans-serif" font-size="40.625" lengthAdjust="spacingAndGlyphs" textLength="284.375" x="1057.8125" y="1865.625">save bridge ep</text><text fill="#000000" font-family="sans-serif" font-size="40.625" lengthAdjust="spacingAndGlyphs" textLength="265.625" x="1057.8125" y="1913.4705">number in DB</text><polygon fill="#A80036" points="1751.5625,2053.2898,1782.8125,2065.7898,1751.5625,2078.2898,1764.0625,2065.7898" style="stroke: #A80036; stroke-width: 3.125;"/><line style="stroke: #A80036; stroke-width: 3.125;" x1="1035.9375" x2="1770.3125" y1="2065.7898" y2="2065.7898"/><text fill="#000000" font-family="sans-serif" font-size="40.625" lengthAdjust="spacingAndGlyphs" textLength="131.25" x="1057.8125" y="2005.0659">(CRCX)</text><text fill="#000000" font-family="sans-serif" font-size="40.625" lengthAdjust="spacingAndGlyphs" textLength="665.625" x="1070.3125" y="2052.9114">connect bridge and conference ep</text><polygon fill="#A80036" points="1070.3125,2145.8557,1039.0625,2158.3557,1070.3125,2170.8557,1057.8125,2158.3557" style="stroke: #A80036; stroke-width: 3.125;"/><line style="stroke: #A80036; stroke-width: 3.125;" x1="1051.5625" x2="1785.9375" y1="2158.3557" y2="2158.3557"/><text fill="#000000" font-family="sans-serif" font-size="40.625" lengthAdjust="spacingAndGlyphs" textLength="156.25" x="1089.0625" y="2144.5068">success</text><rect fill="#EEEEEE" filter="url(#f1)" height="9.375" style="stroke: #EEEEEE; stroke-width: 3.125;" width="3987.5" x="9.375" y="2248.8739"/><line style="stroke: #000000; stroke-width: 3.125;" x1="9.375" x2="3996.875" y1="2248.8739" y2="2248.8739"/><line style="stroke: #000000; stroke-width: 3.125;" x1="9.375" x2="3996.875" y1="2258.2489" y2="2258.2489"/><rect fill="#EEEEEE" filter="url(#f1)" height="72.8455" style="stroke: #000000; stroke-width: 6.25;" width="921.875" x="1542.1875" y="2215.5762"/><text fill="#000000" font-family="sans-serif" font-size="40.625" font-weight="bold" lengthAdjust="spacingAndGlyphs" textLength="878.125" x="1560.9375" y="2267.3523">2nd participant (aka Slave) enters on RC2</text><polygon fill="#A80036" points="3229.6875,2419.6716,3198.4375,2432.1716,3229.6875,2444.6716,3217.1875,2432.1716" style="stroke: #A80036; stroke-width: 3.125;"/><line style="stroke: #A80036; stroke-width: 3.125;" x1="3210.9375" x2="3789.0625" y1="2432.1716" y2="2432.1716"/><text fill="#000000" font-family="sans-serif" font-size="40.625" lengthAdjust="spacingAndGlyphs" textLength="343.75" x="3248.4375" y="2371.4478">GetMediaGateway</text><text fill="#000000" font-family="sans-serif" font-size="40.625" lengthAdjust="spacingAndGlyphs" textLength="206.25" x="3248.4375" y="2419.2932">(cnf name)</text><polygon fill="#A80036" points="3754.6875,2512.2375,3785.9375,2524.7375,3754.6875,2537.2375,3767.1875,2524.7375" style="stroke: #A80036; stroke-width: 3.125;"/><line style="stroke: #A80036; stroke-width: 3.125;" x1="3195.3125" x2="3773.4375" y1="2524.7375" y2="2524.7375"/><text fill="#000000" font-family="sans-serif" font-size="40.625" lengthAdjust="spacingAndGlyphs" textLength="450" x="3217.1875" y="2510.8887">MediaGateway to RMS2</text><polygon fill="#A80036" points="3229.6875,2650.708,3198.4375,2663.208,3229.6875,2675.708,3217.1875,2663.208" style="stroke: #A80036; stroke-width: 3.125;"/><line style="stroke: #A80036; stroke-width: 3.125;" x1="3210.9375" x2="3789.0625" y1="2663.208" y2="2663.208"/><text fill="#000000" font-family="sans-serif" font-size="40.625" lengthAdjust="spacingAndGlyphs" textLength="65.625" x="3248.4375" y="2602.4841">Get</text><text fill="#000000" font-family="sans-serif" font-size="40.625" lengthAdjust="spacingAndGlyphs" textLength="521.875" x="3248.4375" y="2650.3296">CnfMediaResourceCntroler</text><polygon fill="#A80036" points="3754.6875,2790.1489,3785.9375,2802.6489,3754.6875,2815.1489,3767.1875,2802.6489" style="stroke: #A80036; stroke-width: 3.125;"/><line style="stroke: #A80036; stroke-width: 3.125;" x1="3195.3125" x2="3773.4375" y1="2802.6489" y2="2802.6489"/><text fill="#000000" font-family="sans-serif" font-size="40.625" lengthAdjust="spacingAndGlyphs" textLength="190.625" x="3217.1875" y="2741.925">new actor</text><text fill="#000000" font-family="sans-serif" font-size="40.625" lengthAdjust="spacingAndGlyphs" textLength="140.625" x="3217.1875" y="2789.7705">CMRC2</text><polygon fill="#A80036" points="3004.6875,2882.7148,2973.4375,2895.2148,3004.6875,2907.7148,2992.1875,2895.2148" style="stroke: #A80036; stroke-width: 3.125;"/><line style="stroke: #A80036; stroke-width: 3.125;" x1="2985.9375" x2="3789.0625" y1="2895.2148" y2="2895.2148"/><text fill="#000000" font-family="sans-serif" font-size="40.625" lengthAdjust="spacingAndGlyphs" textLength="600" x="3023.4375" y="2881.366">StartBridgeConnecting Process</text><polygon fill="#A80036" points="2037.5,2974.3103,2006.25,2986.8103,2037.5,2999.3103,2025,2986.8103" style="stroke: #A80036; stroke-width: 3.125;"/><polygon fill="#A80036" points="2932.8125,2974.3103,2964.0625,2986.8103,2932.8125,2999.3103,2945.3125,2986.8103" style="stroke: #A80036; stroke-width: 3.125;"/><line style="stroke: #A80036; stroke-width: 3.125;" x1="2018.75" x2="2951.5625" y1="2986.8103" y2="2986.8103"/><text fill="#000000" font-family="sans-serif" font-size="40.625" lengthAdjust="spacingAndGlyphs" textLength="246.875" x="2056.25" y="2972.9614">get Cnf Data</text><polygon fill="#A80036" points="2251.5625,3112.7808,2220.3125,3125.2808,2251.5625,3137.7808,2239.0625,3125.2808" style="stroke: #A80036; stroke-width: 3.125;"/><line style="stroke: #A80036; stroke-width: 3.125;" x1="2232.8125" x2="2967.1875" y1="3125.2808" y2="3125.2808"/><text fill="#000000" font-family="sans-serif" font-size="40.625" lengthAdjust="spacingAndGlyphs" textLength="131.25" x="2270.3125" y="3064.5569">(CRCX)</text><text fill="#000000" font-family="sans-serif" font-size="40.625" lengthAdjust="spacingAndGlyphs" textLength="256.25" x="2270.3125" y="3112.4023">create bridge</text><polygon fill="#A80036" points="2932.8125,3205.3467,2964.0625,3217.8467,2932.8125,3230.3467,2945.3125,3217.8467" style="stroke: #A80036; stroke-width: 3.125;"/><line style="stroke: #A80036; stroke-width: 3.125;" x1="2217.1875" x2="2951.5625" y1="3217.8467" y2="3217.8467"/><text fill="#000000" font-family="sans-serif" font-size="40.625" lengthAdjust="spacingAndGlyphs" textLength="253.125" x="2239.0625" y="3203.9978">success/SDP</text><polygon fill="#A80036" points="2251.5625,3343.8171,2220.3125,3356.3171,2251.5625,3368.8171,2239.0625,3356.3171" style="stroke: #A80036; stroke-width: 3.125;"/><line style="stroke: #A80036; stroke-width: 3.125;" x1="2232.8125" x2="2967.1875" y1="3356.3171" y2="3356.3171"/><text fill="#000000" font-family="sans-serif" font-size="40.625" lengthAdjust="spacingAndGlyphs" textLength="131.25" x="2270.3125" y="3295.5933">(CRCX)</text><text fill="#000000" font-family="sans-serif" font-size="40.625" lengthAdjust="spacingAndGlyphs" textLength="665.625" x="2282.8125" y="3343.4387">connect bridge and conference ep</text><polygon fill="#A80036" points="2932.8125,3436.3831,2964.0625,3448.8831,2932.8125,3461.3831,2945.3125,3448.8831" style="stroke: #A80036; stroke-width: 3.125;"/><line style="stroke: #A80036; stroke-width: 3.125;" x1="2217.1875" x2="2951.5625" y1="3448.8831" y2="3448.8831"/><text fill="#000000" font-family="sans-serif" font-size="40.625" lengthAdjust="spacingAndGlyphs" textLength="156.25" x="2239.0625" y="3435.0342">success</text><rect fill="#EEEEEE" filter="url(#f1)" height="9.375" style="stroke: #EEEEEE; stroke-width: 3.125;" width="3987.5" x="9.375" y="3539.4012"/><line style="stroke: #000000; stroke-width: 3.125;" x1="9.375" x2="3996.875" y1="3539.4012" y2="3539.4012"/><line style="stroke: #000000; stroke-width: 3.125;" x1="9.375" x2="3996.875" y1="3548.7762" y2="3548.7762"/><rect fill="#EEEEEE" filter="url(#f1)" height="72.8455" style="stroke: #000000; stroke-width: 6.25;" width="2128.125" x="939.0625" y="3506.1035"/><text fill="#000000" font-family="sans-serif" font-size="40.625" font-weight="bold" lengthAdjust="spacingAndGlyphs" textLength="2084.375" x="957.8125" y="3557.8796">Slave Thread creates connection with master RMS on bridge where Master Participant is connected</text><polygon fill="#A80036" points="1823.4375,3757.074,1792.1875,3769.574,1823.4375,3782.074,1810.9375,3769.574" style="stroke: #A80036; stroke-width: 3.125;"/><line style="stroke: #A80036; stroke-width: 3.125;" x1="1804.6875" x2="2967.1875" y1="3769.574" y2="3769.574"/><text fill="#000000" font-family="sans-serif" font-size="40.625" lengthAdjust="spacingAndGlyphs" textLength="390.625" x="1842.1875" y="3661.9751">(MGCP/SDP - CRCX)</text><text fill="#000000" font-family="sans-serif" font-size="40.625" lengthAdjust="spacingAndGlyphs" textLength="271.875" x="1854.6875" y="3709.8206">also pass SDP</text><text fill="#000000" font-family="sans-serif" font-size="40.625" lengthAdjust="spacingAndGlyphs" textLength="581.25" x="1842.1875" y="3757.666">from RMS2 bridge connection</text><polygon fill="#A80036" points="2932.8125,3850.6104,2964.0625,3863.1104,2932.8125,3875.6104,2945.3125,3863.1104" style="stroke: #A80036; stroke-width: 3.125;"/><line style="stroke: #A80036; stroke-width: 3.125;" x1="1789.0625" x2="2951.5625" y1="3863.1104" y2="3863.1104"/><text fill="#000000" font-family="sans-serif" font-size="40.625" lengthAdjust="spacingAndGlyphs" textLength="253.125" x="1810.9375" y="3849.2615">success/SDP</text><polygon fill="#A80036" points="2251.5625,3989.0808,2220.3125,4001.5808,2251.5625,4014.0808,2239.0625,4001.5808" style="stroke: #A80036; stroke-width: 3.125;"/><line style="stroke: #A80036; stroke-width: 3.125;" x1="2232.8125" x2="2967.1875" y1="4001.5808" y2="4001.5808"/><text fill="#000000" font-family="sans-serif" font-size="40.625" lengthAdjust="spacingAndGlyphs" textLength="403.125" x="2270.3125" y="3940.8569">(MGCP/SDP - MDCX)</text><text fill="#000000" font-family="sans-serif" font-size="40.625" lengthAdjust="spacingAndGlyphs" textLength="556.25" x="2270.3125" y="3988.7024">modify with sdp from RMS1.</text><polygon fill="#A80036" points="2932.8125,4081.6467,2964.0625,4094.1467,2932.8125,4106.6467,2945.3125,4094.1467" style="stroke: #A80036; stroke-width: 3.125;"/><line style="stroke: #A80036; stroke-width: 3.125;" x1="2217.1875" x2="2951.5625" y1="4094.1467" y2="4094.1467"/><text fill="#000000" font-family="sans-serif" font-size="40.625" lengthAdjust="spacingAndGlyphs" textLength="156.25" x="2239.0625" y="4080.2979">success</text><rect fill="#EEEEEE" filter="url(#f1)" height="9.375" style="stroke: #EEEEEE; stroke-width: 3.125;" width="3987.5" x="9.375" y="4184.6649"/><line style="stroke: #000000; stroke-width: 3.125;" x1="9.375" x2="3996.875" y1="4184.6649" y2="4184.6649"/><line style="stroke: #000000; stroke-width: 3.125;" x1="9.375" x2="3996.875" y1="4194.0399" y2="4194.0399"/><rect fill="#EEEEEE" filter="url(#f1)" height="72.8455" style="stroke: #000000; stroke-width: 6.25;" width="925" x="1540.625" y="4151.3672"/><text fill="#000000" font-family="sans-serif" font-size="40.625" font-weight="bold" lengthAdjust="spacingAndGlyphs" textLength="881.25" x="1559.375" y="4203.1433">Stop MOH and Unmute Master participant</text><polygon fill="#A80036" points="1823.4375,4308.5876,1792.1875,4321.0876,1823.4375,4333.5876,1810.9375,4321.0876" style="stroke: #A80036; stroke-width: 3.125;"/><polygon fill="#A80036" points="2179.6875,4308.5876,2210.9375,4321.0876,2179.6875,4333.5876,2192.1875,4321.0876" style="stroke: #A80036; stroke-width: 3.125;"/><line style="stroke: #A80036; stroke-width: 3.125;" x1="1804.6875" x2="2198.4375" y1="4321.0876" y2="4321.0876"/><text fill="#000000" font-family="sans-serif" font-size="40.625" lengthAdjust="spacingAndGlyphs" textLength="71.875" x="1842.1875" y="4307.2388">RTP</text><polygon fill="#A80036" points="1823.4375,4447.0581,1792.1875,4459.5581,1823.4375,4472.0581,1810.9375,4459.5581" style="stroke: #A80036; stroke-width: 3.125;"/><line style="stroke: #A80036; stroke-width: 3.125;" x1="1804.6875" x2="2967.1875" y1="4459.5581" y2="4459.5581"/><text fill="#000000" font-family="sans-serif" font-size="40.625" lengthAdjust="spacingAndGlyphs" textLength="384.375" x="1842.1875" y="4398.8342">Stop Music on Hold</text><text fill="#000000" font-family="sans-serif" font-size="40.625" lengthAdjust="spacingAndGlyphs" textLength="918.75" x="1842.1875" y="4446.6797">Still need to identify command and parameters</text><polygon fill="#A80036" points="2932.8125,4539.624,2964.0625,4552.124,2932.8125,4564.624,2945.3125,4552.124" style="stroke: #A80036; stroke-width: 3.125;"/><line style="stroke: #A80036; stroke-width: 3.125;" x1="1789.0625" x2="2951.5625" y1="4552.124" y2="4552.124"/><text fill="#000000" font-family="sans-serif" font-size="40.625" lengthAdjust="spacingAndGlyphs" textLength="168.75" x="1810.9375" y="4538.2751">success.</text><polygon fill="#A80036" points="1823.4375,4678.0945,1792.1875,4690.5945,1823.4375,4703.0945,1810.9375,4690.5945" style="stroke: #A80036; stroke-width: 3.125;"/><line style="stroke: #A80036; stroke-width: 3.125;" x1="1804.6875" x2="2967.1875" y1="4690.5945" y2="4690.5945"/><text fill="#000000" font-family="sans-serif" font-size="40.625" lengthAdjust="spacingAndGlyphs" textLength="150" x="1842.1875" y="4629.8706">UnMute</text><text fill="#000000" font-family="sans-serif" font-size="40.625" lengthAdjust="spacingAndGlyphs" textLength="918.75" x="1842.1875" y="4677.7161">Still need to identify command and parameters</text><polygon fill="#A80036" points="2932.8125,4770.6604,2964.0625,4783.1604,2932.8125,4795.6604,2945.3125,4783.1604" style="stroke: #A80036; stroke-width: 3.125;"/><line style="stroke: #A80036; stroke-width: 3.125;" x1="1789.0625" x2="2951.5625" y1="4783.1604" y2="4783.1604"/><text fill="#000000" font-family="sans-serif" font-size="40.625" lengthAdjust="spacingAndGlyphs" textLength="168.75" x="1810.9375" y="4769.3115">success.</text><polygon fill="#A80036" points="1823.4375,4862.2559,1792.1875,4874.7559,1823.4375,4887.2559,1810.9375,4874.7559" style="stroke: #A80036; stroke-width: 3.125;"/><polygon fill="#A80036" points="2179.6875,4862.2559,2210.9375,4874.7559,2179.6875,4887.2559,2192.1875,4874.7559" style="stroke: #A80036; stroke-width: 3.125;"/><line style="stroke: #A80036; stroke-width: 3.125;" x1="1804.6875" x2="2198.4375" y1="4874.7559" y2="4874.7559"/><text fill="#000000" font-family="sans-serif" font-size="40.625" lengthAdjust="spacingAndGlyphs" textLength="71.875" x="1842.1875" y="4860.907">RTP</text></g></svg>