<?xml version="1.0" encoding="UTF-8" standalone="yes"?><svg xmlns="http://www.w3.org/2000/svg" xmlns:xlink="http://www.w3.org/1999/xlink" height="3909.375px" style="width:1978px;height:3909px;" version="1.1" viewBox="0 0 1978 3909" width="1978.125px"><defs><filter height="300%" id="f1" width="300%" x="-1" y="-1"><feGaussianBlur result="blurOut" stdDeviation="6.25"/><feColorMatrix in="blurOut" result="blurOut2" type="matrix" values="0 0 0 0 0 0 0 0 0 0 0 0 0 0 0 0 0 0 .4 0"/><feOffset dx="12.5" dy="12.5" in="blurOut2" result="blurOut3"/><feBlend in="SourceGraphic" in2="blurOut3" mode="normal"/></filter></defs><g><text fill="#000000" font-family="sans-serif" font-size="56.25" lengthAdjust="spacingAndGlyphs" textLength="1168.75" x="420.3125" y="54.3823">Conference Media Resource Controller FSM</text><ellipse cx="939.0625" cy="122.4976" fill="#000000" filter="url(#f1)" rx="31.25" ry="31.25" style="stroke: none; stroke-width: 3.125;"/><rect fill="#FEFECE" filter="url(#f1)" height="156.25" rx="39.0625" ry="39.0625" style="stroke: #A80036; stroke-width: 4.6875;" width="331.25" x="773.4375" y="341.2476"/><line style="stroke: #A80036; stroke-width: 4.6875;" x1="773.4375" x2="1104.6875" y1="424.0234" y2="424.0234"/><text fill="#000000" font-family="sans-serif" font-size="43.75" lengthAdjust="spacingAndGlyphs" textLength="268.75" x="804.6875" y="399.1699">Uninitialized</text><rect fill="#FEFECE" filter="url(#f1)" height="202.356" rx="39.0625" ry="39.0625" style="stroke: #A80036; stroke-width: 4.6875;" width="718.75" x="579.6875" y="684.9976"/><line style="stroke: #A80036; stroke-width: 4.6875;" x1="579.6875" x2="1298.4375" y1="767.7734" y2="767.7734"/><text fill="#000000" font-family="sans-serif" font-size="43.75" lengthAdjust="spacingAndGlyphs" textLength="656.25" x="610.9375" y="742.9199">GettingConferenceInfoFromDB</text><text fill="#000000" font-family="sans-serif" font-size="37.5" lengthAdjust="spacingAndGlyphs" textLength="384.375" x="595.3125" y="819.6533">Fetch record from DB</text><text fill="#000000" font-family="sans-serif" font-size="37.5" lengthAdjust="spacingAndGlyphs" textLength="600" x="595.3125" y="863.8184">CreateMediaSession with local MS</text><rect fill="#FEFECE" filter="url(#f1)" height="156.25" rx="39.0625" ry="39.0625" style="stroke: #A80036; stroke-width: 4.6875;" width="703.125" x="115.625" y="1075.6226"/><line style="stroke: #A80036; stroke-width: 4.6875;" x1="115.625" x2="818.75" y1="1158.3984" y2="1158.3984"/><text fill="#000000" font-family="sans-serif" font-size="43.75" lengthAdjust="spacingAndGlyphs" textLength="640.625" x="146.875" y="1133.5449">GettingConferenceEndpointID</text><rect fill="#FEFECE" filter="url(#f1)" height="156.25" rx="39.0625" ry="39.0625" style="stroke: #A80036; stroke-width: 4.6875;" width="840.625" x="18.75" y="1763.1226"/><line style="stroke: #A80036; stroke-width: 4.6875;" x1="18.75" x2="859.375" y1="1845.8984" y2="1845.8984"/><text fill="#000000" font-family="sans-serif" font-size="43.75" lengthAdjust="spacingAndGlyphs" textLength="778.125" x="50" y="1821.0449">UpdatingConferenceEndpointIDInDB</text><rect fill="#FEFECE" filter="url(#f1)" height="156.25" rx="39.0625" ry="39.0625" style="stroke: #A80036; stroke-width: 4.6875;" width="190.625" x="856.25" y="2794.3726"/><line style="stroke: #A80036; stroke-width: 4.6875;" x1="856.25" x2="1046.875" y1="2877.1484" y2="2877.1484"/><text fill="#000000" font-family="sans-serif" font-size="43.75" lengthAdjust="spacingAndGlyphs" textLength="128.125" x="887.5" y="2852.2949">Active</text><rect fill="#FEFECE" filter="url(#f1)" height="156.25" rx="39.0625" ry="39.0625" style="stroke: #A80036; stroke-width: 4.6875;" width="946.875" x="937.5" y="1075.6226"/><line style="stroke: #A80036; stroke-width: 4.6875;" x1="937.5" x2="1884.375" y1="1158.3984" y2="1158.3984"/><text fill="#000000" font-family="sans-serif" font-size="43.75" lengthAdjust="spacingAndGlyphs" textLength="884.375" x="968.75" y="1133.5449">AcquiringRemoteConnectionWithLocalMS</text><rect fill="#FEFECE" filter="url(#f1)" height="156.25" rx="39.0625" ry="39.0625" style="stroke: #A80036; stroke-width: 4.6875;" width="821.875" x="1043.75" y="1419.3726"/><line style="stroke: #A80036; stroke-width: 4.6875;" x1="1043.75" x2="1865.625" y1="1502.1484" y2="1502.1484"/><text fill="#000000" font-family="sans-serif" font-size="43.75" lengthAdjust="spacingAndGlyphs" textLength="759.375" x="1075" y="1477.2949">CreatingConnectionWithLocalCnfEP</text><rect fill="#FEFECE" filter="url(#f1)" height="156.25" rx="39.0625" ry="39.0625" style="stroke: #A80036; stroke-width: 4.6875;" width="981.25" x="970.3125" y="1763.1226"/><line style="stroke: #A80036; stroke-width: 4.6875;" x1="970.3125" x2="1951.5625" y1="1845.8984" y2="1845.8984"/><text fill="#000000" font-family="sans-serif" font-size="43.75" lengthAdjust="spacingAndGlyphs" textLength="918.75" x="1001.5625" y="1821.0449">AcquiringRemoteConnectionWithMasterMS</text><rect fill="#FEFECE" filter="url(#f1)" height="156.25" rx="39.0625" ry="39.0625" style="stroke: #A80036; stroke-width: 4.6875;" width="856.25" x="923.4375" y="2106.8726"/><line style="stroke: #A80036; stroke-width: 4.6875;" x1="923.4375" x2="1779.6875" y1="2189.6484" y2="2189.6484"/><text fill="#000000" font-family="sans-serif" font-size="43.75" lengthAdjust="spacingAndGlyphs" textLength="793.75" x="954.6875" y="2164.7949">CreatingConnectionWithMasterCnfEP</text><rect fill="#FEFECE" filter="url(#f1)" height="156.25" rx="39.0625" ry="39.0625" style="stroke: #A80036; stroke-width: 4.6875;" width="665.625" x="918.75" y="2450.6226"/><line style="stroke: #A80036; stroke-width: 4.6875;" x1="918.75" x2="1584.375" y1="2533.3984" y2="2533.3984"/><text fill="#000000" font-family="sans-serif" font-size="43.75" lengthAdjust="spacingAndGlyphs" textLength="603.125" x="950" y="2508.5449">UpdatingLocalConferenceEP</text><rect fill="#FEFECE" filter="url(#f1)" height="156.25" rx="39.0625" ry="39.0625" style="stroke: #A80036; stroke-width: 4.6875;" width="256.25" x="823.4375" y="3138.1226"/><line style="stroke: #A80036; stroke-width: 4.6875;" x1="823.4375" x2="1079.6875" y1="3220.8984" y2="3220.8984"/><text fill="#000000" font-family="sans-serif" font-size="43.75" lengthAdjust="spacingAndGlyphs" textLength="193.75" x="854.6875" y="3196.0449">Stopping</text><rect fill="#FEFECE" filter="url(#f1)" height="156.25" rx="39.0625" ry="39.0625" style="stroke: #A80036; stroke-width: 4.6875;" width="225" x="839.0625" y="3481.8726"/><line style="stroke: #A80036; stroke-width: 4.6875;" x1="839.0625" x2="1064.0625" y1="3564.6484" y2="3564.6484"/><text fill="#000000" font-family="sans-serif" font-size="43.75" lengthAdjust="spacingAndGlyphs" textLength="162.5" x="870.3125" y="3539.7949">Inactive</text><ellipse cx="951.5625" cy="3856.8726" fill="none" filter="url(#f1)" rx="31.25" ry="31.25" style="stroke: #000000; stroke-width: 3.125;"/><ellipse cx="953.125" cy="3858.4351" fill="#000000" rx="18.75" ry="18.75" style="stroke: none; stroke-width: 3.125;"/><path d="M939.0625,154.5601 C939.0625,193.9351 939.0625,266.1851 939.0625,324.8101 " fill="none" style="stroke: #A80036; stroke-width: 3.125;"/><polygon fill="#A80036" points="939.0625,340.9663,951.5625,312.8413,939.0625,325.3413,926.5625,312.8413,939.0625,340.9663" style="stroke: #A80036; stroke-width: 3.125;"/><path d="M939.0625,498.1538 C939.0625,547.2476 939.0625,612.1538 939.0625,667.6538 " fill="none" style="stroke: #A80036; stroke-width: 3.125;"/><polygon fill="#A80036" points="939.0625,684.5601,951.5625,656.4351,939.0625,668.9351,926.5625,656.4351,939.0625,684.5601" style="stroke: #A80036; stroke-width: 3.125;"/><path d="M810.1219,888.3132 C737.6781,943.7257 648.1625,1012.1944 578.7531,1065.2851 " fill="none" style="stroke: #A80036; stroke-width: 3.125;"/><polygon fill="#A80036" points="566.0375,1075.0132,595.9717,1067.8573,578.4491,1065.5214,580.785,1047.9988,566.0375,1075.0132" style="stroke: #A80036; stroke-width: 3.125;"/><path d="M464.0688,1232.3819 C458.875,1358.2163 448.4656,1610.3819 442.8531,1746.2944 " fill="none" style="stroke: #A80036; stroke-width: 3.125;"/><polygon fill="#A80036" points="442.1938,1762.2757,455.8482,1734.6927,442.8411,1746.6641,430.8697,1733.657,442.1938,1762.2757" style="stroke: #A80036; stroke-width: 3.125;"/><path d="M476.7469,1919.7444 C569.1188,2104.4851 806.5188,2579.2819 906.3094,2778.8632 " fill="none" style="stroke: #A80036; stroke-width: 3.125;"/><polygon fill="#A80036" points="913.8219,2793.8913,912.4165,2763.1457,906.8306,2779.9177,890.0587,2774.3318,913.8219,2793.8913" style="stroke: #A80036; stroke-width: 3.125;"/><path d="M1068.0031,888.3132 C1140.4469,943.7257 1229.9625,1012.1944 1299.3719,1065.2851 " fill="none" style="stroke: #A80036; stroke-width: 3.125;"/><polygon fill="#A80036" points="1312.0875,1075.0132,1297.34,1047.9988,1299.6759,1065.5214,1282.1533,1067.8573,1312.0875,1075.0132" style="stroke: #A80036; stroke-width: 3.125;"/><path d="M1420.7563,1232.6132 C1427.2844,1282.9882 1435.9,1349.4382 1442.8156,1402.7819 " fill="none" style="stroke: #A80036; stroke-width: 3.125;"/><polygon fill="#A80036" points="1444.9031,1418.8851,1453.6834,1389.3864,1442.8942,1403.3897,1428.8908,1392.6006,1444.9031,1418.8851" style="stroke: #A80036; stroke-width: 3.125;"/><path d="M1456.0906,1576.3632 C1457.0219,1626.7382 1458.2531,1693.1882 1459.2406,1746.5319 " fill="none" style="stroke: #A80036; stroke-width: 3.125;"/><polygon fill="#A80036" points="1459.5406,1762.6351,1471.5162,1734.2828,1459.2505,1747.0128,1446.5205,1734.747,1459.5406,1762.6351" style="stroke: #A80036; stroke-width: 3.125;"/><path d="M1436.3906,1920.1132 C1420.0656,1970.4882 1398.5313,2036.9382 1381.2437,2090.2819 " fill="none" style="stroke: #A80036; stroke-width: 3.125;"/><polygon fill="#A80036" points="1376.025,2106.3851,1396.5858,2083.4826,1380.8413,2091.5209,1372.8031,2075.7765,1376.025,2106.3851" style="stroke: #A80036; stroke-width: 3.125;"/><path d="M1329.1219,2263.8632 C1314.1969,2314.2382 1294.5063,2380.6882 1278.7,2434.0319 " fill="none" style="stroke: #A80036; stroke-width: 3.125;"/><polygon fill="#A80036" points="1273.9281,2450.1351,1293.9071,2426.7234,1278.3696,2435.1546,1269.9384,2419.6171,1273.9281,2450.1351" style="stroke: #A80036; stroke-width: 3.125;"/><path d="M1184.2375,2607.6132 C1138.3031,2659.2882 1077.3281,2727.8882 1029.3219,2781.8944 " fill="none" style="stroke: #A80036; stroke-width: 3.125;"/><polygon fill="#A80036" points="1018.6625,2793.8851,1046.6894,2781.1667,1029.0424,2782.206,1028.003,2764.559,1018.6625,2793.8851" style="stroke: #A80036; stroke-width: 3.125;"/><path d="M951.5625,2951.3632 C951.5625,3001.7382 951.5625,3068.1882 951.5625,3121.5319 " fill="none" style="stroke: #A80036; stroke-width: 3.125;"/><polygon fill="#A80036" points="951.5625,3137.6351,964.0625,3109.5101,951.5625,3122.0101,939.0625,3109.5101,951.5625,3137.6351" style="stroke: #A80036; stroke-width: 3.125;"/><path d="M951.5625,3295.1132 C951.5625,3345.4882 951.5625,3411.9382 951.5625,3465.2819 " fill="none" style="stroke: #A80036; stroke-width: 3.125;"/><polygon fill="#A80036" points="951.5625,3481.3851,964.0625,3453.2601,951.5625,3465.7601,939.0625,3453.2601,951.5625,3481.3851" style="stroke: #A80036; stroke-width: 3.125;"/><path d="M951.5625,3639.481 C951.5625,3692.9301 951.5625,3762.5819 951.5625,3807.7276 " fill="none" style="stroke: #A80036; stroke-width: 3.125;"/><polygon fill="#A80036" points="951.5625,3824.3154,964.0625,3796.1904,951.5625,3808.6904,939.0625,3796.1904,951.5625,3824.3154" style="stroke: #A80036; stroke-width: 3.125;"/></g></svg>