<?xml version="1.0" encoding="UTF-8" standalone="yes"?><svg xmlns="http://www.w3.org/2000/svg" xmlns:xlink="http://www.w3.org/1999/xlink" height="1631.25px" style="width:1906px;height:1631px;" version="1.1" viewBox="0 0 1906 1631" width="1906.25px"><defs><filter height="300%" id="f1" width="300%" x="-1" y="-1"><feGaussianBlur result="blurOut" stdDeviation="6.25"/><feColorMatrix in="blurOut" result="blurOut2" type="matrix" values="0 0 0 0 0 0 0 0 0 0 0 0 0 0 0 0 0 0 .4 0"/><feOffset dx="12.5" dy="12.5" in="blurOut2" result="blurOut3"/><feBlend in="SourceGraphic" in2="blurOut3" mode="normal"/></filter></defs><g><text fill="#000000" font-family="sans-serif" font-size="56.25" lengthAdjust="spacingAndGlyphs" textLength="1096.875" x="434.375" y="54.3823">Cascading Conference MRB Class Details</text><rect fill="#FEFECE" filter="url(#f1)" height="150" style="stroke: #A80036; stroke-width: 4.6875;" width="343.75" x="279.6875" y="152.1851"/><ellipse cx="326.5625" cy="202.1851" fill="#ADD1B2" rx="34.375" ry="34.375" style="stroke: #A80036; stroke-width: 3.125;"/><path d="M335.8536,219.8196 Q334.0378,220.7535 332.0404,221.2204 Q330.043,221.6873 327.8381,221.6873 Q320.0043,221.6873 315.8798,216.5253 Q311.7554,211.3632 311.7554,201.6098 Q311.7554,191.8304 315.8798,186.6684 Q320.0043,181.5063 327.8381,181.5063 Q330.043,181.5063 332.0663,181.9733 Q334.0897,182.4402 335.8536,183.374 L335.8536,191.8823 Q333.8821,190.0665 332.0274,189.2235 Q330.1727,188.3804 328.2013,188.3804 Q323.999,188.3804 321.859,191.7137 Q319.7189,195.047 319.7189,201.6098 Q319.7189,208.1467 321.859,211.4799 Q323.999,214.8132 328.2013,214.8132 Q330.1727,214.8132 332.0274,213.9702 Q333.8821,213.1271 335.8536,211.3113 Z "/><text fill="#000000" font-family="sans-serif" font-size="37.5" lengthAdjust="spacingAndGlyphs" textLength="243.75" x="370.3125" y="216.3574">UntypedActor</text><line style="stroke: #A80036; stroke-width: 4.6875;" x1="282.8125" x2="620.3125" y1="252.1851" y2="252.1851"/><line style="stroke: #A80036; stroke-width: 4.6875;" x1="282.8125" x2="620.3125" y1="277.1851" y2="277.1851"/><rect fill="#FEFECE" filter="url(#f1)" height="660.8154" style="stroke: #A80036; stroke-width: 4.6875;" width="515.625" x="193.75" y="553.7476"/><ellipse cx="250.4688" cy="603.7476" fill="#ADD1B2" rx="34.375" ry="34.375" style="stroke: #A80036; stroke-width: 3.125;"/><path d="M259.7598,621.3821 Q257.944,622.316 255.9467,622.7829 Q253.9493,623.2498 251.7444,623.2498 Q243.9105,623.2498 239.7861,618.0878 Q235.6616,612.9257 235.6616,603.1723 Q235.6616,593.3929 239.7861,588.2309 Q243.9105,583.0688 251.7444,583.0688 Q253.9493,583.0688 255.9726,583.5358 Q257.9959,584.0027 259.7598,584.9365 L259.7598,593.4448 Q257.7884,591.629 255.9337,590.786 Q254.079,589.9429 252.1075,589.9429 Q247.9053,589.9429 245.7652,593.2762 Q243.6252,596.6095 243.6252,603.1723 Q243.6252,609.7092 245.7652,613.0424 Q247.9053,616.3757 252.1075,616.3757 Q254.079,616.3757 255.9337,615.5327 Q257.7884,614.6896 259.7598,612.8738 Z "/><text fill="#000000" font-family="sans-serif" font-size="37.5" lengthAdjust="spacingAndGlyphs" textLength="393.75" x="296.4063" y="617.9199">MediaResourceBroker</text><line style="stroke: #A80036; stroke-width: 4.6875;" x1="196.875" x2="706.25" y1="653.7476" y2="653.7476"/><ellipse cx="228.125" cy="744.162" fill="none" rx="9.375" ry="9.375" style="stroke: #038048; stroke-width: 3.125;"/><text fill="#000000" font-family="sans-serif" font-size="34.375" lengthAdjust="spacingAndGlyphs" textLength="140.625" x="256.25" y="752.4658">Observe</text><ellipse cx="228.125" cy="784.6466" fill="none" rx="9.375" ry="9.375" style="stroke: #038048; stroke-width: 3.125;"/><text fill="#000000" font-family="sans-serif" font-size="34.375" lengthAdjust="spacingAndGlyphs" textLength="250" x="256.25" y="792.9504">StopObserving</text><ellipse cx="228.125" cy="825.1312" fill="none" rx="9.375" ry="9.375" style="stroke: #038048; stroke-width: 3.125;"/><text fill="#000000" font-family="sans-serif" font-size="34.375" lengthAdjust="spacingAndGlyphs" textLength="290.625" x="256.25" y="833.4351">GetMediaGateway</text><ellipse cx="228.125" cy="865.6158" fill="none" rx="9.375" ry="9.375" style="stroke: #038048; stroke-width: 3.125;"/><text fill="#000000" font-family="sans-serif" font-size="34.375" lengthAdjust="spacingAndGlyphs" textLength="0" x="265.625" y="873.9197"/><line style="stroke: #A80036; stroke-width: 3.125;" x1="196.875" x2="293.75" y1="698.9899" y2="698.9899"/><text fill="#000000" font-family="sans-serif" font-size="34.375" lengthAdjust="spacingAndGlyphs" textLength="315.625" x="293.75" y="710.4187">Messages Receives</text><line style="stroke: #A80036; stroke-width: 3.125;" x1="609.375" x2="706.25" y1="698.9899" y2="698.9899"/><line style="stroke: #A80036; stroke-width: 3.125;" x1="196.875" x2="706.25" y1="893.6707" y2="893.6707"/><rect fill="none" height="18.75" style="stroke: #C82930; stroke-width: 3.125;" width="18.75" x="218.75" y="921.7255"/><text fill="#000000" font-family="sans-serif" font-size="34.375" lengthAdjust="spacingAndGlyphs" textLength="434.375" x="256.25" y="939.4043">DaoManager daoManager;</text><rect fill="none" height="18.75" style="stroke: #C82930; stroke-width: 3.125;" width="18.75" x="218.75" y="962.2101"/><text fill="#000000" font-family="sans-serif" font-size="34.375" lengthAdjust="spacingAndGlyphs" textLength="0" x="265.625" y="979.8889"/><rect fill="none" height="18.75" style="stroke: #C82930; stroke-width: 3.125;" width="18.75" x="218.75" y="1055.6793"/><text fill="#000000" font-family="sans-serif" font-size="34.375" lengthAdjust="spacingAndGlyphs" textLength="171.875" x="256.25" y="1073.3582">unitialized</text><rect fill="none" height="18.75" style="stroke: #C82930; stroke-width: 3.125;" width="18.75" x="218.75" y="1096.1639"/><text fill="#000000" font-family="sans-serif" font-size="34.375" lengthAdjust="spacingAndGlyphs" textLength="96.875" x="256.25" y="1113.8428">active</text><rect fill="none" height="18.75" style="stroke: #C82930; stroke-width: 3.125;" width="18.75" x="218.75" y="1136.6486"/><text fill="#000000" font-family="sans-serif" font-size="34.375" lengthAdjust="spacingAndGlyphs" textLength="150" x="256.25" y="1154.3274">stopping</text><rect fill="none" height="18.75" style="stroke: #C82930; stroke-width: 3.125;" width="18.75" x="218.75" y="1177.1332"/><text fill="#000000" font-family="sans-serif" font-size="34.375" lengthAdjust="spacingAndGlyphs" textLength="137.5" x="256.25" y="1194.812">stopped</text><line style="stroke: #A80036; stroke-width: 3.125;" x1="196.875" x2="401.5625" y1="1019.8822" y2="1019.8822"/><text fill="#000000" font-family="sans-serif" font-size="34.375" lengthAdjust="spacingAndGlyphs" textLength="100" x="401.5625" y="1031.311">States</text><line style="stroke: #A80036; stroke-width: 3.125;" x1="501.5625" x2="706.25" y1="1019.8822" y2="1019.8822"/><rect fill="#FEFECE" filter="url(#f1)" height="150" style="stroke: #A80036; stroke-width: 4.6875;" width="559.375" x="18.75" y="1453.7476"/><ellipse cx="65.625" cy="1503.7476" fill="#ADD1B2" rx="34.375" ry="34.375" style="stroke: #A80036; stroke-width: 3.125;"/><path d="M74.9161,1521.3821 Q73.1003,1522.316 71.1029,1522.7829 Q69.1055,1523.2498 66.9006,1523.2498 Q59.0668,1523.2498 54.9423,1518.0878 Q50.8179,1512.9257 50.8179,1503.1723 Q50.8179,1493.3929 54.9423,1488.2309 Q59.0668,1483.0688 66.9006,1483.0688 Q69.1055,1483.0688 71.1288,1483.5358 Q73.1522,1484.0027 74.9161,1484.9365 L74.9161,1493.4448 Q72.9446,1491.629 71.0899,1490.786 Q69.2352,1489.9429 67.2638,1489.9429 Q63.0615,1489.9429 60.9215,1493.2762 Q58.7814,1496.6095 58.7814,1503.1723 Q58.7814,1509.7092 60.9215,1513.0424 Q63.0615,1516.3757 67.2638,1516.3757 Q69.2352,1516.3757 71.0899,1515.5327 Q72.9446,1514.6896 74.9161,1512.8738 Z "/><text fill="#000000" font-family="sans-serif" font-size="37.5" lengthAdjust="spacingAndGlyphs" textLength="459.375" x="109.375" y="1517.9199">MMSConferenceController</text><line style="stroke: #A80036; stroke-width: 4.6875;" x1="21.875" x2="575" y1="1553.7476" y2="1553.7476"/><line style="stroke: #A80036; stroke-width: 4.6875;" x1="21.875" x2="575" y1="1578.7476" y2="1578.7476"/><rect fill="#FEFECE" filter="url(#f1)" height="150" style="stroke: #A80036; stroke-width: 4.6875;" width="421.875" x="1121.875" y="1453.7476"/><ellipse cx="1168.75" cy="1503.7476" fill="#ADD1B2" rx="34.375" ry="34.375" style="stroke: #A80036; stroke-width: 3.125;"/><path d="M1178.0411,1521.3821 Q1176.2253,1522.316 1174.2279,1522.7829 Q1172.2305,1523.2498 1170.0256,1523.2498 Q1162.1918,1523.2498 1158.0673,1518.0878 Q1153.9429,1512.9257 1153.9429,1503.1723 Q1153.9429,1493.3929 1158.0673,1488.2309 Q1162.1918,1483.0688 1170.0256,1483.0688 Q1172.2305,1483.0688 1174.2538,1483.5358 Q1176.2772,1484.0027 1178.0411,1484.9365 L1178.0411,1493.4448 Q1176.0696,1491.629 1174.2149,1490.786 Q1172.3602,1489.9429 1170.3888,1489.9429 Q1166.1865,1489.9429 1164.0465,1493.2762 Q1161.9064,1496.6095 1161.9064,1503.1723 Q1161.9064,1509.7092 1164.0465,1513.0424 Q1166.1865,1516.3757 1170.3888,1516.3757 Q1172.3602,1516.3757 1174.2149,1515.5327 Q1176.0696,1514.6896 1178.0411,1512.8738 Z "/><text fill="#000000" font-family="sans-serif" font-size="37.5" lengthAdjust="spacingAndGlyphs" textLength="321.875" x="1212.5" y="1517.9199">MMSCallController</text><line style="stroke: #A80036; stroke-width: 4.6875;" x1="1125" x2="1540.625" y1="1553.7476" y2="1553.7476"/><line style="stroke: #A80036; stroke-width: 4.6875;" x1="1125" x2="1540.625" y1="1578.7476" y2="1578.7476"/><rect fill="#FEFECE" filter="url(#f1)" height="271.4539" style="stroke: #A80036; stroke-width: 4.6875;" width="596.875" x="734.375" y="91.2476"/><ellipse cx="858.5938" cy="141.2476" fill="#ADD1B2" rx="34.375" ry="34.375" style="stroke: #A80036; stroke-width: 3.125;"/><path d="M867.8848,158.8821 Q866.069,159.816 864.0717,160.2829 Q862.0743,160.7498 859.8694,160.7498 Q852.0355,160.7498 847.9111,155.5878 Q843.7866,150.4257 843.7866,140.6723 Q843.7866,130.8929 847.9111,125.7309 Q852.0355,120.5688 859.8694,120.5688 Q862.0743,120.5688 864.0976,121.0358 Q866.1209,121.5027 867.8848,122.4365 L867.8848,130.9448 Q865.9134,129.129 864.0587,128.286 Q862.204,127.4429 860.2325,127.4429 Q856.0303,127.4429 853.8902,130.7762 Q851.7502,134.1095 851.7502,140.6723 Q851.7502,147.2092 853.8902,150.5424 Q856.0303,153.8757 860.2325,153.8757 Q862.204,153.8757 864.0587,153.0327 Q865.9134,152.1896 867.8848,150.3738 Z "/><text fill="#000000" font-family="sans-serif" font-size="37.5" lengthAdjust="spacingAndGlyphs" textLength="325" x="919.5313" y="155.4199">GetMediaGateway</text><line style="stroke: #A80036; stroke-width: 4.6875;" x1="737.5" x2="1328.125" y1="191.2476" y2="191.2476"/><rect fill="none" height="18.75" style="stroke: #C82930; stroke-width: 3.125;" width="18.75" x="759.375" y="219.3024"/><text fill="#000000" font-family="sans-serif" font-size="34.375" lengthAdjust="spacingAndGlyphs" textLength="118.75" x="796.875" y="236.9812">Sid sid;</text><rect fill="none" height="18.75" style="stroke: #C82930; stroke-width: 3.125;" width="18.75" x="759.375" y="259.787"/><text fill="#000000" font-family="sans-serif" font-size="34.375" lengthAdjust="spacingAndGlyphs" textLength="375" x="796.875" y="277.4658">boolean isConference;</text><rect fill="none" height="18.75" style="stroke: #C82930; stroke-width: 3.125;" width="18.75" x="759.375" y="300.2716"/><text fill="#000000" font-family="sans-serif" font-size="34.375" lengthAdjust="spacingAndGlyphs" textLength="515.625" x="796.875" y="317.9504">MediaServerInfo preferenceMS;</text><line style="stroke: #A80036; stroke-width: 4.6875;" x1="737.5" x2="1328.125" y1="337.7014" y2="337.7014"/><path d="M451.5625,365.3976 C451.5625,420.5819 451.5625,487.0194 451.5625,553.5538 " fill="none" style="stroke: #A80036; stroke-width: 3.125;"/><polygon fill="none" points="429.6875,364.8538,451.5625,302.3538,473.4375,364.8538,429.6875,364.8538" style="stroke: #A80036; stroke-width: 3.125;"/><path d="M172.9544,1220.8913 C158.3284,1248.8882 145.6775,1277.6819 135.9375,1306.8726 C117.6694,1361.6229 153.7188,1413.8701 196.4631,1453.5654 " fill="none" style="stroke: #A80036; stroke-width: 3.125;"/><polygon fill="#A80036" points="193.2403,1184.5851,173.1823,1194.8558,174.9483,1217.3212,195.0063,1207.0504,193.2403,1184.5851" style="stroke: #A80036; stroke-width: 3.125;"/><text fill="#000000" font-family="sans-serif" font-size="40.625" lengthAdjust="spacingAndGlyphs" textLength="175" x="139.0625" y="1349.2737">observes</text><path d="M369.4063,1229.4351 C349.0844,1314.2497 329.2906,1396.8579 315.7934,1453.1882 " fill="none" style="stroke: #A80036; stroke-width: 3.125;"/><polygon fill="#A80036" points="373.2063,1213.5788,354.5011,1238.0202,369.5681,1228.7743,378.814,1243.8413,373.2063,1213.5788" style="stroke: #A80036; stroke-width: 3.125;"/><text fill="#000000" font-family="sans-serif" font-size="40.625" lengthAdjust="spacingAndGlyphs" textLength="750" x="351.5625" y="1349.2737">GetMediaGateway(confSid, true, RMS1)</text><path d="M723.6,1032.6788 C852.1969,1107.2632 1004.575,1203.8976 1129.6875,1306.8726 C1182.9063,1350.6754 1235.6531,1408.0079 1274.0562,1452.9888 " fill="none" style="stroke: #A80036; stroke-width: 3.125;"/><polygon fill="#A80036" points="709.6406,1024.6163,727.7411,1049.5088,723.1702,1032.4323,740.2467,1027.8615,709.6406,1024.6163" style="stroke: #A80036; stroke-width: 3.125;"/><text fill="#000000" font-family="sans-serif" font-size="40.625" lengthAdjust="spacingAndGlyphs" textLength="715.625" x="1189.0625" y="1349.2737">GetMediaGateway(callSid, false, null)</text></g></svg>