<?xml version="1.0" encoding="UTF-8" standalone="yes"?><svg xmlns="http://www.w3.org/2000/svg" xmlns:xlink="http://www.w3.org/1999/xlink" height="4550px" style="width:909px;height:4550px;" version="1.1" viewBox="0 0 909 4550" width="909.375px"><defs><filter height="300%" id="f1" width="300%" x="-1" y="-1"><feGaussianBlur result="blurOut" stdDeviation="6.25"/><feColorMatrix in="blurOut" result="blurOut2" type="matrix" values="0 0 0 0 0 0 0 0 0 0 0 0 0 0 0 0 0 0 .4 0"/><feOffset dx="12.5" dy="12.5" in="blurOut2" result="blurOut3"/><feBlend in="SourceGraphic" in2="blurOut3" mode="normal"/></filter></defs><g><text fill="#000000" font-family="sans-serif" font-size="56.25" lengthAdjust="spacingAndGlyphs" textLength="712.5" x="114.0625" y="54.3823">MediaResourceBroker FSM</text><ellipse cx="265.625" cy="122.4976" fill="#000000" filter="url(#f1)" rx="31.25" ry="31.25" style="stroke: none; stroke-width: 3.125;"/><rect fill="#FEFECE" filter="url(#f1)" height="156.25" rx="39.0625" ry="39.0625" style="stroke: #A80036; stroke-width: 4.6875;" width="328.125" x="101.5625" y="341.2476"/><line style="stroke: #A80036; stroke-width: 4.6875;" x1="101.5625" x2="429.6875" y1="424.0234" y2="424.0234"/><text fill="#000000" font-family="sans-serif" font-size="43.75" lengthAdjust="spacingAndGlyphs" textLength="265.625" x="132.8125" y="399.1699">uninitialized</text><rect fill="#FEFECE" filter="url(#f1)" height="156.25" rx="39.0625" ry="39.0625" style="stroke: #A80036; stroke-width: 4.6875;" width="184.375" x="173.4375" y="684.9976"/><line style="stroke: #A80036; stroke-width: 4.6875;" x1="173.4375" x2="357.8125" y1="767.7734" y2="767.7734"/><text fill="#000000" font-family="sans-serif" font-size="43.75" lengthAdjust="spacingAndGlyphs" textLength="121.875" x="204.6875" y="742.9199">active</text><rect fill="#FEFECE" filter="url(#f1)" height="156.25" rx="39.0625" ry="39.0625" style="stroke: #A80036; stroke-width: 4.6875;" width="225" x="150" y="4122.4976"/><line style="stroke: #A80036; stroke-width: 4.6875;" x1="150" x2="375" y1="4205.2734" y2="4205.2734"/><text fill="#000000" font-family="sans-serif" font-size="43.75" lengthAdjust="spacingAndGlyphs" textLength="162.5" x="181.25" y="4180.4199">inactive</text><rect fill="#FEFECE" filter="url(#f1)" height="156.25" rx="39.0625" ry="39.0625" style="stroke: #A80036; stroke-width: 4.6875;" width="656.25" x="184.375" y="1028.7476"/><line style="stroke: #A80036; stroke-width: 4.6875;" x1="184.375" x2="840.625" y1="1111.5234" y2="1111.5234"/><text fill="#000000" font-family="sans-serif" font-size="43.75" lengthAdjust="spacingAndGlyphs" textLength="593.75" x="215.625" y="1086.6699">acquiringMediaGatewayInfo</text><rect fill="#FEFECE" filter="url(#f1)" height="156.25" rx="39.0625" ry="39.0625" style="stroke: #A80036; stroke-width: 4.6875;" width="390.625" x="320.3125" y="1372.4976"/><line style="stroke: #A80036; stroke-width: 4.6875;" x1="320.3125" x2="710.9375" y1="1455.2734" y2="1455.2734"/><text fill="#000000" font-family="sans-serif" font-size="43.75" lengthAdjust="spacingAndGlyphs" textLength="328.125" x="351.5625" y="1430.4199">initiateBridging</text><rect fill="#FEFECE" filter="url(#f1)" height="156.25" rx="39.0625" ry="39.0625" style="stroke: #A80036; stroke-width: 4.6875;" width="403.125" x="317.1875" y="1716.2476"/><line style="stroke: #A80036; stroke-width: 4.6875;" x1="317.1875" x2="720.3125" y1="1799.0234" y2="1799.0234"/><text fill="#000000" font-family="sans-serif" font-size="43.75" lengthAdjust="spacingAndGlyphs" textLength="340.625" x="348.4375" y="1774.1699">acquiringBridge</text><rect fill="#FEFECE" filter="url(#f1)" height="156.25" rx="39.0625" ry="39.0625" style="stroke: #A80036; stroke-width: 4.6875;" width="675" x="190.625" y="2059.9976"/><line style="stroke: #A80036; stroke-width: 4.6875;" x1="190.625" x2="865.625" y1="2142.7734" y2="2142.7734"/><text fill="#000000" font-family="sans-serif" font-size="43.75" lengthAdjust="spacingAndGlyphs" textLength="612.5" x="221.875" y="2117.9199">acquiringRemoteConnection</text><rect fill="#FEFECE" filter="url(#f1)" height="156.25" rx="39.0625" ry="39.0625" style="stroke: #A80036; stroke-width: 4.6875;" width="696.875" x="185.9375" y="2403.7476"/><line style="stroke: #A80036; stroke-width: 4.6875;" x1="185.9375" x2="882.8125" y1="2486.5234" y2="2486.5234"/><text fill="#000000" font-family="sans-serif" font-size="43.75" lengthAdjust="spacingAndGlyphs" textLength="634.375" x="217.1875" y="2461.6699">initializingRemoteConnection</text><rect fill="#FEFECE" filter="url(#f1)" height="156.25" rx="39.0625" ry="39.0625" style="stroke: #A80036; stroke-width: 4.6875;" width="650" x="206.25" y="2747.4976"/><line style="stroke: #A80036; stroke-width: 4.6875;" x1="206.25" x2="856.25" y1="2830.2734" y2="2830.2734"/><text fill="#000000" font-family="sans-serif" font-size="43.75" lengthAdjust="spacingAndGlyphs" textLength="587.5" x="237.5" y="2805.4199">openingRemoteConnection</text><rect fill="#FEFECE" filter="url(#f1)" height="156.25" rx="39.0625" ry="39.0625" style="stroke: #A80036; stroke-width: 4.6875;" width="450" x="300" y="3091.2476"/><line style="stroke: #A80036; stroke-width: 4.6875;" x1="300" x2="750" y1="3174.0234" y2="3174.0234"/><text fill="#000000" font-family="sans-serif" font-size="43.75" lengthAdjust="spacingAndGlyphs" textLength="387.5" x="331.25" y="3149.1699">BridgingComplete</text><rect fill="#FEFECE" filter="url(#f1)" height="156.25" rx="39.0625" ry="39.0625" style="stroke: #A80036; stroke-width: 4.6875;" width="665.625" x="189.0625" y="3434.9976"/><line style="stroke: #A80036; stroke-width: 4.6875;" x1="189.0625" x2="854.6875" y1="3517.7734" y2="3517.7734"/><text fill="#000000" font-family="sans-serif" font-size="43.75" lengthAdjust="spacingAndGlyphs" textLength="603.125" x="220.3125" y="3492.9199">updatingRemoteConnection</text><rect fill="#FEFECE" filter="url(#f1)" height="156.25" rx="39.0625" ry="39.0625" style="stroke: #A80036; stroke-width: 4.6875;" width="625" x="196.875" y="3778.7476"/><line style="stroke: #A80036; stroke-width: 4.6875;" x1="196.875" x2="821.875" y1="3861.5234" y2="3861.5234"/><text fill="#000000" font-family="sans-serif" font-size="43.75" lengthAdjust="spacingAndGlyphs" textLength="562.5" x="228.125" y="3836.6699">closingRemoteConnection</text><ellipse cx="262.5" cy="4497.4976" fill="none" filter="url(#f1)" rx="31.25" ry="31.25" style="stroke: #000000; stroke-width: 3.125;"/><ellipse cx="264.0625" cy="4499.0601" fill="#000000" rx="18.75" ry="18.75" style="stroke: none; stroke-width: 3.125;"/><path d="M265.625,154.5601 C265.625,193.9351 265.625,266.1851 265.625,324.8101 " fill="none" style="stroke: #A80036; stroke-width: 3.125;"/><polygon fill="#A80036" points="265.625,340.9663,278.125,312.8413,265.625,325.3413,253.125,312.8413,265.625,340.9663" style="stroke: #A80036; stroke-width: 3.125;"/><path d="M265.625,498.2476 C265.625,548.6226 265.625,615.0601 265.625,668.4038 " fill="none" style="stroke: #A80036; stroke-width: 3.125;"/><polygon fill="#A80036" points="265.625,684.4976,278.125,656.3726,265.625,668.8726,253.125,656.3726,265.625,684.4976" style="stroke: #A80036; stroke-width: 3.125;"/><path d="M218.6088,841.6851 C146.98,963.9976 18.75,1215.4038 18.75,1447.4976 C18.75,1447.4976 18.75,1447.4976 18.75,3516.2476 C18.75,3738.9538 135.6591,3979.9351 207.5459,4107.0632 " fill="none" style="stroke: #A80036; stroke-width: 3.125;"/><polygon fill="#A80036" points="216.0788,4121.9913,212.9738,4091.3707,208.3248,4108.4261,191.2694,4103.777,216.0788,4121.9913" style="stroke: #A80036; stroke-width: 3.125;"/><path d="M321.0284,841.9976 C358.5094,893.2163 408.1625,961.1226 447.5125,1014.9038 " fill="none" style="stroke: #A80036; stroke-width: 3.125;"/><polygon fill="#A80036" points="457.2813,1028.2476,450.7357,998.174,448.0439,1015.6455,430.5724,1012.9537,457.2813,1028.2476" style="stroke: #A80036; stroke-width: 3.125;"/><path d="M513.2,1185.7476 C513.6687,1236.1226 514.2844,1302.5601 514.7781,1355.9038 " fill="none" style="stroke: #A80036; stroke-width: 3.125;"/><polygon fill="#A80036" points="514.925,1371.9976,527.1835,1343.7665,514.7911,1356.3731,502.1844,1343.9807,514.925,1371.9976" style="stroke: #A80036; stroke-width: 3.125;"/><path d="M516.325,1529.4882 C516.7937,1579.8632 517.4094,1646.3132 517.9031,1699.6569 " fill="none" style="stroke: #A80036; stroke-width: 3.125;"/><polygon fill="#A80036" points="518.05,1715.7601,530.2923,1687.522,517.9071,1700.1357,505.2934,1687.7505,518.05,1715.7601" style="stroke: #A80036; stroke-width: 3.125;"/><path d="M520.8531,1873.2382 C522.2531,1923.6132 524.1,1990.0632 525.5813,2043.4069 " fill="none" style="stroke: #A80036; stroke-width: 3.125;"/><polygon fill="#A80036" points="526.0281,2059.5101,537.7437,2031.0494,525.595,2043.8911,512.7533,2031.7424,526.0281,2059.5101" style="stroke: #A80036; stroke-width: 3.125;"/><path d="M529.5281,2216.9882 C530.4594,2267.3632 531.6906,2333.8132 532.6781,2387.1569 " fill="none" style="stroke: #A80036; stroke-width: 3.125;"/><polygon fill="#A80036" points="532.9781,2403.2601,544.9537,2374.9078,532.688,2387.6378,519.958,2375.372,532.9781,2403.2601" style="stroke: #A80036; stroke-width: 3.125;"/><path d="M533.675,2560.7382 C533.2063,2611.1132 532.5906,2677.5632 532.0969,2730.9069 " fill="none" style="stroke: #A80036; stroke-width: 3.125;"/><polygon fill="#A80036" points="531.95,2747.0101,544.7066,2719.0005,532.0929,2731.3857,519.7077,2718.772,531.95,2747.0101" style="stroke: #A80036; stroke-width: 3.125;"/><path d="M529.8469,2904.4882 C528.9156,2954.8632 527.6844,3021.3132 526.6969,3074.6569 " fill="none" style="stroke: #A80036; stroke-width: 3.125;"/><polygon fill="#A80036" points="526.3969,3090.7601,539.417,3062.872,526.687,3075.1378,514.4213,3062.4078,526.3969,3090.7601" style="stroke: #A80036; stroke-width: 3.125;"/><path d="M524.3,3248.2382 C523.8313,3298.6132 523.2156,3365.0632 522.7219,3418.4069 " fill="none" style="stroke: #A80036; stroke-width: 3.125;"/><polygon fill="#A80036" points="522.575,3434.5101,535.3316,3406.5005,522.7179,3418.8857,510.3327,3406.272,522.575,3434.5101" style="stroke: #A80036; stroke-width: 3.125;"/><path d="M519.0688,3591.9882 C517.2031,3642.3632 514.7438,3708.8132 512.7688,3762.1569 " fill="none" style="stroke: #A80036; stroke-width: 3.125;"/><polygon fill="#A80036" points="512.1719,3778.2601,525.7078,3750.6187,512.7522,3762.6458,500.725,3749.6902,512.1719,3778.2601" style="stroke: #A80036; stroke-width: 3.125;"/><path d="M453.9719,3935.7382 C416.4906,3986.9788 366.8375,4054.8601 327.4872,4108.6538 " fill="none" style="stroke: #A80036; stroke-width: 3.125;"/><polygon fill="#A80036" points="317.7188,4122.0101,344.4122,4106.6894,326.9434,4109.3987,324.2341,4091.9299,317.7188,4122.0101" style="stroke: #A80036; stroke-width: 3.125;"/><path d="M262.5,4280.106 C262.5,4333.5551 262.5,4403.2069 262.5,4448.3526 " fill="none" style="stroke: #A80036; stroke-width: 3.125;"/><polygon fill="#A80036" points="262.5,4464.9404,275,4436.8154,262.5,4449.3154,250,4436.8154,262.5,4464.9404" style="stroke: #A80036; stroke-width: 3.125;"/></g></svg>