<?xml version="1.0" encoding="UTF-8" standalone="yes"?><svg xmlns="http://www.w3.org/2000/svg" xmlns:xlink="http://www.w3.org/1999/xlink" height="3487.5px" style="width:1843px;height:3487px;" version="1.1" viewBox="0 0 1843 3487" width="1843.75px"><defs><filter height="300%" id="f1" width="300%" x="-1" y="-1"><feGaussianBlur result="blurOut" stdDeviation="6.25"/><feColorMatrix in="blurOut" result="blurOut2" type="matrix" values="0 0 0 0 0 0 0 0 0 0 0 0 0 0 0 0 0 0 .4 0"/><feOffset dx="12.5" dy="12.5" in="blurOut2" result="blurOut3"/><feBlend in="SourceGraphic" in2="blurOut3" mode="normal"/></filter></defs><g><text fill="#000000" font-family="sans-serif" font-size="43.75" font-weight="bold" lengthAdjust="spacingAndGlyphs" textLength="1021.875" x="407.8125" y="73.5474">cascading conference cleanup (2 participants)</text><rect fill="#FFFFFF" filter="url(#f1)" height="1471.7773" style="stroke: #000000; stroke-width: 6.25;" width="1023.4375" x="606.25" y="1701.0132"/><line style="stroke: #A80036; stroke-width: 3.125; stroke-dasharray: 5.0,5.0;" x1="162.5" x2="162.5" y1="365.5518" y2="3225.9155"/><line style="stroke: #A80036; stroke-width: 3.125; stroke-dasharray: 5.0,5.0;" x1="468.75" x2="468.75" y1="365.5518" y2="3225.9155"/><line style="stroke: #A80036; stroke-width: 3.125; stroke-dasharray: 5.0,5.0;" x1="775" x2="775" y1="365.5518" y2="3225.9155"/><line style="stroke: #A80036; stroke-width: 3.125; stroke-dasharray: 5.0,5.0;" x1="1510.9375" x2="1510.9375" y1="365.5518" y2="3225.9155"/><text fill="#000000" font-family="sans-serif" font-size="43.75" lengthAdjust="spacingAndGlyphs" textLength="256.25" x="25" y="356.3232">Participant1</text><ellipse cx="162.5" cy="135.9009" fill="#FEFECE" filter="url(#f1)" rx="25" ry="25" style="stroke: #A80036; stroke-width: 6.25;"/><path d="M162.5,160.9009 L162.5,245.2759 M121.875,185.9009 L203.125,185.9009 M162.5,245.2759 L121.875,292.1509 M162.5,245.2759 L203.125,292.1509 " fill="#FEFECE" filter="url(#f1)" style="stroke: #A80036; stroke-width: 6.25;"/><text fill="#000000" font-family="sans-serif" font-size="43.75" lengthAdjust="spacingAndGlyphs" textLength="256.25" x="25" y="3265.0879">Participant1</text><ellipse cx="162.5" cy="3305.5664" fill="#FEFECE" filter="url(#f1)" rx="25" ry="25" style="stroke: #A80036; stroke-width: 6.25;"/><path d="M162.5,3330.5664 L162.5,3414.9414 M121.875,3355.5664 L203.125,3355.5664 M162.5,3414.9414 L121.875,3461.8164 M162.5,3414.9414 L203.125,3461.8164 " fill="#FEFECE" filter="url(#f1)" style="stroke: #A80036; stroke-width: 6.25;"/><text fill="#000000" font-family="sans-serif" font-size="43.75" lengthAdjust="spacingAndGlyphs" textLength="256.25" x="331.25" y="356.3232">Participant2</text><ellipse cx="468.75" cy="135.9009" fill="#FEFECE" filter="url(#f1)" rx="25" ry="25" style="stroke: #A80036; stroke-width: 6.25;"/><path d="M468.75,160.9009 L468.75,245.2759 M428.125,185.9009 L509.375,185.9009 M468.75,245.2759 L428.125,292.1509 M468.75,245.2759 L509.375,292.1509 " fill="#FEFECE" filter="url(#f1)" style="stroke: #A80036; stroke-width: 6.25;"/><text fill="#000000" font-family="sans-serif" font-size="43.75" lengthAdjust="spacingAndGlyphs" textLength="256.25" x="331.25" y="3265.0879">Participant2</text><ellipse cx="468.75" cy="3305.5664" fill="#FEFECE" filter="url(#f1)" rx="25" ry="25" style="stroke: #A80036; stroke-width: 6.25;"/><path d="M468.75,3330.5664 L468.75,3414.9414 M428.125,3355.5664 L509.375,3355.5664 M468.75,3414.9414 L428.125,3461.8164 M468.75,3414.9414 L509.375,3461.8164 " fill="#FEFECE" filter="url(#f1)" style="stroke: #A80036; stroke-width: 6.25;"/><rect fill="#FEFECE" filter="url(#f1)" height="95.2759" style="stroke: #A80036; stroke-width: 4.6875;" width="265.625" x="637.5" y="254.6509"/><text fill="#000000" font-family="sans-serif" font-size="43.75" lengthAdjust="spacingAndGlyphs" textLength="221.875" x="659.375" y="318.8232">Restcomm</text><rect fill="#FEFECE" filter="url(#f1)" height="95.2759" style="stroke: #A80036; stroke-width: 4.6875;" width="265.625" x="637.5" y="3222.7905"/><text fill="#000000" font-family="sans-serif" font-size="43.75" lengthAdjust="spacingAndGlyphs" textLength="221.875" x="659.375" y="3286.9629">Restcomm</text><rect fill="#FEFECE" filter="url(#f1)" height="95.2759" style="stroke: #A80036; stroke-width: 4.6875;" width="162.5" x="1423.4375" y="254.6509"/><text fill="#000000" font-family="sans-serif" font-size="43.75" lengthAdjust="spacingAndGlyphs" textLength="118.75" x="1445.3125" y="318.8232">RMS1</text><rect fill="#FEFECE" filter="url(#f1)" height="95.2759" style="stroke: #A80036; stroke-width: 4.6875;" width="162.5" x="1423.4375" y="3222.7905"/><text fill="#000000" font-family="sans-serif" font-size="43.75" lengthAdjust="spacingAndGlyphs" textLength="118.75" x="1445.3125" y="3286.9629">RMS1</text><polygon fill="#A80036" points="739.0625,449.9268,770.3125,462.4268,739.0625,474.9268,751.5625,462.4268" style="stroke: #A80036; stroke-width: 3.125;"/><line style="stroke: #A80036; stroke-width: 3.125;" x1="162.5" x2="757.8125" y1="462.4268" y2="462.4268"/><text fill="#000000" font-family="sans-serif" font-size="40.625" lengthAdjust="spacingAndGlyphs" textLength="153.125" x="184.375" y="448.5779">sip: BYE</text><polygon fill="#A80036" points="196.875,541.5222,165.625,554.0222,196.875,566.5222,184.375,554.0222" style="stroke: #A80036; stroke-width: 3.125;"/><line style="stroke: #A80036; stroke-width: 3.125;" x1="178.125" x2="773.4375" y1="554.0222" y2="554.0222"/><text fill="#000000" font-family="sans-serif" font-size="40.625" lengthAdjust="spacingAndGlyphs" textLength="231.25" x="215.625" y="540.1733">sip: 200|OK</text><rect fill="#EEEEEE" filter="url(#f1)" height="9.375" style="stroke: #EEEEEE; stroke-width: 3.125;" width="1818.75" x="9.375" y="644.5404"/><line style="stroke: #000000; stroke-width: 3.125;" x1="9.375" x2="1828.125" y1="644.5404" y2="644.5404"/><line style="stroke: #000000; stroke-width: 3.125;" x1="9.375" x2="1828.125" y1="653.9154" y2="653.9154"/><rect fill="#EEEEEE" filter="url(#f1)" height="72.8455" style="stroke: #000000; stroke-width: 6.25;" width="1062.5" x="387.5" y="611.2427"/><text fill="#000000" font-family="sans-serif" font-size="40.625" font-weight="bold" lengthAdjust="spacingAndGlyphs" textLength="1006.25" x="406.25" y="663.0188">delete local connection b/w cnf/1 and bridge/1</text><polygon fill="#A80036" points="1473.4375,815.3381,1504.6875,827.8381,1473.4375,840.3381,1485.9375,827.8381" style="stroke: #A80036; stroke-width: 3.125;"/><line style="stroke: #A80036; stroke-width: 3.125; stroke-dasharray: 2.0,2.0;" x1="776.5625" x2="1492.1875" y1="827.8381" y2="827.8381"/><text fill="#000000" font-family="sans-serif" font-size="40.625" lengthAdjust="spacingAndGlyphs" textLength="659.375" x="798.4375" y="767.1143">DLCX mobicents/bridge/1@RMS1</text><text fill="#000000" font-family="sans-serif" font-size="40.625" lengthAdjust="spacingAndGlyphs" textLength="587.5" x="798.4375" y="814.9597">callid=xyz, connectionid=abc</text><polygon fill="#A80036" points="810.9375,907.9041,779.6875,920.4041,810.9375,932.9041,798.4375,920.4041" style="stroke: #A80036; stroke-width: 3.125;"/><line style="stroke: #A80036; stroke-width: 3.125; stroke-dasharray: 2.0,2.0;" x1="792.1875" x2="1507.8125" y1="920.4041" y2="920.4041"/><text fill="#000000" font-family="sans-serif" font-size="40.625" lengthAdjust="spacingAndGlyphs" textLength="490.625" x="829.6875" y="906.5552">tx was executed normaly</text><polygon fill="#A80036" points="1473.4375,1046.3745,1504.6875,1058.8745,1473.4375,1071.3745,1485.9375,1058.8745" style="stroke: #A80036; stroke-width: 3.125;"/><line style="stroke: #A80036; stroke-width: 3.125; stroke-dasharray: 2.0,2.0;" x1="776.5625" x2="1492.1875" y1="1058.8745" y2="1058.8745"/><text fill="#000000" font-family="sans-serif" font-size="40.625" lengthAdjust="spacingAndGlyphs" textLength="596.875" x="798.4375" y="998.1506">DLCX mobicents/cnf/1@RMS1</text><text fill="#000000" font-family="sans-serif" font-size="40.625" lengthAdjust="spacingAndGlyphs" textLength="587.5" x="798.4375" y="1045.9961">callid=xyz, connectionid=abc</text><polygon fill="#A80036" points="810.9375,1138.9404,779.6875,1151.4404,810.9375,1163.9404,798.4375,1151.4404" style="stroke: #A80036; stroke-width: 3.125;"/><line style="stroke: #A80036; stroke-width: 3.125; stroke-dasharray: 2.0,2.0;" x1="792.1875" x2="1507.8125" y1="1151.4404" y2="1151.4404"/><text fill="#000000" font-family="sans-serif" font-size="40.625" lengthAdjust="spacingAndGlyphs" textLength="490.625" x="829.6875" y="1137.5916">tx was executed normaly</text><rect fill="#EEEEEE" filter="url(#f1)" height="9.375" style="stroke: #EEEEEE; stroke-width: 3.125;" width="1818.75" x="9.375" y="1241.9586"/><line style="stroke: #000000; stroke-width: 3.125;" x1="9.375" x2="1828.125" y1="1241.9586" y2="1241.9586"/><line style="stroke: #000000; stroke-width: 3.125;" x1="9.375" x2="1828.125" y1="1251.3336" y2="1251.3336"/><rect fill="#EEEEEE" filter="url(#f1)" height="72.8455" style="stroke: #000000; stroke-width: 6.25;" width="590.625" x="623.4375" y="1208.6609"/><text fill="#000000" font-family="sans-serif" font-size="40.625" font-weight="bold" lengthAdjust="spacingAndGlyphs" textLength="546.875" x="642.1875" y="1260.437">delete bridge/1 and ivr/1</text><polygon fill="#A80036" points="1473.4375,1365.8813,1504.6875,1378.3813,1473.4375,1390.8813,1485.9375,1378.3813" style="stroke: #A80036; stroke-width: 3.125;"/><line style="stroke: #A80036; stroke-width: 3.125;" x1="776.5625" x2="1492.1875" y1="1378.3813" y2="1378.3813"/><text fill="#000000" font-family="sans-serif" font-size="40.625" lengthAdjust="spacingAndGlyphs" textLength="584.375" x="798.4375" y="1364.5325">DLCX mobicents/ivr/1@RMS1</text><polygon fill="#A80036" points="810.9375,1457.4768,779.6875,1469.9768,810.9375,1482.4768,798.4375,1469.9768" style="stroke: #A80036; stroke-width: 3.125;"/><line style="stroke: #A80036; stroke-width: 3.125;" x1="792.1875" x2="1507.8125" y1="1469.9768" y2="1469.9768"/><text fill="#000000" font-family="sans-serif" font-size="40.625" lengthAdjust="spacingAndGlyphs" textLength="490.625" x="829.6875" y="1456.1279">tx was executed normaly</text><polygon fill="#A80036" points="1473.4375,1549.0723,1504.6875,1561.5723,1473.4375,1574.0723,1485.9375,1561.5723" style="stroke: #A80036; stroke-width: 3.125;"/><line style="stroke: #A80036; stroke-width: 3.125;" x1="776.5625" x2="1492.1875" y1="1561.5723" y2="1561.5723"/><text fill="#000000" font-family="sans-serif" font-size="40.625" lengthAdjust="spacingAndGlyphs" textLength="659.375" x="798.4375" y="1547.7234">DLCX mobicents/bridge/1@RMS1</text><polygon fill="#A80036" points="810.9375,1640.6677,779.6875,1653.1677,810.9375,1665.6677,798.4375,1653.1677" style="stroke: #A80036; stroke-width: 3.125;"/><line style="stroke: #A80036; stroke-width: 3.125;" x1="792.1875" x2="1507.8125" y1="1653.1677" y2="1653.1677"/><text fill="#000000" font-family="sans-serif" font-size="40.625" lengthAdjust="spacingAndGlyphs" textLength="490.625" x="829.6875" y="1639.3188">tx was executed normaly</text><rect fill="none" height="1471.7773" style="stroke: #000000; stroke-width: 6.25;" width="1023.4375" x="606.25" y="1701.0132"/><polygon fill="#EEEEEE" points="606.25,1701.0132,800,1701.0132,800,1722.8882,768.75,1754.1382,606.25,1754.1382,606.25,1701.0132" style="stroke: #000000; stroke-width: 6.25;"/><text fill="#000000" font-family="sans-serif" font-size="40.625" font-weight="bold" lengthAdjust="spacingAndGlyphs" textLength="53.125" x="653.125" y="1743.4143">alt</text><text fill="#000000" font-family="sans-serif" font-size="34.375" font-weight="bold" lengthAdjust="spacingAndGlyphs" textLength="671.875" x="846.875" y="1740.4968">[If this is last participant on this RMS]</text><rect fill="#EEEEEE" filter="url(#f1)" height="9.375" style="stroke: #EEEEEE; stroke-width: 3.125;" width="1818.75" x="9.375" y="1819.6564"/><line style="stroke: #000000; stroke-width: 3.125;" x1="9.375" x2="1828.125" y1="1819.6564" y2="1819.6564"/><line style="stroke: #000000; stroke-width: 3.125;" x1="9.375" x2="1828.125" y1="1829.0314" y2="1829.0314"/><rect fill="#EEEEEE" filter="url(#f1)" height="72.8455" style="stroke: #000000; stroke-width: 6.25;" width="1743.75" x="46.875" y="1786.3586"/><text fill="#000000" font-family="sans-serif" font-size="40.625" font-weight="bold" lengthAdjust="spacingAndGlyphs" textLength="1687.5" x="65.625" y="1838.1348">delete local connection b/w cnf/1 and bridge/3 (the one connecting with RMS2)</text><polygon fill="#A80036" points="1473.4375,1990.4541,1504.6875,2002.9541,1473.4375,2015.4541,1485.9375,2002.9541" style="stroke: #A80036; stroke-width: 3.125;"/><line style="stroke: #A80036; stroke-width: 3.125; stroke-dasharray: 2.0,2.0;" x1="776.5625" x2="1492.1875" y1="2002.9541" y2="2002.9541"/><text fill="#000000" font-family="sans-serif" font-size="40.625" lengthAdjust="spacingAndGlyphs" textLength="659.375" x="798.4375" y="1942.2302">DLCX mobicents/bridge/3@RMS1</text><text fill="#000000" font-family="sans-serif" font-size="40.625" lengthAdjust="spacingAndGlyphs" textLength="587.5" x="798.4375" y="1990.0757">callid=xyz, connectionid=abc</text><polygon fill="#A80036" points="810.9375,2083.02,779.6875,2095.52,810.9375,2108.02,798.4375,2095.52" style="stroke: #A80036; stroke-width: 3.125;"/><line style="stroke: #A80036; stroke-width: 3.125; stroke-dasharray: 2.0,2.0;" x1="792.1875" x2="1507.8125" y1="2095.52" y2="2095.52"/><text fill="#000000" font-family="sans-serif" font-size="40.625" lengthAdjust="spacingAndGlyphs" textLength="490.625" x="829.6875" y="2081.6711">tx was executed normaly</text><polygon fill="#A80036" points="1473.4375,2221.4905,1504.6875,2233.9905,1473.4375,2246.4905,1485.9375,2233.9905" style="stroke: #A80036; stroke-width: 3.125;"/><line style="stroke: #A80036; stroke-width: 3.125; stroke-dasharray: 2.0,2.0;" x1="776.5625" x2="1492.1875" y1="2233.9905" y2="2233.9905"/><text fill="#000000" font-family="sans-serif" font-size="40.625" lengthAdjust="spacingAndGlyphs" textLength="596.875" x="798.4375" y="2173.2666">DLCX mobicents/cnf/1@RMS1</text><text fill="#000000" font-family="sans-serif" font-size="40.625" lengthAdjust="spacingAndGlyphs" textLength="587.5" x="798.4375" y="2221.1121">callid=xyz, connectionid=abc</text><polygon fill="#A80036" points="810.9375,2314.0564,779.6875,2326.5564,810.9375,2339.0564,798.4375,2326.5564" style="stroke: #A80036; stroke-width: 3.125;"/><line style="stroke: #A80036; stroke-width: 3.125; stroke-dasharray: 2.0,2.0;" x1="792.1875" x2="1507.8125" y1="2326.5564" y2="2326.5564"/><text fill="#000000" font-family="sans-serif" font-size="40.625" lengthAdjust="spacingAndGlyphs" textLength="490.625" x="829.6875" y="2312.7075">tx was executed normaly</text><rect fill="#EEEEEE" filter="url(#f1)" height="9.375" style="stroke: #EEEEEE; stroke-width: 3.125;" width="1818.75" x="9.375" y="2417.0746"/><line style="stroke: #000000; stroke-width: 3.125;" x1="9.375" x2="1828.125" y1="2417.0746" y2="2417.0746"/><line style="stroke: #000000; stroke-width: 3.125;" x1="9.375" x2="1828.125" y1="2426.4496" y2="2426.4496"/><rect fill="#EEEEEE" filter="url(#f1)" height="72.8455" style="stroke: #000000; stroke-width: 6.25;" width="1200" x="318.75" y="2383.7769"/><text fill="#000000" font-family="sans-serif" font-size="40.625" font-weight="bold" lengthAdjust="spacingAndGlyphs" textLength="1143.75" x="337.5" y="2435.553">delete bridge/3 (the one connecting RMS1 with RMS2)</text><polygon fill="#A80036" points="1473.4375,2540.9973,1504.6875,2553.4973,1473.4375,2565.9973,1485.9375,2553.4973" style="stroke: #A80036; stroke-width: 3.125;"/><line style="stroke: #A80036; stroke-width: 3.125; stroke-dasharray: 2.0,2.0;" x1="776.5625" x2="1492.1875" y1="2553.4973" y2="2553.4973"/><text fill="#000000" font-family="sans-serif" font-size="40.625" lengthAdjust="spacingAndGlyphs" textLength="659.375" x="798.4375" y="2539.6484">DLCX mobicents/bridge/3@RMS1</text><polygon fill="#A80036" points="810.9375,2632.5928,779.6875,2645.0928,810.9375,2657.5928,798.4375,2645.0928" style="stroke: #A80036; stroke-width: 3.125;"/><line style="stroke: #A80036; stroke-width: 3.125; stroke-dasharray: 2.0,2.0;" x1="792.1875" x2="1507.8125" y1="2645.0928" y2="2645.0928"/><text fill="#000000" font-family="sans-serif" font-size="40.625" lengthAdjust="spacingAndGlyphs" textLength="490.625" x="829.6875" y="2631.2439">tx was executed normaly</text><rect fill="#EEEEEE" filter="url(#f1)" height="9.375" style="stroke: #EEEEEE; stroke-width: 3.125;" width="1818.75" x="9.375" y="2735.611"/><line style="stroke: #000000; stroke-width: 3.125;" x1="9.375" x2="1828.125" y1="2735.611" y2="2735.611"/><line style="stroke: #000000; stroke-width: 3.125;" x1="9.375" x2="1828.125" y1="2744.986" y2="2744.986"/><rect fill="#EEEEEE" filter="url(#f1)" height="72.8455" style="stroke: #000000; stroke-width: 6.25;" width="600" x="618.75" y="2702.3132"/><text fill="#000000" font-family="sans-serif" font-size="40.625" font-weight="bold" lengthAdjust="spacingAndGlyphs" textLength="543.75" x="637.5" y="2754.0894">delete cnf/1 and it's ivr/2</text><polygon fill="#A80036" points="1473.4375,2859.5337,1504.6875,2872.0337,1473.4375,2884.5337,1485.9375,2872.0337" style="stroke: #A80036; stroke-width: 3.125;"/><line style="stroke: #A80036; stroke-width: 3.125; stroke-dasharray: 2.0,2.0;" x1="776.5625" x2="1492.1875" y1="2872.0337" y2="2872.0337"/><text fill="#000000" font-family="sans-serif" font-size="40.625" lengthAdjust="spacingAndGlyphs" textLength="584.375" x="798.4375" y="2858.1848">DLCX mobicents/ivr/2@RMS1</text><polygon fill="#A80036" points="810.9375,2951.1292,779.6875,2963.6292,810.9375,2976.1292,798.4375,2963.6292" style="stroke: #A80036; stroke-width: 3.125;"/><line style="stroke: #A80036; stroke-width: 3.125; stroke-dasharray: 2.0,2.0;" x1="792.1875" x2="1507.8125" y1="2963.6292" y2="2963.6292"/><text fill="#000000" font-family="sans-serif" font-size="40.625" lengthAdjust="spacingAndGlyphs" textLength="490.625" x="829.6875" y="2949.7803">tx was executed normaly</text><polygon fill="#A80036" points="1473.4375,3042.7246,1504.6875,3055.2246,1473.4375,3067.7246,1485.9375,3055.2246" style="stroke: #A80036; stroke-width: 3.125;"/><line style="stroke: #A80036; stroke-width: 3.125; stroke-dasharray: 2.0,2.0;" x1="776.5625" x2="1492.1875" y1="3055.2246" y2="3055.2246"/><text fill="#000000" font-family="sans-serif" font-size="40.625" lengthAdjust="spacingAndGlyphs" textLength="596.875" x="798.4375" y="3041.3757">DLCX mobicents/cnf/1@RMS1</text><polygon fill="#A80036" points="810.9375,3134.3201,779.6875,3146.8201,810.9375,3159.3201,798.4375,3146.8201" style="stroke: #A80036; stroke-width: 3.125;"/><line style="stroke: #A80036; stroke-width: 3.125; stroke-dasharray: 2.0,2.0;" x1="792.1875" x2="1507.8125" y1="3146.8201" y2="3146.8201"/><text fill="#000000" font-family="sans-serif" font-size="40.625" lengthAdjust="spacingAndGlyphs" textLength="490.625" x="829.6875" y="3132.9712">tx was executed normaly</text></g></svg>