<?xml version="1.0" encoding="UTF-8" standalone="yes"?><svg xmlns="http://www.w3.org/2000/svg" xmlns:xlink="http://www.w3.org/1999/xlink" height="1275px" style="width:1868px;height:1275px;" version="1.1" viewBox="0 0 1868 1275" width="1868.75px"><defs><filter height="300%" id="f1" width="300%" x="-1" y="-1"><feGaussianBlur result="blurOut" stdDeviation="6.25"/><feColorMatrix in="blurOut" result="blurOut2" type="matrix" values="0 0 0 0 0 0 0 0 0 0 0 0 0 0 0 0 0 0 .4 0"/><feOffset dx="12.5" dy="12.5" in="blurOut2" result="blurOut3"/><feBlend in="SourceGraphic" in2="blurOut3" mode="normal"/></filter></defs><g><rect fill="#FEFECE" filter="url(#f1)" height="150" style="stroke: #A80036; stroke-width: 4.6875;" width="496.875" x="625" y="365.625"/><ellipse cx="671.875" cy="415.625" fill="#B4A7E5" rx="34.375" ry="34.375" style="stroke: #A80036; stroke-width: 3.125;"/><path d="M659.1492,402.3911 L659.1492,395.6467 L682.2098,395.6467 L682.2098,402.3911 L674.5056,402.3911 L674.5056,427.6306 L682.2098,427.6306 L682.2098,434.375 L659.1492,434.375 L659.1492,427.6306 L666.8533,427.6306 L666.8533,402.3911 Z "/><text fill="#000000" font-family="sans-serif" font-size="37.5" font-style="italic" lengthAdjust="spacingAndGlyphs" textLength="396.875" x="715.625" y="429.7974">MediaServerController</text><line style="stroke: #A80036; stroke-width: 4.6875;" x1="628.125" x2="1118.75" y1="465.625" y2="465.625"/><line style="stroke: #A80036; stroke-width: 4.6875;" x1="628.125" x2="1118.75" y1="490.625" y2="490.625"/><rect fill="#FEFECE" filter="url(#f1)" height="150" style="stroke: #A80036; stroke-width: 4.6875;" width="493.75" x="626.5625" y="756.25"/><ellipse cx="673.4375" cy="806.25" fill="#ADD1B2" rx="34.375" ry="34.375" style="stroke: #A80036; stroke-width: 3.125;"/><path d="M682.7286,823.8846 Q680.9128,824.8184 678.9154,825.2853 Q676.918,825.7523 674.7131,825.7523 Q666.8793,825.7523 662.7548,820.5902 Q658.6304,815.4282 658.6304,805.6747 Q658.6304,795.8954 662.7548,790.7333 Q666.8793,785.5713 674.7131,785.5713 Q676.918,785.5713 678.9413,786.0382 Q680.9647,786.5051 682.7286,787.439 L682.7286,795.9473 Q680.7571,794.1315 678.9024,793.2884 Q677.0477,792.4454 675.0763,792.4454 Q670.874,792.4454 668.734,795.7787 Q666.5939,799.1119 666.5939,805.6747 Q666.5939,812.2116 668.734,815.5449 Q670.874,818.8782 675.0763,818.8782 Q677.0477,818.8782 678.9024,818.0351 Q680.7571,817.1921 682.7286,815.3763 Z "/><text fill="#000000" font-family="sans-serif" font-size="37.5" lengthAdjust="spacingAndGlyphs" textLength="393.75" x="717.1875" y="820.4224">MediaResourceBroker</text><line style="stroke: #A80036; stroke-width: 4.6875;" x1="629.6875" x2="1117.1875" y1="856.25" y2="856.25"/><line style="stroke: #A80036; stroke-width: 4.6875;" x1="629.6875" x2="1117.1875" y1="881.25" y2="881.25"/><rect fill="#FEFECE" filter="url(#f1)" height="150" style="stroke: #A80036; stroke-width: 4.6875;" width="362.5" x="692.1875" y="1096.875"/><ellipse cx="739.0625" cy="1146.875" fill="#ADD1B2" rx="34.375" ry="34.375" style="stroke: #A80036; stroke-width: 3.125;"/><path d="M748.3536,1164.5096 Q746.5378,1165.4434 744.5404,1165.9103 Q742.543,1166.3773 740.3381,1166.3773 Q732.5043,1166.3773 728.3798,1161.2152 Q724.2554,1156.0532 724.2554,1146.2997 Q724.2554,1136.5204 728.3798,1131.3583 Q732.5043,1126.1963 740.3381,1126.1963 Q742.543,1126.1963 744.5663,1126.6632 Q746.5897,1127.1301 748.3536,1128.064 L748.3536,1136.5723 Q746.3821,1134.7565 744.5274,1133.9134 Q742.6727,1133.0704 740.7013,1133.0704 Q736.499,1133.0704 734.359,1136.4037 Q732.2189,1139.7369 732.2189,1146.2997 Q732.2189,1152.8366 734.359,1156.1699 Q736.499,1159.5032 740.7013,1159.5032 Q742.6727,1159.5032 744.5274,1158.6601 Q746.3821,1157.8171 748.3536,1156.0013 Z "/><text fill="#000000" font-family="sans-serif" font-size="37.5" lengthAdjust="spacingAndGlyphs" textLength="262.5" x="782.8125" y="1161.0474">MediaGateway</text><line style="stroke: #A80036; stroke-width: 4.6875;" x1="695.3125" x2="1051.5625" y1="1196.875" y2="1196.875"/><line style="stroke: #A80036; stroke-width: 4.6875;" x1="695.3125" x2="1051.5625" y1="1221.875" y2="1221.875"/><rect fill="#FEFECE" filter="url(#f1)" height="150" style="stroke: #A80036; stroke-width: 4.6875;" width="165.625" x="225" y="756.25"/><ellipse cx="271.875" cy="806.25" fill="#ADD1B2" rx="34.375" ry="34.375" style="stroke: #A80036; stroke-width: 3.125;"/><path d="M281.1661,823.8846 Q279.3503,824.8184 277.3529,825.2853 Q275.3555,825.7523 273.1506,825.7523 Q265.3168,825.7523 261.1923,820.5902 Q257.0679,815.4282 257.0679,805.6747 Q257.0679,795.8954 261.1923,790.7333 Q265.3168,785.5713 273.1506,785.5713 Q275.3555,785.5713 277.3788,786.0382 Q279.4022,786.5051 281.1661,787.439 L281.1661,795.9473 Q279.1946,794.1315 277.3399,793.2884 Q275.4852,792.4454 273.5138,792.4454 Q269.3115,792.4454 267.1715,795.7787 Q265.0314,799.1119 265.0314,805.6747 Q265.0314,812.2116 267.1715,815.5449 Q269.3115,818.8782 273.5138,818.8782 Q275.4852,818.8782 277.3399,818.0351 Q279.1946,817.1921 281.1661,815.3763 Z "/><text fill="#000000" font-family="sans-serif" font-size="37.5" lengthAdjust="spacingAndGlyphs" textLength="65.625" x="315.625" y="820.4224">Call</text><line style="stroke: #A80036; stroke-width: 4.6875;" x1="228.125" x2="387.5" y1="856.25" y2="856.25"/><line style="stroke: #A80036; stroke-width: 4.6875;" x1="228.125" x2="387.5" y1="881.25" y2="881.25"/><rect fill="#FEFECE" filter="url(#f1)" height="150" style="stroke: #A80036; stroke-width: 4.6875;" width="303.125" x="1281.25" y="756.25"/><ellipse cx="1328.125" cy="806.25" fill="#ADD1B2" rx="34.375" ry="34.375" style="stroke: #A80036; stroke-width: 3.125;"/><path d="M1337.4161,823.8846 Q1335.6003,824.8184 1333.6029,825.2853 Q1331.6055,825.7523 1329.4006,825.7523 Q1321.5668,825.7523 1317.4423,820.5902 Q1313.3179,815.4282 1313.3179,805.6747 Q1313.3179,795.8954 1317.4423,790.7333 Q1321.5668,785.5713 1329.4006,785.5713 Q1331.6055,785.5713 1333.6288,786.0382 Q1335.6522,786.5051 1337.4161,787.439 L1337.4161,795.9473 Q1335.4446,794.1315 1333.5899,793.2884 Q1331.7352,792.4454 1329.7638,792.4454 Q1325.5615,792.4454 1323.4215,795.7787 Q1321.2814,799.1119 1321.2814,805.6747 Q1321.2814,812.2116 1323.4215,815.5449 Q1325.5615,818.8782 1329.7638,818.8782 Q1331.7352,818.8782 1333.5899,818.0351 Q1335.4446,817.1921 1337.4161,815.3763 Z "/><text fill="#000000" font-family="sans-serif" font-size="37.5" lengthAdjust="spacingAndGlyphs" textLength="203.125" x="1371.875" y="820.4224">Conference</text><line style="stroke: #A80036; stroke-width: 4.6875;" x1="1284.375" x2="1581.25" y1="856.25" y2="856.25"/><line style="stroke: #A80036; stroke-width: 4.6875;" x1="1284.375" x2="1581.25" y1="881.25" y2="881.25"/><rect fill="#FEFECE" filter="url(#f1)" height="150" style="stroke: #A80036; stroke-width: 4.6875;" width="328.125" x="709.375" y="25"/><ellipse cx="756.25" cy="75" fill="#ADD1B2" rx="34.375" ry="34.375" style="stroke: #A80036; stroke-width: 3.125;"/><path d="M765.5411,92.6346 Q763.7253,93.5684 761.7279,94.0353 Q759.7305,94.5023 757.5256,94.5023 Q749.6918,94.5023 745.5673,89.3402 Q741.4429,84.1782 741.4429,74.4247 Q741.4429,64.6454 745.5673,59.4833 Q749.6918,54.3213 757.5256,54.3213 Q759.7305,54.3213 761.7538,54.7882 Q763.7772,55.2551 765.5411,56.189 L765.5411,64.6973 Q763.5696,62.8815 761.7149,62.0384 Q759.8602,61.1954 757.8888,61.1954 Q753.6865,61.1954 751.5465,64.5287 Q749.4064,67.8619 749.4064,74.4247 Q749.4064,80.9616 751.5465,84.2949 Q753.6865,87.6282 757.8888,87.6282 Q759.8602,87.6282 761.7149,86.7851 Q763.5696,85.9421 765.5411,84.1263 Z "/><text fill="#000000" font-family="sans-serif" font-size="37.5" lengthAdjust="spacingAndGlyphs" textLength="228.125" x="800" y="89.1724">DaoManager</text><line style="stroke: #A80036; stroke-width: 4.6875;" x1="712.5" x2="1034.375" y1="125" y2="125"/><line style="stroke: #A80036; stroke-width: 4.6875;" x1="712.5" x2="1034.375" y1="150" y2="150"/><rect fill="#FEFECE" filter="url(#f1)" height="150" style="stroke: #A80036; stroke-width: 4.6875;" width="321.875" x="18.75" y="365.625"/><ellipse cx="65.625" cy="415.625" fill="#ADD1B2" rx="34.375" ry="34.375" style="stroke: #A80036; stroke-width: 3.125;"/><path d="M74.9161,433.2596 Q73.1003,434.1934 71.1029,434.6603 Q69.1055,435.1273 66.9006,435.1273 Q59.0668,435.1273 54.9423,429.9652 Q50.8179,424.8032 50.8179,415.0497 Q50.8179,405.2704 54.9423,400.1083 Q59.0668,394.9463 66.9006,394.9463 Q69.1055,394.9463 71.1288,395.4132 Q73.1522,395.8801 74.9161,396.814 L74.9161,405.3223 Q72.9446,403.5065 71.0899,402.6634 Q69.2352,401.8204 67.2638,401.8204 Q63.0615,401.8204 60.9215,405.1537 Q58.7814,408.4869 58.7814,415.0497 Q58.7814,421.5866 60.9215,424.9199 Q63.0615,428.2532 67.2638,428.2532 Q69.2352,428.2532 71.0899,427.4101 Q72.9446,426.5671 74.9161,424.7513 Z "/><text fill="#000000" font-family="sans-serif" font-size="37.5" lengthAdjust="spacingAndGlyphs" textLength="221.875" x="109.375" y="429.7974">CallManager</text><line style="stroke: #A80036; stroke-width: 4.6875;" x1="21.875" x2="337.5" y1="465.625" y2="465.625"/><line style="stroke: #A80036; stroke-width: 4.6875;" x1="21.875" x2="337.5" y1="490.625" y2="490.625"/><rect fill="#FEFECE" filter="url(#f1)" height="150" style="stroke: #A80036; stroke-width: 4.6875;" width="421.875" x="1275" y="365.625"/><ellipse cx="1321.875" cy="415.625" fill="#ADD1B2" rx="34.375" ry="34.375" style="stroke: #A80036; stroke-width: 3.125;"/><path d="M1331.1661,433.2596 Q1329.3503,434.1934 1327.3529,434.6603 Q1325.3555,435.1273 1323.1506,435.1273 Q1315.3168,435.1273 1311.1923,429.9652 Q1307.0679,424.8032 1307.0679,415.0497 Q1307.0679,405.2704 1311.1923,400.1083 Q1315.3168,394.9463 1323.1506,394.9463 Q1325.3555,394.9463 1327.3788,395.4132 Q1329.4022,395.8801 1331.1661,396.814 L1331.1661,405.3223 Q1329.1946,403.5065 1327.3399,402.6634 Q1325.4852,401.8204 1323.5138,401.8204 Q1319.3115,401.8204 1317.1715,405.1537 Q1315.0314,408.4869 1315.0314,415.0497 Q1315.0314,421.5866 1317.1715,424.9199 Q1319.3115,428.2532 1323.5138,428.2532 Q1325.4852,428.2532 1327.3399,427.4101 Q1329.1946,426.5671 1331.1661,424.7513 Z "/><text fill="#000000" font-family="sans-serif" font-size="37.5" lengthAdjust="spacingAndGlyphs" textLength="321.875" x="1365.625" y="429.7974">ConferenceCenter</text><line style="stroke: #A80036; stroke-width: 4.6875;" x1="1278.125" x2="1693.75" y1="465.625" y2="465.625"/><line style="stroke: #A80036; stroke-width: 4.6875;" x1="1278.125" x2="1693.75" y1="490.625" y2="490.625"/><path d="M865.5406,556.4719 C863.9812,590.5313 863.0875,628.0344 864.0625,662.5 C864.925,693.0156 866.6813,726.6563 868.4437,755.6031 " fill="none" style="stroke: #A80036; stroke-width: 3.125;"/><polygon fill="#FFFFFF" points="867.7813,515.6531,854.2719,533.6894,865.7249,553.0967,879.2342,535.0604,867.7813,515.6531" style="stroke: #A80036; stroke-width: 3.125;"/><text fill="#000000" font-family="sans-serif" font-size="40.625" lengthAdjust="spacingAndGlyphs" textLength="175" x="867.1875" y="651.7761">observes</text><path d="M873.4375,947.8197 C873.4375,996.9397 873.4375,1052.9859 873.4375,1096.3372 " fill="none" style="stroke: #A80036; stroke-width: 3.125;"/><polygon fill="#A80036" points="873.4375,906.9281,860.9375,925.6781,873.4375,944.4281,885.9375,925.6781,873.4375,906.9281" style="stroke: #A80036; stroke-width: 3.125;"/><path d="M873.4375,175.6781 C873.4375,219.0594 873.4375,275.1094 873.4375,324.2156 " fill="none" style="stroke: #A80036; stroke-width: 3.125;"/><polygon fill="#FFFFFF" points="873.4375,365.0875,885.9375,346.3375,873.4375,327.5875,860.9375,346.3375,873.4375,365.0875" style="stroke: #A80036; stroke-width: 3.125;"/><path d="M163.0709,515.7781 C156.2553,559.4781 153.4041,615.6625 170.3125,662.5 C180.8053,691.5656 198.8647,719.1344 218.5084,743.1406 " fill="none" style="stroke: #A80036; stroke-width: 3.125;"/><polygon fill="#A80036" points="229.5463,756.0969,220.821,726.5819,219.4129,744.2034,201.7914,742.7952,229.5463,756.0969" style="stroke: #A80036; stroke-width: 3.125;"/><text fill="#000000" font-family="sans-serif" font-size="40.625" lengthAdjust="spacingAndGlyphs" textLength="256.25" x="173.4375" y="651.7761">creates a call</text><path d="M1475.9438,516.0469 C1467.1531,579.6688 1454.325,672.4719 1444.9469,740.3375 " fill="none" style="stroke: #A80036; stroke-width: 3.125;"/><polygon fill="#A80036" points="1442.7594,756.15,1458.9909,730.0004,1444.8978,740.672,1434.2262,726.5789,1442.7594,756.15" style="stroke: #A80036; stroke-width: 3.125;"/><text fill="#000000" font-family="sans-serif" font-size="40.625" lengthAdjust="spacingAndGlyphs" textLength="403.125" x="1464.0625" y="651.7761">creates a conference</text><path d="M767.0469,516.0469 C669.4313,582.3844 525.1281,680.4469 424.4125,748.8875 " fill="none" style="stroke: #A80036; stroke-width: 3.125;"/><polygon fill="#A80036" points="390.7563,771.7594,413.2901,771.5595,421.7724,750.6822,399.2386,750.8821,390.7563,771.7594" style="stroke: #A80036; stroke-width: 3.125;"/><text fill="#000000" font-family="sans-serif" font-size="40.625" lengthAdjust="spacingAndGlyphs" textLength="175" x="629.6875" y="651.7761">observes</text><path d="M978.6531,516.0469 C1067.7219,577.2531 1196.0969,665.4656 1293.6531,732.5 " fill="none" style="stroke: #A80036; stroke-width: 3.125;"/><polygon fill="#A80036" points="1328.0688,756.15,1319.6953,735.2288,1297.1629,734.9115,1305.5363,755.8327,1328.0688,756.15" style="stroke: #A80036; stroke-width: 3.125;"/><text fill="#000000" font-family="sans-serif" font-size="40.625" lengthAdjust="spacingAndGlyphs" textLength="175" x="1192.1875" y="651.7761">observes</text></g></svg>