<?xml version="1.0" encoding="UTF-8" standalone="yes"?><svg xmlns="http://www.w3.org/2000/svg" xmlns:xlink="http://www.w3.org/1999/xlink" height="1665.625px" style="width:2275px;height:1665px;" version="1.1" viewBox="0 0 2275 1665" width="2275px"><defs><filter height="300%" id="f1" width="300%" x="-1" y="-1"><feGaussianBlur result="blurOut" stdDeviation="6.25"/><feColorMatrix in="blurOut" result="blurOut2" type="matrix" values="0 0 0 0 0 0 0 0 0 0 0 0 0 0 0 0 0 0 .4 0"/><feOffset dx="12.5" dy="12.5" in="blurOut2" result="blurOut3"/><feBlend in="SourceGraphic" in2="blurOut3" mode="normal"/></filter></defs><g><rect fill="#FEFECE" filter="url(#f1)" height="150" style="stroke: #A80036; stroke-width: 4.6875;" width="496.875" x="678.125" y="365.625"/><ellipse cx="725" cy="415.625" fill="#B4A7E5" rx="34.375" ry="34.375" style="stroke: #A80036; stroke-width: 3.125;"/><path d="M712.2742,402.3911 L712.2742,395.6467 L735.3348,395.6467 L735.3348,402.3911 L727.6306,402.3911 L727.6306,427.6306 L735.3348,427.6306 L735.3348,434.375 L712.2742,434.375 L712.2742,427.6306 L719.9783,427.6306 L719.9783,402.3911 Z "/><text fill="#000000" font-family="sans-serif" font-size="37.5" font-style="italic" lengthAdjust="spacingAndGlyphs" textLength="396.875" x="768.75" y="429.7974">MediaServerController</text><line style="stroke: #A80036; stroke-width: 4.6875;" x1="681.25" x2="1171.875" y1="465.625" y2="465.625"/><line style="stroke: #A80036; stroke-width: 4.6875;" x1="681.25" x2="1171.875" y1="490.625" y2="490.625"/><rect fill="#FEFECE" filter="url(#f1)" height="150" style="stroke: #A80036; stroke-width: 4.6875;" width="421.875" x="159.375" y="756.25"/><ellipse cx="206.25" cy="806.25" fill="#ADD1B2" rx="34.375" ry="34.375" style="stroke: #A80036; stroke-width: 3.125;"/><path d="M215.5411,823.8846 Q213.7253,824.8184 211.7279,825.2853 Q209.7305,825.7523 207.5256,825.7523 Q199.6918,825.7523 195.5673,820.5902 Q191.4429,815.4282 191.4429,805.6747 Q191.4429,795.8954 195.5673,790.7333 Q199.6918,785.5713 207.5256,785.5713 Q209.7305,785.5713 211.7538,786.0382 Q213.7772,786.5051 215.5411,787.439 L215.5411,795.9473 Q213.5696,794.1315 211.7149,793.2884 Q209.8602,792.4454 207.8888,792.4454 Q203.6865,792.4454 201.5465,795.7787 Q199.4064,799.1119 199.4064,805.6747 Q199.4064,812.2116 201.5465,815.5449 Q203.6865,818.8782 207.8888,818.8782 Q209.8602,818.8782 211.7149,818.0351 Q213.5696,817.1921 215.5411,815.3763 Z "/><text fill="#000000" font-family="sans-serif" font-size="37.5" lengthAdjust="spacingAndGlyphs" textLength="321.875" x="250" y="820.4224">MMSCallController</text><line style="stroke: #A80036; stroke-width: 4.6875;" x1="162.5" x2="578.125" y1="856.25" y2="856.25"/><line style="stroke: #A80036; stroke-width: 4.6875;" x1="162.5" x2="578.125" y1="881.25" y2="881.25"/><rect fill="#FEFECE" filter="url(#f1)" height="150" style="stroke: #A80036; stroke-width: 4.6875;" width="559.375" x="1271.875" y="756.25"/><ellipse cx="1318.75" cy="806.25" fill="#ADD1B2" rx="34.375" ry="34.375" style="stroke: #A80036; stroke-width: 3.125;"/><path d="M1328.0411,823.8846 Q1326.2253,824.8184 1324.2279,825.2853 Q1322.2305,825.7523 1320.0256,825.7523 Q1312.1918,825.7523 1308.0673,820.5902 Q1303.9429,815.4282 1303.9429,805.6747 Q1303.9429,795.8954 1308.0673,790.7333 Q1312.1918,785.5713 1320.0256,785.5713 Q1322.2305,785.5713 1324.2538,786.0382 Q1326.2772,786.5051 1328.0411,787.439 L1328.0411,795.9473 Q1326.0696,794.1315 1324.2149,793.2884 Q1322.3602,792.4454 1320.3888,792.4454 Q1316.1865,792.4454 1314.0465,795.7787 Q1311.9064,799.1119 1311.9064,805.6747 Q1311.9064,812.2116 1314.0465,815.5449 Q1316.1865,818.8782 1320.3888,818.8782 Q1322.3602,818.8782 1324.2149,818.0351 Q1326.0696,817.1921 1328.0411,815.3763 Z "/><text fill="#000000" font-family="sans-serif" font-size="37.5" lengthAdjust="spacingAndGlyphs" textLength="459.375" x="1362.5" y="820.4224">MMSConferenceController</text><line style="stroke: #A80036; stroke-width: 4.6875;" x1="1275" x2="1828.125" y1="856.25" y2="856.25"/><line style="stroke: #A80036; stroke-width: 4.6875;" x1="1275" x2="1828.125" y1="881.25" y2="881.25"/><rect fill="#FEFECE" filter="url(#f1)" height="150" style="stroke: #A80036; stroke-width: 4.6875;" width="471.875" x="690.625" y="756.25"/><ellipse cx="737.5" cy="806.25" fill="#ADD1B2" rx="34.375" ry="34.375" style="stroke: #A80036; stroke-width: 3.125;"/><path d="M746.7911,823.8846 Q744.9753,824.8184 742.9779,825.2853 Q740.9805,825.7523 738.7756,825.7523 Q730.9418,825.7523 726.8173,820.5902 Q722.6929,815.4282 722.6929,805.6747 Q722.6929,795.8954 726.8173,790.7333 Q730.9418,785.5713 738.7756,785.5713 Q740.9805,785.5713 743.0038,786.0382 Q745.0272,786.5051 746.7911,787.439 L746.7911,795.9473 Q744.8196,794.1315 742.9649,793.2884 Q741.1102,792.4454 739.1388,792.4454 Q734.9365,792.4454 732.7965,795.7787 Q730.6564,799.1119 730.6564,805.6747 Q730.6564,812.2116 732.7965,815.5449 Q734.9365,818.8782 739.1388,818.8782 Q741.1102,818.8782 742.9649,818.0351 Q744.8196,817.1921 746.7911,815.3763 Z "/><text fill="#000000" font-family="sans-serif" font-size="37.5" lengthAdjust="spacingAndGlyphs" textLength="371.875" x="781.25" y="820.4224">MMSBridgeController</text><line style="stroke: #A80036; stroke-width: 4.6875;" x1="693.75" x2="1159.375" y1="856.25" y2="856.25"/><line style="stroke: #A80036; stroke-width: 4.6875;" x1="693.75" x2="1159.375" y1="881.25" y2="881.25"/><rect fill="#FEFECE" filter="url(#f1)" height="150" style="stroke: #A80036; stroke-width: 4.6875;" width="493.75" x="679.6875" y="1146.875"/><ellipse cx="726.5625" cy="1196.875" fill="#ADD1B2" rx="34.375" ry="34.375" style="stroke: #A80036; stroke-width: 3.125;"/><path d="M735.8536,1214.5096 Q734.0378,1215.4434 732.0404,1215.9103 Q730.043,1216.3773 727.8381,1216.3773 Q720.0043,1216.3773 715.8798,1211.2152 Q711.7554,1206.0532 711.7554,1196.2997 Q711.7554,1186.5204 715.8798,1181.3583 Q720.0043,1176.1963 727.8381,1176.1963 Q730.043,1176.1963 732.0663,1176.6632 Q734.0897,1177.1301 735.8536,1178.064 L735.8536,1186.5723 Q733.8821,1184.7565 732.0274,1183.9134 Q730.1727,1183.0704 728.2013,1183.0704 Q723.999,1183.0704 721.859,1186.4037 Q719.7189,1189.7369 719.7189,1196.2997 Q719.7189,1202.8366 721.859,1206.1699 Q723.999,1209.5032 728.2013,1209.5032 Q730.1727,1209.5032 732.0274,1208.6601 Q733.8821,1207.8171 735.8536,1206.0013 Z "/><text fill="#000000" font-family="sans-serif" font-size="37.5" lengthAdjust="spacingAndGlyphs" textLength="393.75" x="770.3125" y="1211.0474">MediaResourceBroker</text><line style="stroke: #A80036; stroke-width: 4.6875;" x1="682.8125" x2="1170.3125" y1="1246.875" y2="1246.875"/><line style="stroke: #A80036; stroke-width: 4.6875;" x1="682.8125" x2="1170.3125" y1="1271.875" y2="1271.875"/><rect fill="#FEFECE" filter="url(#f1)" height="150" style="stroke: #A80036; stroke-width: 4.6875;" width="362.5" x="745.3125" y="1487.5"/><ellipse cx="792.1875" cy="1537.5" fill="#ADD1B2" rx="34.375" ry="34.375" style="stroke: #A80036; stroke-width: 3.125;"/><path d="M801.4786,1555.1346 Q799.6628,1556.0684 797.6654,1556.5353 Q795.668,1557.0023 793.4631,1557.0023 Q785.6293,1557.0023 781.5048,1551.8402 Q777.3804,1546.6782 777.3804,1536.9247 Q777.3804,1527.1454 781.5048,1521.9833 Q785.6293,1516.8213 793.4631,1516.8213 Q795.668,1516.8213 797.6913,1517.2882 Q799.7147,1517.7551 801.4786,1518.689 L801.4786,1527.1973 Q799.5071,1525.3815 797.6524,1524.5384 Q795.7977,1523.6954 793.8263,1523.6954 Q789.624,1523.6954 787.484,1527.0287 Q785.3439,1530.3619 785.3439,1536.9247 Q785.3439,1543.4616 787.484,1546.7949 Q789.624,1550.1282 793.8263,1550.1282 Q795.7977,1550.1282 797.6524,1549.2851 Q799.5071,1548.4421 801.4786,1546.6263 Z "/><text fill="#000000" font-family="sans-serif" font-size="37.5" lengthAdjust="spacingAndGlyphs" textLength="262.5" x="835.9375" y="1551.6724">MediaGateway</text><line style="stroke: #A80036; stroke-width: 4.6875;" x1="748.4375" x2="1104.6875" y1="1587.5" y2="1587.5"/><line style="stroke: #A80036; stroke-width: 4.6875;" x1="748.4375" x2="1104.6875" y1="1612.5" y2="1612.5"/><rect fill="#FEFECE" filter="url(#f1)" height="150" style="stroke: #A80036; stroke-width: 4.6875;" width="321.875" x="81.25" y="25"/><ellipse cx="128.125" cy="75" fill="#ADD1B2" rx="34.375" ry="34.375" style="stroke: #A80036; stroke-width: 3.125;"/><path d="M137.4161,92.6346 Q135.6003,93.5684 133.6029,94.0353 Q131.6055,94.5023 129.4006,94.5023 Q121.5668,94.5023 117.4423,89.3402 Q113.3179,84.1782 113.3179,74.4247 Q113.3179,64.6454 117.4423,59.4833 Q121.5668,54.3213 129.4006,54.3213 Q131.6055,54.3213 133.6288,54.7882 Q135.6522,55.2551 137.4161,56.189 L137.4161,64.6973 Q135.4446,62.8815 133.5899,62.0384 Q131.7352,61.1954 129.7638,61.1954 Q125.5615,61.1954 123.4215,64.5287 Q121.2814,67.8619 121.2814,74.4247 Q121.2814,80.9616 123.4215,84.2949 Q125.5615,87.6282 129.7638,87.6282 Q131.7352,87.6282 133.5899,86.7851 Q135.4446,85.9421 137.4161,84.1263 Z "/><text fill="#000000" font-family="sans-serif" font-size="37.5" lengthAdjust="spacingAndGlyphs" textLength="221.875" x="171.875" y="89.1724">CallManager</text><line style="stroke: #A80036; stroke-width: 4.6875;" x1="84.375" x2="400" y1="125" y2="125"/><line style="stroke: #A80036; stroke-width: 4.6875;" x1="84.375" x2="400" y1="150" y2="150"/><rect fill="#FEFECE" filter="url(#f1)" height="150" style="stroke: #A80036; stroke-width: 4.6875;" width="421.875" x="1493.75" y="25"/><ellipse cx="1540.625" cy="75" fill="#ADD1B2" rx="34.375" ry="34.375" style="stroke: #A80036; stroke-width: 3.125;"/><path d="M1549.9161,92.6346 Q1548.1003,93.5684 1546.1029,94.0353 Q1544.1055,94.5023 1541.9006,94.5023 Q1534.0668,94.5023 1529.9423,89.3402 Q1525.8179,84.1782 1525.8179,74.4247 Q1525.8179,64.6454 1529.9423,59.4833 Q1534.0668,54.3213 1541.9006,54.3213 Q1544.1055,54.3213 1546.1288,54.7882 Q1548.1522,55.2551 1549.9161,56.189 L1549.9161,64.6973 Q1547.9446,62.8815 1546.0899,62.0384 Q1544.2352,61.1954 1542.2638,61.1954 Q1538.0615,61.1954 1535.9215,64.5287 Q1533.7814,67.8619 1533.7814,74.4247 Q1533.7814,80.9616 1535.9215,84.2949 Q1538.0615,87.6282 1542.2638,87.6282 Q1544.2352,87.6282 1546.0899,86.7851 Q1547.9446,85.9421 1549.9161,84.1263 Z "/><text fill="#000000" font-family="sans-serif" font-size="37.5" lengthAdjust="spacingAndGlyphs" textLength="321.875" x="1584.375" y="89.1724">ConferenceCenter</text><line style="stroke: #A80036; stroke-width: 4.6875;" x1="1496.875" x2="1912.5" y1="125" y2="125"/><line style="stroke: #A80036; stroke-width: 4.6875;" x1="1496.875" x2="1912.5" y1="150" y2="150"/><rect fill="#FEFECE" filter="url(#f1)" height="150" style="stroke: #A80036; stroke-width: 4.6875;" width="165.625" x="18.75" y="1146.875"/><ellipse cx="65.625" cy="1196.875" fill="#ADD1B2" rx="34.375" ry="34.375" style="stroke: #A80036; stroke-width: 3.125;"/><path d="M74.9161,1214.5096 Q73.1003,1215.4434 71.1029,1215.9103 Q69.1055,1216.3773 66.9006,1216.3773 Q59.0668,1216.3773 54.9423,1211.2152 Q50.8179,1206.0532 50.8179,1196.2997 Q50.8179,1186.5204 54.9423,1181.3583 Q59.0668,1176.1963 66.9006,1176.1963 Q69.1055,1176.1963 71.1288,1176.6632 Q73.1522,1177.1301 74.9161,1178.064 L74.9161,1186.5723 Q72.9446,1184.7565 71.0899,1183.9134 Q69.2352,1183.0704 67.2638,1183.0704 Q63.0615,1183.0704 60.9215,1186.4037 Q58.7814,1189.7369 58.7814,1196.2997 Q58.7814,1202.8366 60.9215,1206.1699 Q63.0615,1209.5032 67.2638,1209.5032 Q69.2352,1209.5032 71.0899,1208.6601 Q72.9446,1207.8171 74.9161,1206.0013 Z "/><text fill="#000000" font-family="sans-serif" font-size="37.5" lengthAdjust="spacingAndGlyphs" textLength="65.625" x="109.375" y="1211.0474">Call</text><line style="stroke: #A80036; stroke-width: 4.6875;" x1="21.875" x2="181.25" y1="1246.875" y2="1246.875"/><line style="stroke: #A80036; stroke-width: 4.6875;" x1="21.875" x2="181.25" y1="1271.875" y2="1271.875"/><rect fill="#FEFECE" filter="url(#f1)" height="150" style="stroke: #A80036; stroke-width: 4.6875;" width="303.125" x="1671.875" y="1146.875"/><ellipse cx="1718.75" cy="1196.875" fill="#ADD1B2" rx="34.375" ry="34.375" style="stroke: #A80036; stroke-width: 3.125;"/><path d="M1728.0411,1214.5096 Q1726.2253,1215.4434 1724.2279,1215.9103 Q1722.2305,1216.3773 1720.0256,1216.3773 Q1712.1918,1216.3773 1708.0673,1211.2152 Q1703.9429,1206.0532 1703.9429,1196.2997 Q1703.9429,1186.5204 1708.0673,1181.3583 Q1712.1918,1176.1963 1720.0256,1176.1963 Q1722.2305,1176.1963 1724.2538,1176.6632 Q1726.2772,1177.1301 1728.0411,1178.064 L1728.0411,1186.5723 Q1726.0696,1184.7565 1724.2149,1183.9134 Q1722.3602,1183.0704 1720.3888,1183.0704 Q1716.1865,1183.0704 1714.0465,1186.4037 Q1711.9064,1189.7369 1711.9064,1196.2997 Q1711.9064,1202.8366 1714.0465,1206.1699 Q1716.1865,1209.5032 1720.3888,1209.5032 Q1722.3602,1209.5032 1724.2149,1208.6601 Q1726.0696,1207.8171 1728.0411,1206.0013 Z "/><text fill="#000000" font-family="sans-serif" font-size="37.5" lengthAdjust="spacingAndGlyphs" textLength="203.125" x="1762.5" y="1211.0474">Conference</text><line style="stroke: #A80036; stroke-width: 4.6875;" x1="1675" x2="1971.875" y1="1246.875" y2="1246.875"/><line style="stroke: #A80036; stroke-width: 4.6875;" x1="1675" x2="1971.875" y1="1271.875" y2="1271.875"/><rect fill="#FEFECE" filter="url(#f1)" height="150" style="stroke: #A80036; stroke-width: 4.6875;" width="328.125" x="762.5" y="25"/><ellipse cx="809.375" cy="75" fill="#ADD1B2" rx="34.375" ry="34.375" style="stroke: #A80036; stroke-width: 3.125;"/><path d="M818.6661,92.6346 Q816.8503,93.5684 814.8529,94.0353 Q812.8555,94.5023 810.6506,94.5023 Q802.8168,94.5023 798.6923,89.3402 Q794.5679,84.1782 794.5679,74.4247 Q794.5679,64.6454 798.6923,59.4833 Q802.8168,54.3213 810.6506,54.3213 Q812.8555,54.3213 814.8788,54.7882 Q816.9022,55.2551 818.6661,56.189 L818.6661,64.6973 Q816.6946,62.8815 814.8399,62.0384 Q812.9852,61.1954 811.0138,61.1954 Q806.8115,61.1954 804.6715,64.5287 Q802.5314,67.8619 802.5314,74.4247 Q802.5314,80.9616 804.6715,84.2949 Q806.8115,87.6282 811.0138,87.6282 Q812.9852,87.6282 814.8399,86.7851 Q816.6946,85.9421 818.6661,84.1263 Z "/><text fill="#000000" font-family="sans-serif" font-size="37.5" lengthAdjust="spacingAndGlyphs" textLength="228.125" x="853.125" y="89.1724">DaoManager</text><line style="stroke: #A80036; stroke-width: 4.6875;" x1="765.625" x2="1087.5" y1="125" y2="125"/><line style="stroke: #A80036; stroke-width: 4.6875;" x1="765.625" x2="1087.5" y1="150" y2="150"/><path d="M769.4469,552.3188 C675.0188,617.5688 557.4719,698.7937 474.4688,756.15 " fill="none" style="stroke: #A80036; stroke-width: 3.125;"/><polygon fill="none" points="758.0813,533.5813,821.9375,516.0469,782.9531,569.575,758.0813,533.5813" style="stroke: #A80036; stroke-width: 3.125;"/><path d="M1098.6531,549.5844 C1205.4875,615.2875 1339.9625,697.9906 1434.5313,756.15 " fill="none" style="stroke: #A80036; stroke-width: 3.125;"/><polygon fill="none" points="1085.9,567.4219,1044.1188,516.0469,1108.8188,530.1562,1085.9,567.4219" style="stroke: #A80036; stroke-width: 3.125;"/><path d="M926.5625,578.6625 C926.5625,638.4156 926.5625,706.3 926.5625,756.15 " fill="none" style="stroke: #A80036; stroke-width: 3.125;"/><polygon fill="none" points="904.6875,578.5469,926.5625,516.0469,948.4375,578.5469,904.6875,578.5469" style="stroke: #A80036; stroke-width: 3.125;"/><path d="M509.2094,930.3531 C606.3281,997.4656 733.9719,1085.6688 822.4063,1146.775 " fill="none" style="stroke: #A80036; stroke-width: 3.125;"/><polygon fill="#FFFFFF" points="474.9375,906.6719,483.2567,927.6147,505.7882,927.9905,497.4691,907.0476,474.9375,906.6719" style="stroke: #A80036; stroke-width: 3.125;"/><text fill="#000000" font-family="sans-serif" font-size="40.625" lengthAdjust="spacingAndGlyphs" textLength="175" x="685.9375" y="1042.4011">observes</text><path d="M1398.3625,928.5937 C1288.8938,995.9156 1143.8281,1085.1313 1043.5938,1146.775 " fill="none" style="stroke: #A80036; stroke-width: 3.125;"/><polygon fill="#FFFFFF" points="1434.0063,906.6719,1411.4866,905.8491,1402.0657,926.32,1424.5853,927.1428,1434.0063,906.6719" style="stroke: #A80036; stroke-width: 3.125;"/><text fill="#000000" font-family="sans-serif" font-size="40.625" lengthAdjust="spacingAndGlyphs" textLength="175" x="1279.6875" y="1042.4011">observes</text><path d="M926.5625,947.5438 C926.5625,1011.9781 926.5625,1090.7594 926.5625,1146.775 " fill="none" style="stroke: #A80036; stroke-width: 3.125;"/><polygon fill="#FFFFFF" points="926.5625,906.6719,914.0625,925.4219,926.5625,944.1719,939.0625,925.4219,926.5625,906.6719" style="stroke: #A80036; stroke-width: 3.125;"/><text fill="#000000" font-family="sans-serif" font-size="40.625" lengthAdjust="spacingAndGlyphs" textLength="175" x="929.6875" y="1042.4011">observes</text><path d="M926.5625,1338.4447 C926.5625,1387.5647 926.5625,1443.6109 926.5625,1486.9622 " fill="none" style="stroke: #A80036; stroke-width: 3.125;"/><polygon fill="#A80036" points="926.5625,1297.5531,914.0625,1316.3031,926.5625,1335.0531,939.0625,1316.3031,926.5625,1297.5531" style="stroke: #A80036; stroke-width: 3.125;"/><path d="M389.8438,175.2688 C504.9781,231.5188 664.1063,309.2688 779.1719,365.4875 " fill="none" style="stroke: #A80036; stroke-width: 3.125;"/><path d="M1536.8031,175.2688 C1405.9,231.5188 1224.9719,309.2688 1094.1438,365.4875 " fill="none" style="stroke: #A80036; stroke-width: 3.125;"/><path d="M926.5625,175.6781 C926.5625,219.0594 926.5625,275.1094 926.5625,324.2156 " fill="none" style="stroke: #A80036; stroke-width: 3.125;"/><polygon fill="#FFFFFF" points="926.5625,365.0875,939.0625,346.3375,926.5625,327.5875,914.0625,346.3375,926.5625,365.0875" style="stroke: #A80036; stroke-width: 3.125;"/><path d="M221.8759,175.8188 C189.5416,295.6094 127.6703,542.5344 104.6875,756.25 C90.7856,885.5219 93.2197,1036.2938 96.8859,1129.65 " fill="none" style="stroke: #A80036; stroke-width: 3.125;"/><polygon fill="#A80036" points="97.5813,1146.3969,108.9053,1117.7782,96.9339,1130.7853,83.9268,1118.8139,97.5813,1146.3969" style="stroke: #A80036; stroke-width: 3.125;"/><text fill="#000000" font-family="sans-serif" font-size="40.625" lengthAdjust="spacingAndGlyphs" textLength="256.25" x="129.6875" y="651.7761">creates a call</text><path d="M1729.1469,175.6375 C1768.4844,295.175 1845.4719,541.7469 1885.9375,756.25 C1906.125,863.2656 1905.375,891.2406 1910.9375,1000 C1912.1438,1023.5813 1916.6187,1030.2063 1910.9375,1053.125 C1904.2625,1080.05 1892.3219,1107.4188 1879.3656,1131.9469 " fill="none" style="stroke: #A80036; stroke-width: 3.125;"/><polygon fill="#A80036" points="1871.2062,1146.825,1895.6898,1128.1751,1878.7193,1133.1248,1873.7695,1116.1542,1871.2062,1146.825" style="stroke: #A80036; stroke-width: 3.125;"/><text fill="#000000" font-family="sans-serif" font-size="40.625" lengthAdjust="spacingAndGlyphs" textLength="403.125" x="1870.3125" y="651.7761">creates a conference</text><path d="M319.7628,906.6719 C279.0344,964.925 221.1997,1047.6406 175.305,1113.2813 " fill="none" style="stroke: #A80036; stroke-width: 3.125;"/><polygon fill="#A80036" points="151.8856,1146.775,172.8744,1138.5722,173.3752,1116.0431,152.3864,1124.2459,151.8856,1146.775" style="stroke: #A80036; stroke-width: 3.125;"/><text fill="#000000" font-family="sans-serif" font-size="40.625" lengthAdjust="spacingAndGlyphs" textLength="175" x="257.8125" y="1042.4011">observes</text><path d="M1602.7,906.6719 C1643.9031,964.925 1702.4094,1047.6406 1748.8375,1113.2813 " fill="none" style="stroke: #A80036; stroke-width: 3.125;"/><polygon fill="#A80036" points="1772.5281,1146.775,1771.9052,1124.2489,1750.8723,1116.1601,1751.4952,1138.6862,1772.5281,1146.775" style="stroke: #A80036; stroke-width: 3.125;"/><text fill="#000000" font-family="sans-serif" font-size="40.625" lengthAdjust="spacingAndGlyphs" textLength="175" x="1707.8125" y="1042.4011">observes</text></g></svg>