<?xml version="1.0" encoding="utf-8"?>
<!-- Generator: Adobe Illustrator 16.0.0, SVG Export Plug-In . SVG Version: 6.00 Build 0)  -->
<!DOCTYPE svg PUBLIC "-//W3C//DTD SVG 1.1//EN" "http://www.w3.org/Graphics/SVG/1.1/DTD/svg11.dtd">
<svg version="1.1" id="Layer_1" xmlns="http://www.w3.org/2000/svg" xmlns:xlink="http://www.w3.org/1999/xlink" x="0px" y="0px"
	 width="175px" height="17px" viewBox="0 0 175 17" enable-background="new 0 0 175 17" xml:space="preserve">
<g>
	<path fill="#E63A29" d="M1.693,2.154c0-0.397,0.008-0.704,0.025-0.919s0.075-0.373,0.174-0.472c0.1-0.1,0.257-0.157,0.473-0.174
		c0.215-0.016,0.521-0.025,0.919-0.025h7.754c1.243,0,2.2,0.025,2.871,0.075s1.16,0.22,1.466,0.51s0.489,0.742,0.547,1.354
		c0.058,0.613,0.087,1.491,0.087,2.634c0,1.144-0.029,2.022-0.087,2.635c-0.058,0.613-0.24,1.065-0.547,1.354
		c-0.307,0.291-0.795,0.46-1.466,0.51s-1.62,0.074-2.846,0.074l4.647,4.648c0.215,0.215,0.377,0.381,0.485,0.496
		c0.107,0.117,0.162,0.232,0.162,0.349c0,0.083-0.062,0.203-0.187,0.36c-0.125,0.158-0.273,0.319-0.447,0.484
		c-0.174,0.166-0.344,0.311-0.51,0.436c-0.166,0.124-0.282,0.186-0.348,0.186c-0.1,0-0.211-0.053-0.336-0.161
		c-0.124-0.107-0.286-0.261-0.484-0.46L7.708,9.709H4.079v5.568c0,0.298-0.009,0.525-0.025,0.684
		c-0.017,0.156-0.062,0.272-0.137,0.348c-0.075,0.074-0.191,0.12-0.348,0.137c-0.158,0.016-0.385,0.024-0.684,0.024
		c-0.298,0-0.526-0.009-0.683-0.024c-0.158-0.017-0.273-0.062-0.348-0.137c-0.075-0.075-0.12-0.191-0.137-0.348
		c-0.017-0.158-0.025-0.386-0.025-0.684V2.154z M11.038,7.324c0.646,0,1.143-0.013,1.491-0.038s0.601-0.107,0.758-0.249
		c0.158-0.141,0.252-0.356,0.286-0.646c0.033-0.29,0.05-0.708,0.05-1.255s-0.017-0.965-0.05-1.255
		c-0.034-0.29-0.128-0.505-0.286-0.646c-0.157-0.141-0.41-0.224-0.758-0.249s-0.845-0.037-1.491-0.037H4.079v4.375H11.038z"/>
	<path fill="#E63A29" d="M28.733,14.084c0.298,0,0.526,0.008,0.684,0.024c0.157,0.017,0.273,0.062,0.348,0.137
		c0.074,0.075,0.12,0.19,0.137,0.349c0.016,0.157,0.024,0.385,0.024,0.684c0,0.298-0.008,0.525-0.024,0.684
		c-0.017,0.156-0.062,0.272-0.137,0.348c-0.075,0.074-0.191,0.12-0.348,0.137c-0.158,0.016-0.385,0.024-0.684,0.024h-4.374
		c-1.061,0-1.951-0.013-2.672-0.037s-1.317-0.095-1.79-0.212c-0.472-0.115-0.837-0.302-1.094-0.559s-0.443-0.621-0.559-1.094
		c-0.116-0.473-0.187-1.068-0.211-1.789s-0.037-1.611-0.037-2.672s0.012-1.951,0.037-2.672c0.025-0.721,0.095-1.317,0.211-1.79
		c0.116-0.472,0.302-0.836,0.559-1.094c0.257-0.257,0.622-0.443,1.094-0.559c0.472-0.116,1.069-0.187,1.79-0.211
		s1.611-0.037,2.672-0.037c1.06,0,1.951,0.012,2.671,0.037c0.721,0.025,1.317,0.096,1.79,0.211c0.472,0.116,0.836,0.298,1.094,0.547
		c0.257,0.249,0.443,0.592,0.559,1.031c0.116,0.439,0.187,0.994,0.211,1.665c0.025,0.671,0.037,1.496,0.037,2.473
		c0,0.398-0.008,0.705-0.025,0.92c-0.017,0.216-0.074,0.373-0.174,0.473s-0.257,0.157-0.472,0.174s-0.522,0.025-0.919,0.025h-8.749
		c0,0.695,0.016,1.229,0.049,1.603c0.033,0.372,0.137,0.646,0.311,0.819c0.174,0.175,0.447,0.278,0.82,0.312
		c0.373,0.033,0.907,0.05,1.603,0.05H28.733z M28.336,8.914c0-0.696-0.017-1.23-0.05-1.603c-0.033-0.373-0.137-0.646-0.311-0.82
		c-0.174-0.174-0.448-0.277-0.82-0.311c-0.373-0.033-0.907-0.05-1.603-0.05h-2.386c-0.696,0-1.23,0.017-1.603,0.05
		c-0.373,0.033-0.646,0.137-0.82,0.311c-0.174,0.174-0.278,0.448-0.311,0.82c-0.033,0.373-0.049,0.907-0.049,1.603H28.336z"/>
	<path fill="#E63A29" d="M40.862,14.084c0.348,0,0.613-0.008,0.795-0.025c0.182-0.016,0.319-0.07,0.41-0.161
		c0.091-0.091,0.145-0.228,0.162-0.41c0.016-0.183,0.025-0.447,0.025-0.796c0-0.348-0.009-0.612-0.025-0.795
		c-0.017-0.182-0.071-0.318-0.162-0.41c-0.091-0.091-0.228-0.145-0.41-0.161s-0.447-0.024-0.795-0.024h-4.374
		c-0.944,0-1.669-0.021-2.175-0.062s-0.878-0.183-1.118-0.423c-0.241-0.239-0.381-0.612-0.423-1.118s-0.062-1.23-0.062-2.175
		c0-0.945,0.021-1.669,0.062-2.175s0.182-0.878,0.423-1.119c0.24-0.24,0.613-0.381,1.118-0.422c0.505-0.041,1.23-0.062,2.175-0.062
		h6.562c0.298,0,0.526,0.008,0.684,0.025c0.157,0.017,0.273,0.062,0.348,0.137c0.075,0.074,0.12,0.19,0.137,0.348
		c0.017,0.158,0.025,0.385,0.025,0.684s-0.008,0.526-0.025,0.684c-0.017,0.158-0.062,0.273-0.137,0.348
		c-0.075,0.075-0.19,0.121-0.348,0.137c-0.158,0.017-0.385,0.025-0.684,0.025h-6.562c-0.348,0-0.613,0.009-0.795,0.025
		c-0.183,0.017-0.319,0.071-0.41,0.162c-0.091,0.091-0.145,0.228-0.162,0.41c-0.017,0.183-0.024,0.447-0.024,0.795
		c0,0.348,0.008,0.613,0.024,0.795s0.07,0.319,0.162,0.41c0.091,0.091,0.228,0.146,0.41,0.162c0.182,0.017,0.447,0.025,0.795,0.025
		h4.374c0.945,0,1.669,0.021,2.175,0.062c0.505,0.042,0.878,0.182,1.119,0.422c0.24,0.24,0.381,0.613,0.422,1.119
		c0.041,0.506,0.062,1.23,0.062,2.174c0,0.945-0.021,1.67-0.062,2.176c-0.042,0.505-0.183,0.878-0.422,1.117
		c-0.24,0.241-0.613,0.382-1.119,0.424c-0.505,0.041-1.23,0.062-2.175,0.062h-6.959c-0.298,0-0.526-0.009-0.684-0.024
		c-0.157-0.017-0.273-0.062-0.348-0.137c-0.075-0.075-0.121-0.191-0.137-0.348c-0.017-0.158-0.025-0.386-0.025-0.684
		c0-0.299,0.008-0.526,0.025-0.684c0.016-0.158,0.062-0.273,0.137-0.349c0.075-0.074,0.19-0.12,0.348-0.137
		c0.158-0.017,0.385-0.024,0.684-0.024H40.862z"/>
	<path fill="#E63A29" d="M49.412,6.13h-2.386c-0.298,0-0.526-0.008-0.684-0.025c-0.158-0.016-0.273-0.062-0.348-0.137
		c-0.074-0.074-0.12-0.19-0.136-0.348c-0.017-0.157-0.025-0.385-0.025-0.684s0.008-0.526,0.025-0.684
		c0.016-0.157,0.062-0.273,0.136-0.348c0.075-0.075,0.19-0.12,0.348-0.137c0.157-0.017,0.385-0.025,0.684-0.025h2.386V1.756
		c0-0.298,0.008-0.526,0.025-0.684c0.017-0.157,0.062-0.273,0.137-0.348c0.075-0.074,0.19-0.12,0.348-0.137
		c0.157-0.016,0.385-0.025,0.684-0.025c0.298,0,0.525,0.009,0.683,0.025c0.157,0.017,0.273,0.062,0.348,0.137
		c0.075,0.075,0.12,0.191,0.137,0.348c0.016,0.158,0.025,0.385,0.025,0.684v1.988h2.386c0.298,0,0.526,0.008,0.684,0.025
		c0.157,0.017,0.273,0.062,0.348,0.137c0.074,0.074,0.12,0.19,0.137,0.348c0.016,0.158,0.025,0.385,0.025,0.684
		s-0.009,0.526-0.025,0.684c-0.017,0.158-0.062,0.273-0.137,0.348c-0.075,0.075-0.191,0.121-0.348,0.137
		C54.71,6.123,54.482,6.13,54.184,6.13h-2.386v9.147c0,0.298-0.009,0.525-0.025,0.684c-0.017,0.156-0.062,0.272-0.137,0.348
		c-0.075,0.074-0.191,0.12-0.348,0.137c-0.158,0.016-0.385,0.024-0.683,0.024c-0.298,0-0.526-0.009-0.684-0.024
		c-0.158-0.017-0.273-0.062-0.348-0.137c-0.075-0.075-0.12-0.191-0.137-0.348c-0.017-0.158-0.025-0.386-0.025-0.684V6.13z"/>
	<path fill="#E63A29" d="M66.909,14.084c0.298,0,0.526,0.008,0.684,0.024c0.157,0.017,0.273,0.062,0.348,0.137
		c0.074,0.075,0.12,0.19,0.137,0.349c0.016,0.157,0.025,0.385,0.025,0.684c0,0.298-0.009,0.525-0.025,0.684
		c-0.017,0.156-0.062,0.272-0.137,0.348c-0.075,0.074-0.191,0.12-0.348,0.137c-0.158,0.016-0.385,0.024-0.684,0.024h-3.579
		c-1.061,0-1.951-0.013-2.672-0.037s-1.317-0.095-1.79-0.212c-0.472-0.115-0.837-0.302-1.094-0.559s-0.443-0.621-0.559-1.094
		c-0.116-0.473-0.187-1.068-0.211-1.789s-0.037-1.611-0.037-2.672s0.012-1.951,0.037-2.672c0.025-0.721,0.095-1.317,0.211-1.79
		c0.116-0.472,0.302-0.836,0.559-1.094c0.257-0.257,0.622-0.443,1.094-0.559c0.472-0.116,1.069-0.187,1.79-0.211
		s1.611-0.037,2.672-0.037h3.579c0.298,0,0.526,0.008,0.684,0.025c0.157,0.017,0.273,0.062,0.348,0.137
		c0.074,0.074,0.12,0.19,0.137,0.348c0.016,0.158,0.025,0.385,0.025,0.684s-0.009,0.526-0.025,0.684
		c-0.017,0.158-0.062,0.273-0.137,0.348c-0.075,0.075-0.191,0.121-0.348,0.137c-0.158,0.017-0.385,0.025-0.684,0.025h-3.579
		c-0.994,0-1.761,0.021-2.299,0.062s-0.932,0.186-1.18,0.435s-0.394,0.643-0.435,1.181c-0.042,0.539-0.062,1.305-0.062,2.299
		s0.021,1.76,0.062,2.299c0.041,0.539,0.187,0.932,0.435,1.181s0.642,0.394,1.18,0.435s1.305,0.062,2.299,0.062H66.909z"/>
	<path fill="#E63A29" d="M76.453,3.745c1.06,0,1.951,0.012,2.671,0.037c0.721,0.025,1.317,0.096,1.79,0.211
		c0.472,0.116,0.836,0.302,1.094,0.559c0.257,0.257,0.443,0.622,0.559,1.094c0.116,0.472,0.187,1.068,0.211,1.79
		c0.025,0.721,0.037,1.611,0.037,2.672s-0.012,1.951-0.037,2.672s-0.096,1.316-0.211,1.789c-0.116,0.473-0.302,0.837-0.559,1.094
		c-0.257,0.257-0.622,0.443-1.094,0.559c-0.472,0.117-1.068,0.188-1.79,0.212c-0.721,0.024-1.611,0.037-2.671,0.037
		c-1.061,0-1.951-0.013-2.672-0.037s-1.317-0.095-1.79-0.212c-0.472-0.115-0.837-0.302-1.094-0.559s-0.443-0.621-0.559-1.094
		c-0.116-0.473-0.187-1.068-0.211-1.789s-0.037-1.611-0.037-2.672s0.012-1.951,0.037-2.672c0.025-0.721,0.095-1.317,0.211-1.79
		c0.116-0.472,0.302-0.836,0.559-1.094c0.257-0.257,0.622-0.443,1.094-0.559c0.472-0.116,1.069-0.187,1.79-0.211
		S75.393,3.745,76.453,3.745z M80.43,10.107c0-0.994-0.021-1.761-0.062-2.299c-0.042-0.538-0.187-0.932-0.435-1.181
		s-0.643-0.393-1.181-0.435c-0.539-0.042-1.305-0.062-2.299-0.062s-1.761,0.021-2.299,0.062s-0.932,0.186-1.18,0.435
		S72.58,7.27,72.539,7.808c-0.042,0.539-0.062,1.305-0.062,2.299s0.021,1.76,0.062,2.299c0.041,0.539,0.187,0.932,0.435,1.181
		s0.642,0.394,1.18,0.435s1.305,0.062,2.299,0.062s1.76-0.021,2.299-0.062c0.538-0.041,0.932-0.186,1.181-0.435
		s0.393-0.642,0.435-1.181C80.409,11.867,80.43,11.102,80.43,10.107z"/>
	<path fill="#E63A29" d="M84.903,5.335c0-0.397,0.008-0.704,0.025-0.919c0.016-0.215,0.074-0.373,0.174-0.472
		c0.099-0.1,0.257-0.157,0.472-0.174s0.522-0.025,0.919-0.025h11.135c0.928,0,1.706,0.008,2.336,0.025
		c0.629,0.017,1.151,0.079,1.565,0.186c0.414,0.108,0.733,0.273,0.957,0.497c0.224,0.224,0.39,0.543,0.497,0.957
		c0.107,0.415,0.17,0.94,0.187,1.578c0.017,0.638,0.024,1.413,0.024,2.325v5.965c0,0.298-0.008,0.525-0.024,0.684
		c-0.017,0.156-0.062,0.272-0.137,0.348c-0.075,0.074-0.19,0.12-0.349,0.137c-0.157,0.016-0.385,0.024-0.684,0.024
		c-0.297,0-0.525-0.009-0.683-0.024c-0.157-0.017-0.273-0.062-0.349-0.137c-0.074-0.075-0.12-0.191-0.137-0.348
		c-0.016-0.158-0.024-0.386-0.024-0.684V9.312c0-0.796-0.017-1.409-0.05-1.84c-0.033-0.431-0.148-0.746-0.348-0.944
		c-0.199-0.199-0.514-0.315-0.944-0.348s-1.044-0.05-1.839-0.05h-2.387v9.147c0,0.298-0.008,0.525-0.025,0.684
		c-0.016,0.156-0.062,0.272-0.136,0.348c-0.075,0.074-0.19,0.12-0.349,0.137c-0.157,0.016-0.385,0.024-0.684,0.024
		c-0.298,0-0.525-0.009-0.684-0.024c-0.157-0.017-0.273-0.062-0.348-0.137c-0.074-0.075-0.12-0.191-0.137-0.348
		c-0.016-0.158-0.024-0.386-0.024-0.684V6.13h-5.567v9.147c0,0.298-0.008,0.525-0.025,0.684c-0.017,0.156-0.062,0.272-0.137,0.348
		c-0.074,0.074-0.19,0.12-0.348,0.137c-0.158,0.016-0.385,0.024-0.684,0.024s-0.526-0.009-0.684-0.024
		c-0.158-0.017-0.273-0.062-0.348-0.137c-0.074-0.075-0.12-0.191-0.136-0.348c-0.017-0.158-0.025-0.386-0.025-0.684V5.335z"/>
	<path fill="#E63A29" d="M105.283,5.335c0-0.397,0.008-0.704,0.025-0.919c0.016-0.215,0.074-0.373,0.174-0.472
		c0.099-0.1,0.256-0.157,0.472-0.174s0.522-0.025,0.919-0.025h11.135c0.928,0,1.707,0.008,2.337,0.025s1.151,0.079,1.565,0.186
		c0.414,0.108,0.733,0.273,0.957,0.497c0.224,0.224,0.389,0.543,0.497,0.957c0.107,0.415,0.17,0.94,0.187,1.578
		c0.016,0.638,0.025,1.413,0.025,2.325v5.965c0,0.298-0.01,0.525-0.025,0.684c-0.017,0.156-0.062,0.272-0.137,0.348
		c-0.074,0.074-0.191,0.12-0.348,0.137c-0.158,0.016-0.386,0.024-0.684,0.024c-0.299,0-0.526-0.009-0.684-0.024
		c-0.158-0.017-0.273-0.062-0.348-0.137c-0.075-0.075-0.121-0.191-0.137-0.348c-0.018-0.158-0.025-0.386-0.025-0.684V9.312
		c0-0.796-0.017-1.409-0.05-1.84c-0.033-0.431-0.149-0.746-0.348-0.944c-0.198-0.199-0.514-0.315-0.944-0.348
		c-0.432-0.033-1.044-0.05-1.84-0.05h-2.386v9.147c0,0.298-0.009,0.525-0.024,0.684c-0.018,0.156-0.062,0.272-0.137,0.348
		c-0.074,0.074-0.191,0.12-0.348,0.137c-0.158,0.016-0.386,0.024-0.684,0.024c-0.299,0-0.527-0.009-0.684-0.024
		c-0.158-0.017-0.273-0.062-0.348-0.137c-0.075-0.075-0.121-0.191-0.137-0.348c-0.018-0.158-0.025-0.386-0.025-0.684V6.13h-5.567
		v9.147c0,0.298-0.009,0.525-0.024,0.684c-0.018,0.156-0.062,0.272-0.137,0.348c-0.074,0.074-0.191,0.12-0.348,0.137
		c-0.158,0.016-0.386,0.024-0.684,0.024c-0.299,0-0.527-0.009-0.684-0.024c-0.158-0.017-0.273-0.062-0.349-0.137
		c-0.074-0.075-0.12-0.191-0.136-0.348c-0.018-0.158-0.025-0.386-0.025-0.684V5.335z"/>
	<path fill="#6D6E70" d="M133.518,0.563c1.325,0,2.439,0.013,3.342,0.038c0.904,0.025,1.649,0.112,2.238,0.261
		c0.588,0.149,1.043,0.385,1.366,0.708s0.56,0.779,0.708,1.367c0.149,0.588,0.236,1.333,0.262,2.237
		c0.024,0.903,0.037,2.017,0.037,3.343c0,1.325-0.013,2.44-0.037,3.343c-0.025,0.903-0.112,1.648-0.262,2.236
		c-0.148,0.589-0.385,1.045-0.708,1.367c-0.323,0.323-0.778,0.56-1.366,0.709c-0.589,0.148-1.334,0.236-2.238,0.261
		c-0.902,0.024-2.017,0.037-3.342,0.037c-1.326,0-2.44-0.013-3.344-0.037c-0.902-0.024-1.648-0.112-2.236-0.261
		c-0.588-0.149-1.044-0.386-1.367-0.709c-0.322-0.322-0.559-0.778-0.708-1.367c-0.149-0.588-0.236-1.333-0.261-2.236
		c-0.025-0.902-0.037-2.018-0.037-3.343c0-1.326,0.012-2.439,0.037-3.343c0.024-0.903,0.111-1.649,0.261-2.237
		c0.149-0.588,0.386-1.044,0.708-1.367c0.323-0.323,0.779-0.559,1.367-0.708c0.588-0.149,1.334-0.236,2.236-0.261
		C131.077,0.576,132.191,0.563,133.518,0.563z M139.084,8.517c0-0.928-0.008-1.707-0.024-2.336
		c-0.017-0.629-0.079-1.151-0.187-1.566c-0.107-0.414-0.273-0.733-0.497-0.957s-0.542-0.389-0.956-0.497
		c-0.415-0.108-0.938-0.17-1.566-0.187c-0.63-0.017-1.408-0.025-2.336-0.025c-0.929,0-1.707,0.008-2.336,0.025
		c-0.631,0.017-1.152,0.079-1.566,0.187s-0.733,0.273-0.957,0.497s-0.39,0.543-0.497,0.957c-0.108,0.415-0.17,0.937-0.187,1.566
		c-0.017,0.63-0.024,1.409-0.024,2.336c0,0.929,0.008,1.706,0.024,2.336s0.078,1.151,0.187,1.565
		c0.107,0.415,0.273,0.734,0.497,0.957c0.224,0.225,0.543,0.391,0.957,0.498s0.936,0.17,1.566,0.186
		c0.629,0.018,1.407,0.025,2.336,0.025c0.928,0,1.706-0.008,2.336-0.025c0.629-0.016,1.151-0.078,1.566-0.186
		c0.414-0.107,0.732-0.273,0.956-0.498c0.224-0.223,0.39-0.542,0.497-0.957c0.107-0.414,0.17-0.936,0.187-1.565
		S139.084,9.445,139.084,8.517z"/>
	<path fill="#6D6E70" d="M143.657,2.154c0-0.397,0.009-0.704,0.024-0.919c0.018-0.215,0.075-0.373,0.174-0.472
		c0.1-0.1,0.258-0.157,0.473-0.174c0.215-0.016,0.521-0.025,0.92-0.025h5.567c1.192,0,2.195,0.013,3.007,0.038
		c0.812,0.025,1.482,0.104,2.014,0.236c0.529,0.133,0.939,0.344,1.23,0.634c0.289,0.29,0.5,0.7,0.633,1.23s0.212,1.206,0.236,2.025
		c0.025,0.82,0.037,1.819,0.037,2.995v7.556c0,0.298-0.008,0.525-0.024,0.684c-0.017,0.156-0.062,0.272-0.137,0.348
		c-0.074,0.074-0.19,0.12-0.348,0.137c-0.157,0.016-0.386,0.024-0.684,0.024s-0.526-0.009-0.684-0.024
		c-0.157-0.017-0.273-0.062-0.349-0.137c-0.074-0.075-0.119-0.191-0.136-0.348c-0.017-0.158-0.024-0.386-0.024-0.684V7.721
		c0-1.193-0.025-2.113-0.075-2.759s-0.224-1.119-0.522-1.417c-0.298-0.298-0.77-0.473-1.416-0.522
		c-0.646-0.05-1.566-0.075-2.759-0.075h-4.772v12.328c0,0.298-0.008,0.525-0.024,0.684c-0.017,0.156-0.062,0.272-0.137,0.348
		c-0.075,0.074-0.19,0.12-0.349,0.137c-0.157,0.016-0.385,0.024-0.684,0.024c-0.297,0-0.525-0.009-0.683-0.024
		c-0.157-0.017-0.273-0.062-0.349-0.137c-0.074-0.075-0.119-0.191-0.137-0.348c-0.016-0.158-0.024-0.386-0.024-0.684V2.154z"/>
	<path fill="#6D6E70" d="M172.389,14.084c0.298,0,0.525,0.008,0.684,0.024c0.156,0.017,0.273,0.062,0.348,0.137
		c0.074,0.075,0.119,0.19,0.137,0.349c0.016,0.157,0.024,0.385,0.024,0.684c0,0.298-0.009,0.525-0.024,0.684
		c-0.018,0.156-0.062,0.272-0.137,0.348c-0.074,0.074-0.191,0.12-0.348,0.137c-0.158,0.016-0.386,0.024-0.684,0.024h-4.375
		c-1.326,0-2.439-0.013-3.343-0.037s-1.649-0.112-2.237-0.261c-0.588-0.149-1.043-0.386-1.366-0.709
		c-0.323-0.322-0.56-0.778-0.708-1.367c-0.15-0.588-0.236-1.333-0.262-2.236c-0.025-0.902-0.037-2.018-0.037-3.343
		c0-1.326,0.012-2.439,0.037-3.343s0.111-1.649,0.262-2.237c0.148-0.588,0.385-1.044,0.708-1.367s0.778-0.559,1.366-0.708
		c0.588-0.149,1.334-0.236,2.237-0.261s2.017-0.038,3.343-0.038h4.375c0.298,0,0.525,0.009,0.684,0.025
		c0.156,0.017,0.273,0.062,0.348,0.137c0.074,0.075,0.119,0.191,0.137,0.348c0.016,0.158,0.024,0.385,0.024,0.684
		s-0.009,0.526-0.024,0.684c-0.018,0.157-0.062,0.273-0.137,0.348s-0.191,0.121-0.348,0.137c-0.158,0.017-0.386,0.025-0.684,0.025
		h-5.568c-1.094,0-1.934,0.025-2.521,0.075c-0.589,0.049-1.02,0.211-1.293,0.484s-0.436,0.705-0.484,1.292
		c-0.051,0.588-0.074,1.429-0.074,2.523h7.555c0.299,0,0.525,0.008,0.684,0.024c0.157,0.017,0.273,0.062,0.348,0.137
		c0.074,0.075,0.12,0.191,0.137,0.348c0.017,0.158,0.025,0.385,0.025,0.684s-0.009,0.526-0.025,0.684s-0.062,0.272-0.137,0.348
		s-0.19,0.12-0.348,0.137c-0.158,0.017-0.385,0.024-0.684,0.024h-7.555c0,1.094,0.023,1.936,0.074,2.523
		c0.049,0.588,0.211,1.019,0.484,1.292s0.704,0.435,1.293,0.485c0.588,0.049,1.428,0.074,2.521,0.074H172.389z"/>
</g>
</svg>
