<?xml version="1.0" encoding="UTF-8"?>
<svg enable-background="new 0 0 610.5 89.5" version="1.1" viewBox="0 0 610.5 89.5" xml:space="preserve" xmlns="http://www.w3.org/2000/svg">
<style type="text/css">
	.st0{fill:#E63A29;}
</style>
	<path class="st0" d="m4.2 12.4c0-2 0-3.5 0.1-4.5 0.1-1.1 0.4-1.9 0.8-2.4 0.5-0.5 1.3-0.7 2.4-0.8 1-0.1 2.5-0.1 4.5-0.1h38.1c6.1 0 10.8 0.1 14.1 0.4 3.4 0.2 5.8 1 7.3 2.4s2.4 3.7 2.7 6.7 0.4 7.3 0.4 13c0 5.6-0.1 9.9-0.4 13-0.3 3-1.2 5.2-2.7 6.7-1.5 1.4-3.9 2.3-7.2 2.5s-8 0.4-14 0.4l22.9 22.9 2.4 2.4c0.5 0.6 0.8 1.1 0.8 1.7 0 0.4-0.3 1-0.9 1.8s-1.3 1.6-2.2 2.4-1.7 1.5-2.5 2.1-1.4 0.9-1.7 0.9c-0.5 0-1-0.3-1.7-0.8-0.6-0.5-1.4-1.3-2.4-2.3l-31.3-31.2h-17.8v27.4c0 1.5 0 2.6-0.1 3.4s-0.3 1.3-0.7 1.7-0.9 0.6-1.7 0.7-1.9 0.1-3.4 0.1-2.6 0-3.4-0.1c-0.7-0.2-1.3-0.4-1.6-0.8-0.4-0.4-0.6-0.9-0.7-1.7s-0.1-1.9-0.1-3.4v-64.5zm45.9 25.4c3.2 0 5.6-0.1 7.3-0.2s3-0.5 3.7-1.2c0.8-0.7 1.2-1.8 1.4-3.2s0.2-3.5 0.2-6.2-0.1-4.7-0.2-6.2c-0.2-1.4-0.6-2.5-1.4-3.2s-2-1.1-3.7-1.2-4.2-0.2-7.3-0.2h-34.2v21.5h34.2z"/>
	<path class="st0" d="m137.2 71.1c1.5 0 2.6 0 3.4 0.1s1.3 0.3 1.7 0.7 0.6 0.9 0.7 1.7 0.1 1.9 0.1 3.4 0 2.6-0.1 3.4-0.3 1.3-0.7 1.7-0.9 0.6-1.7 0.7-1.9 0.1-3.4 0.1h-21.5c-5.2 0-9.6-0.1-13.1-0.2s-6.5-0.5-8.8-1c-2.3-0.6-4.1-1.5-5.4-2.7-1.3-1.3-2.2-3.1-2.8-5.4s-0.9-5.3-1-8.8-0.2-7.9-0.2-13.1 0.1-9.6 0.2-13.1 0.5-6.5 1-8.8c0.6-2.3 1.5-4.1 2.8-5.4s3.1-2.2 5.4-2.8 5.3-0.9 8.8-1 7.9-0.2 13.1-0.2 9.6 0.1 13.1 0.2 6.5 0.5 8.8 1c2.3 0.6 4.1 1.5 5.4 2.7s2.2 2.9 2.8 5.1 0.9 4.9 1 8.2 0.2 7.4 0.2 12.2c0 2 0 3.5-0.1 4.5-0.1 1.1-0.4 1.8-0.9 2.3s-1.3 0.8-2.3 0.9c-1.1 0.1-2.6 0.1-4.5 0.1h-43c0 3.4 0.1 6.1 0.2 7.9 0.2 1.8 0.7 3.2 1.5 4 0.9 0.9 2.2 1.4 4 1.5 1.8 0.2 4.5 0.2 7.9 0.2h27.4zm-2-25.5c0-3.4-0.1-6-0.2-7.9-0.2-1.8-0.7-3.2-1.5-4-0.9-0.9-2.2-1.4-4-1.5-1.8-0.2-4.5-0.2-7.9-0.2h-11.7c-3.4 0-6.1 0.1-7.9 0.2-1.8 0.2-3.2 0.7-4 1.5-0.9 0.9-1.4 2.2-1.5 4-0.2 1.8-0.2 4.5-0.2 7.9h38.9z"/>
	<path class="st0" d="m196.8 71.1c1.7 0 3 0 3.9-0.1s1.6-0.3 2-0.8c0.4-0.4 0.7-1.1 0.8-2s0.1-2.2 0.1-3.9 0-3-0.1-3.9-0.3-1.6-0.8-2c-0.4-0.4-1.1-0.7-2-0.8s-2.2-0.1-3.9-0.1h-21.5c-4.6 0-8.2-0.1-10.7-0.3s-4.3-0.9-5.5-2.1-1.9-3-2.1-5.5-0.3-6.1-0.3-10.7 0.1-8.2 0.3-10.7 0.9-4.3 2.1-5.5 3-1.9 5.5-2.1 6.1-0.3 10.7-0.3h32.3c1.5 0 2.6 0 3.4 0.1s1.3 0.3 1.7 0.7 0.6 0.9 0.7 1.7 0.1 1.9 0.1 3.4 0 2.6-0.1 3.4-0.3 1.3-0.7 1.7-0.9 0.6-1.7 0.7-1.9 0.1-3.4 0.1h-32.3c-1.7 0-3 0-3.9 0.1s-1.6 0.3-2 0.8c-0.4 0.4-0.7 1.1-0.8 2s-0.1 2.2-0.1 3.9 0 3 0.1 3.9 0.3 1.6 0.8 2c0.4 0.4 1.1 0.7 2 0.8s2.2 0.1 3.9 0.1h21.5c4.6 0 8.2 0.1 10.7 0.3s4.3 0.9 5.5 2.1 1.9 3 2.1 5.5 0.3 6.1 0.3 10.7-0.1 8.2-0.3 10.7-0.9 4.3-2.1 5.5-3 1.9-5.5 2.1-6.1 0.3-10.7 0.3h-34.2c-1.5 0-2.6 0-3.4-0.1s-1.3-0.3-1.7-0.7-0.6-0.9-0.7-1.7-0.1-1.9-0.1-3.4 0-2.6 0.1-3.4 0.3-1.3 0.7-1.7 0.9-0.6 1.7-0.7 1.9-0.1 3.4-0.1h34.2z"/>
	<path class="st0" d="m238.9 32h-11.7c-1.5 0-2.6 0-3.4-0.1s-1.3-0.3-1.7-0.7-0.6-0.9-0.7-1.7-0.1-1.9-0.1-3.4 0-2.6 0.1-3.4 0.3-1.3 0.7-1.7 0.9-0.6 1.7-0.7 1.9-0.1 3.4-0.1h11.7v-9.8c0-1.5 0-2.6 0.1-3.4s0.3-1.3 0.7-1.7 0.9-0.6 1.7-0.7 1.9-0.1 3.4-0.1 2.6 0 3.4 0.1 1.3 0.3 1.7 0.7 0.6 0.9 0.7 1.7 0.1 1.9 0.1 3.4v9.8h11.7c1.5 0 2.6 0 3.4 0.1s1.3 0.3 1.7 0.7 0.6 0.9 0.7 1.7 0.1 1.9 0.1 3.4 0 2.6-0.1 3.4-0.3 1.3-0.7 1.7-0.9 0.6-1.7 0.7-1.9 0.1-3.4 0.1h-11.7v45c0 1.5 0 2.6-0.1 3.4s-0.3 1.3-0.7 1.7-0.9 0.6-1.7 0.7-1.9 0.1-3.4 0.1-2.6 0-3.4-0.1-1.3-0.3-1.7-0.7-0.6-0.9-0.7-1.7-0.1-1.9-0.1-3.4v-45z"/>
	<path class="st0" d="m325 71.1c1.5 0 2.6 0 3.4 0.1s1.3 0.3 1.7 0.7 0.6 0.9 0.7 1.7 0.1 1.9 0.1 3.4 0 2.6-0.1 3.4-0.3 1.3-0.7 1.7-0.9 0.6-1.7 0.7-1.9 0.1-3.4 0.1h-17.6c-5.2 0-9.6-0.1-13.1-0.2s-6.5-0.5-8.8-1c-2.3-0.6-4.1-1.5-5.4-2.7-1.3-1.3-2.2-3.1-2.8-5.4s-0.9-5.3-1-8.8-0.2-7.9-0.2-13.1 0.1-9.6 0.2-13.1 0.5-6.5 1-8.8c0.6-2.3 1.5-4.1 2.8-5.4s3.1-2.2 5.4-2.8 5.3-0.9 8.8-1 7.9-0.2 13.1-0.2h17.6c1.5 0 2.6 0 3.4 0.1s1.3 0.3 1.7 0.7 0.6 0.9 0.7 1.7 0.1 1.9 0.1 3.4 0 2.6-0.1 3.4-0.3 1.3-0.7 1.7-0.9 0.6-1.7 0.7-1.9 0.1-3.4 0.1h-17.6c-4.9 0-8.7 0.1-11.3 0.3s-4.6 0.9-5.8 2.1-1.9 3.2-2.1 5.8c-0.2 2.7-0.3 6.4-0.3 11.3s0.1 8.7 0.3 11.3 0.9 4.6 2.1 5.8 3.2 1.9 5.8 2.1 6.4 0.3 11.3 0.3h17.6z"/>
	<path class="st0" d="m371.9 20.2c5.2 0 9.6 0.1 13.1 0.2s6.5 0.5 8.8 1c2.3 0.6 4.1 1.5 5.4 2.8s2.2 3.1 2.7 5.4c0.6 2.3 0.9 5.3 1 8.8s0.2 7.9 0.2 13.1-0.1 9.6-0.2 13.1-0.5 6.5-1 8.8c-0.6 2.3-1.5 4.1-2.7 5.4-1.3 1.3-3.1 2.2-5.4 2.7-2.3 0.6-5.3 0.9-8.8 1s-7.9 0.2-13.1 0.2-9.6-0.1-13.1-0.2-6.5-0.5-8.8-1c-2.3-0.6-4.1-1.5-5.4-2.7-1.3-1.3-2.2-3.1-2.8-5.4s-0.9-5.3-1-8.8-0.2-7.9-0.2-13.1 0.1-9.6 0.2-13.1 0.5-6.5 1-8.8c0.6-2.3 1.5-4.1 2.8-5.4s3.1-2.2 5.4-2.8 5.3-0.9 8.8-1 7.9-0.2 13.1-0.2zm19.6 31.3c0-4.9-0.1-8.7-0.3-11.3s-0.9-4.6-2.1-5.8-3.2-1.9-5.8-2.1c-2.7-0.2-6.4-0.3-11.3-0.3s-8.7 0.1-11.3 0.3-4.6 0.9-5.8 2.1-1.9 3.2-2.1 5.8c-0.2 2.7-0.3 6.4-0.3 11.3s0.1 8.7 0.3 11.3 0.9 4.6 2.1 5.8 3.2 1.9 5.8 2.1 6.4 0.3 11.3 0.3 8.7-0.1 11.3-0.3 4.6-0.9 5.8-2.1 1.9-3.2 2.1-5.8 0.3-6.4 0.3-11.3z"/>
	<path class="st0" d="m413.5 28c0-2 0-3.5 0.1-4.5 0.1-1.1 0.4-1.8 0.9-2.3s1.3-0.8 2.3-0.9c1.1-0.1 2.6-0.1 4.5-0.1h54.8c4.6 0 8.4 0 11.5 0.1s5.7 0.4 7.7 0.9 3.6 1.3 4.7 2.4 1.9 2.7 2.4 4.7 0.8 4.6 0.9 7.8c0.1 3.1 0.1 7 0.1 11.4v29.3c0 1.5 0 2.6-0.1 3.4s-0.3 1.3-0.7 1.7-0.9 0.6-1.7 0.7-1.9 0.1-3.4 0.1-2.6 0-3.4-0.1-1.3-0.3-1.7-0.7-0.6-0.9-0.7-1.7-0.1-1.9-0.1-3.4v-29.2c0-3.9-0.1-6.9-0.2-9-0.2-2.1-0.7-3.7-1.7-4.6-1-1-2.5-1.5-4.6-1.7s-5.1-0.2-9-0.2h-11.7v45c0 1.5 0 2.6-0.1 3.4s-0.3 1.3-0.7 1.7-0.9 0.6-1.7 0.7-1.9 0.1-3.4 0.1-2.6 0-3.4-0.1-1.3-0.3-1.7-0.7-0.6-0.9-0.7-1.7-0.1-1.9-0.1-3.4v-45.1h-27.4v45c0 1.5 0 2.6-0.1 3.4s-0.3 1.3-0.7 1.7-0.9 0.6-1.7 0.7-1.9 0.1-3.4 0.1-2.6 0-3.4-0.1-1.3-0.3-1.7-0.7-0.6-0.9-0.7-1.7-0.1-1.9-0.1-3.4v-49z"/>
	<path class="st0" d="m513.7 28c0-2 0-3.5 0.1-4.5 0.1-1.1 0.4-1.8 0.9-2.3s1.3-0.8 2.3-0.9c1.1-0.1 2.6-0.1 4.5-0.1h54.8c4.6 0 8.4 0 11.5 0.1s5.7 0.4 7.7 0.9 3.6 1.3 4.7 2.4 1.9 2.7 2.4 4.7 0.8 4.6 0.9 7.8c0.1 3.1 0.1 7 0.1 11.4v29.3c0 1.5 0 2.6-0.1 3.4s-0.3 1.3-0.7 1.7-0.9 0.6-1.7 0.7-1.9 0.1-3.4 0.1-2.6 0-3.4-0.1-1.3-0.3-1.7-0.7-0.6-0.9-0.7-1.7-0.1-1.9-0.1-3.4v-29.2c0-3.9-0.1-6.9-0.2-9-0.2-2.1-0.7-3.7-1.7-4.6s-2.5-1.5-4.6-1.7-5.1-0.2-9-0.2h-11.7v45c0 1.5 0 2.6-0.1 3.4s-0.3 1.3-0.7 1.7-0.9 0.6-1.7 0.7-1.9 0.1-3.4 0.1-2.6 0-3.4-0.1-1.3-0.3-1.7-0.7-0.6-0.9-0.7-1.7-0.1-1.9-0.1-3.4v-45.1h-27.4v45c0 1.5 0 2.6-0.1 3.4s-0.3 1.3-0.7 1.7-0.9 0.6-1.7 0.7-1.9 0.1-3.4 0.1-2.6 0-3.4-0.1-1.3-0.3-1.7-0.7-0.6-0.9-0.7-1.7-0.1-1.9-0.1-3.4v-49z"/>
</svg>