<?xml version="1.0" encoding="utf-8"?>
<!-- Generator: Adobe Illustrator 16.0.0, SVG Export Plug-In . SVG Version: 6.00 Build 0)  -->
<!DOCTYPE svg PUBLIC "-//W3C//DTD SVG 1.1//EN" "http://www.w3.org/Graphics/SVG/1.1/DTD/svg11.dtd">
<svg version="1.1" id="Layer_1" xmlns="http://www.w3.org/2000/svg" xmlns:xlink="http://www.w3.org/1999/xlink" x="0px" y="0px"
	 width="184px" height="47px" viewBox="0 0 184 47" enable-background="new 0 0 184 47" xml:space="preserve">
<rect x="132" y="26" fill="#222D4D" width="1" height="19"/>
<g>
	<path fill="#E23C26" d="M1.643,4.26c0-0.417,0.008-0.738,0.026-0.965c0.017-0.227,0.078-0.391,0.183-0.494
		c0.105-0.106,0.27-0.166,0.495-0.184s0.548-0.026,0.966-0.026h8.139c1.305,0,2.311,0.026,3.014,0.078
		c0.703,0.053,1.217,0.231,1.537,0.534c0.322,0.305,0.514,0.779,0.576,1.423c0.061,0.644,0.09,1.564,0.09,2.765
		c0,1.199-0.029,2.122-0.09,2.766c-0.062,0.643-0.254,1.117-0.576,1.42c-0.32,0.307-0.834,0.484-1.537,0.536
		c-0.703,0.053-1.701,0.078-2.988,0.078l4.879,4.878c0.227,0.227,0.396,0.401,0.509,0.521c0.113,0.123,0.17,0.245,0.17,0.365
		c0,0.088-0.067,0.214-0.196,0.379c-0.131,0.166-0.287,0.336-0.469,0.509c-0.182,0.175-0.362,0.326-0.535,0.457
		c-0.174,0.13-0.297,0.194-0.365,0.194c-0.104,0-0.221-0.055-0.352-0.168c-0.131-0.114-0.299-0.274-0.51-0.483L7.955,12.19H4.146
		v5.844c0,0.313-0.009,0.552-0.025,0.718c-0.018,0.164-0.065,0.287-0.145,0.365C3.9,19.194,3.777,19.243,3.613,19.26
		c-0.166,0.019-0.404,0.027-0.719,0.027c-0.312,0-0.552-0.009-0.717-0.027c-0.166-0.017-0.288-0.065-0.365-0.143
		c-0.078-0.078-0.127-0.201-0.144-0.365c-0.019-0.166-0.026-0.404-0.026-0.718V4.26z M11.451,9.688c0.678,0,1.201-0.015,1.565-0.041
		c0.364-0.025,0.63-0.112,0.795-0.262c0.165-0.146,0.267-0.371,0.302-0.676c0.034-0.305,0.051-0.744,0.051-1.318
		s-0.017-1.014-0.051-1.316c-0.035-0.306-0.137-0.531-0.302-0.68c-0.165-0.146-0.431-0.234-0.795-0.26s-0.888-0.039-1.565-0.039
		H4.146v4.592H11.451z"/>
	<path fill="#E23C26" d="M30.025,16.782c0.312,0,0.551,0.009,0.716,0.026c0.166,0.017,0.288,0.064,0.367,0.143
		c0.076,0.078,0.125,0.2,0.142,0.366c0.018,0.165,0.025,0.403,0.025,0.717s-0.008,0.552-0.025,0.718
		c-0.017,0.164-0.065,0.287-0.142,0.365c-0.079,0.077-0.201,0.126-0.367,0.143c-0.165,0.019-0.403,0.027-0.716,0.027h-4.592
		c-1.113,0-2.049-0.014-2.805-0.04s-1.383-0.1-1.877-0.222c-0.498-0.121-0.88-0.317-1.149-0.588
		c-0.271-0.269-0.465-0.651-0.587-1.146c-0.122-0.496-0.195-1.121-0.221-1.879c-0.027-0.756-0.041-1.69-0.041-2.804
		s0.014-2.048,0.041-2.806c0.025-0.756,0.099-1.381,0.221-1.877s0.316-0.878,0.587-1.148c0.27-0.27,0.651-0.465,1.149-0.587
		c0.494-0.122,1.121-0.196,1.877-0.222s1.691-0.038,2.805-0.038c1.112,0,2.047,0.013,2.805,0.038c0.756,0.025,1.383,0.1,1.879,0.222
		c0.494,0.122,0.877,0.313,1.146,0.574c0.269,0.261,0.465,0.622,0.588,1.083c0.121,0.461,0.194,1.043,0.221,1.747
		c0.026,0.705,0.039,1.57,0.039,2.596c0,0.418-0.008,0.741-0.025,0.966c-0.018,0.227-0.078,0.392-0.184,0.496
		c-0.104,0.104-0.27,0.166-0.495,0.182c-0.226,0.018-0.548,0.027-0.966,0.027H21.26c0,0.73,0.017,1.289,0.053,1.68
		c0.033,0.394,0.143,0.68,0.324,0.862c0.184,0.183,0.471,0.292,0.862,0.326c0.392,0.036,0.952,0.053,1.682,0.053H30.025z
		 M29.607,11.357c0-0.732-0.018-1.293-0.052-1.685s-0.145-0.678-0.326-0.86c-0.183-0.184-0.47-0.292-0.861-0.325
		c-0.392-0.035-0.952-0.054-1.683-0.054h-2.505c-0.729,0-1.29,0.019-1.682,0.054c-0.392,0.033-0.679,0.142-0.862,0.325
		c-0.182,0.183-0.291,0.469-0.324,0.86c-0.036,0.392-0.053,0.952-0.053,1.685H29.607z"/>
	<path fill="#E23C26" d="M42.756,16.782c0.364,0,0.643-0.009,0.835-0.026c0.19-0.018,0.333-0.074,0.429-0.17
		c0.096-0.095,0.152-0.238,0.17-0.431c0.018-0.189,0.025-0.469,0.025-0.835c0-0.364-0.008-0.643-0.025-0.832
		c-0.018-0.193-0.074-0.337-0.17-0.432c-0.096-0.096-0.238-0.153-0.429-0.17c-0.192-0.018-0.471-0.025-0.835-0.025h-4.594
		c-0.989,0-1.751-0.023-2.281-0.066c-0.529-0.045-0.921-0.191-1.174-0.443c-0.252-0.252-0.4-0.643-0.443-1.176
		c-0.044-0.528-0.065-1.29-0.065-2.28c0-0.991,0.021-1.753,0.065-2.284c0.043-0.529,0.191-0.921,0.443-1.172
		c0.253-0.254,0.645-0.4,1.174-0.445c0.53-0.042,1.292-0.063,2.281-0.063h6.889c0.312,0,0.551,0.009,0.717,0.025
		c0.165,0.017,0.287,0.065,0.365,0.144c0.077,0.079,0.127,0.199,0.143,0.365c0.018,0.164,0.027,0.404,0.027,0.717
		c0,0.313-0.01,0.553-0.027,0.718c-0.016,0.167-0.065,0.286-0.143,0.365c-0.078,0.078-0.2,0.126-0.365,0.144
		c-0.166,0.016-0.404,0.025-0.717,0.025h-6.889c-0.364,0-0.643,0.01-0.832,0.027c-0.193,0.018-0.336,0.073-0.432,0.168
		c-0.096,0.097-0.152,0.238-0.17,0.432c-0.017,0.191-0.025,0.469-0.025,0.835c0,0.364,0.009,0.643,0.025,0.835
		c0.018,0.19,0.074,0.334,0.17,0.431c0.096,0.095,0.238,0.151,0.432,0.168c0.189,0.019,0.468,0.028,0.832,0.028h4.594
		c0.99,0,1.751,0.021,2.281,0.062c0.531,0.045,0.922,0.193,1.173,0.444c0.253,0.252,0.401,0.644,0.445,1.175
		c0.043,0.531,0.065,1.29,0.065,2.281c0,0.992-0.022,1.754-0.065,2.283c-0.044,0.531-0.192,0.923-0.445,1.174
		c-0.251,0.253-0.642,0.4-1.173,0.443c-0.53,0.045-1.291,0.066-2.281,0.066h-7.307c-0.312,0-0.552-0.009-0.716-0.027
		c-0.166-0.017-0.288-0.065-0.364-0.143c-0.078-0.078-0.127-0.201-0.145-0.365c-0.018-0.166-0.026-0.404-0.026-0.718
		s0.009-0.552,0.026-0.717c0.018-0.166,0.066-0.288,0.145-0.366c0.076-0.078,0.198-0.126,0.364-0.143
		c0.164-0.018,0.404-0.026,0.716-0.026H42.756z"/>
	<path fill="#E23C26" d="M51.729,8.434h-2.505c-0.312,0-0.552-0.01-0.716-0.025c-0.166-0.018-0.288-0.065-0.365-0.144
		c-0.078-0.079-0.127-0.198-0.144-0.365c-0.019-0.165-0.026-0.404-0.026-0.718c0-0.312,0.008-0.553,0.026-0.717
		c0.017-0.166,0.065-0.286,0.144-0.365c0.077-0.078,0.199-0.127,0.365-0.144c0.164-0.017,0.404-0.025,0.716-0.025h2.505V3.843
		c0-0.313,0.009-0.552,0.027-0.718c0.017-0.165,0.064-0.287,0.143-0.364c0.078-0.079,0.199-0.126,0.364-0.144
		s0.404-0.026,0.72-0.026c0.312,0,0.55,0.009,0.716,0.026c0.165,0.018,0.286,0.064,0.366,0.144c0.076,0.077,0.125,0.199,0.143,0.364
		c0.018,0.166,0.025,0.404,0.025,0.718v2.088h2.506c0.312,0,0.551,0.009,0.717,0.025s0.288,0.065,0.366,0.144
		c0.077,0.079,0.124,0.199,0.142,0.365c0.018,0.164,0.026,0.404,0.026,0.717c0,0.313-0.009,0.553-0.026,0.718
		c-0.018,0.167-0.064,0.286-0.142,0.365c-0.078,0.078-0.2,0.126-0.366,0.144c-0.166,0.016-0.404,0.025-0.717,0.025h-2.506v9.601
		c0,0.313-0.008,0.552-0.025,0.718c-0.018,0.164-0.066,0.287-0.143,0.365c-0.08,0.077-0.201,0.126-0.366,0.143
		c-0.166,0.019-0.404,0.027-0.716,0.027c-0.315,0-0.555-0.009-0.72-0.027c-0.165-0.017-0.286-0.065-0.364-0.143
		c-0.078-0.078-0.126-0.201-0.143-0.365c-0.019-0.166-0.027-0.404-0.027-0.718V8.434z"/>
	<path fill="#E23C26" d="M70.094,16.782c0.312,0,0.553,0.009,0.718,0.026c0.164,0.017,0.286,0.064,0.364,0.143
		c0.079,0.078,0.127,0.2,0.144,0.366c0.017,0.165,0.026,0.403,0.026,0.717s-0.01,0.552-0.026,0.718
		c-0.017,0.164-0.064,0.287-0.144,0.365c-0.078,0.077-0.2,0.126-0.364,0.143c-0.165,0.019-0.405,0.027-0.718,0.027h-3.757
		c-1.113,0-2.046-0.014-2.804-0.04s-1.383-0.1-1.879-0.222c-0.495-0.121-0.878-0.317-1.146-0.588
		c-0.271-0.269-0.468-0.651-0.588-1.146c-0.121-0.496-0.195-1.121-0.222-1.879c-0.026-0.756-0.039-1.69-0.039-2.804
		s0.013-2.048,0.039-2.806c0.026-0.756,0.101-1.381,0.222-1.877c0.12-0.496,0.317-0.878,0.588-1.148
		c0.269-0.27,0.651-0.465,1.146-0.587c0.496-0.122,1.121-0.196,1.879-0.222s1.69-0.038,2.804-0.038h3.757
		c0.312,0,0.553,0.009,0.718,0.025c0.164,0.017,0.286,0.065,0.364,0.144c0.079,0.079,0.127,0.199,0.144,0.365
		c0.017,0.164,0.026,0.404,0.026,0.717c0,0.313-0.01,0.553-0.026,0.718c-0.017,0.167-0.064,0.286-0.144,0.365
		c-0.078,0.078-0.2,0.126-0.364,0.144c-0.165,0.016-0.405,0.025-0.718,0.025h-3.757c-1.042,0-1.848,0.023-2.412,0.066
		c-0.566,0.043-0.979,0.195-1.239,0.455c-0.26,0.262-0.413,0.676-0.457,1.24c-0.043,0.565-0.065,1.369-0.065,2.413
		s0.022,1.849,0.065,2.413c0.044,0.565,0.197,0.979,0.457,1.239s0.673,0.414,1.239,0.456c0.564,0.043,1.37,0.065,2.412,0.065H70.094
		z"/>
	<path fill="#E23C26" d="M80.11,5.931c1.113,0,2.048,0.013,2.806,0.038c0.757,0.025,1.382,0.1,1.877,0.222
		c0.496,0.122,0.879,0.317,1.148,0.587c0.27,0.271,0.464,0.652,0.586,1.148c0.123,0.496,0.197,1.121,0.223,1.877
		c0.025,0.758,0.04,1.692,0.04,2.806s-0.015,2.048-0.04,2.804c-0.025,0.758-0.1,1.383-0.223,1.879
		c-0.122,0.495-0.316,0.878-0.586,1.146c-0.27,0.271-0.652,0.467-1.148,0.588c-0.495,0.122-1.12,0.195-1.877,0.222
		c-0.758,0.026-1.692,0.04-2.806,0.04c-1.112,0-2.048-0.014-2.804-0.04c-0.758-0.026-1.383-0.1-1.878-0.222
		c-0.497-0.121-0.878-0.317-1.148-0.588c-0.27-0.269-0.466-0.651-0.587-1.146c-0.121-0.496-0.194-1.121-0.222-1.879
		c-0.026-0.756-0.038-1.69-0.038-2.804s0.012-2.048,0.038-2.806c0.027-0.756,0.101-1.381,0.222-1.877s0.317-0.878,0.587-1.148
		c0.271-0.27,0.651-0.465,1.148-0.587c0.495-0.122,1.12-0.196,1.878-0.222C78.062,5.943,78.998,5.931,80.11,5.931z M84.285,12.608
		c0-1.044-0.022-1.848-0.066-2.413c-0.043-0.564-0.194-0.979-0.457-1.24c-0.26-0.26-0.672-0.412-1.238-0.455
		c-0.564-0.043-1.369-0.066-2.413-0.066c-1.043,0-1.847,0.023-2.413,0.066c-0.564,0.043-0.979,0.195-1.238,0.455
		c-0.262,0.262-0.413,0.676-0.457,1.24c-0.043,0.565-0.064,1.369-0.064,2.413s0.021,1.849,0.064,2.413
		c0.044,0.565,0.195,0.979,0.457,1.239c0.26,0.261,0.674,0.414,1.238,0.456c0.566,0.043,1.37,0.065,2.413,0.065
		c1.044,0,1.849-0.022,2.413-0.065c0.566-0.042,0.979-0.195,1.238-0.456c0.263-0.261,0.414-0.674,0.457-1.239
		C84.263,14.457,84.285,13.652,84.285,12.608z"/>
	<path fill="#E23C26" d="M88.98,7.6c0-0.418,0.008-0.738,0.025-0.966c0.018-0.226,0.078-0.392,0.184-0.495
		c0.104-0.104,0.27-0.166,0.494-0.183c0.227-0.017,0.549-0.025,0.967-0.025h11.687c0.974,0,1.791,0.009,2.452,0.025
		c0.66,0.017,1.208,0.083,1.643,0.196c0.435,0.111,0.771,0.287,1.005,0.521c0.235,0.234,0.408,0.57,0.522,1.006
		c0.111,0.432,0.177,0.984,0.195,1.654c0.018,0.671,0.027,1.483,0.027,2.439v6.261c0,0.313-0.01,0.552-0.027,0.718
		c-0.019,0.164-0.065,0.287-0.145,0.365c-0.078,0.077-0.199,0.126-0.365,0.143c-0.164,0.019-0.402,0.027-0.717,0.027
		c-0.312,0-0.552-0.009-0.717-0.027c-0.166-0.017-0.287-0.065-0.365-0.143c-0.078-0.078-0.127-0.201-0.144-0.365
		c-0.019-0.166-0.026-0.404-0.026-0.718v-6.261c0-0.835-0.018-1.478-0.052-1.93c-0.035-0.453-0.157-0.783-0.366-0.993
		c-0.208-0.208-0.539-0.33-0.991-0.363c-0.452-0.035-1.095-0.054-1.93-0.054h-2.505v9.601c0,0.313-0.01,0.552-0.025,0.718
		c-0.019,0.164-0.064,0.287-0.143,0.365c-0.078,0.077-0.201,0.126-0.365,0.143c-0.168,0.019-0.405,0.027-0.719,0.027
		s-0.552-0.009-0.718-0.027c-0.165-0.017-0.286-0.065-0.364-0.143c-0.078-0.078-0.126-0.201-0.144-0.365
		c-0.019-0.166-0.026-0.404-0.026-0.718V8.434h-5.844v9.601c0,0.313-0.01,0.552-0.025,0.718c-0.018,0.164-0.066,0.287-0.145,0.365
		c-0.078,0.077-0.199,0.126-0.364,0.143c-0.167,0.019-0.404,0.027-0.718,0.027c-0.312,0-0.553-0.009-0.717-0.027
		c-0.165-0.017-0.287-0.065-0.365-0.143c-0.079-0.078-0.127-0.201-0.145-0.365c-0.018-0.166-0.025-0.404-0.025-0.718V7.6z"/>
	<path fill="#E23C26" d="M110.371,7.6c0-0.418,0.008-0.738,0.026-0.966c0.018-0.226,0.078-0.392,0.182-0.495
		c0.106-0.104,0.271-0.166,0.497-0.183c0.225-0.017,0.547-0.025,0.965-0.025h11.686c0.975,0,1.791,0.009,2.452,0.025
		s1.21,0.083,1.644,0.196c0.436,0.111,0.771,0.287,1.005,0.521c0.235,0.234,0.409,0.57,0.522,1.006
		c0.113,0.432,0.178,0.984,0.195,1.654c0.018,0.671,0.027,1.483,0.027,2.439v6.261c0,0.313-0.01,0.552-0.027,0.718
		c-0.018,0.164-0.064,0.287-0.144,0.365c-0.078,0.077-0.2,0.126-0.364,0.143c-0.166,0.019-0.406,0.027-0.718,0.027
		c-0.312,0-0.552-0.009-0.718-0.027c-0.166-0.017-0.287-0.065-0.365-0.143c-0.078-0.078-0.126-0.201-0.143-0.365
		c-0.019-0.166-0.027-0.404-0.027-0.718v-6.261c0-0.835-0.018-1.478-0.051-1.93c-0.037-0.453-0.157-0.783-0.366-0.993
		c-0.208-0.208-0.538-0.33-0.991-0.363c-0.453-0.035-1.096-0.054-1.932-0.054h-2.504v9.601c0,0.313-0.008,0.552-0.025,0.718
		c-0.018,0.164-0.065,0.287-0.143,0.365c-0.08,0.077-0.201,0.126-0.367,0.143c-0.164,0.019-0.404,0.027-0.717,0.027
		s-0.551-0.009-0.717-0.027c-0.166-0.017-0.286-0.065-0.365-0.143c-0.078-0.078-0.127-0.201-0.144-0.365
		c-0.018-0.166-0.026-0.404-0.026-0.718V8.434h-5.844v9.601c0,0.313-0.008,0.552-0.025,0.718c-0.017,0.164-0.066,0.287-0.144,0.365
		c-0.079,0.077-0.2,0.126-0.365,0.143c-0.166,0.019-0.404,0.027-0.718,0.027c-0.312,0-0.552-0.009-0.717-0.027
		c-0.166-0.017-0.287-0.065-0.365-0.143c-0.079-0.078-0.126-0.201-0.144-0.365c-0.019-0.166-0.026-0.404-0.026-0.718V7.6z"/>
	<path fill="#6E6F71" d="M140.006,2.591c1.391,0,2.561,0.015,3.508,0.04c0.948,0.025,1.73,0.115,2.35,0.273
		c0.616,0.156,1.095,0.404,1.434,0.743s0.587,0.817,0.742,1.435c0.158,0.617,0.249,1.4,0.275,2.348s0.039,2.119,0.039,3.509
		c0,1.391-0.013,2.562-0.039,3.509s-0.117,1.73-0.275,2.348c-0.155,0.617-0.403,1.096-0.742,1.436
		c-0.339,0.339-0.817,0.586-1.434,0.742c-0.619,0.156-1.401,0.248-2.35,0.274c-0.947,0.026-2.117,0.04-3.508,0.04
		c-1.393,0-2.561-0.014-3.508-0.04c-0.949-0.026-1.732-0.118-2.348-0.274c-0.619-0.156-1.098-0.403-1.436-0.742
		c-0.339-0.34-0.588-0.818-0.742-1.436c-0.158-0.617-0.25-1.4-0.275-2.348s-0.04-2.118-0.04-3.509c0-1.39,0.015-2.562,0.04-3.509
		s0.117-1.73,0.275-2.348c0.154-0.617,0.403-1.096,0.742-1.435c0.338-0.339,0.816-0.587,1.436-0.743
		c0.615-0.158,1.398-0.248,2.348-0.273C137.445,2.605,138.613,2.591,140.006,2.591z M145.849,10.938c0-0.974-0.009-1.79-0.026-2.451
		s-0.083-1.21-0.195-1.645s-0.286-0.769-0.521-1.005c-0.235-0.233-0.57-0.408-1.004-0.521c-0.436-0.113-0.982-0.178-1.644-0.195
		s-1.479-0.025-2.452-0.025c-0.975,0-1.792,0.008-2.453,0.025c-0.66,0.018-1.208,0.082-1.643,0.195
		c-0.437,0.113-0.77,0.288-1.005,0.521c-0.233,0.236-0.409,0.57-0.522,1.005s-0.178,0.983-0.194,1.645s-0.026,1.478-0.026,2.451
		s0.01,1.792,0.026,2.452s0.081,1.209,0.194,1.645c0.113,0.434,0.289,0.769,0.522,1.003c0.235,0.235,0.568,0.409,1.005,0.522
		c0.435,0.114,0.982,0.178,1.643,0.195c0.661,0.018,1.479,0.026,2.453,0.026c0.973,0,1.791-0.009,2.452-0.026
		s1.208-0.081,1.644-0.195c0.434-0.113,0.769-0.287,1.004-0.522c0.235-0.234,0.409-0.569,0.521-1.003
		c0.112-0.436,0.178-0.984,0.195-1.645S145.849,11.912,145.849,10.938z"/>
	<path fill="#6E6F71" d="M150.648,4.26c0-0.417,0.01-0.738,0.025-0.965c0.018-0.227,0.08-0.391,0.184-0.494
		c0.104-0.106,0.27-0.166,0.495-0.184s0.548-0.026,0.965-0.026h5.844c1.253,0,2.305,0.015,3.157,0.04
		c0.851,0.025,1.555,0.109,2.113,0.248c0.556,0.139,0.986,0.36,1.291,0.664c0.303,0.305,0.525,0.734,0.664,1.291
		c0.141,0.557,0.223,1.266,0.248,2.126c0.027,0.862,0.04,1.907,0.04,3.144v7.931c0,0.313-0.009,0.552-0.026,0.718
		c-0.018,0.164-0.064,0.287-0.144,0.365c-0.078,0.077-0.202,0.126-0.365,0.143c-0.165,0.019-0.405,0.027-0.718,0.027
		s-0.551-0.009-0.717-0.027c-0.166-0.017-0.287-0.065-0.365-0.143c-0.078-0.078-0.127-0.201-0.143-0.365
		c-0.019-0.166-0.027-0.404-0.027-0.718v-7.931c0-1.253-0.026-2.217-0.078-2.896s-0.234-1.174-0.547-1.487
		c-0.314-0.312-0.81-0.496-1.486-0.548c-0.68-0.052-1.645-0.077-2.897-0.077h-5.009v12.938c0,0.313-0.009,0.552-0.027,0.718
		c-0.017,0.164-0.062,0.287-0.142,0.365c-0.078,0.077-0.2,0.126-0.364,0.143c-0.166,0.019-0.404,0.027-0.719,0.027
		c-0.312,0-0.553-0.009-0.718-0.027c-0.165-0.017-0.286-0.065-0.366-0.143c-0.076-0.078-0.125-0.201-0.143-0.365
		c-0.016-0.166-0.025-0.404-0.025-0.718V4.26z"/>
	<path fill="#6E6F71" d="M180.805,16.782c0.312,0,0.552,0.009,0.717,0.026c0.166,0.017,0.288,0.064,0.365,0.143
		c0.078,0.078,0.127,0.2,0.145,0.366c0.018,0.165,0.025,0.403,0.025,0.717s-0.008,0.552-0.025,0.718
		c-0.018,0.164-0.066,0.287-0.145,0.365c-0.077,0.077-0.199,0.126-0.365,0.143c-0.165,0.019-0.404,0.027-0.717,0.027h-4.59
		c-1.393,0-2.562-0.014-3.51-0.04c-0.949-0.026-1.73-0.118-2.348-0.274c-0.618-0.156-1.096-0.403-1.436-0.742
		c-0.339-0.34-0.587-0.818-0.742-1.436c-0.156-0.617-0.248-1.4-0.274-2.348s-0.04-2.118-0.04-3.509c0-1.39,0.014-2.562,0.04-3.509
		s0.118-1.73,0.274-2.348c0.155-0.617,0.403-1.096,0.742-1.435c0.34-0.339,0.817-0.587,1.436-0.743
		c0.617-0.158,1.398-0.248,2.348-0.273c0.947-0.025,2.117-0.04,3.51-0.04h4.59c0.312,0,0.552,0.009,0.717,0.026
		c0.166,0.018,0.288,0.064,0.365,0.144c0.078,0.077,0.127,0.199,0.145,0.364c0.018,0.166,0.025,0.404,0.025,0.718
		s-0.008,0.552-0.025,0.718c-0.018,0.164-0.066,0.286-0.145,0.365c-0.077,0.077-0.199,0.127-0.365,0.143
		c-0.165,0.019-0.404,0.027-0.717,0.027h-5.844c-1.147,0-2.031,0.025-2.647,0.077c-0.617,0.052-1.068,0.222-1.356,0.51
		c-0.287,0.286-0.455,0.738-0.509,1.355c-0.052,0.618-0.078,1.501-0.078,2.649h7.931c0.313,0,0.552,0.008,0.718,0.023
		c0.165,0.02,0.286,0.066,0.364,0.146s0.125,0.199,0.145,0.365c0.016,0.165,0.025,0.403,0.025,0.717s-0.01,0.554-0.025,0.718
		c-0.02,0.165-0.066,0.287-0.145,0.364c-0.078,0.079-0.199,0.127-0.364,0.145c-0.166,0.017-0.404,0.025-0.718,0.025h-7.931
		c0,1.147,0.026,2.03,0.078,2.647c0.054,0.618,0.222,1.07,0.509,1.357c0.288,0.287,0.739,0.457,1.356,0.509
		c0.616,0.052,1.5,0.078,2.647,0.078H180.805z"/>
</g>
<g>
	<path fill="#222D4D" d="M75.053,37.664l1.476-7.801h2.251l-2.432,10.963h-2.273l-1.785-7.334l-1.784,7.334h-2.273L65.8,29.863
		h2.251l1.482,7.785l1.808-7.785h1.912L75.053,37.664z"/>
	<path fill="#222D4D" d="M83.371,40.977c-1.193,0-2.166-0.367-2.917-1.1s-1.126-1.709-1.126-2.929v-0.21
		c0-0.818,0.158-1.551,0.475-2.195s0.765-1.142,1.344-1.49c0.58-0.35,1.241-0.523,1.984-0.523c1.114,0,1.991,0.352,2.631,1.054
		c0.641,0.702,0.96,1.699,0.96,2.989v0.889h-5.187c0.07,0.531,0.281,0.958,0.636,1.279c0.354,0.321,0.802,0.482,1.344,0.482
		c0.839,0,1.493-0.305,1.965-0.912l1.069,1.197c-0.326,0.463-0.768,0.822-1.325,1.08C84.666,40.848,84.049,40.977,83.371,40.977z
		 M83.123,34.283c-0.432,0-0.781,0.146-1.051,0.438c-0.268,0.292-0.439,0.711-0.516,1.255h3.027v-0.174
		c-0.01-0.483-0.141-0.857-0.392-1.123C83.941,34.416,83.585,34.283,83.123,34.283z"/>
	<path fill="#222D4D" d="M95.297,36.828c0,1.305-0.278,2.322-0.836,3.053c-0.557,0.73-1.334,1.096-2.333,1.096
		c-0.884,0-1.589-0.339-2.116-1.017l-0.098,0.866h-1.957V29.262h2.176v4.148c0.502-0.588,1.162-0.881,1.98-0.881
		c0.993,0,1.772,0.365,2.337,1.096c0.565,0.729,0.847,1.758,0.847,3.082V36.828z M93.121,36.67c0-0.823-0.131-1.424-0.391-1.803
		c-0.262-0.379-0.65-0.568-1.168-0.568c-0.691,0-1.169,0.283-1.43,0.85v3.215c0.266,0.572,0.748,0.859,1.445,0.859
		c0.703,0,1.164-0.347,1.385-1.039C93.068,37.852,93.121,37.348,93.121,36.67z"/>
	<path fill="#222D4D" d="M100.838,36.812h-1.799v4.014H96.78V29.863h4.073c1.295,0,2.294,0.289,2.996,0.866
		c0.703,0.577,1.055,1.394,1.055,2.446c0,0.748-0.162,1.372-0.486,1.871c-0.323,0.5-0.814,0.898-1.472,1.193l2.372,4.48v0.105
		h-2.424L100.838,36.812z M99.039,34.983h1.822c0.566,0,1.006-0.144,1.317-0.433s0.467-0.687,0.467-1.193
		c0-0.518-0.147-0.924-0.44-1.22c-0.294-0.296-0.744-0.444-1.352-0.444h-1.814V34.983z"/>
	<path fill="#222D4D" d="M114.496,31.693h-3.358v9.133h-2.259v-9.133h-3.312v-1.83h8.93V31.693z"/>
	<path fill="#222D4D" d="M124.178,37.174c-0.086,1.18-0.521,2.108-1.307,2.786s-1.82,1.017-3.105,1.017
		c-1.406,0-2.511-0.473-3.316-1.42c-0.806-0.945-1.209-2.244-1.209-3.896V34.99c0-1.053,0.186-1.982,0.558-2.785
		s0.902-1.419,1.593-1.848c0.689-0.43,1.491-0.645,2.404-0.645c1.266,0,2.284,0.34,3.057,1.017c0.773,0.678,1.221,1.629,1.341,2.854
		h-2.259c-0.055-0.708-0.252-1.221-0.591-1.54c-0.339-0.318-0.854-0.478-1.548-0.478c-0.752,0-1.315,0.27-1.689,0.81
		c-0.374,0.539-0.566,1.377-0.576,2.511v0.828c0,1.185,0.18,2.05,0.539,2.597c0.358,0.548,0.924,0.821,1.697,0.821
		c0.697,0,1.219-0.159,1.562-0.478c0.344-0.319,0.541-0.812,0.591-1.48H124.178z"/>
</g>
<g>
	<path fill="#23A6DC" d="M140.918,40.827V29.865h3.373c0.964,0,1.826,0.217,2.586,0.651c0.761,0.435,1.354,1.052,1.781,1.853
		c0.426,0.801,0.64,1.71,0.64,2.729v0.504c0,1.02-0.21,1.926-0.629,2.719s-1.011,1.408-1.772,1.844
		c-0.764,0.438-1.624,0.658-2.583,0.663H140.918z M143.177,31.695v7.317h1.092c0.884,0,1.559-0.288,2.025-0.866
		c0.466-0.576,0.705-1.402,0.715-2.477v-0.58c0-1.113-0.231-1.958-0.692-2.533c-0.462-0.574-1.137-0.861-2.025-0.861H143.177z"/>
	<path fill="#23A6DC" d="M157.533,36.076h-4.336v2.937h5.09v1.814h-7.349V29.865h7.333v1.83h-5.074v2.611h4.336V36.076z"/>
	<path fill="#23A6DC" d="M162.563,29.865l2.815,7.95l2.801-7.95h2.967v10.962h-2.267V37.83l0.226-5.172l-2.959,8.169h-1.551
		l-2.951-8.161l0.227,5.164v2.997h-2.26V29.865H162.563z"/>
	<path fill="#23A6DC" d="M182.123,35.595c0,1.079-0.191,2.025-0.572,2.839c-0.382,0.812-0.928,1.439-1.638,1.882
		c-0.71,0.441-1.524,0.662-2.442,0.662c-0.909,0-1.72-0.218-2.433-0.655c-0.712-0.436-1.265-1.06-1.656-1.871
		c-0.392-0.811-0.59-1.742-0.595-2.797v-0.541c0-1.08,0.194-2.029,0.584-2.85c0.389-0.821,0.938-1.451,1.648-1.891
		c0.71-0.438,1.521-0.658,2.436-0.658c0.913,0,1.725,0.22,2.436,0.658c0.71,0.439,1.26,1.069,1.648,1.891
		c0.389,0.82,0.584,1.768,0.584,2.842V35.595z M179.834,35.098c0-1.149-0.206-2.022-0.617-2.62
		c-0.412-0.597-0.999-0.896-1.762-0.896c-0.758,0-1.343,0.295-1.754,0.885c-0.412,0.59-0.621,1.454-0.625,2.594v0.534
		c0,1.119,0.205,1.987,0.617,2.604c0.411,0.617,1.004,0.926,1.777,0.926c0.758,0,1.34-0.297,1.746-0.892s0.612-1.462,0.617-2.601
		V35.098z"/>
</g>
</svg>
