<svg xmlns="http://www.w3.org/2000/svg" width="904" height="198" viewBox="0 0 904 198"><style>.a{fill:#DD4226;}.b{fill:#4C4C4D;}</style><path d="M56.1 99.5c0 14.1-11.5 25.6-25.6 25.6 -14.1 0-25.6-11.5-25.6-25.6 0-14.1 11.5-25.6 25.6-25.6C44.7 73.9 56.1 85.3 56.1 99.5z" class="a"/><path d="M84.3 140.4c0 12-9.7 21.7-21.7 21.7 -12 0-21.8-9.7-21.8-21.7 0-12 9.7-21.7 21.8-21.7C74.6 118.6 84.3 128.4 84.3 140.4z" class="a"/><path d="M84.3 58.5c0 12-9.7 21.8-21.7 21.8 -12 0-21.8-9.7-21.8-21.8 0-12 9.7-21.7 21.8-21.7C74.6 36.8 84.3 46.5 84.3 58.5z" class="a"/><path d="M115 99.5c0 12-9.7 21.7-21.7 21.7 -12 0-21.7-9.7-21.7-21.7 0-12 9.7-21.8 21.7-21.8C105.3 77.7 115 87.5 115 99.5z" class="a"/><path d="M109 22.7c0 9.9-8 17.9-17.9 17.9 -9.9 0-17.9-8-17.9-17.9 0-9.9 8-17.9 17.9-17.9C101 4.8 109 12.8 109 22.7z" class="a"/><path d="M159.8 99.5c0 9.9-8 17.9-17.9 17.9 -9.9 0-17.9-8-17.9-17.9 0-9.9 8-17.9 17.9-17.9C151.7 81.5 159.8 89.6 159.8 99.5z" class="a"/><path d="M109 176.2c0 9.9-8 17.9-17.9 17.9 -9.9 0-17.9-8-17.9-17.9 0-9.9 8-17.9 17.9-17.9C101 158.3 109 166.3 109 176.2z" class="a"/><path d="M264.2 136.8c2.4 0 4.2 0.1 5.5 0.2 1.3 0.1 2.2 0.5 2.8 1.1 0.6 0.6 1 1.5 1.1 2.8 0.1 1.3 0.2 3.1 0.2 5.5s-0.1 4.2-0.2 5.5c-0.1 1.3-0.5 2.2-1.1 2.8 -0.6 0.6-1.5 1-2.8 1.1 -1.3 0.1-3.1 0.2-5.5 0.2h-28.8c-8.5 0-15.7-0.1-21.5-0.3 -5.8-0.2-10.6-0.8-14.4-1.7 -3.8-0.9-6.7-2.4-8.8-4.5 -2.1-2.1-3.6-5-4.5-8.8 -0.9-3.8-1.5-8.6-1.7-14.4 -0.2-5.8-0.3-13-0.3-21.5 0-8.5 0.1-15.7 0.3-21.5 0.2-5.8 0.8-10.6 1.7-14.4 0.9-3.8 2.4-6.7 4.5-8.8 2.1-2.1 5-3.6 8.8-4.5 3.8-0.9 8.6-1.5 14.4-1.7 5.8-0.2 13-0.3 21.5-0.3h28.8c2.4 0 4.2 0.1 5.5 0.2 1.3 0.1 2.2 0.5 2.8 1.1 0.6 0.6 1 1.5 1.1 2.8 0.1 1.3 0.2 3.1 0.2 5.5 0 2.4-0.1 4.2-0.2 5.5 -0.1 1.3-0.5 2.2-1.1 2.8 -0.6 0.6-1.5 1-2.8 1.1 -1.3 0.1-3.1 0.2-5.5 0.2h-28.8c-8 0-14.2 0.2-18.5 0.5 -4.3 0.3-7.5 1.5-9.5 3.5s-3.2 5.2-3.5 9.5c-0.3 4.3-0.5 10.5-0.5 18.5s0.2 14.2 0.5 18.5c0.3 4.3 1.5 7.5 3.5 9.5s5.2 3.2 9.5 3.5c4.3 0.3 10.5 0.5 18.5 0.5H264.2z" class="b"/><path d="M341 53.6c8.5 0 15.7 0.1 21.5 0.3 5.8 0.2 10.6 0.8 14.4 1.7 3.8 0.9 6.7 2.4 8.8 4.5 2.1 2.1 3.6 5 4.5 8.8 0.9 3.8 1.5 8.6 1.7 14.4 0.2 5.8 0.3 13 0.3 21.5 0 8.5-0.1 15.7-0.3 21.5 -0.2 5.8-0.8 10.6-1.7 14.4 -0.9 3.8-2.4 6.7-4.5 8.8 -2.1 2.1-5 3.6-8.8 4.5 -3.8 0.9-8.6 1.5-14.4 1.7 -5.8 0.2-13 0.3-21.5 0.3 -8.5 0-15.7-0.1-21.5-0.3 -5.8-0.2-10.6-0.8-14.4-1.7 -3.8-0.9-6.7-2.4-8.8-4.5 -2.1-2.1-3.6-5-4.5-8.8 -0.9-3.8-1.5-8.6-1.7-14.4 -0.2-5.8-0.3-13-0.3-21.5 0-8.5 0.1-15.7 0.3-21.5 0.2-5.8 0.8-10.6 1.7-14.4 0.9-3.8 2.4-6.7 4.5-8.8 2.1-2.1 5-3.6 8.8-4.5 3.8-0.9 8.6-1.5 14.4-1.7C325.3 53.7 332.4 53.6 341 53.6zM373 104.8c0-8-0.2-14.2-0.5-18.5 -0.3-4.3-1.5-7.5-3.5-9.5s-5.2-3.2-9.5-3.5c-4.3-0.3-10.5-0.5-18.5-0.5s-14.2 0.2-18.5 0.5c-4.3 0.3-7.5 1.5-9.5 3.5s-3.2 5.2-3.5 9.5c-0.3 4.3-0.5 10.5-0.5 18.5s0.2 14.2 0.5 18.5c0.3 4.3 1.5 7.5 3.5 9.5s5.2 3.2 9.5 3.5c4.3 0.3 10.5 0.5 18.5 0.5s14.2-0.2 18.5-0.5c4.3-0.3 7.5-1.5 9.5-3.5s3.2-5.2 3.5-9.5C372.8 119 373 112.8 373 104.8z" class="b"/><path d="M409 66.4c0-3.2 0.1-5.7 0.2-7.4 0.1-1.7 0.6-3 1.4-3.8 0.8-0.8 2.1-1.3 3.8-1.4 1.7-0.1 4.2-0.2 7.4-0.2h38.4c8.5 0 15.7 0.1 21.5 0.3 5.8 0.2 10.6 0.8 14.4 1.7 3.8 0.9 6.7 2.4 8.8 4.5 2.1 2.1 3.6 5 4.5 8.8 0.9 3.8 1.5 8.6 1.7 14.4 0.2 5.8 0.3 13 0.3 21.5v41.6c0 2.4-0.1 4.2-0.2 5.5 -0.1 1.3-0.5 2.2-1.1 2.8 -0.6 0.6-1.5 1-2.8 1.1 -1.3 0.1-3.1 0.2-5.5 0.2s-4.2-0.1-5.5-0.2c-1.3-0.1-2.2-0.5-2.8-1.1 -0.6-0.6-1-1.5-1.1-2.8 -0.1-1.3-0.2-3.1-0.2-5.5v-41.6c0-8-0.2-14.2-0.5-18.5 -0.3-4.3-1.5-7.5-3.5-9.5s-5.2-3.2-9.5-3.5c-4.3-0.3-10.5-0.5-18.5-0.5h-32v73.6c0 2.4-0.1 4.2-0.2 5.5 -0.1 1.3-0.5 2.2-1.1 2.8 -0.6 0.6-1.5 1-2.8 1.1 -1.3 0.1-3.1 0.2-5.5 0.2s-4.2-0.1-5.5-0.2c-1.3-0.1-2.2-0.5-2.8-1.1 -0.6-0.6-1-1.5-1.1-2.8 -0.1-1.3-0.2-3.1-0.2-5.5V66.4z" class="b"/><path d="M593 136.8c2.8 0 4.9-0.1 6.4-0.2 1.5-0.1 2.6-0.6 3.3-1.3 0.7-0.7 1.2-1.8 1.3-3.3 0.1-1.5 0.2-3.6 0.2-6.4 0-2.8-0.1-4.9-0.2-6.4 -0.1-1.5-0.6-2.6-1.3-3.3 -0.7-0.7-1.8-1.2-3.3-1.3 -1.5-0.1-3.6-0.2-6.4-0.2h-35.2c-7.6 0-13.4-0.2-17.5-0.5 -4.1-0.3-7.1-1.5-9-3.4 -1.9-1.9-3.1-4.9-3.4-9 -0.3-4.1-0.5-9.9-0.5-17.5s0.2-13.4 0.5-17.5c0.3-4.1 1.5-7.1 3.4-9 1.9-1.9 4.9-3.1 9-3.4 4.1-0.3 9.9-0.5 17.5-0.5h52.8c2.4 0 4.2 0.1 5.5 0.2 1.3 0.1 2.2 0.5 2.8 1.1 0.6 0.6 1 1.5 1.1 2.8 0.1 1.3 0.2 3.1 0.2 5.5 0 2.4-0.1 4.2-0.2 5.5 -0.1 1.3-0.5 2.2-1.1 2.8 -0.6 0.6-1.5 1-2.8 1.1 -1.3 0.1-3.1 0.2-5.5 0.2h-52.8c-2.8 0-4.9 0.1-6.4 0.2 -1.5 0.1-2.6 0.6-3.3 1.3 -0.7 0.7-1.2 1.8-1.3 3.3 -0.1 1.5-0.2 3.6-0.2 6.4s0.1 4.9 0.2 6.4c0.1 1.5 0.6 2.6 1.3 3.3 0.7 0.7 1.8 1.2 3.3 1.3 1.5 0.1 3.6 0.2 6.4 0.2h35.2c7.6 0 13.4 0.2 17.5 0.5 4.1 0.3 7.1 1.5 9 3.4 1.9 1.9 3.1 4.9 3.4 9 0.3 4.1 0.5 9.9 0.5 17.5s-0.2 13.4-0.5 17.5c-0.3 4.1-1.5 7.1-3.4 9 -1.9 1.9-4.9 3.1-9 3.4 -4.1 0.3-9.9 0.5-17.5 0.5h-56c-2.4 0-4.2-0.1-5.5-0.2 -1.3-0.1-2.2-0.5-2.8-1.1 -0.6-0.6-1-1.5-1.1-2.8 -0.1-1.3-0.2-3.1-0.2-5.5s0.1-4.2 0.2-5.5c0.1-1.3 0.5-2.2 1.1-2.8 0.6-0.6 1.5-1 2.8-1.1 1.3-0.1 3.1-0.2 5.5-0.2H593z" class="b"/><path d="M690.6 53.6c8.5 0 15.7 0.1 21.5 0.3 5.8 0.2 10.6 0.8 14.4 1.7 3.8 0.9 6.7 2.4 8.8 4.5 2.1 2.1 3.6 5 4.5 8.8 0.9 3.8 1.5 8.6 1.7 14.4 0.2 5.8 0.3 13 0.3 21.5 0 8.5-0.1 15.7-0.3 21.5 -0.2 5.8-0.8 10.6-1.7 14.4 -0.9 3.8-2.4 6.7-4.5 8.8 -2.1 2.1-5 3.6-8.8 4.5 -3.8 0.9-8.6 1.5-14.4 1.7 -5.8 0.2-13 0.3-21.5 0.3 -8.5 0-15.7-0.1-21.5-0.3 -5.8-0.2-10.6-0.8-14.4-1.7 -3.8-0.9-6.7-2.4-8.8-4.5 -2.1-2.1-3.6-5-4.5-8.8 -0.9-3.8-1.5-8.6-1.7-14.4 -0.2-5.8-0.3-13-0.3-21.5 0-8.5 0.1-15.7 0.3-21.5 0.2-5.8 0.8-10.6 1.7-14.4 0.9-3.8 2.4-6.7 4.5-8.8 2.1-2.1 5-3.6 8.8-4.5 3.8-0.9 8.6-1.5 14.4-1.7C674.9 53.7 682 53.6 690.6 53.6zM722.6 104.8c0-8-0.2-14.2-0.5-18.5 -0.3-4.3-1.5-7.5-3.5-9.5s-5.2-3.2-9.5-3.5c-4.3-0.3-10.5-0.5-18.5-0.5s-14.2 0.2-18.5 0.5c-4.3 0.3-7.5 1.5-9.5 3.5s-3.2 5.2-3.5 9.5c-0.3 4.3-0.5 10.5-0.5 18.5s0.2 14.2 0.5 18.5c0.3 4.3 1.5 7.5 3.5 9.5s5.2 3.2 9.5 3.5c4.3 0.3 10.5 0.5 18.5 0.5s14.2-0.2 18.5-0.5c4.3-0.3 7.5-1.5 9.5-3.5s3.2-5.2 3.5-9.5C722.4 119 722.6 112.8 722.6 104.8z" class="b"/><path d="M759.4 24.8c0-2.4 0.1-4.2 0.2-5.5 0.1-1.3 0.5-2.2 1.1-2.8 0.6-0.6 1.5-1 2.8-1.1 1.3-0.1 3.1-0.2 5.5-0.2 2.4 0 4.2 0.1 5.5 0.2 1.3 0.1 2.2 0.5 2.8 1.1s1 1.5 1.1 2.8c0.1 1.3 0.2 3.1 0.2 5.5v121.6c0 2.4-0.1 4.2-0.2 5.5 -0.1 1.3-0.5 2.2-1.1 2.8 -0.6 0.6-1.5 1-2.8 1.1 -1.3 0.1-3.1 0.2-5.5 0.2 -2.4 0-4.2-0.1-5.5-0.2 -1.3-0.1-2.2-0.5-2.8-1.1 -0.6-0.6-1-1.5-1.1-2.8 -0.1-1.3-0.2-3.1-0.2-5.5V24.8z" class="b"/><path d="M882.6 136.8c2.4 0 4.2 0.1 5.5 0.2 1.3 0.1 2.2 0.5 2.8 1.1 0.6 0.6 1 1.5 1.1 2.8 0.1 1.3 0.2 3.1 0.2 5.5s-0.1 4.2-0.2 5.5c-0.1 1.3-0.5 2.2-1.1 2.8 -0.6 0.6-1.5 1-2.8 1.1 -1.3 0.1-3.1 0.2-5.5 0.2h-35.2c-8.5 0-15.7-0.1-21.5-0.3 -5.8-0.2-10.6-0.8-14.4-1.7 -3.8-0.9-6.7-2.4-8.8-4.5 -2.1-2.1-3.6-5-4.5-8.8 -0.9-3.8-1.5-8.6-1.7-14.4 -0.2-5.8-0.3-13-0.3-21.5 0-8.5 0.1-15.7 0.3-21.5 0.2-5.8 0.8-10.6 1.7-14.4 0.9-3.8 2.4-6.7 4.5-8.8 2.1-2.1 5-3.6 8.8-4.5 3.8-0.9 8.6-1.5 14.4-1.7 5.8-0.2 13-0.3 21.5-0.3 8.5 0 15.7 0.1 21.5 0.3 5.8 0.2 10.6 0.8 14.4 1.7 3.8 0.9 6.7 2.4 8.8 4.4 2.1 2 3.6 4.8 4.5 8.3 0.9 3.5 1.5 8 1.7 13.4 0.2 5.4 0.3 12 0.3 19.9 0 3.2-0.1 5.7-0.2 7.4 -0.1 1.7-0.6 3-1.4 3.8 -0.8 0.8-2.1 1.3-3.8 1.4 -1.7 0.1-4.2 0.2-7.4 0.2h-70.4c0 5.6 0.1 9.9 0.4 12.9 0.3 3 1.1 5.2 2.5 6.6 1.4 1.4 3.6 2.2 6.6 2.5 3 0.3 7.3 0.4 12.9 0.4H882.6zM879.4 95.2c0-5.6-0.1-9.9-0.4-12.9 -0.3-3-1.1-5.2-2.5-6.6 -1.4-1.4-3.6-2.2-6.6-2.5 -3-0.3-7.3-0.4-12.9-0.4h-19.2c-5.6 0-9.9 0.1-12.9 0.4 -3 0.3-5.2 1.1-6.6 2.5 -1.4 1.4-2.2 3.6-2.5 6.6 -0.3 3-0.4 7.3-0.4 12.9H879.4z" class="b"/></svg>