<?xml version="1.0" encoding="utf-8"?>
<!-- Generator: Adobe Illustrator 16.0.0, SVG Export Plug-In . SVG Version: 6.00 Build 0)  -->
<!DOCTYPE svg PUBLIC "-//W3C//DTD SVG 1.1//EN" "http://www.w3.org/Graphics/SVG/1.1/DTD/svg11.dtd">
<svg version="1.1" id="Layer_1" xmlns="http://www.w3.org/2000/svg" xmlns:xlink="http://www.w3.org/1999/xlink" x="0px" y="0px"
	 width="683px" height="218px" viewBox="0 0 683 218" enable-background="new 0 0 683 218" xml:space="preserve">
<g>
	<path fill="#4C4C4D" d="M186.079,201.357c1.342,0,2.366,0.038,3.075,0.111c0.708,0.075,1.23,0.28,1.565,0.615
		c0.335,0.336,0.54,0.858,0.615,1.565c0.074,0.71,0.112,1.733,0.112,3.075s-0.038,2.367-0.112,3.075
		c-0.075,0.709-0.279,1.229-0.615,1.565c-0.335,0.335-0.858,0.541-1.565,0.614c-0.709,0.075-1.733,0.112-3.075,0.112h-16.102
		c-4.771,0-8.778-0.056-12.021-0.168c-3.243-0.111-5.926-0.428-8.051-0.95c-2.125-0.521-3.765-1.359-4.92-2.516
		c-1.157-1.155-1.996-2.796-2.516-4.92c-0.522-2.125-0.838-4.809-0.95-8.051c-0.112-3.243-0.168-7.249-0.168-12.021
		c0-4.771,0.056-8.778,0.168-12.021c0.112-3.243,0.428-5.927,0.95-8.051c0.521-2.125,1.359-3.764,2.516-4.92
		c1.155-1.155,2.795-1.994,4.92-2.517c2.125-0.521,4.808-0.838,8.051-0.95c3.243-0.111,7.249-0.168,12.021-0.168h16.102
		c1.342,0,2.366,0.039,3.075,0.112c0.708,0.075,1.23,0.279,1.565,0.615c0.335,0.335,0.54,0.857,0.615,1.565
		c0.074,0.709,0.112,1.732,0.112,3.074s-0.038,2.368-0.112,3.075c-0.075,0.709-0.279,1.23-0.615,1.565
		c-0.335,0.336-0.858,0.542-1.565,0.615c-0.709,0.075-1.733,0.111-3.075,0.111h-16.102c-4.473,0-7.922,0.095-10.343,0.28
		c-2.423,0.187-4.193,0.838-5.312,1.956s-1.771,2.891-1.957,5.312c-0.187,2.424-0.28,5.871-0.28,10.344s0.093,7.921,0.28,10.343
		c0.185,2.423,0.838,4.193,1.957,5.312s2.888,1.771,5.312,1.957c2.421,0.187,5.871,0.279,10.343,0.279H186.079z"/>
	<path fill="#4C4C4D" d="M229.017,154.841c4.77,0,8.778,0.057,12.021,0.168c3.243,0.112,5.926,0.43,8.051,0.95
		c2.125,0.522,3.763,1.361,4.92,2.517c1.155,1.156,1.994,2.795,2.516,4.92c0.521,2.124,0.838,4.808,0.95,8.051
		c0.112,3.242,0.168,7.25,0.168,12.021c0,4.771-0.056,8.777-0.168,12.021c-0.112,3.242-0.43,5.926-0.95,8.051
		c-0.522,2.124-1.361,3.765-2.516,4.92c-1.157,1.156-2.795,1.995-4.92,2.516c-2.125,0.522-4.808,0.839-8.051,0.95
		c-3.243,0.112-7.251,0.168-12.021,0.168c-4.771,0-8.778-0.056-12.021-0.168c-3.243-0.111-5.926-0.428-8.051-0.95
		c-2.125-0.521-3.765-1.359-4.92-2.516c-1.157-1.155-1.996-2.796-2.516-4.92c-0.522-2.125-0.838-4.809-0.95-8.051
		c-0.112-3.243-0.168-7.249-0.168-12.021c0-4.771,0.056-8.778,0.168-12.021c0.112-3.243,0.428-5.927,0.95-8.051
		c0.521-2.125,1.359-3.764,2.516-4.92c1.155-1.155,2.795-1.994,4.92-2.517c2.125-0.521,4.808-0.838,8.051-0.95
		C220.239,154.897,224.246,154.841,229.017,154.841z M246.908,183.467c0-4.473-0.094-7.92-0.279-10.344
		c-0.187-2.421-0.839-4.193-1.957-5.312s-2.89-1.77-5.311-1.956c-2.423-0.186-5.871-0.28-10.343-0.28s-7.922,0.095-10.343,0.28
		c-2.423,0.187-4.193,0.838-5.312,1.956s-1.771,2.891-1.957,5.312c-0.187,2.424-0.28,5.871-0.28,10.344s0.093,7.921,0.28,10.343
		c0.185,2.423,0.838,4.193,1.957,5.312s2.888,1.771,5.312,1.957c2.421,0.187,5.871,0.279,10.343,0.279s7.92-0.093,10.343-0.279
		c2.421-0.186,4.193-0.839,5.311-1.957s1.77-2.889,1.957-5.312C246.813,191.388,246.908,187.939,246.908,183.467z"/>
	<path fill="#4C4C4D" d="M267.035,161.997c0-1.789,0.037-3.167,0.112-4.137c0.073-0.968,0.335-1.678,0.783-2.125
		s1.155-0.707,2.125-0.782c0.968-0.073,2.348-0.112,4.137-0.112h21.469c4.77,0,8.778,0.057,12.021,0.168
		c3.243,0.112,5.926,0.43,8.051,0.95c2.125,0.522,3.763,1.361,4.92,2.517c1.155,1.156,1.994,2.795,2.516,4.92
		c0.521,2.124,0.838,4.808,0.95,8.051c0.112,3.242,0.168,7.25,0.168,12.021v23.258c0,1.342-0.039,2.367-0.112,3.075
		c-0.075,0.709-0.28,1.229-0.615,1.565c-0.335,0.335-0.858,0.541-1.565,0.614c-0.709,0.075-1.733,0.112-3.075,0.112
		c-1.342,0-2.367-0.037-3.075-0.112c-0.709-0.073-1.23-0.279-1.565-0.614c-0.335-0.336-0.542-0.856-0.615-1.565
		c-0.075-0.708-0.112-1.733-0.112-3.075v-23.258c0-4.473-0.094-7.92-0.279-10.344c-0.187-2.421-0.839-4.193-1.957-5.312
		s-2.89-1.77-5.311-1.956c-2.423-0.186-5.871-0.28-10.343-0.28h-17.891v41.149c0,1.342-0.038,2.367-0.112,3.075
		c-0.075,0.709-0.279,1.229-0.615,1.565c-0.335,0.335-0.858,0.541-1.565,0.614c-0.709,0.075-1.733,0.112-3.075,0.112
		s-2.367-0.037-3.075-0.112c-0.709-0.073-1.23-0.279-1.565-0.614c-0.335-0.336-0.542-0.856-0.615-1.565
		c-0.075-0.708-0.112-1.733-0.112-3.075V161.997z"/>
	<path fill="#4C4C4D" d="M369.906,201.357c1.566,0,2.758-0.037,3.578-0.112c0.82-0.073,1.434-0.315,1.846-0.727
		c0.408-0.409,0.65-1.023,0.727-1.845c0.072-0.819,0.111-2.013,0.111-3.578s-0.039-2.757-0.111-3.578
		c-0.076-0.819-0.318-1.435-0.727-1.846c-0.412-0.408-1.025-0.651-1.846-0.727c-0.82-0.073-2.012-0.111-3.578-0.111h-19.68
		c-4.25,0-7.511-0.093-9.784-0.28c-2.275-0.185-3.952-0.819-5.032-1.9c-1.082-1.08-1.716-2.757-1.901-5.032
		c-0.187-2.272-0.28-5.534-0.28-9.784c0-4.249,0.093-7.509,0.28-9.783c0.185-2.273,0.819-3.951,1.901-5.032
		c1.08-1.08,2.757-1.714,5.032-1.9c2.273-0.186,5.535-0.28,9.784-0.28h29.52c1.342,0,2.365,0.039,3.074,0.112
		c0.709,0.075,1.23,0.279,1.566,0.615c0.336,0.335,0.539,0.857,0.615,1.565c0.072,0.709,0.111,1.732,0.111,3.074
		s-0.039,2.368-0.111,3.075c-0.076,0.709-0.279,1.23-0.615,1.565c-0.336,0.336-0.857,0.542-1.566,0.615
		c-0.709,0.075-1.732,0.111-3.074,0.111h-29.52c-1.565,0-2.759,0.039-3.579,0.112c-0.821,0.075-1.436,0.318-1.845,0.727
		c-0.411,0.411-0.653,1.025-0.727,1.845c-0.075,0.821-0.112,2.013-0.112,3.578s0.037,2.759,0.112,3.579
		c0.074,0.82,0.316,1.436,0.727,1.845c0.409,0.41,1.024,0.653,1.845,0.727c0.82,0.075,2.013,0.112,3.579,0.112h19.68
		c4.25,0,7.51,0.094,9.783,0.279c2.273,0.187,3.951,0.821,5.033,1.9c1.08,1.082,1.713,2.759,1.9,5.032
		c0.186,2.274,0.279,5.535,0.279,9.784s-0.094,7.511-0.279,9.784c-0.188,2.274-0.82,3.952-1.9,5.031
		c-1.082,1.082-2.76,1.716-5.033,1.901c-2.273,0.187-5.533,0.279-9.783,0.279h-31.309c-1.342,0-2.367-0.037-3.075-0.112
		c-0.709-0.073-1.23-0.279-1.565-0.614c-0.335-0.336-0.542-0.856-0.615-1.565c-0.075-0.708-0.112-1.733-0.112-3.075
		s0.037-2.365,0.112-3.075c0.073-0.707,0.28-1.229,0.615-1.565c0.335-0.335,0.856-0.54,1.565-0.615
		c0.708-0.073,1.733-0.111,3.075-0.111H369.906z"/>
	<path fill="#4C4C4D" d="M424.473,154.841c4.771,0,8.778,0.057,12.021,0.168c3.243,0.112,5.927,0.43,8.051,0.95
		c2.125,0.522,3.764,1.361,4.921,2.517c1.154,1.156,1.993,2.795,2.516,4.92c0.521,2.124,0.839,4.808,0.95,8.051
		c0.112,3.242,0.168,7.25,0.168,12.021c0,4.771-0.056,8.777-0.168,12.021c-0.111,3.242-0.43,5.926-0.95,8.051
		c-0.522,2.124-1.361,3.765-2.516,4.92c-1.157,1.156-2.796,1.995-4.921,2.516c-2.124,0.522-4.808,0.839-8.051,0.95
		c-3.242,0.112-7.25,0.168-12.021,0.168c-4.771,0-8.777-0.056-12.02-0.168c-3.243-0.111-5.927-0.428-8.052-0.95
		c-2.124-0.521-3.765-1.359-4.92-2.516c-1.156-1.155-1.995-2.796-2.516-4.92c-0.522-2.125-0.839-4.809-0.95-8.051
		c-0.112-3.243-0.168-7.249-0.168-12.021c0-4.771,0.056-8.778,0.168-12.021c0.111-3.243,0.428-5.927,0.95-8.051
		c0.521-2.125,1.359-3.764,2.516-4.92c1.155-1.155,2.796-1.994,4.92-2.517c2.125-0.521,4.809-0.838,8.052-0.95
		C415.695,154.897,419.701,154.841,424.473,154.841z M442.364,183.467c0-4.473-0.095-7.92-0.28-10.344
		c-0.187-2.421-0.838-4.193-1.956-5.312s-2.891-1.77-5.312-1.956c-2.424-0.186-5.871-0.28-10.344-0.28s-7.921,0.095-10.343,0.28
		c-2.423,0.187-4.193,0.838-5.312,1.956s-1.771,2.891-1.957,5.312c-0.187,2.424-0.279,5.871-0.279,10.344s0.093,7.921,0.279,10.343
		c0.186,2.423,0.839,4.193,1.957,5.312s2.889,1.771,5.312,1.957c2.422,0.187,5.87,0.279,10.343,0.279s7.92-0.093,10.344-0.279
		c2.421-0.186,4.193-0.839,5.312-1.957s1.77-2.889,1.956-5.312C442.27,191.388,442.364,187.939,442.364,183.467z"/>
	<path fill="#4C4C4D" d="M462.938,138.739c0-1.342,0.037-2.365,0.112-3.075c0.073-0.707,0.279-1.229,0.614-1.565
		c0.336-0.335,0.856-0.54,1.565-0.615c0.708-0.073,1.733-0.111,3.075-0.111s2.366,0.038,3.075,0.111
		c0.708,0.075,1.229,0.28,1.565,0.615c0.335,0.336,0.54,0.858,0.615,1.565c0.073,0.71,0.111,1.733,0.111,3.075v67.985
		c0,1.342-0.038,2.367-0.111,3.075c-0.075,0.709-0.28,1.229-0.615,1.565c-0.336,0.335-0.857,0.541-1.565,0.614
		c-0.709,0.075-1.733,0.112-3.075,0.112s-2.367-0.037-3.075-0.112c-0.709-0.073-1.229-0.279-1.565-0.614
		c-0.335-0.336-0.541-0.856-0.614-1.565c-0.075-0.708-0.112-1.733-0.112-3.075V138.739z"/>
	<path fill="#4C4C4D" d="M531.816,201.357c1.342,0,2.365,0.038,3.074,0.111c0.708,0.075,1.23,0.28,1.565,0.615
		c0.336,0.336,0.54,0.858,0.615,1.565c0.073,0.71,0.112,1.733,0.112,3.075s-0.039,2.367-0.112,3.075
		c-0.075,0.709-0.279,1.229-0.615,1.565c-0.335,0.335-0.857,0.541-1.565,0.614c-0.709,0.075-1.732,0.112-3.074,0.112h-19.681
		c-4.771,0-8.777-0.056-12.02-0.168c-3.243-0.111-5.927-0.428-8.052-0.95c-2.124-0.521-3.765-1.359-4.92-2.516
		c-1.156-1.155-1.995-2.796-2.516-4.92c-0.522-2.125-0.839-4.809-0.95-8.051c-0.112-3.243-0.168-7.249-0.168-12.021
		c0-4.771,0.056-8.778,0.168-12.021c0.111-3.243,0.428-5.927,0.95-8.051c0.521-2.125,1.359-3.764,2.516-4.92
		c1.155-1.155,2.796-1.994,4.92-2.517c2.125-0.521,4.809-0.838,8.052-0.95c3.242-0.111,7.248-0.168,12.02-0.168
		c4.771,0,8.778,0.057,12.021,0.168c3.243,0.112,5.927,0.43,8.051,0.95c2.125,0.522,3.764,1.342,4.921,2.46
		c1.154,1.118,1.993,2.666,2.516,4.641c0.521,1.977,0.839,4.473,0.95,7.492c0.112,3.019,0.168,6.728,0.168,11.126
		c0,1.789-0.039,3.169-0.112,4.137c-0.075,0.97-0.335,1.678-0.782,2.125s-1.157,0.709-2.125,0.782
		c-0.97,0.075-2.348,0.112-4.137,0.112h-39.36c0,3.131,0.073,5.535,0.224,7.212c0.148,1.678,0.615,2.907,1.397,3.69
		c0.783,0.782,2.013,1.249,3.69,1.397c1.678,0.15,4.081,0.224,7.212,0.224H531.816z M530.027,178.1c0-3.131-0.075-5.535-0.224-7.213
		c-0.15-1.677-0.615-2.907-1.398-3.689c-0.782-0.783-2.013-1.248-3.689-1.398c-1.678-0.148-4.081-0.224-7.213-0.224h-10.734
		c-3.131,0-5.534,0.075-7.212,0.224c-1.678,0.15-2.907,0.615-3.69,1.398c-0.782,0.782-1.249,2.013-1.397,3.689
		c-0.15,1.678-0.224,4.082-0.224,7.213H530.027z"/>
</g>
<g>
	<path fill="#E23C26" d="M5.996,14.691c0-2.194,0.045-3.885,0.137-5.074c0.09-1.187,0.412-2.057,0.96-2.605
		c0.549-0.548,1.416-0.866,2.605-0.959c1.187-0.091,2.88-0.138,5.074-0.138h42.786c6.857,0,12.137,0.138,15.839,0.412
		s6.398,1.213,8.091,2.811c1.691,1.601,2.696,4.093,3.018,7.474c0.32,3.383,0.479,8.229,0.479,14.536
		c0,6.309-0.16,11.156-0.479,14.538c-0.321,3.383-1.326,5.873-3.018,7.474c-1.693,1.601-4.388,2.536-8.091,2.811
		s-8.937,0.411-15.702,0.411l25.645,25.645c1.187,1.189,2.079,2.105,2.673,2.743c0.594,0.642,0.892,1.282,0.892,1.921
		c0,0.457-0.343,1.12-1.028,1.987c-0.685,0.87-1.509,1.762-2.469,2.674c-0.959,0.917-1.898,1.714-2.811,2.4
		c-0.916,0.687-1.555,1.029-1.92,1.029c-0.549,0-1.166-0.298-1.852-0.892c-0.686-0.594-1.577-1.44-2.673-2.538l-34.971-34.97H19.161
		V87.1c0,1.646-0.047,2.903-0.137,3.771c-0.092,0.871-0.342,1.508-0.754,1.92c-0.412,0.411-1.052,0.663-1.92,0.755
		c-0.87,0.092-2.125,0.136-3.771,0.136c-1.646,0-2.904-0.044-3.771-0.136c-0.871-0.092-1.509-0.344-1.92-0.755
		c-0.411-0.412-0.664-1.049-0.754-1.92c-0.092-0.868-0.137-2.125-0.137-3.771V14.691z M57.559,43.217
		c3.566,0,6.309-0.069,8.229-0.206c1.92-0.138,3.312-0.594,4.183-1.371c0.868-0.775,1.393-1.966,1.577-3.566
		c0.182-1.598,0.273-3.908,0.273-6.926c0-3.016-0.092-5.325-0.273-6.925c-0.185-1.6-0.709-2.787-1.577-3.566
		c-0.871-0.774-2.263-1.232-4.183-1.37s-4.663-0.205-8.229-0.205H19.161v24.136H57.559z"/>
	<path fill="#E23C26" d="M155.199,80.518c1.645,0,2.902,0.048,3.771,0.137c0.867,0.092,1.509,0.343,1.92,0.755
		c0.411,0.411,0.661,1.052,0.754,1.919c0.089,0.87,0.137,2.126,0.137,3.771c0,1.646-0.048,2.903-0.137,3.771
		c-0.093,0.871-0.343,1.508-0.754,1.92c-0.411,0.411-1.053,0.663-1.92,0.755c-0.87,0.092-2.126,0.136-3.771,0.136h-24.136
		c-5.852,0-10.765-0.067-14.742-0.205c-3.977-0.138-7.268-0.525-9.874-1.166c-2.605-0.639-4.618-1.667-6.034-3.085
		c-1.419-1.416-2.446-3.429-3.085-6.034c-0.64-2.604-1.027-5.896-1.165-9.873c-0.138-3.978-0.207-8.891-0.207-14.743
		c0-5.849,0.068-10.765,0.207-14.741c0.137-3.977,0.525-7.269,1.165-9.874c0.64-2.606,1.667-4.616,3.085-6.034
		c1.417-1.416,3.429-2.445,6.034-3.086c2.606-0.639,5.897-1.028,9.874-1.166c3.977-0.137,8.89-0.205,14.742-0.205
		c5.85,0,10.767,0.068,14.742,0.205c3.978,0.138,7.269,0.527,9.874,1.166c2.606,0.641,4.616,1.646,6.035,3.017
		c1.416,1.371,2.444,3.271,3.085,5.692c0.639,2.422,1.028,5.485,1.166,9.187c0.137,3.704,0.206,8.253,0.206,13.646
		c0,2.194-0.047,3.887-0.137,5.074c-0.092,1.189-0.411,2.058-0.959,2.606c-0.549,0.549-1.419,0.87-2.605,0.959
		c-1.19,0.093-2.88,0.137-5.074,0.137h-48.272c0,3.841,0.09,6.789,0.274,8.846c0.182,2.058,0.754,3.566,1.714,4.525
		c0.96,0.961,2.469,1.533,4.525,1.715c2.057,0.185,5.005,0.274,8.846,0.274H155.199z M153.005,51.993
		c0-3.839-0.092-6.789-0.273-8.846c-0.186-2.057-0.755-3.564-1.714-4.525c-0.961-0.96-2.469-1.53-4.525-1.714
		c-2.058-0.184-5.007-0.274-8.847-0.274H124.48c-3.841,0-6.789,0.091-8.846,0.274c-2.056,0.184-3.565,0.754-4.525,1.714
		c-0.96,0.961-1.532,2.469-1.714,4.525c-0.184,2.057-0.274,5.007-0.274,8.846H153.005z"/>
	<path fill="#E23C26" d="M222.121,80.518c1.92,0,3.382-0.046,4.389-0.138c1.005-0.09,1.759-0.389,2.263-0.891
		c0.501-0.502,0.799-1.256,0.891-2.264c0.09-1.005,0.137-2.468,0.137-4.388s-0.047-3.383-0.137-4.389
		c-0.092-1.005-0.39-1.759-0.891-2.262c-0.504-0.502-1.258-0.8-2.263-0.893c-1.007-0.09-2.469-0.138-4.389-0.138h-24.137
		c-5.211,0-9.211-0.113-11.998-0.342c-2.791-0.228-4.848-1.005-6.172-2.331c-1.326-1.324-2.104-3.381-2.332-6.173
		c-0.229-2.786-0.343-6.787-0.343-11.998s0.114-9.21,0.343-12.001c0.227-2.786,1.006-4.844,2.332-6.17
		c1.324-1.324,3.382-2.101,6.172-2.331c2.786-0.228,6.787-0.343,11.998-0.343h36.205c1.646,0,2.901,0.048,3.772,0.136
		c0.867,0.094,1.508,0.345,1.919,0.756c0.411,0.412,0.663,1.052,0.755,1.92c0.09,0.868,0.137,2.124,0.137,3.771
		c0,1.646-0.047,2.904-0.137,3.771c-0.092,0.871-0.344,1.508-0.755,1.92c-0.411,0.411-1.052,0.664-1.919,0.754
		c-0.871,0.093-2.126,0.138-3.772,0.138h-36.205c-1.919,0-3.383,0.047-4.388,0.138c-1.007,0.092-1.762,0.389-2.263,0.891
		c-0.503,0.504-0.802,1.258-0.891,2.263c-0.093,1.007-0.137,2.469-0.137,4.389s0.044,3.383,0.137,4.388
		c0.089,1.008,0.388,1.762,0.891,2.264c0.501,0.503,1.256,0.801,2.263,0.891c1.005,0.094,2.468,0.138,4.388,0.138h24.137
		c5.211,0,9.21,0.115,11.999,0.343c2.788,0.229,4.845,1.007,6.171,2.331c1.325,1.326,2.103,3.384,2.333,6.172
		c0.227,2.79,0.342,6.789,0.342,11.999c0,5.211-0.115,9.213-0.342,11.998c-0.23,2.792-1.008,4.849-2.333,6.172
		c-1.326,1.326-3.383,2.104-6.171,2.331c-2.789,0.229-6.788,0.343-11.999,0.343h-38.399c-1.646,0-2.903-0.044-3.771-0.136
		c-0.87-0.092-1.508-0.344-1.92-0.755c-0.412-0.412-0.665-1.049-0.755-1.92c-0.091-0.868-0.137-2.125-0.137-3.771
		c0-1.646,0.046-2.901,0.137-3.771c0.09-0.867,0.343-1.508,0.755-1.919c0.412-0.412,1.05-0.663,1.92-0.755
		c0.867-0.089,2.125-0.137,3.771-0.137H222.121z"/>
	<path fill="#E23C26" d="M269.296,36.634h-13.165c-1.646,0-2.903-0.045-3.771-0.138c-0.871-0.09-1.509-0.343-1.921-0.754
		c-0.412-0.412-0.665-1.049-0.753-1.92c-0.093-0.867-0.138-2.126-0.138-3.771c0-1.646,0.045-2.902,0.138-3.771
		c0.089-0.868,0.342-1.508,0.753-1.92c0.412-0.411,1.05-0.662,1.921-0.756c0.867-0.088,2.125-0.136,3.771-0.136h13.165V12.497
		c0-1.646,0.045-2.9,0.137-3.771c0.09-0.867,0.343-1.508,0.755-1.919c0.411-0.412,1.048-0.661,1.919-0.754
		c0.868-0.091,2.125-0.138,3.771-0.138c1.646,0,2.901,0.047,3.771,0.138c0.867,0.093,1.509,0.342,1.92,0.754
		c0.411,0.411,0.662,1.052,0.754,1.919c0.089,0.871,0.136,2.126,0.136,3.771v10.972h13.166c1.646,0,2.902,0.048,3.771,0.136
		c0.868,0.094,1.508,0.345,1.92,0.756c0.411,0.412,0.662,1.052,0.753,1.92c0.09,0.868,0.137,2.124,0.137,3.771
		c0,1.646-0.047,2.904-0.137,3.771c-0.092,0.871-0.343,1.508-0.753,1.92c-0.413,0.411-1.052,0.664-1.92,0.754
		c-0.87,0.093-2.126,0.138-3.771,0.138h-13.166V87.1c0,1.646-0.047,2.903-0.136,3.771c-0.092,0.871-0.343,1.508-0.754,1.92
		c-0.411,0.411-1.053,0.663-1.92,0.755c-0.871,0.092-2.125,0.136-3.771,0.136c-1.646,0-2.903-0.044-3.771-0.136
		c-0.871-0.092-1.508-0.344-1.919-0.755c-0.412-0.412-0.666-1.049-0.755-1.92c-0.092-0.868-0.137-2.125-0.137-3.771V36.634z"/>
	<path fill="#E23C26" d="M365.839,80.518c1.646,0,2.902,0.048,3.773,0.137c0.867,0.092,1.507,0.343,1.919,0.755
		c0.41,0.411,0.661,1.052,0.753,1.919c0.09,0.87,0.138,2.126,0.138,3.771c0,1.646-0.048,2.903-0.138,3.771
		c-0.092,0.871-0.343,1.508-0.753,1.92c-0.412,0.411-1.052,0.663-1.919,0.755c-0.871,0.092-2.127,0.136-3.773,0.136h-19.747
		c-5.852,0-10.765-0.067-14.743-0.205c-3.976-0.138-7.268-0.525-9.873-1.166c-2.606-0.639-4.618-1.667-6.035-3.085
		c-1.418-1.416-2.447-3.429-3.085-6.034c-0.64-2.604-1.028-5.896-1.165-9.873c-0.138-3.978-0.207-8.891-0.207-14.743
		c0-5.849,0.069-10.765,0.207-14.741c0.137-3.977,0.525-7.269,1.165-9.874c0.639-2.606,1.667-4.616,3.085-6.034
		c1.417-1.416,3.428-2.445,6.035-3.086c2.605-0.639,5.897-1.028,9.873-1.166c3.978-0.137,8.891-0.205,14.743-0.205h19.747
		c1.646,0,2.902,0.048,3.773,0.136c0.867,0.094,1.507,0.345,1.919,0.756c0.41,0.412,0.661,1.052,0.753,1.92
		c0.09,0.868,0.138,2.124,0.138,3.771c0,1.646-0.048,2.904-0.138,3.771c-0.092,0.871-0.343,1.508-0.753,1.92
		c-0.412,0.411-1.052,0.664-1.919,0.754c-0.871,0.093-2.127,0.138-3.773,0.138h-19.747c-5.486,0-9.716,0.116-12.686,0.342
		c-2.972,0.23-5.143,1.028-6.513,2.4c-1.372,1.371-2.173,3.545-2.4,6.515c-0.229,2.972-0.342,7.199-0.342,12.685
		c0,5.486,0.114,9.716,0.342,12.685c0.227,2.974,1.028,5.144,2.4,6.515c1.37,1.372,3.542,2.173,6.513,2.399
		c2.97,0.229,7.2,0.344,12.686,0.344H365.839z"/>
	<path fill="#E23C26" d="M418.501,23.469c5.85,0,10.766,0.068,14.741,0.205c3.978,0.138,7.27,0.527,9.875,1.166
		c2.604,0.641,4.616,1.67,6.034,3.086c1.416,1.418,2.445,3.428,3.085,6.034c0.639,2.605,1.028,5.897,1.165,9.874
		s0.206,8.893,0.206,14.741c0,5.853-0.068,10.766-0.206,14.743c-0.137,3.977-0.526,7.269-1.165,9.873
		c-0.641,2.605-1.67,4.618-3.085,6.034c-1.418,1.418-3.43,2.446-6.034,3.085c-2.606,0.641-5.897,1.028-9.875,1.166
		c-3.975,0.138-8.891,0.205-14.741,0.205c-5.852,0-10.766-0.067-14.743-0.205s-7.268-0.525-9.874-1.166
		c-2.605-0.639-4.618-1.667-6.034-3.085c-1.418-1.416-2.446-3.429-3.085-6.034c-0.641-2.604-1.027-5.896-1.165-9.873
		c-0.138-3.978-0.206-8.891-0.206-14.743c0-5.849,0.068-10.765,0.206-14.741s0.524-7.269,1.165-9.874
		c0.64-2.606,1.667-4.616,3.085-6.034c1.417-1.416,3.429-2.445,6.034-3.086c2.606-0.639,5.897-1.028,9.874-1.166
		C407.735,23.537,412.649,23.469,418.501,23.469z M440.443,58.575c0-5.485-0.116-9.713-0.342-12.685
		c-0.231-2.97-1.03-5.144-2.401-6.515c-1.372-1.372-3.543-2.17-6.514-2.4c-2.972-0.226-7.2-0.342-12.685-0.342
		c-5.485,0-9.715,0.116-12.685,0.342c-2.973,0.23-5.144,1.028-6.515,2.4c-1.371,1.371-2.173,3.545-2.4,6.515
		c-0.229,2.972-0.343,7.199-0.343,12.685c0,5.486,0.113,9.716,0.343,12.685c0.227,2.974,1.029,5.144,2.4,6.515
		c1.371,1.372,3.542,2.173,6.515,2.399c2.969,0.229,7.199,0.344,12.685,0.344c5.485,0,9.713-0.114,12.685-0.344
		c2.971-0.227,5.143-1.027,6.514-2.399c1.372-1.371,2.17-3.541,2.401-6.515C440.327,68.291,440.443,64.062,440.443,58.575z"/>
	<path fill="#E23C26" d="M465.126,32.245c0-2.194,0.044-3.885,0.138-5.074c0.088-1.187,0.412-2.057,0.96-2.604
		c0.548-0.551,1.416-0.868,2.605-0.962c1.186-0.088,2.879-0.136,5.075-0.136h61.437c5.118,0,9.415,0.048,12.891,0.136
		c3.475,0.094,6.354,0.438,8.64,1.03c2.284,0.596,4.046,1.508,5.278,2.743c1.236,1.233,2.148,2.994,2.745,5.278
		c0.591,2.286,0.935,5.19,1.029,8.707c0.088,3.522,0.136,7.797,0.136,12.823V87.1c0,1.646-0.048,2.903-0.136,3.771
		c-0.095,0.871-0.344,1.508-0.757,1.92c-0.41,0.411-1.052,0.663-1.919,0.755c-0.871,0.092-2.125,0.136-3.771,0.136
		c-1.646,0-2.902-0.044-3.771-0.136s-1.509-0.344-1.919-0.755c-0.411-0.412-0.665-1.049-0.755-1.92
		c-0.093-0.868-0.138-2.125-0.138-3.771V54.187c0-4.388-0.093-7.769-0.275-10.147c-0.183-2.376-0.82-4.114-1.918-5.211
		s-2.835-1.736-5.211-1.92c-2.379-0.184-5.761-0.274-10.148-0.274h-13.165V87.1c0,1.646-0.049,2.903-0.137,3.771
		c-0.092,0.871-0.343,1.508-0.755,1.92c-0.412,0.411-1.052,0.663-1.919,0.755c-0.872,0.092-2.127,0.136-3.772,0.136
		s-2.902-0.044-3.772-0.136c-0.869-0.092-1.507-0.344-1.919-0.755c-0.41-0.412-0.665-1.049-0.754-1.92
		c-0.092-0.868-0.138-2.125-0.138-3.771V36.634h-30.718V87.1c0,1.646-0.047,2.903-0.136,3.771c-0.092,0.871-0.344,1.508-0.755,1.92
		c-0.411,0.411-1.052,0.663-1.92,0.755c-0.87,0.092-2.125,0.136-3.772,0.136c-1.645,0-2.902-0.044-3.771-0.136
		c-0.868-0.092-1.508-0.344-1.919-0.755c-0.41-0.412-0.665-1.049-0.753-1.92c-0.094-0.868-0.138-2.125-0.138-3.771V32.245z"/>
	<path fill="#E23C26" d="M577.577,32.245c0-2.194,0.045-3.885,0.139-5.074c0.089-1.187,0.41-2.057,0.959-2.604
		c0.55-0.551,1.416-0.868,2.605-0.962c1.187-0.088,2.881-0.136,5.073-0.136h61.438c5.12,0,9.416,0.048,12.892,0.136
		c3.474,0.094,6.353,0.438,8.641,1.03c2.284,0.596,4.045,1.508,5.279,2.743c1.233,1.233,2.147,2.994,2.741,5.278
		c0.595,2.286,0.938,5.19,1.028,8.707c0.092,3.522,0.14,7.797,0.14,12.823V87.1c0,1.646-0.048,2.903-0.14,3.771
		c-0.091,0.871-0.342,1.508-0.752,1.92c-0.412,0.411-1.052,0.663-1.921,0.755s-2.125,0.136-3.771,0.136
		c-1.646,0-2.904-0.044-3.77-0.136c-0.871-0.092-1.51-0.344-1.922-0.755c-0.411-0.412-0.664-1.049-0.754-1.92
		c-0.093-0.868-0.137-2.125-0.137-3.771V54.187c0-4.388-0.092-7.769-0.274-10.147c-0.186-2.376-0.822-4.114-1.92-5.211
		s-2.835-1.736-5.211-1.92c-2.379-0.184-5.761-0.274-10.149-0.274h-13.164V87.1c0,1.646-0.047,2.903-0.138,3.771
		c-0.091,0.871-0.342,1.508-0.754,1.92c-0.411,0.411-1.051,0.663-1.92,0.755c-0.87,0.092-2.124,0.136-3.771,0.136
		c-1.646,0-2.902-0.044-3.771-0.136c-0.869-0.092-1.509-0.344-1.921-0.755c-0.41-0.412-0.665-1.049-0.753-1.92
		c-0.093-0.868-0.139-2.125-0.139-3.771V36.634h-30.718V87.1c0,1.646-0.047,2.903-0.138,3.771c-0.091,0.871-0.342,1.508-0.753,1.92
		c-0.412,0.411-1.052,0.663-1.921,0.755c-0.87,0.092-2.125,0.136-3.771,0.136s-2.904-0.044-3.772-0.136
		c-0.869-0.092-1.507-0.344-1.919-0.755c-0.412-0.412-0.665-1.049-0.754-1.92c-0.094-0.868-0.139-2.125-0.139-3.771V32.245z"/>
</g>
</svg>
